<svg xmlns="http://www.w3.org/2000/svg" viewBox="0 -1000 1000 1000">
	<path fill="#000000" d="M549 -587V-435Q548 -431 532.5 -413Q517 -395 485 -374.5Q453 -354 421 -354H321Q289 -354 244.5 -382Q200 -410 168 -410Q145 -410 115.5 -396Q86 -382 68 -368L50 -354V-506Q114 -562 164 -562Q197 -562 244 -534.5Q291 -507 324 -507Q369 -507 413 -507Q444 -507 478 -527Q512 -547 530 -567Z"/>
	<path fill="#2200f5" d="M549 -577V-425Q548 -421 532.5 -403Q517 -385 485 -364.5Q453 -344 421 -344H321Q289 -344 244.5 -372Q200 -400 168 -400Q145 -400 115.5 -386Q86 -372 68 -358L50 -344V-496Q114 -552 164 -552Q197 -552 244 -524.5Q291 -497 324 -497Q369 -497 413 -497Q444 -497 478 -517Q512 -537 530 -557Z"/>
</svg>