<svg xmlns="http://www.w3.org/2000/svg" viewBox="0 -1000 1000 1000">
	<path fill="#000000" d="M202 -790Q208 -790 220 -790Q327 -790 402.5 -714.5Q478 -639 478 -532Q478 -509 464 -487Q450 -465 425.5 -439Q401 -413 395 -406Q397 -404 427.5 -372Q458 -340 471 -317.5Q484 -295 484 -270Q484 -163 408.5 -88Q333 -13 226 -13Q210 -13 202 -14H50V-790ZM202 -146Q214 -143 226 -143Q271 -143 302 -174Q333 -205 333 -249Q333 -294 302 -325Q271 -356 226 -356Q214 -356 202 -353ZM202 -464Q214 -461 226 -461Q271 -461 302 -492Q333 -523 333 -567Q333 -612 302 -643Q271 -674 226 -674Q214 -674 202 -671Z"/>
	<path fill="#2200f5" d="M202 -780Q208 -780 220 -780Q327 -780 402.5 -704.5Q478 -629 478 -522Q478 -499 464 -477Q450 -455 425.5 -429Q401 -403 395 -396Q397 -394 427.5 -362Q458 -330 471 -307.5Q484 -285 484 -260Q484 -153 408.5 -78Q333 -3 226 -3Q210 -3 202 -4H50V-780ZM202 -136Q214 -133 226 -133Q271 -133 302 -164Q333 -195 333 -239Q333 -284 302 -315Q271 -346 226 -346Q214 -346 202 -343ZM202 -454Q214 -451 226 -451Q271 -451 302 -482Q333 -513 333 -557Q333 -602 302 -633Q271 -664 226 -664Q214 -664 202 -661Z"/>
</svg>