<svg xmlns="http://www.w3.org/2000/svg" viewBox="0 -1000 1000 1000">
	<path fill="#000000" d="M451 75Q436 82 414 82Q370 82 335.5 40Q301 -2 289 -68L288 -238L179 -368L288 -495L289 -665Q301 -731 335.5 -773Q370 -815 414 -815Q436 -815 451 -808V-673Q435 -694 414 -694Q390 -694 373 -664L374 -480L292 -379L373 -238V-68Q389 -39 414 -39Q435 -39 451 -60Z"/>
	<path fill="#2200f5" d="M451 85Q436 92 414 92Q370 92 335.5 50Q301 8 289 -58L288 -228L179 -358L288 -485L289 -655Q301 -721 335.5 -763Q370 -805 414 -805Q436 -805 451 -798V-663Q435 -684 414 -684Q390 -684 373 -654L374 -470L292 -369L373 -228V-58Q389 -29 414 -29Q435 -29 451 -50Z"/>
</svg>