<svg xmlns="http://www.w3.org/2000/svg" viewBox="0 -1000 1000 1000">
	<path fill="#000000" d="M179 238V161Q187 163 192 163Q215 163 230.5 147.5Q246 132 246 110Q246 88 230 72Q214 56 192 56Q187 56 179 58V-19H192Q246 -19 283.5 18.5Q321 56 321 110Q321 163 283.5 200.5Q246 238 192 238Z"/>
	<path fill="#2200f5" d="M179 248V171Q187 173 192 173Q215 173 230.5 157.5Q246 142 246 120Q246 98 230 82Q214 66 192 66Q187 66 179 68V-9H192Q246 -9 283.5 28.5Q321 66 321 120Q321 173 283.5 210.5Q246 248 192 248Z"/>
</svg>