<svg xmlns="http://www.w3.org/2000/svg" viewBox="0 -1000 1000 1000">
	<path fill="#000000" d="M493 -206Q485 -205 477 -205Q410 -205 363 -252Q316 -299 316 -365Q316 -432 363 -479.5Q410 -527 477 -527Q485 -527 493 -526V-430Q485 -432 477 -432Q449 -432 429.5 -413Q410 -394 410 -365Q410 -338 429.5 -318.5Q449 -299 477 -299Q485 -299 493 -301ZM780 -390Q780 -292 733.5 -209.5Q687 -127 607 -79Q527 -31 432 -31Q337 -31 257 -79Q177 -127 130.5 -209.5Q84 -292 84 -390Q84 -487 130.5 -569.5Q177 -652 257 -700Q337 -748 432 -748Q527 -748 607 -700Q687 -652 733.5 -569.5Q780 -487 780 -390ZM725 -388Q725 -512 639.5 -600Q554 -688 432 -688Q310 -688 224.5 -600Q139 -512 139 -388Q139 -263 224.5 -175Q310 -87 432 -87Q554 -87 639.5 -175Q725 -263 725 -388Z"/>
	<path fill="#2200f5" d="M493 -196Q485 -195 477 -195Q410 -195 363 -242Q316 -289 316 -355Q316 -422 363 -469.5Q410 -517 477 -517Q485 -517 493 -516V-420Q485 -422 477 -422Q449 -422 429.5 -403Q410 -384 410 -355Q410 -328 429.5 -308.5Q449 -289 477 -289Q485 -289 493 -291ZM780 -380Q780 -282 733.5 -199.5Q687 -117 607 -69Q527 -21 432 -21Q337 -21 257 -69Q177 -117 130.5 -199.5Q84 -282 84 -380Q84 -477 130.5 -559.5Q177 -642 257 -690Q337 -738 432 -738Q527 -738 607 -690Q687 -642 733.5 -559.5Q780 -477 780 -380ZM725 -378Q725 -502 639.5 -590Q554 -678 432 -678Q310 -678 224.5 -590Q139 -502 139 -378Q139 -253 224.5 -165Q310 -77 432 -77Q554 -77 639.5 -165Q725 -253 725 -378Z"/>
</svg>