<svg xmlns="http://www.w3.org/2000/svg" viewBox="0 -1000 1000 1000">
	<path fill="#000000" d="M310 -334Q299 -333 289 -331V-332Q256 -325 235 -299.5Q214 -274 214 -239Q214 -206 235 -180.5Q256 -155 289 -148V-149Q299 -146 310 -146Q321 -146 331 -149V-148Q364 -155 385 -180.5Q406 -206 406 -239Q406 -274 385 -299.5Q364 -325 331 -332V-331Q321 -333 310 -334ZM310 -602Q299 -602 289 -599V-600Q256 -593 235 -567.5Q214 -542 214 -508Q214 -474 235 -448.5Q256 -423 289 -416V-417Q299 -415 310 -414Q321 -415 331 -417V-416Q364 -423 385 -448.5Q406 -474 406 -508Q406 -542 385 -567.5Q364 -593 331 -600V-599Q321 -602 310 -602ZM309 -13Q308 -13 308 -13Q307 -13 305 -13Q298 -13 293 -14Q203 -20 142 -85Q81 -150 81 -239Q81 -314 125 -374Q81 -433 81 -508Q81 -598 142 -663Q203 -728 293 -734Q298 -735 305 -735Q307 -735 308 -735Q309 -735 309 -735Q310 -735 312 -735Q406 -735 472.5 -668.5Q539 -602 539 -508Q539 -433 495 -374Q539 -314 539 -239Q539 -146 472.5 -79.5Q406 -13 312 -13Q311 -13 310 -13Q309 -13 309 -13Z"/>
	<path fill="#2200f5" d="M310 -324Q299 -323 289 -321V-322Q256 -315 235 -289.5Q214 -264 214 -229Q214 -196 235 -170.5Q256 -145 289 -138V-139Q299 -136 310 -136Q321 -136 331 -139V-138Q364 -145 385 -170.5Q406 -196 406 -229Q406 -264 385 -289.5Q364 -315 331 -322V-321Q321 -323 310 -324ZM310 -592Q299 -592 289 -589V-590Q256 -583 235 -557.5Q214 -532 214 -498Q214 -464 235 -438.5Q256 -413 289 -406V-407Q299 -405 310 -404Q321 -405 331 -407V-406Q364 -413 385 -438.5Q406 -464 406 -498Q406 -532 385 -557.5Q364 -583 331 -590V-589Q321 -592 310 -592ZM309 -3Q308 -3 308 -3Q307 -3 305 -3Q298 -3 293 -4Q203 -10 142 -75Q81 -140 81 -229Q81 -304 125 -364Q81 -423 81 -498Q81 -588 142 -653Q203 -718 293 -724Q298 -725 305 -725Q307 -725 308 -725Q309 -725 309 -725Q310 -725 312 -725Q406 -725 472.5 -658.5Q539 -592 539 -498Q539 -423 495 -364Q539 -304 539 -229Q539 -136 472.5 -69.5Q406 -3 312 -3Q311 -3 310 -3Q309 -3 309 -3Z"/>
</svg>