<svg xmlns="http://www.w3.org/2000/svg" viewBox="0 -1000 1000 1000">
	<path fill="#000000" d="M619 253Q619 253 606 253Q552 253 514.5 215.5Q477 178 477 125Q477 71 514.5 33.5Q552 -4 606 -4H619V73Q611 71 606 71Q584 71 568 87Q552 103 552 125Q552 147 567.5 162.5Q583 178 606 178Q611 178 619 176ZM509 -495L510 -343H202V-159H617L618 -7H51V-8H50V-784V-788H617L618 -636H202V-495Z"/>
	<path fill="#2200f5" d="M619 263Q619 263 606 263Q552 263 514.5 225.5Q477 188 477 135Q477 81 514.5 43.5Q552 6 606 6H619V83Q611 81 606 81Q584 81 568 97Q552 113 552 135Q552 157 567.5 172.5Q583 188 606 188Q611 188 619 186ZM509 -485L510 -333H202V-149H617L618 3H51V2H50V-774V-778H617L618 -626H202V-485Z"/>
</svg>