<svg xmlns="http://www.w3.org/2000/svg" viewBox="0 -1000 1000 1000">
	<path fill="#000000" d="M560 -967Q560 -967 560 -953Q560 -900 523 -862.5Q486 -825 432 -825Q378 -825 341 -862Q304 -899 304 -953V-967H380Q378 -959 378 -953Q378 -931 394 -915Q410 -899 432.5 -899Q455 -899 470.5 -915Q486 -931 486 -953Q486 -959 484 -967ZM432 -622Q337 -622 270 -553.5Q203 -485 203 -388Q203 -290 270 -221.5Q337 -153 432 -153Q441 -153 449 -154V-323H601V4H449Q441 4 432 4Q274 4 162 -111.5Q50 -227 50 -390Q50 -553 162 -668Q274 -783 432 -783Q469 -783 505 -776V-610Q470 -622 432 -622Z"/>
	<path fill="#2200f5" d="M560 -957Q560 -957 560 -943Q560 -890 523 -852.5Q486 -815 432 -815Q378 -815 341 -852Q304 -889 304 -943V-957H380Q378 -949 378 -943Q378 -921 394 -905Q410 -889 432.5 -889Q455 -889 470.5 -905Q486 -921 486 -943Q486 -949 484 -957ZM432 -612Q337 -612 270 -543.5Q203 -475 203 -378Q203 -280 270 -211.5Q337 -143 432 -143Q441 -143 449 -144V-313H601V14H449Q441 14 432 14Q274 14 162 -101.5Q50 -217 50 -380Q50 -543 162 -658Q274 -773 432 -773Q469 -773 505 -766V-600Q470 -612 432 -612Z"/>
</svg>