<svg xmlns="http://www.w3.org/2000/svg" viewBox="0 -1000 1000 1000">
	<path fill="#000000" d="M-71 -442V-519Q-63 -517 -58 -517Q-35 -517 -19.5 -532.5Q-4 -548 -4 -570Q-4 -592 -20 -608Q-36 -624 -58 -624Q-63 -624 -71 -622V-699H-58Q-4 -699 33.5 -661.5Q71 -624 71 -570Q71 -517 33.5 -479.5Q-4 -442 -58 -442Z"/>
	<path fill="#2200f5" d="M-71 -432V-509Q-63 -507 -58 -507Q-35 -507 -19.5 -522.5Q-4 -538 -4 -560Q-4 -582 -20 -598Q-36 -614 -58 -614Q-63 -614 -71 -612V-689H-58Q-4 -689 33.5 -651.5Q71 -614 71 -560Q71 -507 33.5 -469.5Q-4 -432 -58 -432Z"/>
</svg>