<svg xmlns="http://www.w3.org/2000/svg" viewBox="0 -1000 1000 1000">
	<path fill="#000000" d="M254 -968Q254 -968 254 -954Q254 -901 217 -863.5Q180 -826 126 -826Q72 -826 35 -863Q-2 -900 -2 -954V-968H74Q72 -960 72 -954Q72 -932 88 -916Q104 -900 126.5 -900Q149 -900 164.5 -916Q180 -932 180 -954Q180 -960 178 -968ZM50 -784H202V-8H50Z"/>
	<path fill="#2200f5" d="M254 -958Q254 -958 254 -944Q254 -891 217 -853.5Q180 -816 126 -816Q72 -816 35 -853Q-2 -890 -2 -944V-958H74Q72 -950 72 -944Q72 -922 88 -906Q104 -890 126.5 -890Q149 -890 164.5 -906Q180 -922 180 -944Q180 -950 178 -958ZM50 -774H202V2H50Z"/>
</svg>