<svg xmlns="http://www.w3.org/2000/svg" viewBox="0 -1000 1000 1000">
	<path fill="#000000" d="M149 -702H301L288 -628H436L449 -702H601L588 -628H599V-476H561L544 -378H599V-226H517L505 -159H353L365 -226H217L205 -159H53L65 -226H55V-378H92L109 -476H55V-628H136ZM409 -476H261L244 -378H392Z"/>
	<path fill="#2200f5" d="M149 -692H301L288 -618H436L449 -692H601L588 -618H599V-466H561L544 -368H599V-216H517L505 -149H353L365 -216H217L205 -149H53L65 -216H55V-368H92L109 -466H55V-618H136ZM409 -466H261L244 -368H392Z"/>
</svg>