<svg xmlns="http://www.w3.org/2000/svg" viewBox="0 -1000 1000 1000">
	<path fill="#000000" d="M332 -411V-419Q324 -418 308 -418Q201 -418 125.5 -493.5Q50 -569 50 -676Q50 -782 125 -853.5Q200 -925 308 -925Q324 -925 332 -924H484V-411ZM332 -779Q320 -782 308 -782Q263 -782 232 -751Q201 -720 201 -676Q201 -631 232 -600Q263 -569 308 -569Q320 -569 332 -572Z"/>
	<path fill="#2200f5" d="M332 -401V-409Q324 -408 308 -408Q201 -408 125.5 -483.5Q50 -559 50 -666Q50 -772 125 -843.5Q200 -915 308 -915Q324 -915 332 -914H484V-401ZM332 -769Q320 -772 308 -772Q263 -772 232 -741Q201 -710 201 -666Q201 -621 232 -590Q263 -559 308 -559Q320 -559 332 -562Z"/>
</svg>