<svg xmlns="http://www.w3.org/2000/svg" viewBox="0 -1000 1000 1000">
	<path fill="#000000" d="M309 -413Q308 -413 308 -413Q306 -413 304 -413Q296 -413 290 -414Q189 -420 119.5 -494Q50 -568 50 -670Q50 -772 119.5 -846.5Q189 -921 290 -927Q296 -928 304 -928Q306 -928 308 -928Q308 -928 309 -928Q310 -928 312 -928Q419 -928 494.5 -852.5Q570 -777 570 -670Q570 -563 494.5 -488Q419 -413 312 -413Q310 -413 309 -413ZM310 -777Q297 -777 286 -774V-775Q249 -767 225 -738Q201 -709 201 -670Q201 -632 225 -603Q249 -574 286 -566V-567Q297 -564 310 -564Q322 -564 334 -567V-566Q371 -574 395 -603Q419 -632 419 -670Q419 -709 395 -738Q371 -767 334 -775V-774Q322 -777 310 -777Z"/>
	<path fill="#2200f5" d="M309 -403Q308 -403 308 -403Q306 -403 304 -403Q296 -403 290 -404Q189 -410 119.5 -484Q50 -558 50 -660Q50 -762 119.5 -836.5Q189 -911 290 -917Q296 -918 304 -918Q306 -918 308 -918Q308 -918 309 -918Q310 -918 312 -918Q419 -918 494.5 -842.5Q570 -767 570 -660Q570 -553 494.5 -478Q419 -403 312 -403Q310 -403 309 -403ZM310 -767Q297 -767 286 -764V-765Q249 -757 225 -728Q201 -699 201 -660Q201 -622 225 -593Q249 -564 286 -556V-557Q297 -554 310 -554Q322 -554 334 -557V-556Q371 -564 395 -593Q419 -622 419 -660Q419 -699 395 -728Q371 -757 334 -765V-764Q322 -767 310 -767Z"/>
</svg>