<svg xmlns="http://www.w3.org/2000/svg" viewBox="0 -1000 1000 1000">
	<path fill="#000000" d="M814 -390Q814 -227 702 -111.5Q590 4 432 4Q361 4 295 -22L240 73L134 12L190 -85Q125 -140 87.5 -219.5Q50 -299 50 -390Q50 -553 162 -668Q274 -783 432 -783Q507 -783 576 -754L619 -828L725 -767L680 -689Q743 -634 778.5 -556Q814 -478 814 -390ZM495 -613Q464 -622 432 -622Q337 -622 270 -553.5Q203 -485 203 -388Q203 -291 269 -222ZM599 -548L375 -160Q403 -153 432 -153Q527 -153 594 -221.5Q661 -290 661 -388Q661 -481 599 -548Z"/>
	<path fill="#2200f5" d="M814 -380Q814 -217 702 -101.5Q590 14 432 14Q361 14 295 -12L240 83L134 22L190 -75Q125 -130 87.5 -209.5Q50 -289 50 -380Q50 -543 162 -658Q274 -773 432 -773Q507 -773 576 -744L619 -818L725 -757L680 -679Q743 -624 778.5 -546Q814 -468 814 -380ZM495 -603Q464 -612 432 -612Q337 -612 270 -543.5Q203 -475 203 -378Q203 -281 269 -212ZM599 -538L375 -150Q403 -143 432 -143Q527 -143 594 -211.5Q661 -280 661 -378Q661 -471 599 -538Z"/>
</svg>