<svg xmlns="http://www.w3.org/2000/svg" viewBox="0 -1000 1000 1000">
	<path fill="#000000" d="M557 -960V-884Q556 -882 548.5 -873Q541 -864 525 -853.5Q509 -843 493 -843H443Q427 -843 404.5 -857Q382 -871 366 -871Q355 -871 340 -864Q325 -857 316 -850L307 -843V-919Q339 -947 364 -947Q381 -947 404.5 -933.5Q428 -920 444 -920Q467 -920 489 -920Q504 -920 521 -930Q538 -940 547 -950ZM814 -390Q814 -227 702 -111.5Q590 4 432 4Q274 4 162 -111.5Q50 -227 50 -390Q50 -553 162 -668Q274 -783 432 -783Q590 -783 702 -668Q814 -553 814 -390ZM661 -388Q661 -485 594 -553.5Q527 -622 432 -622Q337 -622 270 -553.5Q203 -485 203 -388Q203 -290 270 -221.5Q337 -153 432 -153Q527 -153 594 -221.5Q661 -290 661 -388Z"/>
	<path fill="#2200f5" d="M557 -950V-874Q556 -872 548.5 -863Q541 -854 525 -843.5Q509 -833 493 -833H443Q427 -833 404.5 -847Q382 -861 366 -861Q355 -861 340 -854Q325 -847 316 -840L307 -833V-909Q339 -937 364 -937Q381 -937 404.5 -923.5Q428 -910 444 -910Q467 -910 489 -910Q504 -910 521 -920Q538 -930 547 -940ZM814 -380Q814 -217 702 -101.5Q590 14 432 14Q274 14 162 -101.5Q50 -217 50 -380Q50 -543 162 -658Q274 -773 432 -773Q590 -773 702 -658Q814 -543 814 -380ZM661 -378Q661 -475 594 -543.5Q527 -612 432 -612Q337 -612 270 -543.5Q203 -475 203 -378Q203 -280 270 -211.5Q337 -143 432 -143Q527 -143 594 -211.5Q661 -280 661 -378Z"/>
</svg>