<svg xmlns="http://www.w3.org/2000/svg" viewBox="0 -1000 1000 1000">
	<path fill="#000000" d="M202 -13H50V-789H202Q210 -790 226 -790Q333 -790 408.5 -715Q484 -640 484 -533Q484 -426 408.5 -350.5Q333 -275 226 -275Q210 -275 202 -276ZM202 -636V-429Q214 -426 226 -426Q271 -426 302 -457Q333 -488 333 -533Q333 -577 302 -608Q271 -639 226 -639Q214 -639 202 -636Z"/>
	<path fill="#2200f5" d="M202 -3H50V-779H202Q210 -780 226 -780Q333 -780 408.5 -705Q484 -630 484 -523Q484 -416 408.5 -340.5Q333 -265 226 -265Q210 -265 202 -266ZM202 -626V-419Q214 -416 226 -416Q271 -416 302 -447Q333 -478 333 -523Q333 -567 302 -598Q271 -629 226 -629Q214 -629 202 -626Z"/>
</svg>