<svg xmlns="http://www.w3.org/2000/svg" viewBox="0 -1000 1000 1000">
	<path fill="#000000" d="M123 -754L50 -776Q84 -783 123 -783Q281 -783 393 -668Q505 -553 505 -390Q505 -227 393 -111.5Q281 4 123 4Q84 4 50 -3L123 -21Q223 -21 312 -131.5Q401 -242 401 -388Q401 -533 312 -643.5Q223 -754 123 -754Z"/>
	<path fill="#2200f5" d="M123 -744L50 -766Q84 -773 123 -773Q281 -773 393 -658Q505 -543 505 -380Q505 -217 393 -101.5Q281 14 123 14Q84 14 50 7L123 -11Q223 -11 312 -121.5Q401 -232 401 -378Q401 -523 312 -633.5Q223 -744 123 -744Z"/>
</svg>