<svg xmlns="http://www.w3.org/2000/svg" viewBox="0 -1000 1000 1000">
	<path fill="#000000" d="M204 -493Q204 -493 202 -493Q202 -493 195 -493Q144 -497 109.5 -533.5Q75 -570 75 -621Q75 -672 110 -709Q145 -746 195 -750H202Q202 -750 204 -750Q204 -750 206 -750Q260 -750 297.5 -712.5Q335 -675 335 -621Q335 -568 297.5 -530.5Q260 -493 206 -493ZM205 -675Q201 -675 193 -673V-674Q174 -670 162.5 -655.5Q151 -641 151 -621Q151 -602 162.5 -587.5Q174 -573 193 -569V-570Q201 -568 205 -568Q209 -568 217 -570V-569Q236 -573 247.5 -587.5Q259 -602 259 -621Q259 -641 247.5 -655.5Q236 -670 217 -674V-673Q209 -675 205 -675ZM509 -92H507H500Q449 -96 414.5 -132.5Q380 -169 380 -220Q380 -271 415 -308Q450 -345 500 -349H507H509H511Q565 -349 602.5 -311.5Q640 -274 640 -220Q640 -167 602.5 -129.5Q565 -92 511 -92ZM510 -274Q506 -274 498 -272V-273Q479 -269 467.5 -254.5Q456 -240 456 -220Q456 -201 467.5 -186.5Q479 -172 498 -168V-169Q506 -167 510 -167Q514 -167 522 -169V-168Q541 -172 552.5 -186.5Q564 -201 564 -220Q564 -240 552.5 -254.5Q541 -269 522 -273V-272Q514 -274 510 -274ZM535 -828L641 -767L156 73L50 12Z"/>
	<path fill="#2200f5" d="M204 -483Q204 -483 202 -483Q202 -483 195 -483Q144 -487 109.5 -523.5Q75 -560 75 -611Q75 -662 110 -699Q145 -736 195 -740H202Q202 -740 204 -740Q204 -740 206 -740Q260 -740 297.5 -702.5Q335 -665 335 -611Q335 -558 297.5 -520.5Q260 -483 206 -483ZM205 -665Q201 -665 193 -663V-664Q174 -660 162.5 -645.5Q151 -631 151 -611Q151 -592 162.5 -577.5Q174 -563 193 -559V-560Q201 -558 205 -558Q209 -558 217 -560V-559Q236 -563 247.5 -577.5Q259 -592 259 -611Q259 -631 247.5 -645.5Q236 -660 217 -664V-663Q209 -665 205 -665ZM509 -82H507H500Q449 -86 414.5 -122.5Q380 -159 380 -210Q380 -261 415 -298Q450 -335 500 -339H507H509H511Q565 -339 602.5 -301.5Q640 -264 640 -210Q640 -157 602.5 -119.5Q565 -82 511 -82ZM510 -264Q506 -264 498 -262V-263Q479 -259 467.5 -244.5Q456 -230 456 -210Q456 -191 467.5 -176.5Q479 -162 498 -158V-159Q506 -157 510 -157Q514 -157 522 -159V-158Q541 -162 552.5 -176.5Q564 -191 564 -210Q564 -230 552.5 -244.5Q541 -259 522 -263V-262Q514 -264 510 -264ZM535 -818L641 -757L156 83L50 22Z"/>
</svg>