<svg xmlns="http://www.w3.org/2000/svg" viewBox="0 -1000 1000 1000">
	<path fill="#000000" d="M334 -839V-697H182V-839ZM334 -9Q325 -8 308 -8Q201 -8 125.5 -83Q50 -158 50 -265Q50 -337 86 -397Q122 -457 182 -490V-607H334V-522V-397V-369Q322 -372 308 -372Q263 -372 232 -341Q201 -310 201 -265Q201 -221 232 -190Q263 -159 308 -159Q322 -159 334 -162Z"/>
	<path fill="#2200f5" d="M334 -829V-687H182V-829ZM334 1Q325 2 308 2Q201 2 125.5 -73Q50 -148 50 -255Q50 -327 86 -387Q122 -447 182 -480V-597H334V-512V-387V-359Q322 -362 308 -362Q263 -362 232 -331Q201 -300 201 -255Q201 -211 232 -180Q263 -149 308 -149Q322 -149 334 -152Z"/>
</svg>