<svg xmlns="http://www.w3.org/2000/svg" viewBox="0 -1000 1000 1000">
	<path fill="#000000" d="M50 -8V-150H202V-8ZM50 -838Q59 -839 76 -839Q183 -839 258.5 -764Q334 -689 334 -582Q334 -510 298 -450Q262 -390 202 -357V-240H50V-325V-450V-478Q62 -475 76 -475Q121 -475 152 -506Q183 -537 183 -582Q183 -626 152 -657Q121 -688 76 -688Q62 -688 50 -685Z"/>
	<path fill="#2200f5" d="M50 2V-140H202V2ZM50 -828Q59 -829 76 -829Q183 -829 258.5 -754Q334 -679 334 -572Q334 -500 298 -440Q262 -380 202 -347V-230H50V-315V-440V-468Q62 -465 76 -465Q121 -465 152 -496Q183 -527 183 -572Q183 -616 152 -647Q121 -678 76 -678Q62 -678 50 -675Z"/>
</svg>