<svg xmlns="http://www.w3.org/2000/svg" viewBox="0 -1000 1000 1000">
	<path fill="#000000" d="M395 -483V-407Q400 -406 404 -406Q420 -406 431.5 -417.5Q443 -429 443 -445Q443 -461 431.5 -472.5Q420 -484 404 -484Q400 -484 395 -483ZM395 -256H340V-538H395Q398 -539 404 -539Q443 -539 470.5 -511.5Q498 -484 498 -445Q498 -415 480.5 -390.5Q463 -366 436 -357L508 -253H457L397 -351Q396 -351 395 -351ZM710 -390Q710 -271 628.5 -187Q547 -103 432 -103Q317 -103 235.5 -187Q154 -271 154 -390Q154 -509 235.5 -592.5Q317 -676 432 -676Q547 -676 628.5 -592.5Q710 -509 710 -390ZM667 -389Q667 -488 598.5 -558Q530 -628 432 -628Q334 -628 265.5 -558Q197 -488 197 -389Q197 -289 265.5 -218.5Q334 -148 432 -148Q530 -148 598.5 -218.5Q667 -289 667 -389Z"/>
	<path fill="#2200f5" d="M395 -473V-397Q400 -396 404 -396Q420 -396 431.5 -407.5Q443 -419 443 -435Q443 -451 431.5 -462.5Q420 -474 404 -474Q400 -474 395 -473ZM395 -246H340V-528H395Q398 -529 404 -529Q443 -529 470.5 -501.5Q498 -474 498 -435Q498 -405 480.5 -380.5Q463 -356 436 -347L508 -243H457L397 -341Q396 -341 395 -341ZM710 -380Q710 -261 628.5 -177Q547 -93 432 -93Q317 -93 235.5 -177Q154 -261 154 -380Q154 -499 235.5 -582.5Q317 -666 432 -666Q547 -666 628.5 -582.5Q710 -499 710 -380ZM667 -379Q667 -478 598.5 -548Q530 -618 432 -618Q334 -618 265.5 -548Q197 -478 197 -379Q197 -279 265.5 -208.5Q334 -138 432 -138Q530 -138 598.5 -208.5Q667 -279 667 -379Z"/>
</svg>