<svg xmlns="http://www.w3.org/2000/svg" viewBox="0 -1000 1000 1000">
	<path fill="#000000" d="M-25 -118L50 -243Q62 -233 72 -228Q110 -206 152 -216.5Q194 -227 217 -263Q239 -302 214.5 -335.5Q190 -369 147 -376Q80 -412 39.5 -459Q-1 -506 -11.5 -568.5Q-22 -631 21 -700Q73 -787 176 -812.5Q279 -838 373 -788Q376 -785 383.5 -780.5Q391 -776 394 -773L319 -648Q307 -658 297 -663Q259 -684 216.5 -673.5Q174 -663 152 -626Q127 -585 147.5 -536Q168 -487 216 -479Q265 -453 298.5 -426.5Q332 -400 356.5 -364.5Q381 -329 379.5 -285Q378 -241 347 -191Q295 -103 192.5 -77.5Q90 -52 -4 -103Q-7 -106 -14.5 -110.5Q-22 -115 -25 -118ZM55 -467L130 -592Q142 -582 152 -577Q190 -555 232 -565.5Q274 -576 297 -612Q319 -651 294.5 -684.5Q270 -718 227 -725Q160 -761 119.5 -808Q79 -855 68.5 -917.5Q58 -980 101 -1049Q153 -1136 256 -1161.5Q359 -1187 453 -1137Q456 -1134 463.5 -1129.5Q471 -1125 474 -1122L399 -997Q387 -1007 377 -1012Q339 -1033 296.5 -1022.5Q254 -1012 232 -975Q207 -934 227.5 -885Q248 -836 296 -828Q345 -802 378.5 -775.5Q412 -749 436.5 -713.5Q461 -678 459.5 -634Q458 -590 427 -540Q375 -452 272.5 -426.5Q170 -401 76 -452Q73 -455 65.5 -459.5Q58 -464 55 -467Z"/>
	<path fill="#2200f5" d="M-25 -108L50 -233Q62 -223 72 -218Q110 -196 152 -206.5Q194 -217 217 -253Q239 -292 214.5 -325.5Q190 -359 147 -366Q80 -402 39.5 -449Q-1 -496 -11.5 -558.5Q-22 -621 21 -690Q73 -777 176 -802.5Q279 -828 373 -778Q376 -775 383.5 -770.5Q391 -766 394 -763L319 -638Q307 -648 297 -653Q259 -674 216.5 -663.5Q174 -653 152 -616Q127 -575 147.5 -526Q168 -477 216 -469Q265 -443 298.5 -416.5Q332 -390 356.5 -354.5Q381 -319 379.5 -275Q378 -231 347 -181Q295 -93 192.5 -67.5Q90 -42 -4 -93Q-7 -96 -14.5 -100.5Q-22 -105 -25 -108ZM55 -457L130 -582Q142 -572 152 -567Q190 -545 232 -555.5Q274 -566 297 -602Q319 -641 294.5 -674.5Q270 -708 227 -715Q160 -751 119.5 -798Q79 -845 68.5 -907.5Q58 -970 101 -1039Q153 -1126 256 -1151.5Q359 -1177 453 -1127Q456 -1124 463.5 -1119.5Q471 -1115 474 -1112L399 -987Q387 -997 377 -1002Q339 -1023 296.5 -1012.5Q254 -1002 232 -965Q207 -924 227.5 -875Q248 -826 296 -818Q345 -792 378.5 -765.5Q412 -739 436.5 -703.5Q461 -668 459.5 -624Q458 -580 427 -530Q375 -442 272.5 -416.5Q170 -391 76 -442Q73 -445 65.5 -449.5Q58 -454 55 -457Z"/>
</svg>