<svg xmlns="http://www.w3.org/2000/svg" viewBox="0 -1000 1000 1000">
	<path fill="#000000" d="M50 -5V-129Q63 -126 76 -126Q142 -126 188 -151Q234 -176 234 -212Q234 -246 207 -270Q180 -294 140 -298Q133 -298 127 -298Q121 -298 115 -298Q108 -298 101 -296V-299V-420V-423Q108 -421 115 -421Q121 -421 127 -421Q133 -421 140 -421Q180 -424 207 -448.5Q234 -473 234 -506Q234 -543 190 -568Q146 -593 82 -593Q69 -593 56 -590V-714Q69 -715 82 -715Q208 -715 296.5 -654Q385 -593 385 -506Q385 -420 310 -359Q385 -298 385 -212Q385 -126 294.5 -65Q204 -4 76 -4Q63 -4 50 -5Z"/>
	<path fill="#2200f5" d="M50 5V-119Q63 -116 76 -116Q142 -116 188 -141Q234 -166 234 -202Q234 -236 207 -260Q180 -284 140 -288Q133 -288 127 -288Q121 -288 115 -288Q108 -288 101 -286V-289V-410V-413Q108 -411 115 -411Q121 -411 127 -411Q133 -411 140 -411Q180 -414 207 -438.5Q234 -463 234 -496Q234 -533 190 -558Q146 -583 82 -583Q69 -583 56 -580V-704Q69 -705 82 -705Q208 -705 296.5 -644Q385 -583 385 -496Q385 -410 310 -349Q385 -288 385 -202Q385 -116 294.5 -55Q204 6 76 6Q63 6 50 5Z"/>
</svg>