<svg xmlns="http://www.w3.org/2000/svg" viewBox="0 -1000 1000 1000">
	<path fill="#000000" d="M96 -451.5V-513.5Q102.5 -512 109 -512Q142 -512 165 -524.5Q188 -537 188 -555Q188 -572 174.5 -584Q161 -596 141 -598Q137.5 -598 134.5 -598Q131.5 -598 128.5 -598Q125 -598 121.5 -597V-598.5V-659V-660.5Q125 -659.5 128.5 -659.5Q131.5 -659.5 134.5 -659.5Q137.5 -659.5 141 -659.5Q161 -661 174.5 -673.25Q188 -685.5 188 -702Q188 -720.5 166 -733Q144 -745.5 112 -745.5Q105.5 -745.5 99 -744V-806Q105.5 -806.5 112 -806.5Q175 -806.5 219.25 -776Q263.5 -745.5 263.5 -702Q263.5 -659 226 -628.5Q263.5 -598 263.5 -555Q263.5 -512 218.25 -481.5Q173 -451 109 -451Q102.5 -451 96 -451.5ZM604 37V-59L603.5 -58.5H436L597 -350H668.5V37ZM600 -133.5V-223.5L551 -135ZM535 -828L641 -767L156 73L50 12Z"/>
	<path fill="#2200f5" d="M96 -446.5V-508.5Q102.5 -507 109 -507Q142 -507 165 -519.5Q188 -532 188 -550Q188 -567 174.5 -579Q161 -591 141 -593Q137.5 -593 134.5 -593Q131.5 -593 128.5 -593Q125 -593 121.5 -592V-593.5V-654V-655.5Q125 -654.5 128.5 -654.5Q131.5 -654.5 134.5 -654.5Q137.5 -654.5 141 -654.5Q161 -656 174.5 -668.25Q188 -680.5 188 -697Q188 -715.5 166 -728Q144 -740.5 112 -740.5Q105.5 -740.5 99 -739V-801Q105.5 -801.5 112 -801.5Q175 -801.5 219.25 -771Q263.5 -740.5 263.5 -697Q263.5 -654 226 -623.5Q263.5 -593 263.5 -550Q263.5 -507 218.25 -476.5Q173 -446 109 -446Q102.5 -446 96 -446.5ZM604 42V-54L603.5 -53.5H436L597 -345H668.5V42ZM600 -128.5V-218.5L551 -130ZM535 -818L641 -757L156 83L50 22Z"/>
</svg>