<svg xmlns="http://www.w3.org/2000/svg" viewBox="0 -1000 1000 1000">
	<path fill="#000000" d="M126 -929V-853Q125 -851 117.5 -842Q110 -833 94 -822.5Q78 -812 62 -812H12Q-4 -812 -26.5 -826Q-49 -840 -65 -840Q-76 -840 -91 -833Q-106 -826 -115 -819L-124 -812V-888Q-92 -916 -67 -916Q-50 -916 -26.5 -902.5Q-3 -889 13 -889Q36 -889 58 -889Q73 -889 90 -899Q107 -909 116 -919Z"/>
	<path fill="#2200f5" d="M126 -919V-843Q125 -841 117.5 -832Q110 -823 94 -812.5Q78 -802 62 -802H12Q-4 -802 -26.5 -816Q-49 -830 -65 -830Q-76 -830 -91 -823Q-106 -816 -115 -809L-124 -802V-878Q-92 -906 -67 -906Q-50 -906 -26.5 -892.5Q-3 -879 13 -879Q36 -879 58 -879Q73 -879 90 -889Q107 -899 116 -909Z"/>
</svg>