<svg xmlns="http://www.w3.org/2000/svg" viewBox="0 -1000 1000 1000">
	<path fill="#000000" d="M463 -967Q463 -967 463 -953Q463 -900 426 -862.5Q389 -825 335 -825Q281 -825 244 -862Q207 -899 207 -953V-967H283Q281 -959 281 -953Q281 -931 297 -915Q313 -899 335.5 -899Q358 -899 373.5 -915Q389 -931 389 -953Q389 -959 387 -967ZM616 -194Q600 -136 555.5 -94.5Q511 -53 455 -33.5Q399 -14 335 -13.5Q271 -13 214.5 -32Q158 -51 114 -93Q70 -135 53 -194L50 -771H217V-195Q246 -162 335 -161.5Q424 -161 452 -195V-771H619Z"/>
	<path fill="#2200f5" d="M463 -957Q463 -957 463 -943Q463 -890 426 -852.5Q389 -815 335 -815Q281 -815 244 -852Q207 -889 207 -943V-957H283Q281 -949 281 -943Q281 -921 297 -905Q313 -889 335.5 -889Q358 -889 373.5 -905Q389 -921 389 -943Q389 -949 387 -957ZM616 -184Q600 -126 555.5 -84.5Q511 -43 455 -23.5Q399 -4 335 -3.5Q271 -3 214.5 -22Q158 -41 114 -83Q70 -125 53 -184L50 -761H217V-185Q246 -152 335 -151.5Q424 -151 452 -185V-761H619Z"/>
</svg>