<svg xmlns="http://www.w3.org/2000/svg" viewBox="0 -1000 1000 1000">
	<path fill="#000000" d="M335 -843L153 -1025L261 -1132L443 -950ZM616 -194Q600 -136 555.5 -94.5Q511 -53 455 -33.5Q399 -14 335 -13.5Q271 -13 214.5 -32Q158 -51 114 -93Q70 -135 53 -194L50 -771H217V-195Q246 -162 335 -161.5Q424 -161 452 -195V-771H619Z"/>
	<path fill="#2200f5" d="M335 -833L153 -1015L261 -1122L443 -940ZM616 -184Q600 -126 555.5 -84.5Q511 -43 455 -23.5Q399 -4 335 -3.5Q271 -3 214.5 -22Q158 -41 114 -83Q70 -125 53 -184L50 -761H217V-185Q246 -152 335 -151.5Q424 -151 452 -185V-761H619Z"/>
</svg>