<svg xmlns="http://www.w3.org/2000/svg" viewBox="0 -1000 1000 1000">
	<path fill="#000000" d="M638 -554Q613 -552 606 -551Q607 -551 604.5 -561.5Q602 -572 599.5 -582.5Q597 -593 598 -593Q600 -593 610 -598Q620 -603 634 -609Q648 -615 660 -617Q713 -624 746.5 -588.5Q780 -553 779 -495Q778 -452 754 -419Q779 -385 779 -343Q779 -289 741.5 -251.5Q704 -214 650 -214Q650 -214 649.5 -214Q649 -214 648 -214Q647 -214 646 -214Q642 -214 639 -215Q588 -218 553.5 -255Q519 -292 519 -343Q519 -384 542 -417L547 -418L548 -419Q559 -416 575 -412Q599 -405 602.5 -402.5Q606 -400 602 -390Q594 -367 594 -343Q594 -320 609.5 -305Q625 -290 649 -290Q673 -290 688.5 -305Q704 -320 704 -343Q704 -362 692 -376.5Q680 -391 661 -395L649 -442Q655 -442 661 -444V-443Q680 -447 692 -461.5Q704 -476 704 -495Q704 -524 685.5 -539.5Q667 -555 638 -554ZM305 -762Q340 -771 376 -771Q463 -771 530 -719Q597 -667 621 -584L624 -7H457V-583Q425 -620 376 -620Q336 -620 305 -594ZM12 -328H180Q154 -297 154 -258Q154 -208 190 -176H554V-10L190 -12Q107 -36 54.5 -103.5Q2 -171 2 -258Q2 -295 12 -328Z"/>
	<path fill="#2200f5" d="M638 -544Q613 -542 606 -541Q607 -541 604.5 -551.5Q602 -562 599.5 -572.5Q597 -583 598 -583Q600 -583 610 -588Q620 -593 634 -599Q648 -605 660 -607Q713 -614 746.5 -578.5Q780 -543 779 -485Q778 -442 754 -409Q779 -375 779 -333Q779 -279 741.5 -241.5Q704 -204 650 -204Q650 -204 649.5 -204Q649 -204 648 -204Q647 -204 646 -204Q642 -204 639 -205Q588 -208 553.5 -245Q519 -282 519 -333Q519 -374 542 -407L547 -408L548 -409Q559 -406 575 -402Q599 -395 602.5 -392.5Q606 -390 602 -380Q594 -357 594 -333Q594 -310 609.5 -295Q625 -280 649 -280Q673 -280 688.5 -295Q704 -310 704 -333Q704 -352 692 -366.5Q680 -381 661 -385L649 -432Q655 -432 661 -434V-433Q680 -437 692 -451.5Q704 -466 704 -485Q704 -514 685.5 -529.5Q667 -545 638 -544ZM305 -752Q340 -761 376 -761Q463 -761 530 -709Q597 -657 621 -574L624 3H457V-573Q425 -610 376 -610Q336 -610 305 -584ZM12 -318H180Q154 -287 154 -248Q154 -198 190 -166H554V0L190 -2Q107 -26 54.5 -93.5Q2 -161 2 -248Q2 -285 12 -318Z"/>
</svg>