<svg xmlns="http://www.w3.org/2000/svg" viewBox="0 -1000 1000 1000">
	<path fill="#000000" d="M321 -724H453L337 -454L289 -519ZM336 -608V-456L195 -284L504 -170V-12L51 -190V-342ZM725 -813V-681H527V-813ZM505 -787H651V-11H505ZM319 -723Q319 -723 319 -704Q319 -623 262.5 -566.5Q206 -510 127 -510Q45 -510 -11 -566.5Q-67 -623 -67 -704V-723H49Q45 -714 45 -704Q45 -670 69 -646.5Q93 -623 126.5 -623Q160 -623 182.5 -646.5Q205 -670 205 -704Q205 -714 203 -723Z"/>
	<path fill="#2200f5" d="M321 -714H453L337 -444L289 -509ZM336 -598V-446L195 -274L504 -160V-2L51 -180V-332ZM725 -803V-671H527V-803ZM505 -777H651V-1H505ZM319 -713Q319 -713 319 -694Q319 -613 262.5 -556.5Q206 -500 127 -500Q45 -500 -11 -556.5Q-67 -613 -67 -694V-713H49Q45 -704 45 -694Q45 -660 69 -636.5Q93 -613 126.5 -613Q160 -613 182.5 -636.5Q205 -660 205 -694Q205 -704 203 -713Z"/>
</svg>