<svg xmlns="http://www.w3.org/2000/svg" viewBox="0 -1000 1000 1000">
	<path fill="#000000" d="M592 -460Q602 -456 617.5 -450Q633 -444 671.5 -434Q710 -424 736 -424Q766 -424 775 -463Q793 -540 759 -623.5Q725 -707 663 -769Q639 -793 586.5 -806.5Q534 -820 511 -844Q495 -859 484.5 -889Q474 -919 472 -942L470 -964L558 -1052Q559 -1043 561 -1027.5Q563 -1012 574.5 -978.5Q586 -945 602 -929Q624 -907 675.5 -895Q727 -883 750 -861L820 -790Q836 -774 855.5 -731.5Q875 -689 890 -632.5Q905 -576 911 -520.5Q917 -465 901.5 -418Q886 -371 847 -352Q783 -322 724 -322Q700 -322 666 -329.5Q632 -337 610 -344L589 -352ZM12 -328H180Q154 -297 154 -258Q154 -208 190 -176H554V-10L190 -12Q107 -36 54.5 -103.5Q2 -171 2 -258Q2 -295 12 -328ZM305 -762Q340 -771 376 -771Q463 -771 530 -719Q597 -667 621 -584L624 -7H457V-583Q425 -620 376 -620Q336 -620 305 -594Z"/>
	<path fill="#2200f5" d="M592 -450Q602 -446 617.5 -440Q633 -434 671.5 -424Q710 -414 736 -414Q766 -414 775 -453Q793 -530 759 -613.5Q725 -697 663 -759Q639 -783 586.5 -796.5Q534 -810 511 -834Q495 -849 484.5 -879Q474 -909 472 -932L470 -954L558 -1042Q559 -1033 561 -1017.5Q563 -1002 574.5 -968.5Q586 -935 602 -919Q624 -897 675.5 -885Q727 -873 750 -851L820 -780Q836 -764 855.5 -721.5Q875 -679 890 -622.5Q905 -566 911 -510.5Q917 -455 901.5 -408Q886 -361 847 -342Q783 -312 724 -312Q700 -312 666 -319.5Q632 -327 610 -334L589 -342ZM12 -318H180Q154 -287 154 -248Q154 -198 190 -166H554V0L190 -2Q107 -26 54.5 -93.5Q2 -161 2 -248Q2 -285 12 -318ZM305 -752Q340 -761 376 -761Q463 -761 530 -709Q597 -657 621 -574L624 3H457V-573Q425 -610 376 -610Q336 -610 305 -584Z"/>
</svg>