<svg xmlns="http://www.w3.org/2000/svg" viewBox="0 -1000 1000 1000">
	<path fill="#000000" d="M305 -762Q340 -771 376 -771Q463 -771 530 -719Q597 -667 621 -584L624 -7H457V-583Q425 -620 376 -620Q336 -620 305 -594ZM12 -328H180Q154 -297 154 -258Q154 -208 190 -176H554V-10L190 -12Q107 -36 54.5 -103.5Q2 -171 2 -258Q2 -295 12 -328Z"/>
	<path fill="#2200f5" d="M305 -752Q340 -761 376 -761Q463 -761 530 -709Q597 -657 621 -574L624 3H457V-573Q425 -610 376 -610Q336 -610 305 -584ZM12 -318H180Q154 -287 154 -248Q154 -198 190 -166H554V0L190 -2Q107 -26 54.5 -93.5Q2 -161 2 -248Q2 -285 12 -318Z"/>
</svg>