<svg xmlns="http://www.w3.org/2000/svg" viewBox="0 -1000 1000 1000">
	<path fill="#000000" d="M51 -478Q50 -491 50 -504Q50 -612 125 -687Q200 -762 307 -762Q414 -762 489.5 -687Q565 -612 565 -504Q565 -491 564 -478H411Q414 -491 414 -504Q414 -550 383 -581Q352 -612 307 -612Q263 -612 232 -580.5Q201 -549 201 -504Q201 -491 204 -478ZM612 -813V-681H450V-813ZM412 -860H564V-8H412Z"/>
	<path fill="#2200f5" d="M51 -468Q50 -481 50 -494Q50 -602 125 -677Q200 -752 307 -752Q414 -752 489.5 -677Q565 -602 565 -494Q565 -481 564 -468H411Q414 -481 414 -494Q414 -540 383 -571Q352 -602 307 -602Q263 -602 232 -570.5Q201 -539 201 -494Q201 -481 204 -468ZM612 -803V-671H450V-803ZM412 -850H564V2H412Z"/>
</svg>