<svg xmlns="http://www.w3.org/2000/svg" viewBox="0 -1000 1000 1000">
	<path fill="#000000" d="M387 241V164Q395 166 400 166Q423 166 438.5 150.5Q454 135 454 113Q454 91 438 75Q422 59 400 59Q395 59 387 61V-16H400Q454 -16 491.5 21.5Q529 59 529 113Q529 166 491.5 203.5Q454 241 400 241ZM464 -16Q430 -7 393 -7Q306 -7 239 -59Q172 -111 148 -194L147 -374H50V-526H146L145 -771H312V-526H409V-374H312V-195Q344 -158 393 -158Q433 -158 464 -184Z"/>
	<path fill="#2200f5" d="M387 251V174Q395 176 400 176Q423 176 438.5 160.5Q454 145 454 123Q454 101 438 85Q422 69 400 69Q395 69 387 71V-6H400Q454 -6 491.5 31.5Q529 69 529 123Q529 176 491.5 213.5Q454 251 400 251ZM464 -6Q430 3 393 3Q306 3 239 -49Q172 -101 148 -184L147 -364H50V-516H146L145 -761H312V-516H409V-364H312V-185Q344 -148 393 -148Q433 -148 464 -174Z"/>
</svg>