<svg xmlns="http://www.w3.org/2000/svg" viewBox="0 -1000 1000 1000">
	<path fill="#000000" d="M317 195V53H469V195L409 327L351 323L360 195ZM464 -16Q430 -7 393 -7Q306 -7 239 -59Q172 -111 148 -194L147 -374H50V-526H146L145 -771H312V-526H409V-374H312V-195Q344 -158 393 -158Q433 -158 464 -184Z"/>
	<path fill="#2200f5" d="M317 205V63H469V205L409 337L351 333L360 205ZM464 -6Q430 3 393 3Q306 3 239 -49Q172 -101 148 -184L147 -364H50V-516H146L145 -761H312V-516H409V-364H312V-185Q344 -148 393 -148Q433 -148 464 -174Z"/>
</svg>