<svg xmlns="http://www.w3.org/2000/svg" viewBox="0 -1000 1000 1000">
	<path fill="#000000" d="M582 -636V-484L214 -360L524 -164V-12L70 -284V-436ZM1098 -813V-681H0V-813ZM524 -787H670V-11H524ZM525 -228Q524 -241 524 -254Q524 -362 599 -437Q674 -512 780 -512Q888 -512 963 -437Q1038 -362 1038 -254Q1038 -241 1037 -228H884Q888 -241 888 -254Q888 -300 857 -331Q826 -362 780 -362Q736 -362 705 -330.5Q674 -299 674 -254Q674 -241 678 -228Z"/>
	<path fill="#2200f5" d="M582 -626V-474L214 -350L524 -154V-2L70 -274V-426ZM1098 -803V-671H0V-803ZM524 -777H670V-1H524ZM525 -218Q524 -231 524 -244Q524 -352 599 -427Q674 -502 780 -502Q888 -502 963 -427Q1038 -352 1038 -244Q1038 -231 1037 -218H884Q888 -231 888 -244Q888 -290 857 -321Q826 -352 780 -352Q736 -352 705 -320.5Q674 -289 674 -244Q674 -231 678 -218Z"/>
</svg>