<svg xmlns="http://www.w3.org/2000/svg" viewBox="0 -1000 1000 1000">
	<path fill="#000000" d="M561 -636V-484L194 -360L503 -164V-12L50 -284V-436ZM702 -813V-681H504V-813ZM504 -787H650V-11H504ZM355 -424Q355 -424 336 -424Q255 -424 198.5 -480Q142 -536 142 -616Q142 -696 198.5 -753Q255 -810 336 -810H355V-694Q346 -696 336 -696Q302 -696 278.5 -672.5Q255 -649 255 -615.5Q255 -582 278.5 -559Q302 -536 336 -536Q346 -536 355 -540Z"/>
	<path fill="#2200f5" d="M561 -626V-474L194 -350L503 -154V-2L50 -274V-426ZM702 -803V-671H504V-803ZM504 -777H650V-1H504ZM355 -414Q355 -414 336 -414Q255 -414 198.5 -470Q142 -526 142 -606Q142 -686 198.5 -743Q255 -800 336 -800H355V-684Q346 -686 336 -686Q302 -686 278.5 -662.5Q255 -639 255 -605.5Q255 -572 278.5 -549Q302 -526 336 -526Q346 -526 355 -530Z"/>
</svg>