<svg xmlns="http://www.w3.org/2000/svg" viewBox="0 -1000 1000 1000">
	<path fill="#000000" d="M366 195V53H518V195L458 327L400 323L409 195ZM202 -636V-429Q214 -426 226 -426Q271 -426 302 -457Q333 -488 333 -533Q333 -577 302 -608Q271 -639 226 -639Q214 -639 202 -636ZM202 -13H50V-789H202Q210 -790 226 -790Q333 -790 408.5 -715Q484 -640 484 -533Q484 -450 436.5 -383.5Q389 -317 313 -290L512 -7H372L207 -276Q204 -276 202 -276Z"/>
	<path fill="#2200f5" d="M366 205V63H518V205L458 337L400 333L409 205ZM202 -626V-419Q214 -416 226 -416Q271 -416 302 -447Q333 -478 333 -523Q333 -567 302 -598Q271 -629 226 -629Q214 -629 202 -626ZM202 -3H50V-779H202Q210 -780 226 -780Q333 -780 408.5 -705Q484 -630 484 -523Q484 -440 436.5 -373.5Q389 -307 313 -280L512 3H372L207 -266Q204 -266 202 -266Z"/>
</svg>