<svg xmlns="http://www.w3.org/2000/svg" viewBox="0 -1000 1000 1000">
	<path fill="#000000" d="M1077 -813V-681H0V-813H538Q529 -859 505 -883Q473 -914 442 -945Q418 -969 365.5 -982.5Q313 -996 290 -1020Q274 -1035 263.5 -1065Q253 -1095 251 -1118L249 -1140L337 -1228Q338 -1219 340 -1203.5Q342 -1188 353.5 -1154.5Q365 -1121 381 -1105Q403 -1083 454.5 -1071Q506 -1059 529 -1037L530 -1035L531 -1034L533 -1032L534 -1031L536 -1029L537 -1028L538 -1027L540 -1025L541 -1024L542 -1023L544 -1022L545 -1020L546 -1019L547 -1018L548 -1017L550 -1016L551 -1015L552 -1013L553 -1012L554 -1011L555 -1010L556 -1009L557 -1008L558 -1007L559 -1006L560 -1005L561 -1004L562 -1003L563 -1002L564 -1001L565 -1000L566 -999L567 -998L568 -997L569 -996L571 -994H572V-993L573 -992L574 -991L575 -990L576 -989L577 -988L578 -987L579 -986H580V-985L581 -984L582 -983L583 -982L584 -981H585V-980L586 -979L587 -978L588 -977L589 -976L590 -975L591 -974L592 -973L593 -972L594 -971H595L596 -970L597 -969L598 -968L599 -966Q613 -952 621.5 -931.5Q630 -911 632 -892Q634 -873 634 -856Q634 -839 633 -828.5Q632 -818 632 -818L627 -813ZM236 -482L128 -588Q205 -665 311.5 -666Q418 -667 495 -590Q542 -543 560 -480L639 -545Q654 -569 675 -590Q715 -630 768 -650L778 -658L777 -653Q843 -676 915.5 -659Q988 -642 1042 -588L934 -482Q900 -515 857 -515Q814 -515 782 -483Q750 -451 750.5 -408Q751 -365 784 -331Q818 -298 861 -297.5Q904 -297 936 -329Q936 -329 937 -330L1039 -227Q992 -179 932.5 -157.5Q873 -136 804 -151Q735 -166 678 -224Q624 -278 607 -351L534 -275L533 -276Q516 -247 492 -224Q435 -166 366 -151Q297 -136 237.5 -157.5Q178 -179 131 -227L233 -330Q234 -329 234 -329Q266 -297 309 -297.5Q352 -298 386 -331Q390 -335 393 -339L389 -341L403 -352Q423 -384 419 -420Q415 -456 388 -483Q356 -515 313 -515Q270 -515 236 -482Z"/>
	<path fill="#2200f5" d="M1077 -803V-671H0V-803H538Q529 -849 505 -873Q473 -904 442 -935Q418 -959 365.5 -972.5Q313 -986 290 -1010Q274 -1025 263.5 -1055Q253 -1085 251 -1108L249 -1130L337 -1218Q338 -1209 340 -1193.5Q342 -1178 353.5 -1144.5Q365 -1111 381 -1095Q403 -1073 454.5 -1061Q506 -1049 529 -1027L599 -956Q613 -942 621.5 -921.5Q630 -901 632 -882Q634 -863 634 -846Q634 -829 633 -818.5Q632 -808 632 -808L627 -803ZM236 -472L128 -578Q205 -655 311.5 -656Q418 -657 495 -580Q542 -533 560 -470L639 -535Q654 -559 675 -580Q715 -620 768 -640L778 -648L777 -643Q843 -666 915.5 -649Q988 -632 1042 -578L934 -472Q900 -505 857 -505Q814 -505 782 -473Q750 -441 750.5 -398Q751 -355 784 -321Q818 -288 861 -287.5Q904 -287 936 -319Q936 -319 937 -320L1039 -217Q992 -169 932.5 -147.5Q873 -126 804 -141Q735 -156 678 -214Q624 -268 607 -341L534 -265L533 -266Q516 -237 492 -214Q435 -156 366 -141Q297 -126 237.5 -147.5Q178 -169 131 -217L233 -320Q234 -319 234 -319Q266 -287 309 -287.5Q352 -288 386 -321Q390 -325 393 -329L389 -331L403 -342Q423 -374 419 -410Q415 -446 388 -473Q356 -505 313 -505Q270 -505 236 -472Z"/>
</svg>