<svg xmlns="http://www.w3.org/2000/svg" viewBox="0 -1000 1000 1000">
	<path fill="#000000" d="M193 -629Q193 -629 193 -610Q193 -529 137 -472.5Q81 -416 1 -416Q-80 -416 -136.5 -472.5Q-193 -529 -193 -610V-629H-77Q-80 -620 -80 -610Q-80 -576 -56.5 -552.5Q-33 -529 1 -529Q35 -529 57.5 -552.5Q80 -576 80 -610Q80 -620 77 -629ZM-61 -668V-782H61V-668Z"/>
	<path fill="#2200f5" d="M193 -619Q193 -619 193 -600Q193 -519 137 -462.5Q81 -406 1 -406Q-80 -406 -136.5 -462.5Q-193 -519 -193 -600V-619H-77Q-80 -610 -80 -600Q-80 -566 -56.5 -542.5Q-33 -519 1 -519Q35 -519 57.5 -542.5Q80 -566 80 -600Q80 -610 77 -619ZM-61 -658V-772H61V-658Z"/>
</svg>