<svg xmlns="http://www.w3.org/2000/svg" viewBox="0 -1000 1000 1000">
	<path fill="#000000" d="M156 156V14H308V156L248 288L190 284L199 156ZM55 -67L130 -192Q142 -182 152 -177Q190 -155 232 -165.5Q274 -176 297 -212Q319 -251 294.5 -284.5Q270 -318 227 -325Q160 -361 119.5 -408Q79 -455 68.5 -517.5Q58 -580 101 -649Q153 -736 256 -761.5Q359 -787 453 -737Q456 -734 463.5 -729.5Q471 -725 474 -722L399 -597Q387 -607 377 -612Q339 -633 296.5 -622.5Q254 -612 232 -575Q207 -534 227.5 -485Q248 -436 296 -428Q345 -402 378.5 -375.5Q412 -349 436.5 -313.5Q461 -278 459.5 -234Q458 -190 427 -140Q375 -52 272.5 -26.5Q170 -1 76 -52Q73 -55 65.5 -59.5Q58 -64 55 -67Z"/>
	<path fill="#2200f5" d="M156 166V24H308V166L248 298L190 294L199 166ZM55 -57L130 -182Q142 -172 152 -167Q190 -145 232 -155.5Q274 -166 297 -202Q319 -241 294.5 -274.5Q270 -308 227 -315Q160 -351 119.5 -398Q79 -445 68.5 -507.5Q58 -570 101 -639Q153 -726 256 -751.5Q359 -777 453 -727Q456 -724 463.5 -719.5Q471 -715 474 -712L399 -587Q387 -597 377 -602Q339 -623 296.5 -612.5Q254 -602 232 -565Q207 -524 227.5 -475Q248 -426 296 -418Q345 -392 378.5 -365.5Q412 -339 436.5 -303.5Q461 -268 459.5 -224Q458 -180 427 -130Q375 -42 272.5 -16.5Q170 9 76 -42Q73 -45 65.5 -49.5Q58 -54 55 -57Z"/>
</svg>