<svg xmlns="http://www.w3.org/2000/svg" viewBox="0 -1000 1000 1000">
	<path fill="#000000" d="M-71 58V-19Q-63 -17 -58 -17Q-35 -17 -19.5 -32.5Q-4 -48 -4 -70Q-4 -92 -20 -108Q-36 -124 -58 -124Q-63 -124 -71 -122V-199H-58Q-4 -199 33.5 -161.5Q71 -124 71 -70Q71 -17 33.5 20.5Q-4 58 -58 58Z"/>
	<path fill="#2200f5" d="M-71 68V-9Q-63 -7 -58 -7Q-35 -7 -19.5 -22.5Q-4 -38 -4 -60Q-4 -82 -20 -98Q-36 -114 -58 -114Q-63 -114 -71 -112V-189H-58Q-4 -189 33.5 -151.5Q71 -114 71 -60Q71 -7 33.5 30.5Q-4 68 -58 68Z"/>
</svg>