<svg xmlns="http://www.w3.org/2000/svg" viewBox="0 -1000 1000 1000">
	<path fill="#000000" d="M236 -482Q236 -482 128 -588Q205 -665 311.5 -666Q418 -667 495 -590Q571 -513 570 -407Q569 -301 492 -224Q435 -166 366 -151Q297 -136 237.5 -157.5Q178 -179 131 -227L233 -330Q234 -329 234 -329Q266 -297 309 -297.5Q352 -298 386 -331Q419 -365 419.5 -408Q420 -451 388 -483Q356 -515 313 -515Q270 -515 236 -482ZM689 -813V-681H0V-813ZM434 -9L137 -229L338 -231L593 -9Z"/>
	<path fill="#2200f5" d="M236 -472Q236 -472 128 -578Q205 -655 311.5 -656Q418 -657 495 -580Q571 -503 570 -397Q569 -291 492 -214Q435 -156 366 -141Q297 -126 237.5 -147.5Q178 -169 131 -217L233 -320Q234 -319 234 -319Q266 -287 309 -287.5Q352 -288 386 -321Q419 -355 419.5 -398Q420 -441 388 -473Q356 -505 313 -505Q270 -505 236 -472ZM689 -803V-671H0V-803ZM434 1L137 -219L338 -221L593 1Z"/>
</svg>