<svg xmlns="http://www.w3.org/2000/svg" viewBox="0 -1000 1000 1000">
	<path fill="#000000" d="M737 -489Q726 -497 715 -503Q704 -509 692.5 -513Q681 -517 667.5 -518Q654 -519 643 -520Q632 -521 616 -518.5Q600 -516 590.5 -514.5Q581 -513 563 -508.5Q545 -504 538.5 -502Q532 -500 513 -494.5Q494 -489 491 -488L385 -611Q410 -615 435 -613L393 -769Q356 -767 320 -757Q245 -737 184.5 -689Q124 -641 89 -576Q54 -511 42.5 -434Q31 -357 53 -278Q81 -175 154 -100.5Q227 -26 325.5 2Q424 30 524 3Q560 -7 593 -23L553 -171L557 -178Q554 -179 551 -180L550 -183Q548 -182 547 -181Q539 -184 533 -188Q494 -211 482.5 -253Q471 -295 493 -334Q516 -373 558 -384Q600 -395 639 -373Q651 -366 660 -357ZM356 -394L362 -408L363 -410Q328 -347 328 -280Q328 -213 361 -154Q304 -171 260.5 -214.5Q217 -258 201 -319Q186 -376 196.5 -428.5Q207 -481 239 -523Z"/>
	<path fill="#2200f5" d="M737 -479Q726 -487 715 -493Q704 -499 692.5 -503Q681 -507 667.5 -508Q654 -509 643 -510Q632 -511 616 -508.5Q600 -506 590.5 -504.5Q581 -503 563 -498.5Q545 -494 538.5 -492Q532 -490 513 -484.5Q494 -479 491 -478L385 -601Q410 -605 435 -603L393 -759Q356 -757 320 -747Q245 -727 184.5 -679Q124 -631 89 -566Q54 -501 42.5 -424Q31 -347 53 -268Q81 -165 154 -90.5Q227 -16 325.5 12Q424 40 524 13Q560 3 593 -13L553 -161L557 -168Q554 -169 551 -170L550 -173Q548 -172 547 -171Q539 -174 533 -178Q494 -201 482.5 -243Q471 -285 493 -324Q516 -363 558 -374Q600 -385 639 -363Q651 -356 660 -347ZM356 -384L362 -398L363 -400Q328 -337 328 -270Q328 -203 361 -144Q304 -161 260.5 -204.5Q217 -248 201 -309Q186 -366 196.5 -418.5Q207 -471 239 -513Z"/>
</svg>