<svg xmlns="http://www.w3.org/2000/svg" viewBox="0 -1000 1000 1000">
	<path fill="#000000" d="M204 -493Q204 -493 202 -493Q202 -493 195 -493Q144 -497 109.5 -533.5Q75 -570 75 -621Q75 -672 110 -709Q145 -746 195 -750H202Q202 -750 204 -750Q204 -750 206 -750Q260 -750 297.5 -712.5Q335 -675 335 -621Q335 -568 297.5 -530.5Q260 -493 206 -493ZM205 -675Q201 -675 193 -673V-674Q174 -670 162.5 -655.5Q151 -641 151 -621Q151 -602 162.5 -587.5Q174 -573 193 -569V-570Q201 -568 205 -568Q209 -568 217 -570V-569Q236 -573 247.5 -587.5Q259 -602 259 -621Q259 -641 247.5 -655.5Q236 -670 217 -674V-673Q209 -675 205 -675ZM158 -437L391 -79L285 -18L52 -376Z"/>
	<path fill="#2200f5" d="M204 -483Q204 -483 202 -483Q202 -483 195 -483Q144 -487 109.5 -523.5Q75 -560 75 -611Q75 -662 110 -699Q145 -736 195 -740H202Q202 -740 204 -740Q204 -740 206 -740Q260 -740 297.5 -702.5Q335 -665 335 -611Q335 -558 297.5 -520.5Q260 -483 206 -483ZM205 -665Q201 -665 193 -663V-664Q174 -660 162.5 -645.5Q151 -631 151 -611Q151 -592 162.5 -577.5Q174 -563 193 -559V-560Q201 -558 205 -558Q209 -558 217 -560V-559Q236 -563 247.5 -577.5Q259 -592 259 -611Q259 -631 247.5 -645.5Q236 -660 217 -664V-663Q209 -665 205 -665ZM158 -427L391 -69L285 -8L52 -366Z"/>
</svg>