<svg xmlns="http://www.w3.org/2000/svg" viewBox="0 -1000 1000 1000">
	<path fill="#000000" d="M309 -761H441V-376H309ZM616 -813V-681H0V-813ZM311 -377Q310 -528 309 -528Q419 -528 496 -453Q573 -378 570 -270Q567 -161 492 -87Q417 -13 309 -13Q247 -13 198 -35Q149 -57 118.5 -94Q88 -131 72 -176.5Q56 -222 56 -271H201Q201 -271 201 -270Q201 -225 232 -195Q263 -165 310 -164Q357 -165 388 -195Q419 -225 419 -270Q419 -316 388.5 -346Q358 -376 311 -377Z"/>
	<path fill="#2200f5" d="M309 -751H441V-366H309ZM616 -803V-671H0V-803ZM311 -367Q310 -518 309 -518Q419 -518 496 -443Q573 -368 570 -260Q567 -151 492 -77Q417 -3 309 -3Q247 -3 198 -25Q149 -47 118.5 -84Q88 -121 72 -166.5Q56 -212 56 -261H201Q201 -261 201 -260Q201 -215 232 -185Q263 -155 310 -154Q357 -155 388 -185Q419 -215 419 -260Q419 -306 388.5 -336Q358 -366 311 -367Z"/>
</svg>