<svg xmlns="http://www.w3.org/2000/svg" viewBox="0 -1000 1000 1000">
	<path fill="#000000" d="M-1 -442Q-1 -442 -3 -442Q-3 -442 -10 -442Q-61 -446 -95.5 -482.5Q-130 -519 -130 -570Q-130 -621 -95 -658Q-60 -695 -10 -699H-3Q-3 -699 -1 -699Q-1 -699 1 -699Q55 -699 92.5 -661.5Q130 -624 130 -570Q130 -517 92.5 -479.5Q55 -442 1 -442ZM0 -624Q-4 -624 -12 -622V-623Q-31 -619 -42.5 -604.5Q-54 -590 -54 -570Q-54 -551 -42.5 -536.5Q-31 -522 -12 -518V-519Q-4 -517 0 -517Q4 -517 12 -519V-518Q31 -522 42.5 -536.5Q54 -551 54 -570Q54 -590 42.5 -604.5Q31 -619 12 -623V-622Q4 -624 0 -624Z"/>
	<path fill="#2200f5" d="M-1 -432Q-1 -432 -3 -432Q-3 -432 -10 -432Q-61 -436 -95.5 -472.5Q-130 -509 -130 -560Q-130 -611 -95 -648Q-60 -685 -10 -689H-3Q-3 -689 -1 -689Q-1 -689 1 -689Q55 -689 92.5 -651.5Q130 -614 130 -560Q130 -507 92.5 -469.5Q55 -432 1 -432ZM0 -614Q-4 -614 -12 -612V-613Q-31 -609 -42.5 -594.5Q-54 -580 -54 -560Q-54 -541 -42.5 -526.5Q-31 -512 -12 -508V-509Q-4 -507 0 -507Q4 -507 12 -509V-508Q31 -512 42.5 -526.5Q54 -541 54 -560Q54 -580 42.5 -594.5Q31 -609 12 -613V-612Q4 -614 0 -614Z"/>
</svg>