<svg xmlns="http://www.w3.org/2000/svg" viewBox="0 -1000 1000 1000">
	<path fill="#000000" d="M239 -57L306 -169Q313 -162 328 -157Q368 -140 399.5 -144Q431 -148 451 -172Q474 -199 429 -211Q417 -214 375 -221Q328 -240 291 -280Q254 -320 236 -365.5Q218 -411 220.5 -459Q223 -507 251 -539Q259 -549 276 -571Q293 -593 302 -603.5Q311 -614 327.5 -630.5Q344 -647 358 -653.5Q372 -660 391.5 -665.5Q411 -671 433.5 -667.5Q456 -664 482 -654Q483 -654 484 -654Q500 -654 518 -649.5Q536 -645 548 -641Q560 -637 570.5 -636Q581 -635 586 -642Q591 -649 591 -666Q591 -696 495.5 -712Q400 -728 297 -722.5Q194 -717 173 -693V-12H6L9 -694Q33 -777 100 -829Q141 -861 220 -873.5Q299 -886 387 -876Q475 -866 555.5 -841.5Q636 -817 689 -770Q742 -723 742 -666Q742 -589 730.5 -547Q719 -505 699 -494.5Q679 -484 654 -489.5Q629 -495 598.5 -508.5Q568 -522 539 -532Q510 -542 479.5 -537Q449 -532 426 -505Q410 -487 405.5 -460Q401 -433 414 -409Q427 -385 457 -380Q501 -361 540.5 -325Q580 -289 603 -247Q626 -205 628.5 -161.5Q631 -118 603 -85Q556 -28 456 -15.5Q356 -3 261 -44Q253 -46 239 -57Z"/>
	<path fill="#2200f5" d="M239 -47L306 -159Q313 -152 328 -147Q368 -130 399.5 -134Q431 -138 451 -162Q474 -189 429 -201Q417 -204 375 -211Q328 -230 291 -270Q254 -310 236 -355.5Q218 -401 220.5 -449Q223 -497 251 -529Q259 -539 276 -561Q293 -583 302 -593.5Q311 -604 327.5 -620.5Q344 -637 358 -643.5Q372 -650 391.5 -655.5Q411 -661 433.5 -657.5Q456 -654 482 -644Q483 -644 484 -644Q500 -644 518 -639.5Q536 -635 548 -631Q560 -627 570.5 -626Q581 -625 586 -632Q591 -639 591 -656Q591 -686 495.5 -702Q400 -718 297 -712.5Q194 -707 173 -683V-2H6L9 -684Q33 -767 100 -819Q141 -851 220 -863.5Q299 -876 387 -866Q475 -856 555.5 -831.5Q636 -807 689 -760Q742 -713 742 -656Q742 -579 730.5 -537Q719 -495 699 -484.5Q679 -474 654 -479.5Q629 -485 598.5 -498.5Q568 -512 539 -522Q510 -532 479.5 -527Q449 -522 426 -495Q410 -477 405.5 -450Q401 -423 414 -399Q427 -375 457 -370Q501 -351 540.5 -315Q580 -279 603 -237Q626 -195 628.5 -151.5Q631 -108 603 -75Q556 -18 456 -5.5Q356 7 261 -34Q253 -36 239 -47Z"/>
</svg>