<svg xmlns="http://www.w3.org/2000/svg" viewBox="0 -1000 1000 1000">
	<path fill="#000000" d="M341 236Q341 236 328 236Q274 236 236.5 198.5Q199 161 199 108Q199 54 236.5 16.5Q274 -21 328 -21H341V56Q333 54 328 54Q306 54 290 70Q274 86 274 108Q274 130 289.5 145.5Q305 161 328 161Q333 161 341 159ZM616 -194Q600 -136 555.5 -94.5Q511 -53 455 -33.5Q399 -14 335 -13.5Q271 -13 214.5 -32Q158 -51 114 -93Q70 -135 53 -194L50 -771H217V-195Q246 -162 335 -161.5Q424 -161 452 -195V-771H619Z"/>
	<path fill="#2200f5" d="M341 246Q341 246 328 246Q274 246 236.5 208.5Q199 171 199 118Q199 64 236.5 26.5Q274 -11 328 -11H341V66Q333 64 328 64Q306 64 290 80Q274 96 274 118Q274 140 289.5 155.5Q305 171 328 171Q333 171 341 169ZM616 -184Q600 -126 555.5 -84.5Q511 -43 455 -23.5Q399 -4 335 -3.5Q271 -3 214.5 -22Q158 -41 114 -83Q70 -125 53 -184L50 -761H217V-185Q246 -152 335 -151.5Q424 -151 452 -185V-761H619Z"/>
</svg>