<svg xmlns="http://www.w3.org/2000/svg" viewBox="0 -1000 1000 1000">
	<path fill="#000000" d="M176 -842L247 -1010H248H323H324L376 -842H300L280 -950L252 -842ZM500 -10L411 -238V-237H211L152 -10H0L216 -779H368L652 -10ZM357 -377L307 -545L247 -377Z"/>
	<path fill="#2200f5" d="M226 -832L297 -1000H298H373H374L426 -832H350L330 -940L302 -832ZM550 0L461 -228V-227H261L202 0H50L266 -769H418L702 0ZM407 -367L357 -535L297 -367Z"/>
	<path fill="#00a0e1" d="M332 -940L353 -835H423L372 -997H299L229 -835H300L327 -940Q328 -942 330 -942Q332 -942 332 -940ZM297 -1002H374Q375 -1002 376 -1000L429 -833Q429 -833 429 -832Q429 -830 426 -830H350Q348 -830 348 -832L329 -928L304 -832Q303 -830 302 -830H226Q223 -830 223 -832Q223 -833 223 -833L295 -1000Q295 -1002 297 -1002ZM461 -231Q463 -231 463 -229L552 -2H698L416 -766H268L53 -2H200L259 -228Q259 -230 261 -230H459Q460 -231 461 -231ZM301 -370H403L357 -527ZM407 -364H297Q295 -364 295 -367Q295 -367 295 -368L355 -536Q355 -538 357 -538Q359 -538 360 -536L409 -368Q409 -367 409 -367Q409 -364 407 -364ZM202 2H50Q48 2 48 0Q48 0 48 -1L264 -770Q264 -772 266 -772H418Q420 -772 420 -770L704 -1Q704 0 704 0Q704 2 702 2H550Q548 2 548 1L460 -224H263L204 1Q204 2 202 2Z"/>
</svg>