<svg xmlns="http://www.w3.org/2000/svg" viewBox="0 -1000 1000 1000">
	<path fill="#000000" d="M300 -843V-985H452V-843ZM100 -843V-985H252V-843ZM500 -10L411 -238V-237H211L152 -10H0L216 -779H368L652 -10ZM357 -377L307 -545L247 -377Z"/>
	<path fill="#2200f5" d="M350 -833V-975H502V-833ZM150 -833V-975H302V-833ZM550 0L461 -228V-227H261L202 0H50L266 -769H418L702 0ZM407 -367L357 -535L297 -367Z"/>
	<path fill="#00a0e1" d="M352 -973V-835H500V-973ZM348 -833V-975Q348 -977 350 -977H502Q504 -977 504 -975V-833Q504 -831 502 -831H350Q348 -831 348 -833ZM152 -973V-835H300V-973ZM148 -833V-975Q148 -977 150 -977H302Q304 -977 304 -975V-833Q304 -831 302 -831H150Q148 -831 148 -833ZM461 -231Q463 -231 463 -229L552 -2H698L416 -766H268L53 -2H200L259 -228Q259 -230 261 -230H459Q460 -231 461 -231ZM301 -370H403L357 -527ZM407 -364H297Q295 -364 295 -367Q295 -367 295 -368L355 -536Q355 -538 357 -538Q359 -538 360 -536L409 -368Q409 -367 409 -367Q409 -364 407 -364ZM202 2H50Q48 2 48 0Q48 0 48 -1L264 -770Q264 -772 266 -772H418Q420 -772 420 -770L704 -1Q704 0 704 0Q704 2 702 2H550Q548 2 548 1L460 -224H263L204 1Q204 2 202 2Z"/>
</svg>