<svg xmlns="http://www.w3.org/2000/svg" viewBox="0 -1000 1000 1000">
	<path fill="#000000" d="M357 -377L291 -545L247 -377ZM815 -495L816 -343H508V-159H923L924 -7H357V-8H356V-237H211L152 -10H0L200 -788H923L924 -636H508V-495Z"/>
	<path fill="#2200f5" d="M407 -367L341 -535L297 -367ZM865 -485L866 -333H558V-149H973L974 3H407V2H406V-227H261L202 0H50L250 -778H973L974 -626H558V-485Z"/>
	<path fill="#00a0e1" d="M301 -370H403L342 -527ZM407 -364H297Q295 -364 295 -367Q295 -367 295 -368L339 -536Q339 -538 341 -538Q343 -538 344 -536L409 -368Q409 -367 409 -367Q409 -364 407 -364ZM558 -482Q556 -482 556 -485V-626Q556 -628 558 -628H971V-776H252L53 -2H200L259 -228Q259 -230 261 -230H406Q408 -230 408 -227V0Q409 0 409 0H971V-146H558Q556 -146 556 -149V-333Q556 -336 558 -336H863V-482ZM866 -330H560V-152H973Q975 -152 975 -149L976 3Q976 6 974 6H407Q406 6 405 4Q404 3 404 2V-224H263L204 1Q204 2 202 2H50Q48 2 48 0Q48 0 48 -1L248 -779Q248 -780 250 -780H973Q975 -780 975 -778L976 -626Q976 -624 974 -624H560V-488H865Q867 -488 867 -485L868 -333Q868 -330 866 -330Z"/>
</svg>