<svg xmlns="http://www.w3.org/2000/svg" viewBox="0 -1000 1000 1000">
	<path fill="#000000" d="M340 -820L337 -701Q319 -700 254.5 -665Q190 -630 175 -615Q141 -581 144 -531L167 -508Q214 -528 266 -528Q279 -528 292 -527V-383L403 -272Q516 -364 520 -365V-212Q517 -212 487 -188L551 -124L433 -6L357 -83Q270 -13 266 -13Q159 -13 83.5 -88Q8 -163 8 -270Q8 -340 43 -400L27 -416Q7 -452 2 -490Q-3 -528 7 -568.5Q17 -609 30.5 -643Q44 -677 68 -722Q81 -746 141.5 -774Q202 -802 263 -816Q324 -830 340 -820ZM273 -168L160 -282Q159 -276 159 -270Q159 -226 190 -195Q221 -164 266 -164Q267 -164 273 -168Z"/>
	<path fill="#2200f5" d="M389 -810L386 -691Q368 -690 303.5 -655Q239 -620 224 -605Q190 -571 193 -521L216 -498Q263 -518 315 -518Q328 -518 341 -517V-373L452 -262Q565 -354 569 -355V-202Q566 -202 536 -178L600 -114L482 4L406 -73Q319 -3 315 -3Q208 -3 132.5 -78Q57 -153 57 -260Q57 -330 92 -390L76 -406Q56 -442 51 -480Q46 -518 56 -558.5Q66 -599 79.5 -633Q93 -667 117 -712Q130 -736 190.5 -764Q251 -792 312 -806Q373 -820 389 -810ZM322 -158L209 -272Q208 -266 208 -260Q208 -216 239 -185Q270 -154 315 -154Q316 -154 322 -158Z"/>
	<path fill="#00a0e1" d="M53 -506Q53 -453 78 -408L94 -392Q94 -391 94 -390Q94 -389 94 -389Q59 -329 59 -260Q59 -154 134 -80Q209 -6 315 -6Q323 -11 337 -22Q358 -38 404 -75Q405 -75 406 -75Q407 -75 407 -75L482 0L596 -114L534 -176Q533 -177 533 -178Q533 -179 534 -180Q562 -202 566 -204V-351Q547 -336 454 -260Q453 -259 452 -259Q451 -259 450 -260L339 -371Q338 -372 338 -373V-514Q327 -516 315 -516Q263 -516 217 -496Q216 -496 216 -496Q215 -496 214 -497L191 -519Q190 -520 190 -528Q190 -575 222 -607Q237 -622 299.5 -655.5Q362 -689 383 -693L386 -809Q381 -811 369 -811Q319 -811 227 -776.5Q135 -742 119 -711Q53 -584 53 -506ZM195 -528Q195 -525 195 -522L216 -501Q263 -520 315 -520Q328 -520 341 -519Q343 -519 343 -517V-374L452 -265L460 -272Q564 -357 568 -358Q569 -358 569 -358Q571 -358 571 -355V-202Q571 -200 569 -200Q564 -197 540 -178L602 -116Q602 -115 602 -114Q602 -113 602 -112L484 6Q483 6 482 6Q481 6 480 6L406 -70Q361 -34 340 -18Q318 0 315 0Q207 0 130.5 -76Q54 -152 54 -260Q54 -330 89 -390L74 -404Q74 -404 74 -405Q48 -452 48 -506Q48 -585 115 -713Q132 -746 224.5 -781Q317 -816 369 -816Q384 -816 390 -812Q391 -811 391 -810L388 -691Q388 -689 386 -689Q369 -687 304.5 -652.5Q240 -618 226 -603Q195 -573 195 -528ZM210 -260Q210 -217 240.5 -187Q271 -157 315 -157Q316 -157 318 -158L211 -266Q210 -263 210 -260ZM205 -260Q205 -275 209 -275Q210 -275 210 -274L323 -160Q324 -159 324 -158Q324 -157 323 -156Q317 -152 315 -152Q269 -152 237 -183.5Q205 -215 205 -260Z"/>
</svg>