<svg xmlns="http://www.w3.org/2000/svg" viewBox="0 -1000 1000 1000">
	<path fill="#000000" d="M635 242Q635 242 622 242Q568 242 530.5 204.5Q493 167 493 114Q493 60 530.5 22.5Q568 -15 622 -15H635V62Q627 60 622 60Q600 60 584 76Q568 92 568 114Q568 136 583.5 151.5Q599 167 622 167Q627 167 635 165ZM500 -10L411 -238V-237H211L152 -10H0L216 -779H368L652 -10ZM357 -377L307 -545L247 -377Z"/>
	<path fill="#2200f5" d="M685 252Q685 252 672 252Q618 252 580.5 214.5Q543 177 543 124Q543 70 580.5 32.5Q618 -5 672 -5H685V72Q677 70 672 70Q650 70 634 86Q618 102 618 124Q618 146 633.5 161.5Q649 177 672 177Q677 177 685 175ZM550 0L461 -228V-227H261L202 0H50L266 -769H418L702 0ZM407 -367L357 -535L297 -367Z"/>
	<path fill="#00a0e1" d="M682 -2H672Q619 -2 582.5 34.5Q546 71 546 124Q546 176 582.5 213Q619 250 672 250H682V178Q676 180 672 180Q648 180 632 163.5Q616 147 616 123.5Q616 100 632 84Q648 68 672 68Q676 68 682 69ZM685 254H672Q617 254 578.5 216Q540 178 540 124Q540 69 578.5 30.5Q617 -8 672 -8H685Q688 -8 688 -5V72Q688 74 685 74Q685 74 684 74Q677 72 672 72Q651 72 635.5 87.5Q620 103 620 124Q620 145 635 159.5Q650 174 672 174Q677 174 684 173Q685 172 685 172Q688 172 688 175V252Q688 254 685 254ZM461 -231Q463 -231 463 -229L552 -2H698L416 -766H268L53 -2H200L259 -228Q259 -230 261 -230H459Q460 -231 461 -231ZM301 -370H403L357 -527ZM407 -364H297Q295 -364 295 -367Q295 -367 295 -368L355 -536Q355 -538 357 -538Q359 -538 360 -536L409 -368Q409 -367 409 -367Q409 -364 407 -364ZM202 2H50Q48 2 48 0Q48 0 48 -1L264 -770Q264 -772 266 -772H418Q420 -772 420 -770L704 -1Q704 0 704 0Q704 2 702 2H550Q548 2 548 1L460 -224H263L204 1Q204 2 202 2Z"/>
</svg>