<svg xmlns="http://www.w3.org/2000/svg" viewBox="0 -1000 1000 1000">
	<path fill="#000000" d="M275 -802Q275 -802 273 -802Q273 -802 266 -802Q215 -806 180.5 -842.5Q146 -879 146 -930Q146 -981 181 -1018Q216 -1055 266 -1059H273Q273 -1059 275 -1059Q275 -1059 277 -1059Q331 -1059 368.5 -1021.5Q406 -984 406 -930Q406 -877 368.5 -839.5Q331 -802 277 -802ZM276 -984Q272 -984 264 -982V-983Q245 -979 233.5 -964.5Q222 -950 222 -930Q222 -911 233.5 -896.5Q245 -882 264 -878V-879Q272 -877 276 -877Q280 -877 288 -879V-878Q307 -882 318.5 -896.5Q330 -911 330 -930Q330 -950 318.5 -964.5Q307 -979 288 -983V-982Q280 -984 276 -984ZM500 -10L411 -238V-237H211L152 -10H0L216 -779H368L652 -10ZM357 -377L307 -545L247 -377Z"/>
	<path fill="#2200f5" d="M325 -792Q325 -792 323 -792Q323 -792 316 -792Q265 -796 230.5 -832.5Q196 -869 196 -920Q196 -971 231 -1008Q266 -1045 316 -1049H323Q323 -1049 325 -1049Q325 -1049 327 -1049Q381 -1049 418.5 -1011.5Q456 -974 456 -920Q456 -867 418.5 -829.5Q381 -792 327 -792ZM326 -974Q322 -974 314 -972V-973Q295 -969 283.5 -954.5Q272 -940 272 -920Q272 -901 283.5 -886.5Q295 -872 314 -868V-869Q322 -867 326 -867Q330 -867 338 -869V-868Q357 -872 368.5 -886.5Q380 -901 380 -920Q380 -940 368.5 -954.5Q357 -969 338 -973V-972Q330 -974 326 -974ZM550 0L461 -228V-227H261L202 0H50L266 -769H418L702 0ZM407 -367L357 -535L297 -367Z"/>
	<path fill="#00a0e1" d="M316 -794H327Q380 -794 417 -831Q454 -868 454 -920Q454 -973 417 -1009.5Q380 -1046 327 -1046H316Q267 -1043 232.5 -1006.5Q198 -970 198 -920Q198 -870 232.5 -834Q267 -798 316 -794ZM327 -790H316Q264 -793 229 -830.5Q194 -868 194 -920Q194 -972 229 -1010Q264 -1048 316 -1051Q316 -1051 316 -1052H327Q382 -1052 420 -1013.5Q458 -975 458 -920Q458 -866 420 -828Q382 -790 327 -790ZM315 -970Q314 -970 314 -970Q313 -970 312 -970Q295 -966 285 -952Q275 -938 274.5 -920Q274 -902 284.5 -888.5Q295 -875 312 -871Q313 -871 314 -872Q314 -872 315 -871Q322 -870 326 -870Q330 -870 337 -871Q338 -872 338 -872Q339 -872 340 -871Q357 -875 367.5 -888.5Q378 -902 378 -920Q378 -938 367.5 -952Q357 -966 340 -970Q339 -970 338 -970Q338 -970 337 -970Q330 -972 326 -972Q322 -972 315 -970ZM336 -975Q337 -975 338 -976V-975Q358 -972 370 -956Q382 -940 382 -920Q382 -900 370 -884.5Q358 -869 338 -866Q337 -866 336 -866Q330 -864 326 -864Q322 -864 316 -866Q315 -866 314 -866Q294 -869 282 -884.5Q270 -900 270 -920Q270 -940 282 -956Q294 -972 314 -975Q314 -975 314 -976Q315 -976 316 -975Q322 -976 326 -976Q330 -976 336 -975ZM461 -231Q463 -231 463 -229L552 -2H698L416 -766H268L53 -2H200L259 -228Q259 -230 261 -230H459Q460 -231 461 -231ZM301 -370H403L357 -527ZM407 -364H297Q295 -364 295 -367Q295 -367 295 -368L355 -536Q355 -538 357 -538Q359 -538 360 -536L409 -368Q409 -367 409 -367Q409 -364 407 -364ZM202 2H50Q48 2 48 0Q48 0 48 -1L264 -770Q264 -772 266 -772H418Q420 -772 420 -770L704 -1Q704 0 704 0Q704 2 702 2H550Q548 2 548 1L460 -224H263L204 1Q204 2 202 2Z"/>
</svg>