<svg xmlns="http://www.w3.org/2000/svg" viewBox="0 -1000 1000 1000">
	<path fill="#000000" d="M71 -293L214 -627H215H366H367L473 -293H321L279 -507L223 -293Z"/>
	<path fill="#2200f5" d="M121 -283L264 -617H265H416H417L523 -283H371L329 -497L273 -283Z"/>
	<path fill="#00a0e1" d="M331 -497L373 -286H520L415 -614H266L125 -286H271L327 -498Q327 -500 329 -500Q331 -500 331 -497ZM264 -620H417Q419 -620 419 -618L525 -284Q526 -283 526 -283Q526 -280 523 -280H371Q369 -280 369 -283L329 -486L275 -282Q275 -280 273 -280H121Q118 -280 118 -283Q118 -284 119 -284L262 -618Q262 -620 264 -620Z"/>
</svg>