<svg xmlns="http://www.w3.org/2000/svg" viewBox="0 -1000 1000 1000">
	<path fill="#000000" d="M544 -506V-354H455L518 -291L411 -184L348 -247V-159H196V-247L133 -184L26 -291L89 -354H0V-506H89L26 -569L133 -676L196 -613V-702H348V-613L411 -676L518 -569L455 -506Z"/>
	<path fill="#2200f5" d="M594 -496V-344H505L568 -281L461 -174L398 -237V-149H246V-237L183 -174L76 -281L139 -344H50V-496H139L76 -559L183 -666L246 -603V-692H398V-603L461 -666L568 -559L505 -496Z"/>
	<path fill="#00a0e1" d="M592 -346V-494H505Q502 -494 502 -496Q502 -497 503 -498L564 -559L461 -662L400 -601Q399 -600 398 -600Q396 -600 396 -603V-690H248V-603Q248 -600 246 -600Q245 -600 244 -601L183 -662L80 -559L141 -498Q142 -497 142 -496Q142 -494 139 -494H52V-346H139Q142 -346 142 -344Q142 -343 141 -342L80 -281L183 -178L244 -239Q245 -240 246 -240Q248 -240 248 -237V-152H396V-237Q396 -240 398 -240Q399 -240 400 -239L461 -178L564 -281L503 -342Q502 -343 502 -344Q502 -346 505 -346ZM596 -496V-344Q596 -342 594 -342H511L570 -283Q570 -282 570 -281Q570 -280 570 -279L463 -172Q462 -172 461 -172Q460 -172 459 -172L400 -231V-149Q400 -146 398 -146H246Q244 -146 244 -149V-231L185 -172Q184 -172 183 -172Q182 -172 181 -172L74 -279Q74 -280 74 -281Q74 -282 74 -283L133 -342H50Q48 -342 48 -344V-496Q48 -498 50 -498H133L74 -557Q74 -558 74 -559Q74 -560 74 -561L181 -668Q182 -668 183 -668Q184 -668 185 -668L244 -609V-692Q244 -694 246 -694H398Q400 -694 400 -692V-609L459 -668Q460 -668 461 -668Q462 -668 463 -668L570 -561Q570 -560 570 -559Q570 -558 570 -557L511 -498H594Q596 -498 596 -496Z"/>
</svg>