<svg xmlns="http://www.w3.org/2000/svg" viewBox="0 -1000 1000 1000">
	<path fill="#000000" d="M152 -790Q158 -790 170 -790Q277 -790 352.5 -714.5Q428 -639 428 -532Q428 -509 414 -487Q400 -465 375.5 -439Q351 -413 345 -406Q347 -404 377.5 -372Q408 -340 421 -317.5Q434 -295 434 -270Q434 -163 358.5 -88Q283 -13 176 -13Q160 -13 152 -14H0V-790ZM152 -146Q164 -143 176 -143Q221 -143 252 -174Q283 -205 283 -249Q283 -294 252 -325Q221 -356 176 -356Q164 -356 152 -353ZM152 -464Q164 -461 176 -461Q221 -461 252 -492Q283 -523 283 -567Q283 -612 252 -643Q221 -674 176 -674Q164 -674 152 -671Z"/>
	<path fill="#2200f5" d="M202 -780Q208 -780 220 -780Q327 -780 402.5 -704.5Q478 -629 478 -522Q478 -499 464 -477Q450 -455 425.5 -429Q401 -403 395 -396Q397 -394 427.5 -362Q458 -330 471 -307.5Q484 -285 484 -260Q484 -153 408.5 -78Q333 -3 226 -3Q210 -3 202 -4H50V-780ZM202 -136Q214 -133 226 -133Q271 -133 302 -164Q333 -195 333 -239Q333 -284 302 -315Q271 -346 226 -346Q214 -346 202 -343ZM202 -454Q214 -451 226 -451Q271 -451 302 -482Q333 -513 333 -557Q333 -602 302 -633Q271 -664 226 -664Q214 -664 202 -661Z"/>
	<path fill="#00a0e1" d="M220 -778Q217 -778 211 -777.5Q205 -777 202 -777Q201 -777 201 -778H52V-6H202Q210 -6 226 -6Q332 -6 407 -80Q482 -154 482 -260Q482 -284 469 -306Q456 -328 426 -359.5Q396 -391 393 -394Q392 -395 392 -396Q392 -397 393 -398Q400 -406 419 -426Q436 -445 446 -456.5Q456 -468 466 -486.5Q476 -505 476 -522Q476 -628 401 -703Q326 -778 220 -778ZM226 -136Q270 -136 300 -166Q330 -196 330 -239Q330 -283 300 -313.5Q270 -344 226 -344Q215 -344 204 -341V-138Q215 -136 226 -136ZM200 -136V-343Q200 -345 201 -345Q214 -348 226 -348Q272 -348 304 -316.5Q336 -285 336 -239Q336 -194 304 -162Q272 -130 226 -130Q214 -130 201 -134Q200 -134 200 -136ZM226 -454Q270 -454 300 -484Q330 -514 330 -557Q330 -601 300 -631.5Q270 -662 226 -662Q215 -662 204 -659V-456Q215 -454 226 -454ZM200 -454V-661Q200 -663 201 -663Q214 -666 226 -666Q272 -666 304 -634.5Q336 -603 336 -557Q336 -512 304 -480Q272 -448 226 -448Q214 -448 201 -452Q200 -452 200 -454ZM398 -396Q405 -388 424.5 -367.5Q444 -347 455 -334Q466 -321 476 -300Q486 -279 486 -260Q486 -152 410 -76Q334 0 226 0Q222 0 214 -1Q206 -2 202 -2H50Q48 -2 48 -4V-780Q48 -782 50 -782H202Q203 -782 203 -782Q209 -783 220 -783Q220 -783 220 -782Q328 -782 404 -706Q480 -630 480 -522Q480 -499 467.5 -477.5Q455 -456 429.5 -429.5Q404 -403 398 -396Z"/>
</svg>