<svg xmlns="http://www.w3.org/2000/svg" viewBox="0 -1000 1000 1000">
	<path fill="#000000" d="M129 75V-60Q145 -39 166 -39Q191 -39 207 -68V-238L288 -379L206 -480L207 -664Q190 -694 166 -694Q145 -694 129 -673V-808Q144 -815 166 -815Q210 -815 244.5 -773Q279 -731 291 -665L292 -495L401 -368L292 -238L291 -68Q279 -2 244.5 40Q210 82 166 82Q144 82 129 75Z"/>
	<path fill="#2200f5" d="M179 85V-50Q195 -29 216 -29Q241 -29 257 -58V-228L338 -369L256 -470L257 -654Q240 -684 216 -684Q195 -684 179 -663V-798Q194 -805 216 -805Q260 -805 294.5 -763Q329 -721 341 -655L342 -485L451 -358L342 -228L341 -58Q329 8 294.5 50Q260 92 216 92Q194 92 179 85Z"/>
	<path fill="#00a0e1" d="M216 90Q259 90 292.5 48.5Q326 7 339 -58L340 -228Q340 -229 340 -230L448 -358L340 -483Q340 -484 340 -485L339 -655Q326 -720 292.5 -761Q259 -802 216 -802Q196 -802 182 -796V-670Q197 -686 216 -686Q242 -686 259 -655Q260 -655 260 -654L259 -471L340 -371Q340 -370 340 -369Q340 -368 340 -368L260 -227V-58Q260 -57 259 -57Q242 -26 216 -26Q197 -26 182 -43V83Q196 90 216 90ZM176 85V-50Q176 -52 179 -52Q180 -52 181 -52Q196 -32 216 -32Q239 -32 254 -59V-228Q254 -229 255 -229L335 -369L254 -468Q254 -469 254 -470V-653Q239 -682 216 -682Q196 -682 181 -661Q180 -660 179 -660Q176 -660 176 -663V-798Q176 -800 178 -800Q194 -808 216 -808Q262 -808 296.5 -765Q331 -722 343 -655L344 -486L453 -360Q454 -359 454 -358Q454 -357 453 -356L344 -227L343 -58Q331 9 296.5 51.5Q262 94 216 95Q194 94 178 87Q176 87 176 85Z"/>
</svg>