<svg xmlns="http://www.w3.org/2000/svg" viewBox="0 -1000 1000 1000">
	<path fill="#000000" d="M18 -944H94L122 -836L142 -944H218L166 -776H165H90H89Z"/>
	<path fill="#2200f5" d="M68 -934H144L172 -826L192 -934H268L216 -766H215H140H139Z"/>
	<path fill="#00a0e1" d="M170 -825L142 -932H72L141 -768H214L265 -932H194L174 -826Q174 -824 172 -824Q170 -824 170 -825ZM68 -936H144Q146 -936 146 -935L172 -838L190 -934Q190 -936 192 -936H268Q270 -936 270 -934Q270 -934 270 -933L218 -765Q218 -764 216 -764H139Q137 -764 137 -765L66 -933Q66 -933 66 -934Q66 -936 68 -936Z"/>
</svg>