<svg xmlns="http://www.w3.org/2000/svg" viewBox="0 -1000 1000 1000">
	<path fill="#000000" d="M282 -1011H358L386 -903L406 -1011H482L430 -843H429H354H353ZM382 -622Q287 -622 220 -553.5Q153 -485 153 -388Q153 -290 220 -221.5Q287 -153 382 -153Q420 -153 455 -165V-3Q419 4 382 4Q224 4 112 -111.5Q0 -227 0 -390Q0 -553 112 -668Q224 -783 382 -783Q419 -783 455 -776V-610Q420 -622 382 -622Z"/>
	<path fill="#2200f5" d="M332 -1001H408L436 -893L456 -1001H532L480 -833H479H404H403ZM432 -612Q337 -612 270 -543.5Q203 -475 203 -378Q203 -280 270 -211.5Q337 -143 432 -143Q470 -143 505 -155V7Q469 14 432 14Q274 14 162 -101.5Q50 -217 50 -380Q50 -543 162 -658Q274 -773 432 -773Q469 -773 505 -766V-600Q470 -612 432 -612Z"/>
	<path fill="#00a0e1" d="M434 -892L406 -999H336L405 -835H478L529 -999H458L438 -893Q438 -891 436 -891Q434 -891 434 -892ZM332 -1003H408Q410 -1003 410 -1002L436 -905L454 -1001Q454 -1003 456 -1003H532Q534 -1003 534 -1001Q534 -1001 534 -1000L482 -832Q482 -831 480 -831H403Q401 -831 401 -832L330 -1000Q330 -1000 330 -1001Q330 -1003 332 -1003ZM200 -378Q200 -476 268 -545Q336 -614 432 -614Q468 -614 502 -603V-764Q468 -770 432 -770Q329 -770 241.5 -718Q154 -666 103 -576Q52 -486 52 -380Q52 -273 103 -183Q154 -93 241.5 -40.5Q329 12 432 12Q468 12 502 5V-152Q468 -140 432 -140Q336 -140 268 -209.5Q200 -279 200 -378ZM432 -610Q338 -610 272 -542Q206 -474 206 -378Q206 -281 272 -213.5Q338 -146 432 -146Q469 -146 504 -157Q505 -158 505 -158Q508 -158 508 -155V7Q508 9 505 9Q469 16 432 16Q327 16 238.5 -36.5Q150 -89 99 -180.5Q48 -272 48 -380Q48 -487 99 -578.5Q150 -670 239 -723Q328 -776 432 -776Q469 -776 505 -768Q508 -768 508 -766V-600Q508 -597 505 -597Q505 -597 504 -598Q469 -610 432 -610Z"/>
</svg>