<svg xmlns="http://www.w3.org/2000/svg" viewBox="0 -1000 1000 1000">
	<path fill="#000000" d="M375 252V175Q383 177 388 177Q411 177 426.5 161.5Q442 146 442 124Q442 102 426 86Q410 70 388 70Q383 70 375 72V-5H388Q442 -5 479.5 32.5Q517 70 517 124Q517 177 479.5 214.5Q442 252 388 252ZM382 -622Q287 -622 220 -553.5Q153 -485 153 -388Q153 -290 220 -221.5Q287 -153 382 -153Q420 -153 455 -165V-3Q419 4 382 4Q224 4 112 -111.5Q0 -227 0 -390Q0 -553 112 -668Q224 -783 382 -783Q419 -783 455 -776V-610Q420 -622 382 -622Z"/>
	<path fill="#2200f5" d="M425 262V185Q433 187 438 187Q461 187 476.5 171.5Q492 156 492 134Q492 112 476 96Q460 80 438 80Q433 80 425 82V5H438Q492 5 529.5 42.5Q567 80 567 134Q567 187 529.5 224.5Q492 262 438 262ZM432 -612Q337 -612 270 -543.5Q203 -475 203 -378Q203 -280 270 -211.5Q337 -143 432 -143Q470 -143 505 -155V7Q469 14 432 14Q274 14 162 -101.5Q50 -217 50 -380Q50 -543 162 -658Q274 -773 432 -773Q469 -773 505 -766V-600Q470 -612 432 -612Z"/>
	<path fill="#00a0e1" d="M428 260H438Q491 260 527.5 223Q564 186 564 134Q564 81 527.5 44.5Q491 8 438 8H428V79Q434 78 438 78Q462 78 478 94Q494 110 494 133.5Q494 157 478 173.5Q462 190 438 190Q434 190 428 188ZM422 262V185Q422 182 425 182Q425 182 426 183Q433 184 438 184Q460 184 475 169.5Q490 155 490 134Q490 113 474.5 97.5Q459 82 438 82Q433 82 426 84Q425 84 425 84Q422 84 422 82V5Q422 2 425 2H438Q493 2 531.5 40.5Q570 79 570 134Q570 188 531.5 226Q493 264 438 264H425Q422 264 422 262ZM200 -378Q200 -476 268 -545Q336 -614 432 -614Q468 -614 502 -603V-764Q468 -770 432 -770Q329 -770 241.5 -718Q154 -666 103 -576Q52 -486 52 -380Q52 -273 103 -183Q154 -93 241.5 -40.5Q329 12 432 12Q468 12 502 5V-152Q468 -140 432 -140Q336 -140 268 -209.5Q200 -279 200 -378ZM432 -610Q338 -610 272 -542Q206 -474 206 -378Q206 -281 272 -213.5Q338 -146 432 -146Q469 -146 504 -157Q505 -158 505 -158Q508 -158 508 -155V7Q508 9 505 9Q469 16 432 16Q327 16 238.5 -36.5Q150 -89 99 -180.5Q48 -272 48 -380Q48 -487 99 -578.5Q150 -670 239 -723Q328 -776 432 -776Q469 -776 505 -768Q508 -768 508 -766V-600Q508 -597 505 -597Q505 -597 504 -598Q469 -610 432 -610Z"/>
</svg>