<svg xmlns="http://www.w3.org/2000/svg" viewBox="0 -1000 1000 1000">
	<path fill="#000000" d="M129 238V161Q137 163 142 163Q165 163 180.5 147.5Q196 132 196 110Q196 88 180 72Q164 56 142 56Q137 56 129 58V-19H142Q196 -19 233.5 18.5Q271 56 271 110Q271 163 233.5 200.5Q196 238 142 238Z"/>
	<path fill="#2200f5" d="M179 248V171Q187 173 192 173Q215 173 230.5 157.5Q246 142 246 120Q246 98 230 82Q214 66 192 66Q187 66 179 68V-9H192Q246 -9 283.5 28.5Q321 66 321 120Q321 173 283.5 210.5Q246 248 192 248Z"/>
	<path fill="#00a0e1" d="M182 246H192Q245 246 281.5 209Q318 172 318 120Q318 67 281.5 30.5Q245 -6 192 -6H182V65Q188 64 192 64Q216 64 232 80Q248 96 248 119.5Q248 143 232 159.5Q216 176 192 176Q188 176 182 174ZM176 248V171Q176 168 179 168Q179 168 180 169Q187 170 192 170Q214 170 229 155.5Q244 141 244 120Q244 99 228.5 83.5Q213 68 192 68Q187 68 180 70Q179 70 179 70Q176 70 176 68V-9Q176 -12 179 -12H192Q247 -12 285.5 26.5Q324 65 324 120Q324 174 285.5 212Q247 250 192 250H179Q176 250 176 248Z"/>
</svg>