<svg xmlns="http://www.w3.org/2000/svg" viewBox="0 -1000 1000 1000">
	<path fill="#000000" d="M10 -67L85 -192Q93 -186 107 -177Q145 -155 188 -165Q196 -167 203 -170V-320Q193 -323 182 -325Q133 -352 97 -385Q61 -418 40 -459Q19 -500 22 -549Q25 -598 56 -649Q107 -733 203 -768V-1040H282V-784Q353 -787 408 -737Q411 -734 418.5 -729.5Q426 -725 429 -722L354 -597Q342 -607 332 -612Q308 -625 282 -626V-411Q311 -393 333 -376Q366 -349 390.5 -314Q415 -279 413.5 -235Q412 -191 382 -140Q347 -81 282 -42V172H203V-10Q177 -4 152 -4Q85 -3 31 -52Q28 -55 20.5 -59.5Q13 -64 10 -67ZM203 -596Q194 -587 187 -575Q162 -534 182 -485Q191 -466 203 -453Z"/>
	<path fill="#2200f5" d="M60 -57L135 -182Q143 -176 157 -167Q195 -145 238 -155Q246 -157 253 -160V-310Q243 -313 232 -315Q183 -342 147 -375Q111 -408 90 -449Q69 -490 72 -539Q75 -588 106 -639Q157 -723 253 -758V-1030H332V-774Q403 -777 458 -727Q461 -724 468.5 -719.5Q476 -715 479 -712L404 -587Q392 -597 382 -602Q358 -615 332 -616V-401Q361 -383 383 -366Q416 -339 440.5 -304Q465 -269 463.5 -225Q462 -181 432 -130Q397 -71 332 -32V182H253V0Q227 6 202 6Q135 7 81 -42Q78 -45 70.5 -49.5Q63 -54 60 -57ZM253 -586Q244 -577 237 -565Q212 -524 232 -475Q241 -456 253 -443Z"/>
	<path fill="#00a0e1" d="M200 4Q226 4 252 -2Q253 -2 253 -2Q256 -2 256 0V180H330V-32Q330 -34 331 -35Q395 -73 430 -131Q460 -182 461 -225Q461 -228 461 -230Q461 -270 438 -303Q401 -356 331 -398Q330 -399 330 -401V-616Q330 -618 332 -618Q370 -618 403 -591L476 -712Q474 -713 466 -718Q458 -723 456 -725Q404 -772 338 -772Q335 -772 332 -772Q330 -772 330 -774V-1028H256V-758Q256 -756 254 -756Q159 -721 108 -638Q77 -587 74 -539Q74 -533 74 -527Q74 -485 92 -450Q113 -410 148.5 -377Q184 -344 233 -317Q244 -316 254 -312Q256 -311 256 -310V-160Q256 -158 254 -157Q233 -149 212 -149Q182 -149 156 -165Q143 -173 136 -178L63 -57Q65 -56 73 -51Q81 -46 83 -44Q135 4 200 4ZM250 3Q225 9 200 9Q133 9 79 -40Q78 -42 69 -48Q60 -54 58 -55Q58 -56 58 -57Q58 -58 58 -58L133 -183Q134 -184 135 -184Q136 -184 136 -184Q144 -178 158 -169Q184 -154 212 -154Q232 -154 250 -161V-308Q242 -311 232 -313Q231 -313 231 -313Q182 -340 145.5 -373Q109 -406 88 -448Q69 -484 69 -527Q69 -533 70 -539Q73 -589 104 -640Q155 -725 250 -760V-1030Q250 -1032 253 -1032H332Q334 -1032 334 -1030V-777H338Q406 -777 460 -729Q461 -727 470 -721Q479 -715 481 -714Q482 -713 482 -712Q482 -711 481 -711L406 -586Q405 -584 404 -584Q403 -584 402 -585Q371 -612 334 -613V-402Q405 -360 443 -305Q466 -272 466 -230Q466 -227 466 -225Q464 -180 434 -129Q399 -70 334 -31V182Q334 184 332 184H253Q250 184 250 182ZM226 -518Q226 -479 250 -449V-579Q244 -572 239 -564Q226 -542 226 -518ZM256 -586V-443Q256 -440 253 -440Q252 -440 251 -441Q239 -454 230 -475.5Q221 -497 221 -518Q221 -543 235 -566Q242 -578 251 -588Q252 -588 253 -588Q256 -588 256 -586Z"/>
</svg>