<svg xmlns="http://www.w3.org/2000/svg" viewBox="0 -1000 1000 1000">
	<path fill="#000000" d="M412 -972Q412 -972 412 -958Q412 -905 375 -867.5Q338 -830 284 -830Q230 -830 193 -867Q156 -904 156 -958V-972H232Q230 -964 230 -958Q230 -936 246 -920Q262 -904 284.5 -904Q307 -904 322.5 -920Q338 -936 338 -958Q338 -964 336 -972ZM459 -495L460 -343H152V-159H567L568 -7H1V-8H0V-784V-788H567L568 -636H152V-495Z"/>
	<path fill="#2200f5" d="M462 -962Q462 -962 462 -948Q462 -895 425 -857.5Q388 -820 334 -820Q280 -820 243 -857Q206 -894 206 -948V-962H282Q280 -954 280 -948Q280 -926 296 -910Q312 -894 334.5 -894Q357 -894 372.5 -910Q388 -926 388 -948Q388 -954 386 -962ZM509 -485L510 -333H202V-149H617L618 3H51V2H50V-774V-778H617L618 -626H202V-485Z"/>
	<path fill="#00a0e1" d="M208 -959V-948Q208 -896 245 -859Q282 -822 334.5 -822Q387 -822 423.5 -859Q460 -896 460 -948V-959H389Q390 -953 390 -948Q390 -925 374 -908.5Q358 -892 334.5 -892Q311 -892 294.5 -908.5Q278 -925 278 -948Q278 -953 279 -959ZM465 -962V-948Q465 -894 427 -855.5Q389 -817 334 -817Q279 -817 241 -855Q203 -893 203 -948V-962Q203 -964 206 -964H282Q285 -964 285 -962Q285 -961 285 -961Q283 -953 283 -948Q283 -927 298 -912Q313 -897 334.5 -897Q356 -897 370.5 -912Q385 -927 385 -948Q385 -953 383 -961Q383 -961 383 -962Q383 -964 386 -964H462Q465 -964 465 -962ZM202 -482Q200 -482 200 -485V-626Q200 -628 202 -628H615V-776H53Q53 -775 53 -774.5Q53 -774 53 -774Q53 -774 52 -774V0Q53 0 53 0H615V-146H202Q200 -146 200 -149V-333Q200 -336 202 -336H507V-482ZM510 -330H204V-152H617Q619 -152 619 -149L620 3Q620 6 618 6H51Q50 6 49 4Q48 3 48 2V-774Q48 -774 48 -778Q48 -780 50 -780H617Q619 -780 619 -778L620 -626Q620 -624 618 -624H204V-488H509Q511 -488 511 -485L512 -333Q512 -330 510 -330Z"/>
</svg>