<svg xmlns="http://www.w3.org/2000/svg" viewBox="0 -1000 1000 1000">
	<path fill="#000000" d="M184 -1016H260L288 -908L308 -1016H384L332 -848H331H256H255ZM459 -495L460 -343H152V-159H567L568 -7H1V-8H0V-784V-788H567L568 -636H152V-495Z"/>
	<path fill="#2200f5" d="M234 -1006H310L338 -898L358 -1006H434L382 -838H381H306H305ZM509 -485L510 -333H202V-149H617L618 3H51V2H50V-774V-778H617L618 -626H202V-485Z"/>
	<path fill="#00a0e1" d="M336 -897L308 -1004H238L307 -840H380L431 -1004H360L340 -898Q340 -896 338 -896Q336 -896 336 -897ZM234 -1008H310Q312 -1008 312 -1007L338 -910L356 -1006Q356 -1008 358 -1008H434Q436 -1008 436 -1006Q436 -1006 436 -1005L384 -837Q384 -836 382 -836H305Q303 -836 303 -837L232 -1005Q232 -1005 232 -1006Q232 -1008 234 -1008ZM202 -482Q200 -482 200 -485V-626Q200 -628 202 -628H615V-776H53Q53 -775 53 -774.5Q53 -774 53 -774Q53 -774 52 -774V0Q53 0 53 0H615V-146H202Q200 -146 200 -149V-333Q200 -336 202 -336H507V-482ZM510 -330H204V-152H617Q619 -152 619 -149L620 3Q620 6 618 6H51Q50 6 49 4Q48 3 48 2V-774Q48 -774 48 -778Q48 -780 50 -780H617Q619 -780 619 -778L620 -626Q620 -624 618 -624H204V-488H509Q511 -488 511 -485L512 -333Q512 -330 510 -330Z"/>
</svg>