<svg xmlns="http://www.w3.org/2000/svg" viewBox="0 -1000 1000 1000">
	<path fill="#000000" d="M208 -848V-990H360V-848ZM459 -495L460 -343H152V-159H567L568 -7H1V-8H0V-784V-788H567L568 -636H152V-495Z"/>
	<path fill="#2200f5" d="M258 -838V-980H410V-838ZM509 -485L510 -333H202V-149H617L618 3H51V2H50V-774V-778H617L618 -626H202V-485Z"/>
	<path fill="#00a0e1" d="M260 -978V-840H408V-978ZM256 -838V-980Q256 -982 258 -982H410Q412 -982 412 -980V-838Q412 -836 410 -836H258Q256 -836 256 -838ZM202 -482Q200 -482 200 -485V-626Q200 -628 202 -628H615V-776H53Q53 -775 53 -774.5Q53 -774 53 -774Q53 -774 52 -774V0Q53 0 53 0H615V-146H202Q200 -146 200 -149V-333Q200 -336 202 -336H507V-482ZM510 -330H204V-152H617Q619 -152 619 -149L620 3Q620 6 618 6H51Q50 6 49 4Q48 3 48 2V-774Q48 -774 48 -778Q48 -780 50 -780H617Q619 -780 619 -778L620 -626Q620 -624 618 -624H204V-488H509Q511 -488 511 -485L512 -333Q512 -330 510 -330Z"/>
</svg>