<svg xmlns="http://www.w3.org/2000/svg" viewBox="0 -1000 1000 1000">
	<path fill="#000000" d="M283 -848L101 -1030L209 -1137L391 -955ZM459 -495L460 -343H152V-159H567L568 -7H1V-8H0V-784V-788H567L568 -636H152V-495Z"/>
	<path fill="#2200f5" d="M333 -838L151 -1020L259 -1127L441 -945ZM509 -485L510 -333H202V-149H617L618 3H51V2H50V-774V-778H617L618 -626H202V-485Z"/>
	<path fill="#00a0e1" d="M155 -1020L333 -842L437 -945L259 -1123ZM149 -1022L257 -1129Q258 -1130 259 -1130Q260 -1130 261 -1129L443 -947Q444 -946 444 -945Q444 -944 443 -943L335 -836Q334 -836 333 -836Q332 -836 331 -836L149 -1018Q148 -1019 148 -1020Q148 -1021 149 -1022ZM202 -482Q200 -482 200 -485V-626Q200 -628 202 -628H615V-776H53Q53 -775 53 -774.5Q53 -774 53 -774Q53 -774 52 -774V0Q53 0 53 0H615V-146H202Q200 -146 200 -149V-333Q200 -336 202 -336H507V-482ZM510 -330H204V-152H617Q619 -152 619 -149L620 3Q620 6 618 6H51Q50 6 49 4Q48 3 48 2V-774Q48 -774 48 -778Q48 -780 50 -780H617Q619 -780 619 -778L620 -626Q620 -624 618 -624H204V-488H509Q511 -488 511 -485L512 -333Q512 -330 510 -330Z"/>
</svg>