<svg xmlns="http://www.w3.org/2000/svg" viewBox="0 -1000 1000 1000">
	<path fill="#000000" d="M260 -334Q249 -333 239 -331V-332Q206 -325 185 -299.5Q164 -274 164 -239Q164 -206 185 -180.5Q206 -155 239 -148V-149Q249 -146 260 -146Q271 -146 281 -149V-148Q314 -155 335 -180.5Q356 -206 356 -239Q356 -274 335 -299.5Q314 -325 281 -332V-331Q271 -333 260 -334ZM260 -602Q249 -602 239 -599V-600Q206 -593 185 -567.5Q164 -542 164 -508Q164 -474 185 -448.5Q206 -423 239 -416V-417Q249 -415 260 -414Q271 -415 281 -417V-416Q314 -423 335 -448.5Q356 -474 356 -508Q356 -542 335 -567.5Q314 -593 281 -600V-599Q271 -602 260 -602ZM259 -13Q258 -13 258 -13Q257 -13 255 -13Q248 -13 243 -14Q153 -20 92 -85Q31 -150 31 -239Q31 -314 75 -374Q31 -433 31 -508Q31 -598 92 -663Q153 -728 243 -734Q248 -735 255 -735Q257 -735 258 -735Q259 -735 259 -735Q260 -735 262 -735Q356 -735 422.5 -668.5Q489 -602 489 -508Q489 -433 445 -374Q489 -314 489 -239Q489 -146 422.5 -79.5Q356 -13 262 -13Q261 -13 260 -13Q259 -13 259 -13Z"/>
	<path fill="#2200f5" d="M310 -324Q299 -323 289 -321V-322Q256 -315 235 -289.5Q214 -264 214 -229Q214 -196 235 -170.5Q256 -145 289 -138V-139Q299 -136 310 -136Q321 -136 331 -139V-138Q364 -145 385 -170.5Q406 -196 406 -229Q406 -264 385 -289.5Q364 -315 331 -322V-321Q321 -323 310 -324ZM310 -592Q299 -592 289 -589V-590Q256 -583 235 -557.5Q214 -532 214 -498Q214 -464 235 -438.5Q256 -413 289 -406V-407Q299 -405 310 -404Q321 -405 331 -407V-406Q364 -413 385 -438.5Q406 -464 406 -498Q406 -532 385 -557.5Q364 -583 331 -590V-589Q321 -592 310 -592ZM309 -3Q308 -3 308 -3Q307 -3 305 -3Q298 -3 293 -4Q203 -10 142 -75Q81 -140 81 -229Q81 -304 125 -364Q81 -423 81 -498Q81 -588 142 -653Q203 -718 293 -724Q298 -725 305 -725Q307 -725 308 -725Q309 -725 309 -725Q310 -725 312 -725Q406 -725 472.5 -658.5Q539 -592 539 -498Q539 -423 495 -364Q539 -304 539 -229Q539 -136 472.5 -69.5Q406 -3 312 -3Q311 -3 310 -3Q309 -3 309 -3Z"/>
	<path fill="#00a0e1" d="M289 -318Q288 -318 288 -319Q256 -312 236.5 -287Q217 -262 217 -229Q217 -197 236.5 -172.5Q256 -148 288 -141Q288 -141 289 -141Q299 -139 310 -139Q320 -139 331 -141Q332 -141 333 -141Q364 -148 383.5 -172.5Q403 -197 403 -229Q403 -262 383.5 -287Q364 -312 333 -319Q332 -318 331 -318Q320 -321 310 -321Q299 -321 289 -318ZM289 -587Q288 -587 288 -587Q256 -580 236.5 -555.5Q217 -531 217 -498Q217 -465 236.5 -440.5Q256 -416 288 -409Q288 -410 289 -410Q299 -407 310 -407Q320 -407 331 -410Q332 -410 333 -409Q364 -416 383.5 -440.5Q403 -465 403 -498Q403 -531 383.5 -555.5Q364 -580 333 -587Q332 -587 331 -587Q320 -589 310 -589Q299 -589 289 -587ZM536 -229Q536 -303 493 -362Q492 -363 492 -364Q492 -365 493 -365Q536 -424 536 -498Q536 -591 470.5 -656.5Q405 -722 312 -722H308Q299 -722 293 -722Q205 -716 144.5 -651.5Q84 -587 84 -498Q84 -424 127 -365Q128 -365 128 -364Q128 -363 127 -362Q84 -303 84 -229Q84 -141 144.5 -76.5Q205 -12 293 -6Q299 -6 308 -6H312Q405 -6 470.5 -71.5Q536 -137 536 -229ZM79 -229Q79 -304 122 -364Q79 -424 79 -498Q79 -589 140.5 -655Q202 -721 292 -727Q299 -727 308 -727H312Q407 -727 474 -660Q541 -593 541 -498Q541 -424 498 -364Q541 -304 541 -229Q541 -135 474 -68Q407 -1 312 -1H308Q299 -1 292 -1Q202 -7 140.5 -73Q79 -139 79 -229ZM331 -324H332Q365 -317 386.5 -291Q408 -265 408 -229Q408 -195 386.5 -168.5Q365 -142 332 -136L331 -135Q330 -135 330 -136Q320 -134 310 -134Q299 -134 290 -136Q290 -135 289 -135L288 -136Q255 -142 233.5 -168.5Q212 -195 212 -229Q212 -265 233.5 -291Q255 -317 288 -324H289Q290 -324 290 -324Q299 -326 310 -326Q320 -326 330 -324Q330 -324 331 -324ZM331 -593L332 -592Q365 -586 386.5 -559.5Q408 -533 408 -498Q408 -463 386.5 -437Q365 -411 332 -404H331Q330 -404 330 -404Q320 -402 310 -402Q299 -402 290 -404Q290 -404 289 -404H288Q255 -411 233.5 -437Q212 -463 212 -498Q212 -533 233.5 -559.5Q255 -586 288 -592L289 -593Q290 -593 290 -592Q299 -594 310 -594Q320 -594 330 -592Q330 -593 331 -593Z"/>
</svg>