<svg xmlns="http://www.w3.org/2000/svg" viewBox="0 -1000 1000 1000">
	<path fill="#000000" d="M212 -153Q306 -155 371.5 -223.5Q437 -292 437 -388Q437 -484 371.5 -552Q306 -620 212 -622V-506H271V-354H212ZM60 -778Q75 -773 134 -778Q193 -783 208 -783Q366 -783 478 -668Q590 -553 590 -390Q590 -283 539.5 -193Q489 -103 402 -50Q315 3 212 4H60V-354H0V-506H60Z"/>
	<path fill="#2200f5" d="M262 -143Q356 -145 421.5 -213.5Q487 -282 487 -378Q487 -474 421.5 -542Q356 -610 262 -612V-496H321V-344H262ZM110 -768Q125 -763 184 -768Q243 -773 258 -773Q416 -773 528 -658Q640 -543 640 -380Q640 -273 589.5 -183Q539 -93 452 -40Q365 13 262 14H110V-344H50V-496H110Z"/>
	<path fill="#00a0e1" d="M264 -342V-146Q356 -148 420 -215.5Q484 -283 484 -378Q484 -472 420 -539.5Q356 -607 264 -609V-498H321Q324 -498 324 -496V-344Q324 -342 321 -342ZM260 -143V-344Q260 -346 262 -346H318V-494H262Q260 -494 260 -496V-612Q260 -614 262 -614Q357 -613 423.5 -544Q490 -475 490 -378Q490 -281 423.5 -211.5Q357 -142 262 -141Q260 -141 260 -143ZM258 -770Q239 -770 201 -766.5Q163 -763 144 -763Q127 -763 112 -765V-496Q112 -494 110 -494H52V-346H110Q112 -346 112 -344V11H262Q364 10 450.5 -42.5Q537 -95 587.5 -184.5Q638 -274 638 -380Q638 -486 587 -576Q536 -666 448.5 -718Q361 -770 258 -770ZM144 -768Q163 -768 201 -772Q239 -776 258 -776Q362 -776 451 -723Q540 -670 591 -578.5Q642 -487 642 -380Q642 -273 591.5 -182Q541 -91 453.5 -38Q366 15 262 16H110Q108 16 108 14V-342H50Q48 -342 48 -344V-496Q48 -498 50 -498H108V-768Q108 -770 110 -770Q126 -768 144 -768Z"/>
</svg>