<svg xmlns="http://www.w3.org/2000/svg" viewBox="0 -1000 1000 1000">
	<path fill="#000000" d="M344 -10V-202L343 -201H8L330 -784H473V-10ZM336 -351V-531L238 -354Z"/>
	<path fill="#2200f5" d="M394 0V-192L393 -191H58L380 -774H523V0ZM386 -341V-521L288 -344Z"/>
	<path fill="#00a0e1" d="M394 -195Q396 -195 396 -192V-2H520V-772H381L62 -194H392Q393 -195 394 -195ZM292 -346L383 -344V-511ZM285 -344Q285 -345 286 -345L384 -522Q384 -524 386 -524Q388 -524 388 -521V-341Q388 -338 386 -339L288 -342Q285 -342 285 -344ZM391 -189H58Q55 -189 55 -191Q55 -192 56 -192L378 -775Q378 -776 380 -776H523Q525 -776 525 -774V0Q525 2 523 2H394Q391 2 391 0Z"/>
</svg>