<svg xmlns="http://www.w3.org/2000/svg" viewBox="0 -1000 1000 1000">
	<path fill="#000000" d="M510 -967Q510 -967 510 -953Q510 -900 473 -862.5Q436 -825 382 -825Q328 -825 291 -862Q254 -899 254 -953V-967H330Q328 -959 328 -953Q328 -931 344 -915Q360 -899 382.5 -899Q405 -899 420.5 -915Q436 -931 436 -953Q436 -959 434 -967ZM382 -622Q287 -622 220 -553.5Q153 -485 153 -388Q153 -290 220 -221.5Q287 -153 382 -153Q391 -153 399 -154V-323H551V4H399Q391 4 382 4Q224 4 112 -111.5Q0 -227 0 -390Q0 -553 112 -668Q224 -783 382 -783Q419 -783 455 -776V-610Q420 -622 382 -622Z"/>
	<path fill="#2200f5" d="M560 -957Q560 -957 560 -943Q560 -890 523 -852.5Q486 -815 432 -815Q378 -815 341 -852Q304 -889 304 -943V-957H380Q378 -949 378 -943Q378 -921 394 -905Q410 -889 432.5 -889Q455 -889 470.5 -905Q486 -921 486 -943Q486 -949 484 -957ZM432 -612Q337 -612 270 -543.5Q203 -475 203 -378Q203 -280 270 -211.5Q337 -143 432 -143Q441 -143 449 -144V-313H601V14H449Q441 14 432 14Q274 14 162 -101.5Q50 -217 50 -380Q50 -543 162 -658Q274 -773 432 -773Q469 -773 505 -766V-600Q470 -612 432 -612Z"/>
	<path fill="#00a0e1" d="M306 -954V-943Q306 -891 343 -854Q380 -817 432.5 -817Q485 -817 521.5 -854Q558 -891 558 -943V-954H487Q488 -948 488 -943Q488 -920 472 -903.5Q456 -887 432.5 -887Q409 -887 392.5 -903.5Q376 -920 376 -943Q376 -948 377 -954ZM563 -957V-943Q563 -889 525 -850.5Q487 -812 432 -812Q377 -812 339 -850Q301 -888 301 -943V-957Q301 -959 304 -959H380Q383 -959 383 -957Q383 -956 383 -956Q381 -948 381 -943Q381 -922 396 -907Q411 -892 432.5 -892Q454 -892 468.5 -907Q483 -922 483 -943Q483 -948 481 -956Q481 -956 481 -957Q481 -959 484 -959H560Q563 -959 563 -957ZM432 12Q435 12 440.5 11.5Q446 11 449 11Q450 11 450 12H598V-310H452V-144Q452 -141 449 -141Q441 -140 432 -140Q336 -140 268 -209.5Q200 -279 200 -378Q200 -476 268 -545Q336 -614 432 -614Q468 -614 502 -603V-764Q468 -770 432 -770Q329 -770 241.5 -718Q154 -666 103 -576Q52 -486 52 -380Q52 -273 103 -183Q154 -93 241.5 -40.5Q329 12 432 12ZM432 -610Q338 -610 272 -542Q206 -474 206 -378Q206 -281 272 -213.5Q338 -146 432 -146Q439 -146 446 -146V-313Q446 -316 449 -316H601Q604 -316 604 -313V14Q604 16 601 16H449Q448 16 448 16Q440 16 432 16Q327 16 238.5 -36.5Q150 -89 99 -180.5Q48 -272 48 -380Q48 -487 99 -578.5Q150 -670 239 -723Q328 -776 432 -776Q469 -776 505 -768Q508 -768 508 -766V-600Q508 -597 505 -597Q505 -597 504 -598Q469 -610 432 -610Z"/>
</svg>