<svg xmlns="http://www.w3.org/2000/svg" viewBox="0 -1000 1000 1000">
	<path fill="#000000" d="M306 -843V-985H458V-843ZM382 -622Q287 -622 220 -553.5Q153 -485 153 -388Q153 -290 220 -221.5Q287 -153 382 -153Q391 -153 399 -154V-323H551V4H399Q391 4 382 4Q224 4 112 -111.5Q0 -227 0 -390Q0 -553 112 -668Q224 -783 382 -783Q419 -783 455 -776V-610Q420 -622 382 -622Z"/>
	<path fill="#2200f5" d="M356 -833V-975H508V-833ZM432 -612Q337 -612 270 -543.5Q203 -475 203 -378Q203 -280 270 -211.5Q337 -143 432 -143Q441 -143 449 -144V-313H601V14H449Q441 14 432 14Q274 14 162 -101.5Q50 -217 50 -380Q50 -543 162 -658Q274 -773 432 -773Q469 -773 505 -766V-600Q470 -612 432 -612Z"/>
	<path fill="#00a0e1" d="M358 -973V-835H506V-973ZM354 -833V-975Q354 -977 356 -977H508Q510 -977 510 -975V-833Q510 -831 508 -831H356Q354 -831 354 -833ZM432 12Q435 12 440.5 11.5Q446 11 449 11Q450 11 450 12H598V-310H452V-144Q452 -141 449 -141Q441 -140 432 -140Q336 -140 268 -209.5Q200 -279 200 -378Q200 -476 268 -545Q336 -614 432 -614Q468 -614 502 -603V-764Q468 -770 432 -770Q329 -770 241.5 -718Q154 -666 103 -576Q52 -486 52 -380Q52 -273 103 -183Q154 -93 241.5 -40.5Q329 12 432 12ZM432 -610Q338 -610 272 -542Q206 -474 206 -378Q206 -281 272 -213.5Q338 -146 432 -146Q439 -146 446 -146V-313Q446 -316 449 -316H601Q604 -316 604 -313V14Q604 16 601 16H449Q448 16 448 16Q440 16 432 16Q327 16 238.5 -36.5Q150 -89 99 -180.5Q48 -272 48 -380Q48 -487 99 -578.5Q150 -670 239 -723Q328 -776 432 -776Q469 -776 505 -768Q508 -768 508 -766V-600Q508 -597 505 -597Q505 -597 504 -598Q469 -610 432 -610Z"/>
</svg>