<svg xmlns="http://www.w3.org/2000/svg" viewBox="0 -1000 1000 1000">
	<path fill="#000000" d="M189 -57L256 -169Q263 -162 278 -157Q318 -140 349.5 -144Q381 -148 401 -172Q424 -199 379 -211Q367 -214 325 -221Q259 -247 219 -281.5Q179 -316 171 -358Q163 -400 201 -444Q209 -454 226 -476Q243 -498 252 -508.5Q261 -519 277.5 -535.5Q294 -552 308 -558.5Q322 -565 341.5 -570.5Q361 -576 383.5 -572.5Q406 -569 432 -559Q433 -559 434 -559Q479 -559 510 -590Q541 -621 541 -666Q541 -696 445.5 -712Q350 -728 247 -722.5Q144 -717 123 -693V-12H-44L-41 -694Q-17 -777 50 -829Q91 -861 170 -873.5Q249 -886 337 -876Q425 -866 505.5 -841.5Q586 -817 639 -770Q692 -723 692 -666Q692 -589 680.5 -542Q669 -495 649 -476Q629 -457 604 -452Q579 -447 548.5 -450.5Q518 -454 489 -456Q460 -458 429 -447.5Q398 -437 376 -410Q360 -392 355.5 -365Q351 -338 364 -314Q377 -290 407 -285Q446 -268 475 -253.5Q504 -239 530.5 -219Q557 -199 568.5 -179.5Q580 -160 577.5 -135.5Q575 -111 553 -85Q506 -28 406 -15.5Q306 -3 211 -44Q203 -46 189 -57Z"/>
	<path fill="#2200f5" d="M239 -47L306 -159Q313 -152 328 -147Q368 -130 399.5 -134Q431 -138 451 -162Q474 -189 429 -201Q417 -204 375 -211Q309 -237 269 -271.5Q229 -306 221 -348Q213 -390 251 -434Q259 -444 276 -466Q293 -488 302 -498.5Q311 -509 327.5 -525.5Q344 -542 358 -548.5Q372 -555 391.5 -560.5Q411 -566 433.5 -562.5Q456 -559 482 -549Q483 -549 484 -549Q529 -549 560 -580Q591 -611 591 -656Q591 -686 495.5 -702Q400 -718 297 -712.5Q194 -707 173 -683V-2H6L9 -684Q33 -767 100 -819Q141 -851 220 -863.5Q299 -876 387 -866Q475 -856 555.5 -831.5Q636 -807 689 -760Q742 -713 742 -656Q742 -579 730.5 -532Q719 -485 699 -466Q679 -447 654 -442Q629 -437 598.5 -440.5Q568 -444 539 -446Q510 -448 479 -437.5Q448 -427 426 -400Q410 -382 405.5 -355Q401 -328 414 -304Q427 -280 457 -275Q496 -258 525 -243.5Q554 -229 580.5 -209Q607 -189 618.5 -169.5Q630 -150 627.5 -125.5Q625 -101 603 -75Q556 -18 456 -5.5Q356 7 261 -34Q253 -36 239 -47Z"/>
	<path fill="#00a0e1" d="M532 -448Q548 -448 579.5 -445Q611 -442 626 -442Q647 -442 662.5 -446.5Q678 -451 693.5 -464Q709 -477 718.5 -500Q728 -523 734 -562.5Q740 -602 740 -656Q740 -720 673 -769.5Q606 -819 510 -843Q414 -867 314 -867Q166 -867 102 -817Q35 -766 11 -684L9 -4H170V-683Q170 -684 171 -685Q198 -716 347 -716Q455 -716 528 -698Q594 -682 594 -656Q594 -610 562 -578Q530 -546 484 -546Q481 -546 481 -547Q446 -561 416 -561Q393 -561 374 -553.5Q355 -546 336.5 -529.5Q318 -513 307 -500.5Q296 -488 277 -463Q261 -442 253 -432Q223 -397 223 -361Q223 -318 263.5 -280Q304 -242 375 -213Q379 -213 388 -211.5Q397 -210 401.5 -209Q406 -208 414.5 -206.5Q423 -205 427.5 -204Q432 -203 438 -201Q444 -199 447.5 -197Q451 -195 454.5 -192Q458 -189 460 -186Q462 -183 462 -179Q462 -171 453 -160Q427 -130 386 -130Q358 -130 327 -145Q313 -149 306 -155L242 -48Q254 -38 261 -36Q261 -36 262 -36Q333 -5 412 -5Q473 -5 523 -24Q573 -43 601 -77Q626 -106 626 -134Q626 -173 580.5 -206Q535 -239 456 -273Q429 -277 416 -296Q403 -315 403 -340Q403 -377 424 -402Q463 -448 532 -448ZM626 -437Q611 -437 579.5 -440Q548 -443 532 -443Q465 -443 428 -398Q408 -375 408 -340Q408 -317 420 -299.5Q432 -282 457 -277Q457 -277 458 -277Q538 -243 584.5 -209Q631 -175 631 -134Q631 -105 605 -73Q576 -38 525 -19Q474 0 412 0Q332 0 260 -32Q252 -34 237 -45Q236 -46 236 -47Q236 -48 236 -48L303 -160Q304 -162 306 -162Q307 -162 307 -161Q314 -154 328 -149Q329 -149 329 -149Q359 -135 386 -135Q425 -135 449 -164Q457 -173 457 -179Q457 -185 450.5 -189.5Q444 -194 429 -198Q414 -202 405 -203.5Q396 -205 374 -209Q302 -237 260 -276.5Q218 -316 218 -361Q218 -399 249 -436Q257 -445 273 -466Q292 -491 303 -503.5Q314 -516 333 -533.5Q352 -551 372 -558.5Q392 -566 416 -566Q446 -566 482 -552Q483 -552 484 -552Q528 -552 558 -582Q588 -612 588 -656Q588 -678 527 -693Q454 -711 347 -711Q284 -711 236 -703Q188 -695 176 -682V-2Q176 0 173 0H6Q4 0 4 -2L7 -684Q7 -684 7 -685Q31 -768 98 -821Q164 -872 314 -872Q388 -872 463 -857.5Q538 -843 601.5 -817Q665 -791 704.5 -748.5Q744 -706 744 -656Q744 -588 735.5 -543Q727 -498 710 -476Q693 -454 673.5 -445.5Q654 -437 626 -437Z"/>
</svg>