<svg xmlns="http://www.w3.org/2000/svg" viewBox="0 -1000 1000 1000">
	<path fill="#000000" d="M1144 -673V-521L738 -348L1144 -168V-16L600 -260V-261V-412V-413ZM544 -673V-521L138 -348L544 -168V-16L0 -260V-261V-412V-413Z"/>
	<path fill="#2200f5" d="M1194 -663V-511L788 -338L1194 -158V-6L650 -250V-251V-402V-403ZM594 -663V-511L188 -338L594 -158V-6L50 -250V-251V-402V-403Z"/>
	<path fill="#00a0e1" d="M787 -340L1192 -513V-659L652 -401V-252L1192 -10V-156L787 -335Q785 -336 785 -337.5Q785 -339 787 -340ZM1196 -663V-511Q1196 -509 1195 -509L794 -338L1195 -160Q1196 -160 1196 -158V-6Q1196 -4 1194 -4Q1193 -4 1193 -4L649 -248Q648 -248 648 -250V-403Q648 -405 649 -405L1193 -665Q1193 -666 1194 -666Q1196 -666 1196 -663ZM187 -340L592 -513V-659L52 -401V-252L592 -10V-156L187 -335Q185 -336 185 -337.5Q185 -339 187 -340ZM596 -663V-511Q596 -509 595 -509L194 -338L595 -160Q596 -160 596 -158V-6Q596 -4 594 -4Q593 -4 593 -4L49 -248Q48 -248 48 -250V-403Q48 -405 49 -405L593 -665Q593 -666 594 -666Q596 -666 596 -663Z"/>
</svg>