<svg xmlns="http://www.w3.org/2000/svg" viewBox="0 -1000 1000 1000">
	<path fill="#000000" d="M400 -784H552V-8H400V-343H152V-8H0V-784H152V-495H400Z"/>
	<path fill="#2200f5" d="M450 -774H602V2H450V-333H202V2H50V-774H202V-485H450Z"/>
	<path fill="#00a0e1" d="M600 -772H452V-485Q452 -482 450 -482H202Q200 -482 200 -485V-772H52V0H200V-333Q200 -336 202 -336H450Q452 -336 452 -333V0H600ZM450 -776H602Q604 -776 604 -774V2Q604 4 602 4H450Q448 4 448 2V-330H204V2Q204 4 202 4H50Q48 4 48 2V-774Q48 -776 50 -776H202Q204 -776 204 -774V-488H448V-774Q448 -776 450 -776Z"/>
</svg>