<svg xmlns="http://www.w3.org/2000/svg" viewBox="0 -1000 1000 1000">
	<path fill="#000000" d="M400 -784H552V-723H597V-571H552V-8H400V-343H152V-8H0V-571H-50V-723H0V-784H152V-723H400ZM152 -571V-495H400V-571Z"/>
	<path fill="#2200f5" d="M450 -774H602V-713H647V-561H602V2H450V-333H202V2H50V-561H0V-713H50V-774H202V-713H450ZM202 -561V-485H450V-561Z"/>
	<path fill="#00a0e1" d="M601 -772H453V-713Q453 -710 451 -710H203Q201 -710 201 -713V-772H53V-713Q53 -710 51 -710H3V-564H51Q53 -564 53 -561V0H201V-333Q201 -336 203 -336H451Q453 -336 453 -333V0H601V-561Q601 -564 603 -564H645V-710H603Q601 -710 601 -713ZM451 -776H603Q605 -776 605 -774V-716H648Q651 -716 651 -713V-561Q651 -558 648 -558H605V2Q605 4 603 4H451Q449 4 449 2V-330H205V2Q205 4 203 4H51Q49 4 49 2V-558H1Q-1 -558 -1 -561V-713Q-1 -716 1 -716H49V-774Q49 -776 51 -776H203Q205 -776 205 -774V-716H449V-774Q449 -776 451 -776ZM449 -558H205V-488H449ZM203 -564H451Q453 -564 453 -561V-485Q453 -482 451 -482H203Q201 -482 201 -485V-561Q201 -564 203 -564Z"/>
</svg>