<svg xmlns="http://www.w3.org/2000/svg" viewBox="0 -1000 1000 1000">
	<path fill="#000000" d="M176 -844L247 -1012H248H323H324L376 -844H300L280 -952L252 -844ZM400 -784H552V-8H400V-343H152V-8H0V-784H152V-495H400Z"/>
	<path fill="#2200f5" d="M226 -834L297 -1002H298H373H374L426 -834H350L330 -942L302 -834ZM450 -774H602V2H450V-333H202V2H50V-774H202V-485H450Z"/>
	<path fill="#00a0e1" d="M332 -942L353 -837H423L372 -999H299L229 -837H300L327 -942Q328 -944 330 -944Q332 -944 332 -942ZM297 -1004H374Q375 -1004 376 -1002L429 -835Q429 -835 429 -834Q429 -832 426 -832H350Q348 -832 348 -834L329 -930L304 -834Q303 -832 302 -832H226Q223 -832 223 -834Q223 -835 223 -835L295 -1002Q295 -1004 297 -1004ZM600 -772H452V-485Q452 -482 450 -482H202Q200 -482 200 -485V-772H52V0H200V-333Q200 -336 202 -336H450Q452 -336 452 -333V0H600ZM450 -776H602Q604 -776 604 -774V2Q604 4 602 4H450Q448 4 448 2V-330H204V2Q204 4 202 4H50Q48 4 48 2V-774Q48 -776 50 -776H202Q204 -776 204 -774V-488H448V-774Q448 -776 450 -776Z"/>
</svg>