<svg xmlns="http://www.w3.org/2000/svg" viewBox="0 -1000 1000 1000">
	<path fill="#000000" d="M93 -470L-15 -577L167 -759L275 -652ZM-193 -472L-301 -579L-119 -761L-11 -654Z"/>
	<path fill="#2200f5" d="M143 -460L35 -567L217 -749L325 -642ZM-143 -462L-251 -569L-69 -751L39 -644Z"/>
	<path fill="#00a0e1" d="M39 -567L143 -464L321 -642L217 -745ZM33 -569L215 -751Q216 -752 217 -752Q218 -752 219 -751L327 -644Q327 -643 327 -642Q327 -641 327 -640L145 -458Q144 -458 143 -458Q142 -458 141 -458L33 -565Q33 -566 33 -567Q33 -568 33 -569ZM-247 -569L-143 -466L35 -644L-69 -747ZM-253 -571L-71 -753Q-70 -754 -69 -754Q-68 -754 -67 -753L41 -646Q41 -645 41 -644Q41 -643 41 -642L-141 -460Q-142 -460 -143 -460Q-144 -460 -145 -460L-253 -567Q-253 -568 -253 -569Q-253 -570 -253 -571Z"/>
</svg>