<svg xmlns="http://www.w3.org/2000/svg" viewBox="0 -1000 1000 1000">
	<path fill="#000000" d="M76 -844L-32 -951L150 -1133L258 -1026ZM0 -784H152V-8H0Z"/>
	<path fill="#2200f5" d="M126 -834L18 -941L200 -1123L308 -1016ZM50 -774H202V2H50Z"/>
	<path fill="#00a0e1" d="M22 -941L126 -838L304 -1016L200 -1119ZM16 -943L198 -1125Q199 -1126 200 -1126Q201 -1126 202 -1125L310 -1018Q311 -1017 311 -1016Q311 -1015 310 -1014L128 -832Q127 -832 126 -832Q125 -832 124 -832L16 -939Q15 -940 15 -941Q15 -942 16 -943ZM200 -772H52V0H200ZM50 -776H202Q204 -776 204 -774V2Q204 4 202 4H50Q48 4 48 2V-774Q48 -776 50 -776Z"/>
</svg>