<svg xmlns="http://www.w3.org/2000/svg" viewBox="0 -1000 1000 1000">
	<path fill="#000000" d="M204 -968Q204 -968 204 -954Q204 -901 167 -863.5Q130 -826 76 -826Q22 -826 -15 -863Q-52 -900 -52 -954V-968H24Q22 -960 22 -954Q22 -932 38 -916Q54 -900 76.5 -900Q99 -900 114.5 -916Q130 -932 130 -954Q130 -960 128 -968ZM0 -784H152V-8H0Z"/>
	<path fill="#2200f5" d="M254 -958Q254 -958 254 -944Q254 -891 217 -853.5Q180 -816 126 -816Q72 -816 35 -853Q-2 -890 -2 -944V-958H74Q72 -950 72 -944Q72 -922 88 -906Q104 -890 126.5 -890Q149 -890 164.5 -906Q180 -922 180 -944Q180 -950 178 -958ZM50 -774H202V2H50Z"/>
	<path fill="#00a0e1" d="M0 -955V-944Q0 -892 37 -855Q74 -818 126.5 -818Q179 -818 215.5 -855Q252 -892 252 -944V-955H181Q182 -949 182 -944Q182 -921 166 -904.5Q150 -888 126.5 -888Q103 -888 86.5 -904.5Q70 -921 70 -944Q70 -949 71 -955ZM257 -958V-944Q257 -890 219 -851.5Q181 -813 126 -813Q71 -813 33 -851Q-5 -889 -5 -944V-958Q-5 -960 -2 -960H74Q77 -960 77 -958Q77 -957 77 -957Q75 -949 75 -944Q75 -923 90 -908Q105 -893 126.5 -893Q148 -893 162.5 -908Q177 -923 177 -944Q177 -949 175 -957Q175 -957 175 -958Q175 -960 178 -960H254Q257 -960 257 -958ZM200 -772H52V0H200ZM50 -776H202Q204 -776 204 -774V2Q204 4 202 4H50Q48 4 48 2V-774Q48 -776 50 -776Z"/>
</svg>