<svg xmlns="http://www.w3.org/2000/svg" viewBox="0 -1000 1000 1000">
	<path fill="#000000" d="M76 -844L-106 -1026L2 -1133L184 -951ZM0 -784H152V-8H0Z"/>
	<path fill="#2200f5" d="M126 -834L-56 -1016L52 -1123L234 -941ZM50 -774H202V2H50Z"/>
	<path fill="#00a0e1" d="M-52 -1016L126 -838L230 -941L52 -1119ZM-58 -1018L50 -1125Q51 -1126 52 -1126Q53 -1126 54 -1125L236 -943Q237 -942 237 -941Q237 -940 236 -939L128 -832Q127 -832 126 -832Q125 -832 124 -832L-58 -1014Q-59 -1015 -59 -1016Q-59 -1017 -58 -1018ZM200 -772H52V0H200ZM50 -776H202Q204 -776 204 -774V2Q204 4 202 4H50Q48 4 48 2V-774Q48 -776 50 -776Z"/>
</svg>