<svg xmlns="http://www.w3.org/2000/svg" viewBox="0 -1000 1000 1000">
	<path fill="#000000" d="M83 240Q83 240 70 240Q16 240 -21.5 202.5Q-59 165 -59 112Q-59 58 -21.5 20.5Q16 -17 70 -17H83V60Q75 58 70 58Q48 58 32 74Q16 90 16 112Q16 134 31.5 149.5Q47 165 70 165Q75 165 83 163ZM0 -784H152V-8H0Z"/>
	<path fill="#2200f5" d="M133 250Q133 250 120 250Q66 250 28.5 212.5Q-9 175 -9 122Q-9 68 28.5 30.5Q66 -7 120 -7H133V70Q125 68 120 68Q98 68 82 84Q66 100 66 122Q66 144 81.5 159.5Q97 175 120 175Q125 175 133 173ZM50 -774H202V2H50Z"/>
	<path fill="#00a0e1" d="M130 -4H120Q67 -4 30.5 32.5Q-6 69 -6 122Q-6 174 30.5 211Q67 248 120 248H130V176Q124 178 120 178Q96 178 80 161.5Q64 145 64 121.5Q64 98 80 82Q96 66 120 66Q124 66 130 67ZM133 252H120Q65 252 26.5 214Q-12 176 -12 122Q-12 67 26.5 28.5Q65 -10 120 -10H133Q136 -10 136 -7V70Q136 72 133 72Q133 72 132 72Q125 70 120 70Q99 70 83.5 85.5Q68 101 68 122Q68 143 83 157.5Q98 172 120 172Q125 172 132 171Q133 170 133 170Q136 170 136 173V250Q136 252 133 252ZM200 -772H52V0H200ZM50 -776H202Q204 -776 204 -774V2Q204 4 202 4H50Q48 4 48 2V-774Q48 -776 50 -776Z"/>
</svg>