<svg xmlns="http://www.w3.org/2000/svg" viewBox="0 -1000 1000 1000">
	<path fill="#000000" d="M201 -961V-885Q200 -883 192.5 -874Q185 -865 169 -854.5Q153 -844 137 -844H87Q71 -844 48.5 -858Q26 -872 10 -872Q-1 -872 -16 -865Q-31 -858 -40 -851L-49 -844V-920Q-17 -948 8 -948Q25 -948 48.5 -934.5Q72 -921 88 -921Q111 -921 133 -921Q148 -921 165 -931Q182 -941 191 -951ZM0 -784H152V-8H0Z"/>
	<path fill="#2200f5" d="M251 -951V-875Q250 -873 242.5 -864Q235 -855 219 -844.5Q203 -834 187 -834H137Q121 -834 98.5 -848Q76 -862 60 -862Q49 -862 34 -855Q19 -848 10 -841L1 -834V-910Q33 -938 58 -938Q75 -938 98.5 -924.5Q122 -911 138 -911Q161 -911 183 -911Q198 -911 215 -921Q232 -931 241 -941ZM50 -774H202V2H50Z"/>
	<path fill="#00a0e1" d="M138 -908Q121 -908 97.5 -922Q74 -936 58 -936Q36 -936 4 -909V-839Q37 -865 60 -865Q77 -865 99 -851Q121 -837 137 -837H187Q206 -837 222.5 -850Q239 -863 248 -875V-944Q214 -908 183 -908Q183 -908 138 -908ZM58 -941Q75 -941 98.5 -927Q122 -913 138 -913Q161 -913 183 -913Q197 -913 214.5 -924Q232 -935 238.5 -941.5Q245 -948 249 -952Q250 -953 251 -953Q253 -953 253 -951V-875Q253 -872 245 -862.5Q237 -853 220.5 -842.5Q204 -832 187 -832H137Q120 -832 98 -846Q76 -860 60 -860Q50 -860 35.5 -853Q21 -846 12 -839L3 -832Q2 -832 1 -832Q-1 -832 -1 -834V-910Q-1 -911 0 -912Q32 -941 58 -941ZM200 -772H52V0H200ZM50 -776H202Q204 -776 204 -774V2Q204 4 202 4H50Q48 4 48 2V-774Q48 -776 50 -776Z"/>
</svg>