<svg xmlns="http://www.w3.org/2000/svg" viewBox="0 -1000 1000 1000">
	<path fill="#000000" d="M1 179V-534H170V-202Q202 -167 250 -167Q299 -167 331 -204V-534H498L495 -203Q471 -120 404 -68Q337 -16 250 -16Q209 -16 170 -28V179Z"/>
	<path fill="#2200f5" d="M51 189V-524H220V-192Q252 -157 300 -157Q349 -157 381 -194V-524H548L545 -193Q521 -110 454 -58Q387 -6 300 -6Q259 -6 220 -18V189Z"/>
	<path fill="#00a0e1" d="M54 -522V186H218V-18Q218 -20 220 -20Q220 -20 221 -20Q259 -8 300 -8Q386 -8 452.5 -59.5Q519 -111 543 -193L545 -522H384V-194Q384 -193 383 -192Q350 -154 300 -154Q251 -154 218 -190Q218 -191 218 -192V-522ZM48 189V-524Q48 -526 51 -526H220Q222 -526 222 -524V-193Q253 -160 300 -160Q347 -160 378 -195V-524Q378 -526 381 -526H548Q550 -526 550 -524L547 -193Q547 -193 547 -192Q524 -109 456 -56.5Q388 -4 300 -4Q260 -4 222 -15V189Q222 192 220 192H51Q48 192 48 189Z"/>
</svg>