<svg xmlns="http://www.w3.org/2000/svg" viewBox="0 -1000 1000 1000">
	<path fill="#000000" d="M0 -723L186 -721L315 -570L448 -722L623 -721L403 -468L624 -210L449 -208L312 -365L179 -212L1 -209L224 -466Z"/>
	<path fill="#2200f5" d="M50 -713L236 -711L365 -560L498 -712L673 -711L453 -458L674 -200L499 -198L362 -355L229 -202L51 -199L274 -456Z"/>
	<path fill="#00a0e1" d="M276 -454L57 -202L228 -204L360 -356Q361 -357 362 -357Q363 -357 364 -356L500 -201L669 -202L451 -457Q450 -457 450 -458Q450 -459 451 -460L668 -709H499L367 -558Q367 -557 365.5 -557Q364 -557 364 -558L235 -709L56 -710L276 -457Q277 -456 277 -455.5Q277 -455 276 -454ZM676 -711Q676 -710 675 -709L456 -458L676 -202Q676 -201 676 -200Q676 -198 674 -198Q499 -196 499 -196Q498 -196 497 -196L362 -351L231 -200Q230 -200 229 -200Q51 -197 51 -196Q48 -196 48 -199Q48 -200 49 -201L271 -455L48 -711Q48 -712 48 -713Q48 -716 50 -715L236 -713Q237 -713 238 -713L366 -564L496 -714Q497 -714 498 -714L673 -713Q676 -713 676 -711Z"/>
</svg>