<svg xmlns="http://www.w3.org/2000/svg" viewBox="0 -1000 1000 1000">
	<path fill="#000000" d="M376 -844L268 -951L450 -1133L558 -1026ZM0 -784H152L600 -261V-784H752V-8H600L152 -533V-8H0Z"/>
	<path fill="#2200f5" d="M426 -834L318 -941L500 -1123L608 -1016ZM50 -774H202L650 -251V-774H802V2H650L202 -523V2H50Z"/>
	<path fill="#00a0e1" d="M322 -941L426 -838L604 -1016L500 -1119ZM316 -943L498 -1125Q499 -1126 500 -1126Q501 -1126 502 -1125L610 -1018Q611 -1017 611 -1016Q611 -1015 610 -1014L428 -832Q427 -832 426 -832Q425 -832 424 -832L316 -939Q315 -940 315 -941Q315 -942 316 -943ZM52 -772V0H200V-523Q200 -526 202 -526Q203 -526 204 -525L651 0H800V-772H652V-251Q652 -248 650 -248Q649 -248 648 -249L201 -772ZM50 -776H202Q203 -776 204 -776L648 -257V-774Q648 -776 650 -776H802Q804 -776 804 -774V2Q804 4 802 4H650Q649 4 648 4L204 -516V2Q204 4 202 4H50Q48 4 48 2V-774Q48 -776 50 -776Z"/>
</svg>