<svg xmlns="http://www.w3.org/2000/svg" viewBox="0 -1000 1000 1000">
	<path fill="#000000" d="M276 -1012H352L380 -904L400 -1012H476L424 -844H423H348H347ZM0 -784H152L600 -261V-784H752V-8H600L152 -533V-8H0Z"/>
	<path fill="#2200f5" d="M326 -1002H402L430 -894L450 -1002H526L474 -834H473H398H397ZM50 -774H202L650 -251V-774H802V2H650L202 -523V2H50Z"/>
	<path fill="#00a0e1" d="M428 -893L400 -1000H330L399 -836H472L523 -1000H452L432 -894Q432 -892 430 -892Q428 -892 428 -893ZM326 -1004H402Q404 -1004 404 -1003L430 -906L448 -1002Q448 -1004 450 -1004H526Q528 -1004 528 -1002Q528 -1002 528 -1001L476 -833Q476 -832 474 -832H397Q395 -832 395 -833L324 -1001Q324 -1001 324 -1002Q324 -1004 326 -1004ZM52 -772V0H200V-523Q200 -526 202 -526Q203 -526 204 -525L651 0H800V-772H652V-251Q652 -248 650 -248Q649 -248 648 -249L201 -772ZM50 -776H202Q203 -776 204 -776L648 -257V-774Q648 -776 650 -776H802Q804 -776 804 -774V2Q804 4 802 4H650Q649 4 648 4L204 -516V2Q204 4 202 4H50Q48 4 48 2V-774Q48 -776 50 -776Z"/>
</svg>