<svg xmlns="http://www.w3.org/2000/svg" viewBox="0 -1000 1000 1000">
	<path fill="#000000" d="M282 -842L353 -1010H354H429H430L482 -842H406L386 -950L358 -842ZM764 -390Q764 -227 652 -111.5Q540 4 382 4Q224 4 112 -111.5Q0 -227 0 -390Q0 -553 112 -668Q224 -783 382 -783Q540 -783 652 -668Q764 -553 764 -390ZM611 -388Q611 -485 544 -553.5Q477 -622 382 -622Q287 -622 220 -553.5Q153 -485 153 -388Q153 -290 220 -221.5Q287 -153 382 -153Q477 -153 544 -221.5Q611 -290 611 -388Z"/>
	<path fill="#2200f5" d="M332 -832L403 -1000H404H479H480L532 -832H456L436 -940L408 -832ZM814 -380Q814 -217 702 -101.5Q590 14 432 14Q274 14 162 -101.5Q50 -217 50 -380Q50 -543 162 -658Q274 -773 432 -773Q590 -773 702 -658Q814 -543 814 -380ZM661 -378Q661 -475 594 -543.5Q527 -612 432 -612Q337 -612 270 -543.5Q203 -475 203 -378Q203 -280 270 -211.5Q337 -143 432 -143Q527 -143 594 -211.5Q661 -280 661 -378Z"/>
	<path fill="#00a0e1" d="M438 -940L459 -835H529L478 -997H405L335 -835H406L433 -940Q434 -942 436 -942Q438 -942 438 -940ZM403 -1002H480Q481 -1002 482 -1000L535 -833Q535 -833 535 -832Q535 -830 532 -830H456Q454 -830 454 -832L435 -928L410 -832Q409 -830 408 -830H332Q329 -830 329 -832Q329 -833 329 -833L401 -1000Q401 -1002 403 -1002ZM812 -380Q812 -486 761 -576Q710 -666 622.5 -718Q535 -770 432 -770Q329 -770 241.5 -718Q154 -666 103 -576Q52 -486 52 -380Q52 -273 103 -183Q154 -93 241.5 -40.5Q329 12 432 12Q535 12 622.5 -40.5Q710 -93 761 -183Q812 -273 812 -380ZM816 -380Q816 -272 765 -180.5Q714 -89 625.5 -36.5Q537 16 432 16Q327 16 238.5 -36.5Q150 -89 99 -180.5Q48 -272 48 -380Q48 -487 99 -578.5Q150 -670 239 -723Q328 -776 432 -776Q536 -776 625 -723Q714 -670 765 -578.5Q816 -487 816 -380ZM658 -378Q658 -474 592 -542Q526 -610 432 -610Q338 -610 272 -542Q206 -474 206 -378Q206 -281 272 -213.5Q338 -146 432 -146Q526 -146 592 -213.5Q658 -281 658 -378ZM664 -378Q664 -279 596 -209.5Q528 -140 432 -140Q336 -140 268 -209.5Q200 -279 200 -378Q200 -476 268 -545Q336 -614 432 -614Q528 -614 596 -545Q664 -476 664 -378Z"/>
</svg>