<svg xmlns="http://www.w3.org/2000/svg" viewBox="0 -1000 1000 1000">
	<path fill="#000000" d="M-43 -162Q-43 -162 -56 -162Q-110 -162 -147.5 -199.5Q-185 -237 -185 -290Q-185 -344 -147.5 -381.5Q-110 -419 -56 -419H-43V-342Q-51 -344 -56 -344Q-78 -344 -94 -328Q-110 -312 -110 -290Q-110 -268 -94.5 -252.5Q-79 -237 -56 -237Q-51 -237 -43 -239Z"/>
	<path fill="#2200f5" d="M7 -152Q7 -152 -6 -152Q-60 -152 -97.5 -189.5Q-135 -227 -135 -280Q-135 -334 -97.5 -371.5Q-60 -409 -6 -409H7V-332Q-1 -334 -6 -334Q-28 -334 -44 -318Q-60 -302 -60 -280Q-60 -258 -44.5 -242.5Q-29 -227 -6 -227Q-1 -227 7 -229Z"/>
	<path fill="#00a0e1" d="M4 -406H-6Q-59 -406 -95.5 -369.5Q-132 -333 -132 -280Q-132 -228 -95.5 -191Q-59 -154 -6 -154H4V-226Q-2 -224 -6 -224Q-30 -224 -46 -240.5Q-62 -257 -62 -280.5Q-62 -304 -46 -320Q-30 -336 -6 -336Q-2 -336 4 -335ZM7 -150H-6Q-61 -150 -99.5 -188Q-138 -226 -138 -280Q-138 -335 -99.5 -373.5Q-61 -412 -6 -412H7Q10 -412 10 -409V-332Q10 -330 7 -330Q7 -330 6 -330Q-1 -332 -6 -332Q-27 -332 -42.5 -316.5Q-58 -301 -58 -280Q-58 -259 -43 -244.5Q-28 -230 -6 -230Q-1 -230 6 -231Q7 -232 7 -232Q10 -232 10 -229V-152Q10 -150 7 -150Z"/>
</svg>