<svg xmlns="http://www.w3.org/2000/svg" viewBox="0 -1000 1000 1000">
	<path fill="#000000" d="M282 -411V-419Q274 -418 258 -418Q151 -418 75.5 -493.5Q0 -569 0 -676Q0 -782 75 -853.5Q150 -925 258 -925Q274 -925 282 -924H434V-411ZM282 -779Q270 -782 258 -782Q213 -782 182 -751Q151 -720 151 -676Q151 -631 182 -600Q213 -569 258 -569Q270 -569 282 -572Z"/>
	<path fill="#2200f5" d="M332 -401V-409Q324 -408 308 -408Q201 -408 125.5 -483.5Q50 -559 50 -666Q50 -772 125 -843.5Q200 -915 308 -915Q324 -915 332 -914H484V-401ZM332 -769Q320 -772 308 -772Q263 -772 232 -741Q201 -710 201 -666Q201 -621 232 -590Q263 -559 308 -559Q320 -559 332 -562Z"/>
	<path fill="#00a0e1" d="M482 -912H332Q324 -912 308 -912Q201 -912 126.5 -841.5Q52 -771 52 -666Q52 -560 127 -485Q202 -410 308 -410Q324 -410 332 -411Q332 -411 332 -412Q334 -412 334 -409V-404H482ZM308 -770Q264 -770 234 -739.5Q204 -709 204 -666Q204 -622 234 -592Q264 -562 308 -562Q319 -562 330 -564V-767Q319 -770 308 -770ZM334 -769V-562Q334 -560 333 -560Q320 -556 308 -556Q262 -556 230 -588Q198 -620 198 -666Q198 -711 230 -742.5Q262 -774 308 -774Q320 -774 333 -771Q334 -771 334 -769ZM332 -916H484Q486 -916 486 -914V-401Q486 -398 484 -398H332Q330 -398 330 -401V-406Q322 -405 309 -405Q308 -405 308 -406Q200 -406 124 -482Q48 -558 48 -666Q48 -773 123.5 -845.5Q199 -918 308 -918Q312 -918 320 -917Q328 -916 332 -916Z"/>
</svg>