<svg xmlns="http://www.w3.org/2000/svg" viewBox="0 -1000 1000 1000">
	<path fill="#000000" d="M500 -784H652V-8H500ZM282 -13V-276Q274 -275 258 -275Q151 -275 75.5 -350.5Q0 -426 0 -533Q0 -640 75.5 -715Q151 -790 258 -790Q274 -790 282 -789H434V-13Z"/>
	<path fill="#2200f5" d="M550 -774H702V2H550ZM332 -3V-266Q324 -265 308 -265Q201 -265 125.5 -340.5Q50 -416 50 -523Q50 -630 125.5 -705Q201 -780 308 -780Q324 -780 332 -779H484V-3Z"/>
	<path fill="#00a0e1" d="M700 -772H552V0H700ZM550 -776H702Q704 -776 704 -774V2Q704 4 702 4H550Q548 4 548 2V-774Q548 -776 550 -776ZM482 -776H332Q332 -776 332 -777Q324 -778 308 -778Q202 -778 127 -703.5Q52 -629 52 -523Q52 -417 127 -342.5Q202 -268 308 -268Q324 -268 332 -268Q334 -268 334 -266V-6H482ZM332 -782H484Q486 -782 486 -779V-3Q486 0 484 0H332Q330 0 330 -3V-263Q322 -262 309 -262Q308 -262 308 -262Q200 -262 124 -338.5Q48 -415 48 -523Q48 -631 124 -706.5Q200 -782 308 -782Q312 -782 320 -782Q328 -782 332 -782Z"/>
</svg>