<svg xmlns="http://www.w3.org/2000/svg" viewBox="0 -1000 1000 1000">
	<path fill="#000000" d="M382 -754Q282 -754 193 -643.5Q104 -533 104 -388Q104 -242 193 -131.5Q282 -21 382 -21L455 -3Q421 4 382 4Q224 4 112 -111.5Q0 -227 0 -390Q0 -553 112 -668Q224 -783 382 -783Q421 -783 455 -776Z"/>
	<path fill="#2200f5" d="M432 -744Q332 -744 243 -633.5Q154 -523 154 -378Q154 -232 243 -121.5Q332 -11 432 -11L505 7Q471 14 432 14Q274 14 162 -101.5Q50 -217 50 -380Q50 -543 162 -658Q274 -773 432 -773Q471 -773 505 -766Z"/>
	<path fill="#00a0e1" d="M432 -770Q329 -770 241.5 -718Q154 -666 103 -576Q52 -486 52 -380Q52 -273 103 -183Q154 -93 241.5 -40.5Q329 12 432 12Q465 12 493 7L432 -9Q383 -9 333 -38.5Q283 -68 243 -117Q203 -166 177 -235.5Q151 -305 152 -378Q152 -451 177.5 -520Q203 -589 243 -638Q283 -687 333 -716.5Q383 -746 432 -746L495 -765Q466 -770 432 -770ZM432 -742Q385 -742 336 -712.5Q287 -683 247 -635Q207 -587 181.5 -518.5Q156 -450 156 -378Q156 -305 181.5 -236.5Q207 -168 247 -120Q287 -72 336 -43Q385 -14 432 -14Q432 -14 433 -13L506 5Q508 5 508 7Q508 9 506 9Q472 16 432 16Q327 16 238.5 -36.5Q150 -89 99 -180.5Q48 -272 48 -380Q48 -487 99 -578.5Q150 -670 239 -723Q328 -776 432 -776Q472 -776 506 -768Q508 -768 508 -766Q508 -764 506 -764L433 -742Q432 -742 432 -742Z"/>
</svg>