<svg xmlns="http://www.w3.org/2000/svg" viewBox="0 -1000 1000 1000">
	<path fill="#000000" d="M154 -493Q154 -493 152 -493Q152 -493 145 -493Q94 -497 59.5 -533.5Q25 -570 25 -621Q25 -672 60 -709Q95 -746 145 -750H152Q152 -750 154 -750Q154 -750 156 -750Q210 -750 247.5 -712.5Q285 -675 285 -621Q285 -568 247.5 -530.5Q210 -493 156 -493ZM155 -675Q151 -675 143 -673V-674Q124 -670 112.5 -655.5Q101 -641 101 -621Q101 -602 112.5 -587.5Q124 -573 143 -569V-570Q151 -568 155 -568Q159 -568 167 -570V-569Q186 -573 197.5 -587.5Q209 -602 209 -621Q209 -641 197.5 -655.5Q186 -670 167 -674V-673Q159 -675 155 -675ZM459 -92H457H450Q399 -96 364.5 -132.5Q330 -169 330 -220Q330 -271 365 -308Q400 -345 450 -349H457H459H461Q515 -349 552.5 -311.5Q590 -274 590 -220Q590 -167 552.5 -129.5Q515 -92 461 -92ZM460 -274Q456 -274 448 -272V-273Q429 -269 417.5 -254.5Q406 -240 406 -220Q406 -201 417.5 -186.5Q429 -172 448 -168V-169Q456 -167 460 -167Q464 -167 472 -169V-168Q491 -172 502.5 -186.5Q514 -201 514 -220Q514 -240 502.5 -254.5Q491 -269 472 -273V-272Q464 -274 460 -274ZM485 -828L591 -767L106 73L0 12Z"/>
	<path fill="#2200f5" d="M204 -483Q204 -483 202 -483Q202 -483 195 -483Q144 -487 109.5 -523.5Q75 -560 75 -611Q75 -662 110 -699Q145 -736 195 -740H202Q202 -740 204 -740Q204 -740 206 -740Q260 -740 297.5 -702.5Q335 -665 335 -611Q335 -558 297.5 -520.5Q260 -483 206 -483ZM205 -665Q201 -665 193 -663V-664Q174 -660 162.5 -645.5Q151 -631 151 -611Q151 -592 162.5 -577.5Q174 -563 193 -559V-560Q201 -558 205 -558Q209 -558 217 -560V-559Q236 -563 247.5 -577.5Q259 -592 259 -611Q259 -631 247.5 -645.5Q236 -660 217 -664V-663Q209 -665 205 -665ZM509 -82H507H500Q449 -86 414.5 -122.5Q380 -159 380 -210Q380 -261 415 -298Q450 -335 500 -339H507H509H511Q565 -339 602.5 -301.5Q640 -264 640 -210Q640 -157 602.5 -119.5Q565 -82 511 -82ZM510 -264Q506 -264 498 -262V-263Q479 -259 467.5 -244.5Q456 -230 456 -210Q456 -191 467.5 -176.5Q479 -162 498 -158V-159Q506 -157 510 -157Q514 -157 522 -159V-158Q541 -162 552.5 -176.5Q564 -191 564 -210Q564 -230 552.5 -244.5Q541 -259 522 -263V-262Q514 -264 510 -264ZM535 -818L641 -757L156 83L50 22Z"/>
	<path fill="#00a0e1" d="M195 -486H206Q259 -486 295.5 -522.5Q332 -559 332 -611Q332 -664 295.5 -701Q259 -738 206 -738H195Q146 -734 112 -697.5Q78 -661 78 -611Q78 -561 112 -525Q146 -489 195 -486ZM206 -480H195Q195 -480 195 -481Q143 -484 108 -521.5Q73 -559 72.5 -611Q72 -663 107.5 -701Q143 -739 195 -742H206Q261 -742 299.5 -704Q338 -666 338 -611Q338 -557 299.5 -518.5Q261 -480 206 -480ZM194 -661Q193 -660 193 -660Q192 -660 191 -661Q174 -657 164 -643Q154 -629 154 -611Q154 -593 164 -579.5Q174 -566 191 -562Q192 -562 193 -562Q193 -562 194 -562Q201 -560 205 -560Q209 -560 216 -562Q217 -562 217 -562Q218 -562 219 -562Q236 -566 246 -579.5Q256 -593 256 -611Q256 -629 246 -643Q236 -657 219 -661Q218 -661 217 -660Q217 -660 216 -661Q209 -662 205 -662Q201 -662 194 -661ZM500 -84H511Q564 -84 601 -121Q638 -158 638 -210Q638 -263 601 -299.5Q564 -336 511 -336H500Q451 -333 416.5 -296.5Q382 -260 382 -210Q382 -160 416.5 -124Q451 -88 500 -84ZM511 -80H500Q448 -83 413 -120.5Q378 -158 378 -210Q378 -262 413 -300Q448 -338 500 -341Q500 -341 500 -342H511Q566 -342 604 -303.5Q642 -265 642 -210Q642 -156 604 -118Q566 -80 511 -80ZM499 -260Q498 -260 498 -260Q497 -260 496 -260Q479 -256 468.5 -242Q458 -228 458 -210Q458 -192 468.5 -178.5Q479 -165 496 -161Q497 -161 498 -162Q498 -162 499 -161Q506 -160 510 -160Q514 -160 521 -161Q522 -162 522 -162Q523 -162 524 -161Q541 -165 551.5 -178.5Q562 -192 562 -210Q562 -228 551.5 -242Q541 -256 524 -260Q523 -260 522 -260Q522 -260 521 -260Q514 -262 510 -262Q506 -262 499 -260ZM638 -756L536 -815L53 21L155 80ZM644 -757Q644 -756 643 -756L158 84Q157 86 156 86Q155 86 155 85L49 24Q48 23 48 22Q48 21 48 21L533 -819Q534 -820 535 -820Q536 -820 536 -820L642 -759Q644 -758 644 -757ZM215 -666Q216 -666 217 -666Q237 -663 249.5 -647Q262 -631 262 -611Q262 -591 249.5 -575.5Q237 -560 217 -557V-556Q216 -556 215 -557Q209 -556 205 -556Q201 -556 195 -557Q194 -557 193 -556V-557Q173 -560 160.5 -575.5Q148 -591 148 -611Q148 -631 160.5 -647Q173 -663 193 -666Q194 -666 195 -666Q201 -668 205 -668Q209 -668 215 -666ZM520 -265Q521 -265 522 -266V-265Q542 -262 554 -246Q566 -230 566 -210Q566 -190 554 -174.5Q542 -159 522 -156Q521 -156 520 -156Q514 -154 510 -154Q506 -154 500 -156Q499 -156 498 -156Q478 -159 466 -174.5Q454 -190 454 -210Q454 -230 466 -246Q478 -262 498 -265V-266Q499 -266 500 -265Q506 -266 510 -266Q514 -266 520 -265Z"/>
</svg>