<svg xmlns="http://www.w3.org/2000/svg" viewBox="0 -1000 1000 1000">
	<path fill="#000000" d="M544 -132V20H0V-132ZM544 -506V-354H0V-506ZM196 -702H348V-159H196Z"/>
	<path fill="#2200f5" d="M594 -122V30H50V-122ZM594 -496V-344H50V-496ZM246 -692H398V-149H246Z"/>
	<path fill="#00a0e1" d="M592 28V-120H52V28ZM596 -122V30Q596 32 594 32H50Q48 32 48 30V-122Q48 -124 50 -124H594Q596 -124 596 -122ZM396 -690H248V-496Q248 -494 246 -494H52V-346H246Q248 -346 248 -344V-152H396V-344Q396 -346 398 -346H592V-494H398Q396 -494 396 -496ZM246 -694H398Q400 -694 400 -692V-498H594Q596 -498 596 -496V-344Q596 -342 594 -342H400V-149Q400 -146 398 -146H246Q244 -146 244 -149V-342H50Q48 -342 48 -344V-496Q48 -498 50 -498H244V-692Q244 -694 246 -694Z"/>
</svg>