<svg xmlns="http://www.w3.org/2000/svg" viewBox="0 -1000 1000 1000">
	<path fill="#000000" d="M611 -388Q611 -485 544 -553.5Q477 -622 382 -622Q287 -622 220 -553.5Q153 -485 153 -388Q153 -290 220 -221.5Q287 -153 382 -153Q477 -153 544 -221.5Q611 -290 611 -388ZM764 -390Q764 -303 730 -226.5Q696 -150 635 -95L772 42L634 181L451 -2Q417 4 382 4Q224 4 112 -111.5Q0 -227 0 -390Q0 -553 112 -668Q224 -783 382 -783Q540 -783 652 -668Q764 -553 764 -390Z"/>
	<path fill="#2200f5" d="M661 -378Q661 -475 594 -543.5Q527 -612 432 -612Q337 -612 270 -543.5Q203 -475 203 -378Q203 -280 270 -211.5Q337 -143 432 -143Q527 -143 594 -211.5Q661 -280 661 -378ZM814 -380Q814 -293 780 -216.5Q746 -140 685 -85L822 52L684 191L501 8Q467 14 432 14Q274 14 162 -101.5Q50 -217 50 -380Q50 -543 162 -658Q274 -773 432 -773Q590 -773 702 -658Q814 -543 814 -380Z"/>
	<path fill="#00a0e1" d="M658 -378Q658 -474 592 -542Q526 -610 432 -610Q338 -610 272 -542Q206 -474 206 -378Q206 -281 272 -213.5Q338 -146 432 -146Q526 -146 592 -213.5Q658 -281 658 -378ZM664 -378Q664 -279 596 -209.5Q528 -140 432 -140Q336 -140 268 -209.5Q200 -279 200 -378Q200 -476 268 -545Q336 -614 432 -614Q528 -614 596 -545Q664 -476 664 -378ZM812 -380Q812 -486 761 -576Q710 -666 622.5 -718Q535 -770 432 -770Q329 -770 241.5 -718Q154 -666 103 -576Q52 -486 52 -380Q52 -273 103 -183Q154 -93 241.5 -40.5Q329 12 432 12Q467 12 500 5H501Q502 5 502 6L684 187L818 52L683 -83Q683 -84 683 -85Q683 -86 683 -87Q744 -141 778 -217.5Q812 -294 812 -380ZM432 16Q327 16 238.5 -36.5Q150 -89 99 -180.5Q48 -272 48 -380Q48 -487 99 -578.5Q150 -670 239 -723Q328 -776 432 -776Q536 -776 625 -723Q714 -670 765 -578.5Q816 -487 816 -380Q816 -294 782.5 -217Q749 -140 689 -85L824 50Q824 51 824 52Q824 53 824 54L686 193Q685 194 684 194Q683 194 682 193L500 10Q466 16 432 16Z"/>
</svg>