<svg xmlns="http://www.w3.org/2000/svg" viewBox="0 -1000 1000 1000">
	<path fill="#000000" d="M176 -850L68 -957L250 -1139L358 -1032ZM152 -636V-429Q164 -426 176 -426Q221 -426 252 -457Q283 -488 283 -533Q283 -577 252 -608Q221 -639 176 -639Q164 -639 152 -636ZM152 -13H0V-789H152Q160 -790 176 -790Q283 -790 358.5 -715Q434 -640 434 -533Q434 -450 386.5 -383.5Q339 -317 263 -290L462 -7H322L157 -276Q154 -276 152 -276Z"/>
	<path fill="#2200f5" d="M226 -840L118 -947L300 -1129L408 -1022ZM202 -626V-419Q214 -416 226 -416Q271 -416 302 -447Q333 -478 333 -523Q333 -567 302 -598Q271 -629 226 -629Q214 -629 202 -626ZM202 -3H50V-779H202Q210 -780 226 -780Q333 -780 408.5 -705Q484 -630 484 -523Q484 -440 436.5 -373.5Q389 -307 313 -280L512 3H372L207 -266Q204 -266 202 -266Z"/>
	<path fill="#00a0e1" d="M122 -947L226 -844L404 -1022L300 -1125ZM116 -949L298 -1131Q299 -1132 300 -1132Q301 -1132 302 -1131L410 -1024Q411 -1023 411 -1022Q411 -1021 410 -1020L228 -838Q227 -838 226 -838Q225 -838 224 -838L116 -945Q115 -946 115 -947Q115 -948 116 -949ZM226 -418Q270 -418 300 -448.5Q330 -479 330 -523Q330 -566 300 -596Q270 -626 226 -626Q215 -626 204 -624V-421Q215 -418 226 -418ZM226 -632Q272 -632 304 -600Q336 -568 336 -523Q336 -477 304 -445.5Q272 -414 226 -414Q214 -414 201 -417Q200 -417 200 -419V-626Q200 -628 201 -628Q214 -632 226 -632ZM52 -6H200V-266Q200 -268 202 -268Q208 -268 209 -267L373 0H507L311 -279Q311 -279 311 -280Q311 -282 312 -282Q388 -309 435 -375Q482 -441 482 -523Q482 -629 407 -703.5Q332 -778 226 -778Q210 -778 202 -777Q202 -777 202 -776H52ZM202 0H50Q48 0 48 -3V-779Q48 -782 50 -782H202Q210 -783 225 -783Q226 -783 226 -782Q334 -782 410 -706.5Q486 -631 486 -523Q486 -440 439.5 -373.5Q393 -307 317 -279L514 2Q514 2 514 3Q514 6 512 6H372Q371 6 370 4L205 -263Q205 -263 204 -263V-3Q204 0 202 0Z"/>
</svg>