<svg xmlns="http://www.w3.org/2000/svg" viewBox="0 -1000 1000 1000">
	<path fill="#000000" d="M173 -1011H249L277 -903L297 -1011H373L321 -843H320H245H244ZM5 -67L80 -192Q92 -182 102 -177Q140 -155 182 -165.5Q224 -176 247 -212Q269 -251 244.5 -284.5Q220 -318 177 -325Q110 -361 69.5 -408Q29 -455 18.5 -517.5Q8 -580 51 -649Q103 -736 206 -761.5Q309 -787 403 -737Q406 -734 413.5 -729.5Q421 -725 424 -722L349 -597Q337 -607 327 -612Q289 -633 246.5 -622.5Q204 -612 182 -575Q157 -534 177.5 -485Q198 -436 246 -428Q295 -402 328.5 -375.5Q362 -349 386.5 -313.5Q411 -278 409.5 -234Q408 -190 377 -140Q325 -52 222.5 -26.5Q120 -1 26 -52Q23 -55 15.5 -59.5Q8 -64 5 -67Z"/>
	<path fill="#2200f5" d="M223 -1001H299L327 -893L347 -1001H423L371 -833H370H295H294ZM55 -57L130 -182Q142 -172 152 -167Q190 -145 232 -155.5Q274 -166 297 -202Q319 -241 294.5 -274.5Q270 -308 227 -315Q160 -351 119.5 -398Q79 -445 68.5 -507.5Q58 -570 101 -639Q153 -726 256 -751.5Q359 -777 453 -727Q456 -724 463.5 -719.5Q471 -715 474 -712L399 -587Q387 -597 377 -602Q339 -623 296.5 -612.5Q254 -602 232 -565Q207 -524 227.5 -475Q248 -426 296 -418Q345 -392 378.5 -365.5Q412 -339 436.5 -303.5Q461 -268 459.5 -224Q458 -180 427 -130Q375 -42 272.5 -16.5Q170 9 76 -42Q73 -45 65.5 -49.5Q58 -54 55 -57Z"/>
	<path fill="#00a0e1" d="M325 -892L297 -999H227L296 -835H369L420 -999H349L329 -893Q329 -891 327 -891Q325 -891 325 -892ZM223 -1003H299Q301 -1003 301 -1002L327 -905L345 -1001Q345 -1003 347 -1003H423Q425 -1003 425 -1001Q425 -1001 425 -1000L373 -832Q373 -831 371 -831H294Q292 -831 292 -832L221 -1000Q221 -1000 221 -1001Q221 -1003 223 -1003ZM456 -229Q456 -286 413 -330.5Q370 -375 295 -416Q260 -422 238.5 -451.5Q217 -481 217 -517Q217 -544 230 -566Q245 -591 270 -604.5Q295 -618 324 -618Q353 -618 378 -604Q388 -599 398 -591L471 -711Q468 -713 461.5 -717.5Q455 -722 452 -725Q391 -757 323 -757Q255 -757 196 -725.5Q137 -694 103 -638Q70 -582 70 -527Q70 -464 113 -410Q156 -356 228 -317Q261 -312 285.5 -289.5Q310 -267 310 -237Q310 -219 299 -201Q284 -177 259 -163.5Q234 -150 206 -150Q177 -150 151 -165Q141 -170 131 -178L58 -58Q61 -56 67.5 -51.5Q74 -47 78 -44Q92 -36 114 -29.5Q136 -23 153.5 -20Q171 -17 188 -14.5Q205 -12 207 -11Q274 -11 332.5 -42.5Q391 -74 425 -131Q456 -183 456 -229ZM130 -184Q131 -184 132 -184Q143 -174 153 -169Q178 -155 206 -155Q233 -155 256.5 -167.5Q280 -180 295 -203Q305 -220 305 -237Q305 -265 281.5 -286Q258 -307 227 -313Q226 -313 226 -313Q153 -352 109 -407Q65 -462 65 -527Q65 -583 99 -640Q134 -698 194 -730Q254 -762 323 -762Q393 -762 454 -729Q455 -729 455 -729Q458 -726 465.5 -721Q473 -716 476 -714Q476 -713 476 -712Q476 -711 476 -711L401 -586Q400 -584 399 -584Q398 -584 397 -585Q386 -595 376 -600Q351 -613 324 -613Q296 -613 272.5 -600Q249 -587 234 -564Q222 -543 222 -517Q222 -482 242.5 -454Q263 -426 296 -420Q297 -420 297 -420Q373 -380 417 -334Q461 -288 461 -229Q461 -182 429 -129Q395 -71 335 -38.5Q275 -6 207 -6Q137 -6 75 -40Q74 -40 74 -40Q71 -43 63.5 -48Q56 -53 53 -55Q52 -56 52 -57Q52 -58 53 -58L128 -183Q129 -184 130 -184Z"/>
</svg>