<svg xmlns="http://www.w3.org/2000/svg" viewBox="0 -1000 1000 1000">
	<path fill="#000000" d="M191 -1011H267L295 -903L315 -1011H391L339 -843H338H263H262ZM3 -624V-776H579V-624H367V-8H215V-624Z"/>
	<path fill="#2200f5" d="M241 -1001H317L345 -893L365 -1001H441L389 -833H388H313H312ZM53 -614V-766H629V-614H417V2H265V-614Z"/>
	<path fill="#00a0e1" d="M343 -892L315 -999H245L314 -835H387L438 -999H367L347 -893Q347 -891 345 -891Q343 -891 343 -892ZM241 -1003H317Q319 -1003 319 -1002L345 -905L363 -1001Q363 -1003 365 -1003H441Q443 -1003 443 -1001Q443 -1001 443 -1000L391 -832Q391 -831 389 -831H312Q310 -831 310 -832L239 -1000Q239 -1000 239 -1001Q239 -1003 241 -1003ZM56 -764V-616H265Q268 -616 268 -614V0H414V-614Q414 -616 417 -616H626V-764ZM50 -614V-766Q50 -768 53 -768H629Q632 -768 632 -766V-614Q632 -612 629 -612H420V2Q420 4 417 4H265Q262 4 262 2V-612H53Q50 -612 50 -614Z"/>
</svg>