<svg xmlns="http://www.w3.org/2000/svg" viewBox="0 -1000 1000 1000">
	<path fill="#000000" d="M0 -5V-129Q13 -126 26 -126Q92 -126 138 -151Q184 -176 184 -212Q184 -246 157 -270Q130 -294 90 -298Q83 -298 77 -298Q71 -298 65 -298Q58 -298 51 -296V-299V-420V-423Q58 -421 65 -421Q71 -421 77 -421Q83 -421 90 -421Q130 -424 157 -448.5Q184 -473 184 -506Q184 -543 140 -568Q96 -593 32 -593Q19 -593 6 -590V-714Q19 -715 32 -715Q158 -715 246.5 -654Q335 -593 335 -506Q335 -420 260 -359Q335 -298 335 -212Q335 -126 244.5 -65Q154 -4 26 -4Q13 -4 0 -5Z"/>
	<path fill="#2200f5" d="M50 5V-119Q63 -116 76 -116Q142 -116 188 -141Q234 -166 234 -202Q234 -236 207 -260Q180 -284 140 -288Q133 -288 127 -288Q121 -288 115 -288Q108 -288 101 -286V-289V-410V-413Q108 -411 115 -411Q121 -411 127 -411Q133 -411 140 -411Q180 -414 207 -438.5Q234 -463 234 -496Q234 -533 190 -558Q146 -583 82 -583Q69 -583 56 -580V-704Q69 -705 82 -705Q208 -705 296.5 -644Q385 -583 385 -496Q385 -410 310 -349Q385 -288 385 -202Q385 -116 294.5 -55Q204 6 76 6Q63 6 50 5Z"/>
	<path fill="#00a0e1" d="M115 -408Q112 -408 104 -410V-289Q112 -291 115 -291Q121 -290 127 -290Q133 -290 140 -291Q181 -287 208.5 -262Q236 -237 236 -202Q236 -165 189.5 -139.5Q143 -114 76 -114Q64 -114 52 -116V3Q64 4 76 4Q204 4 293 -56.5Q382 -117 382 -202Q382 -287 309 -347Q308 -348 308 -349.5Q308 -351 309 -351Q382 -411 382 -496Q382 -582 294.5 -642.5Q207 -703 82 -703Q70 -703 58 -702V-583Q70 -585 82 -585Q147 -585 191.5 -559.5Q236 -534 236 -496Q236 -462 208.5 -437Q181 -412 140 -408Q139 -408 133.5 -408.5Q128 -409 127 -409Q121 -409 115 -408ZM48 5V-119Q48 -121 50 -121Q63 -119 76 -119Q142 -119 187 -143.5Q232 -168 232 -202Q232 -235 205.5 -258.5Q179 -282 140 -286Q133 -285 127 -285Q121 -285 115 -286Q108 -285 101 -284Q98 -284 98 -286V-413Q98 -415 101 -415Q108 -414 115 -413Q121 -414 127 -414Q133 -414 140 -413Q179 -417 205.5 -440.5Q232 -464 232 -496Q232 -531 188.5 -555.5Q145 -580 82 -580Q69 -580 56 -578Q54 -578 54 -580V-704Q54 -706 56 -707Q69 -708 82 -708Q209 -708 298.5 -646Q388 -584 388 -496Q388 -411 314 -349Q388 -288 388 -202Q388 -114 296.5 -52.5Q205 9 76 9Q63 9 50 8Q48 7 48 5Z"/>
</svg>