<svg xmlns="http://www.w3.org/2000/svg" viewBox="0 -1000 1000 1000">
	<path fill="#000000" d="M76 -929V-853Q75 -851 67.5 -842Q60 -833 44 -822.5Q28 -812 12 -812H-38Q-54 -812 -76.5 -826Q-99 -840 -115 -840Q-126 -840 -141 -833Q-156 -826 -165 -819L-174 -812V-888Q-142 -916 -117 -916Q-100 -916 -76.5 -902.5Q-53 -889 -37 -889Q-14 -889 8 -889Q23 -889 40 -899Q57 -909 66 -919Z"/>
	<path fill="#2200f5" d="M126 -919V-843Q125 -841 117.5 -832Q110 -823 94 -812.5Q78 -802 62 -802H12Q-4 -802 -26.5 -816Q-49 -830 -65 -830Q-76 -830 -91 -823Q-106 -816 -115 -809L-124 -802V-878Q-92 -906 -67 -906Q-50 -906 -26.5 -892.5Q-3 -879 13 -879Q36 -879 58 -879Q73 -879 90 -889Q107 -899 116 -909Z"/>
	<path fill="#00a0e1" d="M13 -876Q-4 -876 -27.5 -890Q-51 -904 -67 -904Q-89 -904 -121 -877V-807Q-88 -833 -65 -833Q-48 -833 -26 -819Q-4 -805 12 -805H62Q81 -805 97.5 -818Q114 -831 123 -843V-912Q89 -876 58 -876Q58 -876 13 -876ZM-67 -909Q-50 -909 -26.5 -895Q-3 -881 13 -881Q36 -881 58 -881Q72 -881 89.5 -892Q107 -903 113.5 -909.5Q120 -916 124 -920Q125 -921 126 -921Q128 -921 128 -919V-843Q128 -840 120 -830.5Q112 -821 95.5 -810.5Q79 -800 62 -800H12Q-5 -800 -27 -814Q-49 -828 -65 -828Q-75 -828 -89.5 -821Q-104 -814 -113 -807L-122 -800Q-123 -800 -124 -800Q-126 -800 -126 -802V-878Q-126 -879 -125 -880Q-93 -909 -67 -909Z"/>
</svg>