<svg xmlns="http://www.w3.org/2000/svg" viewBox="0 -1000 1000 1000">
	<path fill="#000000" d="M80 -596Q175 -596 242 -541Q309 -486 309 -409Q309 -332 243 -284Q177 -236 80 -236Q42 -236 7 -246L4 -10L507 -15V-136L232 -134Q336 -168 399 -241.5Q462 -315 462 -410Q462 -496 411 -568.5Q360 -641 272 -683Q184 -725 80 -725Q43 -725 7 -719V-586Q42 -596 80 -596Z"/>
	<path fill="#2200f5" d="M130 -586Q225 -586 292 -531Q359 -476 359 -399Q359 -322 293 -274Q227 -226 130 -226Q92 -226 57 -236L54 0L557 -5V-126L282 -124Q386 -158 449 -231.5Q512 -305 512 -400Q512 -486 461 -558.5Q410 -631 322 -673Q234 -715 130 -715Q93 -715 57 -709V-576Q92 -586 130 -586Z"/>
	<path fill="#00a0e1" d="M130 -588Q226 -588 294 -533Q362 -478 362 -399Q362 -321 295 -272.5Q228 -224 130 -224Q94 -224 59 -232L57 -3L554 -7V-124L282 -121Q279 -121 279 -124Q279 -126 281 -126Q384 -160 447 -233Q510 -306 510 -400Q510 -485 459 -557Q408 -629 320.5 -670.5Q233 -712 130 -712Q94 -712 60 -707V-580Q94 -588 130 -588ZM130 -584Q93 -584 58 -574Q57 -574 57 -574Q54 -574 54 -576V-709Q54 -711 57 -712Q93 -717 130 -717Q234 -717 322.5 -675Q411 -633 462.5 -560Q514 -487 514 -400Q514 -308 455 -235Q396 -162 297 -126L557 -129Q560 -129 560 -126V-5Q560 -2 557 -2L54 2Q51 2 52 0L55 -236Q55 -238 57 -238Q57 -238 58 -238Q93 -228 130 -228Q226 -228 291 -276Q356 -324 356 -399Q356 -475 290 -529.5Q224 -584 130 -584Z"/>
</svg>