<svg xmlns="http://www.w3.org/2000/svg" viewBox="0 -1000 1000 1000">
	<path fill="#000000" d="M308 -843V-985H460V-843ZM108 -843V-985H260V-843ZM566 -194Q550 -136 505.5 -94.5Q461 -53 405 -33.5Q349 -14 285 -13.5Q221 -13 164.5 -32Q108 -51 64 -93Q20 -135 3 -194L0 -771H167V-195Q196 -162 285 -161.5Q374 -161 402 -195V-771H569Z"/>
	<path fill="#2200f5" d="M358 -833V-975H510V-833ZM158 -833V-975H310V-833ZM616 -184Q600 -126 555.5 -84.5Q511 -43 455 -23.5Q399 -4 335 -3.5Q271 -3 214.5 -22Q158 -41 114 -83Q70 -125 53 -184L50 -761H217V-185Q246 -152 335 -151.5Q424 -151 452 -185V-761H619Z"/>
	<path fill="#00a0e1" d="M360 -973V-835H508V-973ZM356 -833V-975Q356 -977 358 -977H510Q512 -977 512 -975V-833Q512 -831 510 -831H358Q356 -831 356 -833ZM160 -973V-835H308V-973ZM156 -833V-975Q156 -977 158 -977H310Q312 -977 312 -975V-833Q312 -831 310 -831H158Q156 -831 156 -833ZM454 -758V-185Q454 -184 454 -183Q425 -149 336 -149Q296 -149 263 -158Q230 -167 215 -183Q214 -184 214 -185V-758H53L55 -184Q80 -99 158 -52Q236 -5 333 -5Q431 -5 510 -52Q589 -99 614 -184L616 -758ZM50 -764H217Q220 -764 220 -761V-186Q233 -171 265.5 -162.5Q298 -154 336 -154Q373 -154 404.5 -162.5Q436 -171 450 -186V-761Q450 -764 452 -764H619Q622 -764 622 -761L618 -184Q618 -184 618 -183Q594 -96 513.5 -48Q433 0 333 0Q235 0 155.5 -48Q76 -96 51 -183Q51 -184 51 -184L48 -761Q48 -764 50 -764Z"/>
</svg>