<svg xmlns="http://www.w3.org/2000/svg" viewBox="0 -1000 1000 1000">
	<path fill="#000000" d="M285 -843L103 -1025L211 -1132L393 -950ZM566 -194Q550 -136 505.5 -94.5Q461 -53 405 -33.5Q349 -14 285 -13.5Q221 -13 164.5 -32Q108 -51 64 -93Q20 -135 3 -194L0 -771H167V-195Q196 -162 285 -161.5Q374 -161 402 -195V-771H569Z"/>
	<path fill="#2200f5" d="M335 -833L153 -1015L261 -1122L443 -940ZM616 -184Q600 -126 555.5 -84.5Q511 -43 455 -23.5Q399 -4 335 -3.5Q271 -3 214.5 -22Q158 -41 114 -83Q70 -125 53 -184L50 -761H217V-185Q246 -152 335 -151.5Q424 -151 452 -185V-761H619Z"/>
	<path fill="#00a0e1" d="M157 -1015L335 -837L439 -940L261 -1118ZM151 -1017L259 -1124Q260 -1125 261 -1125Q262 -1125 263 -1124L445 -942Q446 -941 446 -940Q446 -939 445 -938L337 -831Q336 -831 335 -831Q334 -831 333 -831L151 -1013Q150 -1014 150 -1015Q150 -1016 151 -1017ZM454 -758V-185Q454 -184 454 -183Q425 -149 336 -149Q296 -149 263 -158Q230 -167 215 -183Q214 -184 214 -185V-758H53L55 -184Q80 -99 158 -52Q236 -5 333 -5Q431 -5 510 -52Q589 -99 614 -184L616 -758ZM50 -764H217Q220 -764 220 -761V-186Q233 -171 265.5 -162.5Q298 -154 336 -154Q373 -154 404.5 -162.5Q436 -171 450 -186V-761Q450 -764 452 -764H619Q622 -764 622 -761L618 -184Q618 -184 618 -183Q594 -96 513.5 -48Q433 0 333 0Q235 0 155.5 -48Q76 -96 51 -183Q51 -184 51 -184L48 -761Q48 -764 50 -764Z"/>
</svg>