<svg xmlns="http://www.w3.org/2000/svg" viewBox="0 -1000 1000 1000">
	<path fill="#000000" d="M428 -843L320 -950L502 -1132L610 -1025ZM142 -845L34 -952L216 -1134L324 -1027ZM566 -194Q550 -136 505.5 -94.5Q461 -53 405 -33.5Q349 -14 285 -13.5Q221 -13 164.5 -32Q108 -51 64 -93Q20 -135 3 -194L0 -771H167V-195Q196 -162 285 -161.5Q374 -161 402 -195V-771H569Z"/>
	<path fill="#2200f5" d="M478 -833L370 -940L552 -1122L660 -1015ZM192 -835L84 -942L266 -1124L374 -1017ZM616 -184Q600 -126 555.5 -84.5Q511 -43 455 -23.5Q399 -4 335 -3.5Q271 -3 214.5 -22Q158 -41 114 -83Q70 -125 53 -184L50 -761H217V-185Q246 -152 335 -151.5Q424 -151 452 -185V-761H619Z"/>
	<path fill="#00a0e1" d="M374 -940L478 -837L656 -1015L552 -1118ZM368 -942L550 -1124Q551 -1125 552 -1125Q553 -1125 554 -1124L662 -1017Q662 -1016 662 -1015Q662 -1014 662 -1013L480 -831Q479 -831 478 -831Q477 -831 476 -831L368 -938Q368 -939 368 -940Q368 -941 368 -942ZM88 -942L192 -839L370 -1017L266 -1120ZM82 -944L264 -1126Q265 -1127 266 -1127Q267 -1127 268 -1126L376 -1019Q376 -1018 376 -1017Q376 -1016 376 -1015L194 -833Q193 -833 192 -833Q191 -833 190 -833L82 -940Q82 -941 82 -942Q82 -943 82 -944ZM454 -758V-185Q454 -184 454 -183Q425 -149 336 -149Q296 -149 263 -158Q230 -167 215 -183Q214 -184 214 -185V-758H53L55 -184Q80 -99 158 -52Q236 -5 333 -5Q431 -5 510 -52Q589 -99 614 -184L616 -758ZM50 -764H217Q220 -764 220 -761V-186Q233 -171 265.5 -162.5Q298 -154 336 -154Q373 -154 404.5 -162.5Q436 -171 450 -186V-761Q450 -764 452 -764H619Q622 -764 622 -761L618 -184Q618 -184 618 -183Q594 -96 513.5 -48Q433 0 333 0Q235 0 155.5 -48Q76 -96 51 -183Q51 -184 51 -184L48 -761Q48 -764 50 -764Z"/>
</svg>