<svg xmlns="http://www.w3.org/2000/svg" viewBox="0 -1000 1000 1000">
	<path fill="#000000" d="M-26 -508V-650H126V-508ZM-226 -508V-650H-74V-508Z"/>
	<path fill="#2200f5" d="M24 -498V-640H176V-498ZM-176 -498V-640H-24V-498Z"/>
	<path fill="#00a0e1" d="M27 -638V-500H175V-638ZM23 -498V-640Q23 -642 25 -642H177Q179 -642 179 -640V-498Q179 -496 177 -496H25Q23 -496 23 -498ZM-173 -638V-500H-25V-638ZM-177 -498V-640Q-177 -642 -175 -642H-23Q-21 -642 -21 -640V-498Q-21 -496 -23 -496H-175Q-177 -496 -177 -498Z"/>
</svg>