<svg xmlns="http://www.w3.org/2000/svg" viewBox="0 -1000 1000 1000">
	<path fill="#000000" d="M172 195V53H324V195L264 327L206 323L215 195ZM319 -16Q285 -7 248 -7Q161 -7 94 -59Q27 -111 3 -194L0 -771H167V-195Q199 -158 248 -158Q288 -158 319 -184Z"/>
	<path fill="#2200f5" d="M222 205V63H374V205L314 337L256 333L265 205ZM369 -6Q335 3 298 3Q211 3 144 -49Q77 -101 53 -184L50 -761H217V-185Q249 -148 298 -148Q338 -148 369 -174Z"/>
	<path fill="#00a0e1" d="M224 65V203H265Q267 203 267 205Q267 205 259 331L312 334L372 204V65ZM220 205V63Q220 61 222 61H374Q376 61 376 63V205Q376 206 376 206L316 338Q316 339 314 339L256 335Q254 335 254 333L262 207H222Q220 207 220 205ZM298 0Q334 0 366 -8V-169Q336 -146 298 -146Q248 -146 215 -183Q214 -184 214 -185V-758H53L55 -184Q79 -102 145.5 -51Q212 0 298 0ZM298 6Q210 6 142.5 -47Q75 -100 51 -183Q51 -184 51 -184L48 -761Q48 -764 50 -764H217Q220 -764 220 -761V-186Q251 -150 298 -150Q337 -150 367 -176Q368 -176 369 -176Q372 -176 372 -174V-6Q372 -4 370 -4Q335 5 298 6Z"/>
</svg>