<svg xmlns="http://www.w3.org/2000/svg" viewBox="0 -1000 1000 1000">
	<path fill="#000000" d="M589 -554Q564 -552 557 -551Q558 -551 555.5 -561.5Q553 -572 550.5 -582.5Q548 -593 549 -593Q551 -593 561 -598Q571 -603 585 -609Q599 -615 611 -617Q664 -624 697.5 -588.5Q731 -553 730 -495Q729 -452 705 -419Q730 -385 730 -343Q730 -289 692.5 -251.5Q655 -214 601 -214Q601 -214 600.5 -214Q600 -214 599 -214Q598 -214 597 -214Q593 -214 590 -215Q539 -218 504.5 -255Q470 -292 470 -343Q470 -384 493 -417L498 -418L499 -419Q510 -416 526 -412Q550 -405 553.5 -402.5Q557 -400 553 -390Q545 -367 545 -343Q545 -320 560.5 -305Q576 -290 600 -290Q624 -290 639.5 -305Q655 -320 655 -343Q655 -362 643 -376.5Q631 -391 612 -395L600 -442Q606 -442 612 -444V-443Q631 -447 643 -461.5Q655 -476 655 -495Q655 -524 636.5 -539.5Q618 -555 589 -554ZM256 -762Q290 -771 327 -771Q414 -771 481 -719Q548 -667 572 -584L575 -7H408V-583Q376 -620 327 -620Q287 -620 256 -594ZM-37 -328H131Q105 -297 105 -258Q105 -208 141 -176H505V-10L141 -12Q58 -36 5.5 -103.5Q-47 -171 -47 -258Q-47 -295 -37 -328Z"/>
	<path fill="#2200f5" d="M638 -544Q613 -542 606 -541Q607 -541 604.5 -551.5Q602 -562 599.5 -572.5Q597 -583 598 -583Q600 -583 610 -588Q620 -593 634 -599Q648 -605 660 -607Q713 -614 746.5 -578.5Q780 -543 779 -485Q778 -442 754 -409Q779 -375 779 -333Q779 -279 741.5 -241.5Q704 -204 650 -204Q650 -204 649.5 -204Q649 -204 648 -204Q647 -204 646 -204Q642 -204 639 -205Q588 -208 553.5 -245Q519 -282 519 -333Q519 -374 542 -407L547 -408L548 -409Q559 -406 575 -402Q599 -395 602.5 -392.5Q606 -390 602 -380Q594 -357 594 -333Q594 -310 609.5 -295Q625 -280 649 -280Q673 -280 688.5 -295Q704 -310 704 -333Q704 -352 692 -366.5Q680 -381 661 -385L649 -432Q655 -432 661 -434V-433Q680 -437 692 -451.5Q704 -466 704 -485Q704 -514 685.5 -529.5Q667 -545 638 -544ZM305 -752Q340 -761 376 -761Q463 -761 530 -709Q597 -657 621 -574L624 3H457V-573Q425 -610 376 -610Q336 -610 305 -584ZM12 -318H180Q154 -287 154 -248Q154 -198 190 -166H554V0L190 -2Q107 -26 54.5 -93.5Q2 -161 2 -248Q2 -285 12 -318Z"/>
	<path fill="#00a0e1" d="M643 -541Q638 -541 624 -540L625 -288Q636 -282 649 -282Q672 -283 686.5 -297Q701 -311 701 -333Q701 -351 690 -364.5Q679 -378 662 -382Q662 -382 661 -382Q659 -382 659 -384L647 -432Q646 -432 646 -432Q646 -435 649 -435Q655 -435 660 -436Q661 -436 661 -436Q662 -436 662 -436Q679 -440 690 -453.5Q701 -467 701 -485Q701 -512 685 -526.5Q669 -541 643 -541ZM643 -546Q671 -546 688.5 -530Q706 -514 706 -485Q706 -465 693.5 -450Q681 -435 661 -431Q660 -431 660 -431Q656 -430 652 -430L663 -387Q682 -383 694 -368Q706 -353 706 -333Q706 -309 690 -293.5Q674 -278 649 -277Q634 -278 621 -284Q620 -285 620 -286L619 -542Q619 -545 621 -545Q637 -546 643 -546ZM460 0H621L620 -207Q620 -209 623 -209Q636 -207 648 -207H650Q703 -207 739.5 -243.5Q776 -280 776 -333Q776 -374 752 -408Q752 -408 752 -409Q752 -410 752 -411Q777 -444 777 -489Q777 -540 749 -572.5Q721 -605 676 -605Q651 -605 617 -588Q616 -588 616 -588Q614 -588 613 -590Q586 -665 522 -711.5Q458 -758 376 -758Q341 -758 308 -750V-589Q338 -612 376 -612Q426 -612 459 -575Q460 -574 460 -573V-166Q460 -164 457 -164H190Q190 -164 189 -165Q151 -197 151 -248Q151 -286 174 -316H13Q5 -283 5 -248Q5 -161 56.5 -95Q108 -29 190 -5L457 -3Q460 -3 460 0ZM648 -202Q637 -202 625 -204L626 3Q626 6 624 6H457Q454 6 454 3V2L189 0Q105 -24 52.5 -92Q0 -160 0 -248Q0 -285 9 -319Q10 -321 12 -321H180Q182 -321 182 -318Q182 -318 181 -317Q156 -287 156 -248Q156 -200 191 -169H454V-572Q423 -608 376 -608Q337 -608 307 -582Q306 -582 305 -582Q302 -582 302 -584V-752Q302 -754 304 -754Q339 -764 376 -764Q459 -764 524 -717Q589 -670 617 -594Q650 -610 676 -610Q723 -610 752.5 -575.5Q782 -541 782 -489Q782 -443 757 -409Q782 -375 782 -333Q782 -278 743.5 -240Q705 -202 650 -202Z"/>
</svg>