<svg xmlns="http://www.w3.org/2000/svg" viewBox="0 -1000 1000 1000">
	<path fill="#000000" d="M1 -478Q0 -491 0 -504Q0 -612 75 -687Q150 -762 257 -762Q364 -762 439.5 -687Q515 -612 515 -504Q515 -491 514 -478H361Q364 -491 364 -504Q364 -550 333 -581Q302 -612 257 -612Q213 -612 182 -580.5Q151 -549 151 -504Q151 -491 154 -478ZM562 -813V-681H400V-813ZM362 -860H514V-8H362Z"/>
	<path fill="#2200f5" d="M51 -468Q50 -481 50 -494Q50 -602 125 -677Q200 -752 307 -752Q414 -752 489.5 -677Q565 -602 565 -494Q565 -481 564 -468H411Q414 -481 414 -494Q414 -540 383 -571Q352 -602 307 -602Q263 -602 232 -570.5Q201 -539 201 -494Q201 -481 204 -468ZM612 -803V-671H450V-803ZM412 -850H564V2H412Z"/>
	<path fill="#00a0e1" d="M414 -471Q414 -471 414 -470Q414 -469 414 -468V0H561V-468Q561 -469 561 -470Q562 -482 562 -494Q562 -509 561 -522Q561 -522 561 -523V-671Q561 -674 564 -674H609V-800H564Q561 -800 561 -803V-848H414V-731Q414 -728 412 -728Q411 -728 410 -728Q361 -750 307 -750Q201 -750 126.5 -675.5Q52 -601 52 -494Q52 -483 54 -471H201Q198 -483 198 -494Q198 -540 230 -572Q262 -604 307 -604Q346 -604 376 -580Q406 -556 414 -519V-518ZM408 -468Q408 -469 409 -472V-518Q401 -553 373 -576Q345 -599 307 -599Q264 -599 234 -568.5Q204 -538 204 -494Q204 -482 207 -469Q207 -469 207 -468Q207 -466 204 -466H51Q49 -466 49 -468Q48 -481 48 -494Q48 -603 123.5 -679Q199 -755 307 -755Q360 -755 409 -734V-850Q409 -852 412 -852H564Q566 -852 566 -850V-806H612Q614 -806 614 -803V-671Q614 -668 612 -668H566V-523Q568 -509 568 -494Q568 -481 566 -468V2Q566 4 564 4H412Q409 4 409 2V-467Q408 -468 408 -468Z"/>
</svg>