<svg xmlns="http://www.w3.org/2000/svg" viewBox="0 -1000 1000 1000">
	<path fill="#000000" d="M893 -813V-681H845V-57Q845 -55 845 -54V-8H693V-54H692Q693 -55 693 -56V-103Q685 -140 656 -163Q627 -186 588 -186Q550 -186 521 -162.5Q492 -139 485 -102Q486 -89 486 -76Q486 -66 485 -55Q485 -54 486 -54H485Q485 -52 485 -50H332Q332 -52 333 -54Q332 -67 332 -80Q332 -90 332 -101Q324 -137 295 -160Q266 -183 228 -183Q184 -183 153 -152Q122 -121 122 -76Q122 -63 125 -50H-28Q-29 -63 -29 -76Q-29 -183 46 -258.5Q121 -334 228 -334Q330 -334 404 -265Q474 -338 576 -338Q638 -338 693 -310V-681H-50V-813H693H845Z"/>
	<path fill="#2200f5" d="M943 -803V-671H895V-47Q895 -45 895 -44V2H743V-44H742Q743 -45 743 -46V-93Q735 -130 706 -153Q677 -176 638 -176Q600 -176 571 -152.5Q542 -129 535 -92Q536 -79 536 -66Q536 -56 535 -45Q535 -44 536 -44H535Q535 -42 535 -40H382Q382 -42 383 -44Q381 -57 382 -70Q382 -80 382 -91Q374 -127 345 -150Q316 -173 278 -173Q234 -173 203 -142Q172 -111 172 -66Q172 -53 175 -40H22Q21 -53 21 -66Q21 -173 96 -248.5Q171 -324 278 -324Q380 -324 454 -255Q524 -328 626 -328Q688 -328 743 -300V-671H0V-803H743H895Z"/>
	<path fill="#00a0e1" d="M894 -45Q894 -45 893.5 -45.5Q893 -46 893 -47V-671Q893 -674 896 -674H941V-800H3V-674H744Q747 -674 747 -671V-300Q747 -297 744 -297Q743 -297 743 -298Q689 -325 627 -325Q526 -325 457 -254Q456 -253 455 -253Q454 -253 453 -253Q380 -322 279 -322Q173 -322 99 -247Q25 -172 25 -66Q25 -54 26 -42H173Q171 -54 171 -66Q171 -112 202.5 -144Q234 -176 279 -176Q318 -176 347.5 -152Q377 -128 386 -91Q386 -87 385.5 -80Q385 -73 385 -70Q385 -57 386 -44Q386 -44 386 -42H533Q534 -44 534 -45Q534 -49 534.5 -56Q535 -63 535 -66Q534 -79 533 -92Q541 -130 570.5 -154.5Q600 -179 639 -179Q679 -179 708.5 -155Q738 -131 746 -94L747 -93V-46Q747 -46 746 -45Q747 -44 747 -44V0H893V-44Q893 -44 894 -45ZM380 -40Q380 -41 381 -43Q381 -44 381 -44Q380 -57 380 -70Q380 -80 381 -90Q373 -126 344.5 -148Q316 -170 279 -170Q236 -170 205.5 -140Q175 -110 175 -66Q175 -53 179 -41Q179 -40 179 -40Q179 -38 176 -38H23Q21 -38 21 -40Q19 -53 19 -66Q19 -174 95 -250Q171 -326 279 -326Q380 -326 455 -259Q525 -330 627 -330Q688 -330 741 -304V-668H1Q-1 -668 -1 -671V-803Q-1 -806 1 -806H944Q947 -806 947 -803V-671Q947 -668 944 -668H899V-47Q899 -46 899 -44.5Q899 -43 899 -43V2Q899 4 896 4H744Q741 4 741 2V-42Q741 -43 741 -44Q741 -44 741 -47V-93Q734 -128 705.5 -151Q677 -174 639 -174Q602 -174 574 -151Q546 -128 538 -92Q539 -79 539 -66Q539 -56 539 -46Q539 -44 539 -44Q539 -42 538 -42Q538 -38 536 -38H383Q380 -38 380 -40Z"/>
</svg>