<svg xmlns="http://www.w3.org/2000/svg" viewBox="0 -1000 1000 1000">
	<path fill="#000000" d="M337 241V164Q345 166 350 166Q373 166 388.5 150.5Q404 135 404 113Q404 91 388 75Q372 59 350 59Q345 59 337 61V-16H350Q404 -16 441.5 21.5Q479 59 479 113Q479 166 441.5 203.5Q404 241 350 241ZM414 -16Q380 -7 343 -7Q256 -7 189 -59Q122 -111 98 -194L97 -374H0V-526H96L95 -771H262V-526H359V-374H262V-195Q294 -158 343 -158Q383 -158 414 -184Z"/>
	<path fill="#2200f5" d="M387 251V174Q395 176 400 176Q423 176 438.5 160.5Q454 145 454 123Q454 101 438 85Q422 69 400 69Q395 69 387 71V-6H400Q454 -6 491.5 31.5Q529 69 529 123Q529 176 491.5 213.5Q454 251 400 251ZM464 -6Q430 3 393 3Q306 3 239 -49Q172 -101 148 -184L147 -364H50V-516H146L145 -761H312V-516H409V-364H312V-185Q344 -148 393 -148Q433 -148 464 -174Z"/>
	<path fill="#00a0e1" d="M390 249H400Q453 249 489.5 212Q526 175 526 123Q526 70 489.5 33.5Q453 -3 400 -3H390V68Q396 67 400 67Q424 67 440 83Q456 99 456 122.5Q456 146 440 162.5Q424 179 400 179Q396 179 390 177ZM384 251V174Q384 171 387 171Q387 171 388 172Q395 173 400 173Q422 173 437 158.5Q452 144 452 123Q452 102 436.5 86.5Q421 71 400 71Q395 71 388 73Q387 73 387 73Q384 73 384 71V-6Q384 -9 387 -9H400Q455 -9 493.5 29.5Q532 68 532 123Q532 177 493.5 215Q455 253 400 253H387Q384 253 384 251ZM393 0Q428 0 462 -8V-169Q431 -146 393 -146Q343 -146 310 -183Q310 -184 310 -185V-364Q310 -366 312 -366H406V-514H312Q310 -514 310 -516V-758H148L149 -516Q149 -514 146 -514H52V-366H147Q150 -366 150 -364V-184Q174 -102 240.5 -51Q307 0 393 0ZM393 6Q305 6 237 -47Q169 -100 146 -183Q146 -184 146 -184L145 -362H50Q48 -362 48 -364V-516Q48 -518 50 -518H144L143 -761Q143 -764 145 -764H312Q314 -764 314 -761V-518H409Q412 -518 412 -516V-364Q412 -362 409 -362H314V-186Q346 -150 393 -150Q432 -150 462 -176Q463 -176 464 -176Q466 -176 466 -174V-6Q466 -4 465 -4Q430 6 393 6Z"/>
</svg>