<svg xmlns="http://www.w3.org/2000/svg" viewBox="0 -1000 1000 1000">
	<path fill="#000000" d="M152 -168Q164 -165 176 -165Q221 -165 252 -195.5Q283 -226 283 -271Q283 -309 259.5 -338Q236 -367 200 -375H154Q153 -375 152 -375ZM152 -791V-528Q160 -529 176 -529Q190 -529 205 -527H589V-375H412Q434 -325 434 -271Q434 -164 358.5 -89Q283 -14 176 -14Q176 -14 170 -13.5Q164 -13 157.5 -13Q151 -13 140.5 -13.5Q130 -14 120 -14.5Q110 -15 98.5 -17Q87 -19 77 -22Q67 -25 57 -30Q47 -35 39 -42Q22 -56 12.5 -86Q3 -116 1 -139L0 -163V-791Z"/>
	<path fill="#2200f5" d="M202 -158Q214 -155 226 -155Q271 -155 302 -185.5Q333 -216 333 -261Q333 -299 309.5 -328Q286 -357 250 -365H204Q203 -365 202 -365ZM202 -781V-518Q210 -519 226 -519Q240 -519 255 -517H639V-365H462Q484 -315 484 -261Q484 -154 408.5 -79Q333 -4 226 -4Q226 -4 220 -3.5Q214 -3 207.5 -3Q201 -3 190.5 -3.5Q180 -4 170 -4.5Q160 -5 148.5 -7Q137 -9 127 -12Q117 -15 107 -20Q97 -25 89 -32Q72 -46 62.5 -76Q53 -106 51 -129L50 -153V-781Z"/>
	<path fill="#00a0e1" d="M204 -362V-160Q215 -157 226 -157Q270 -157 300 -187Q330 -217 330 -261Q330 -298 307.5 -326.5Q285 -355 250 -362ZM200 -365Q200 -368 204 -368H250V-367Q288 -359 312 -329.5Q336 -300 336 -261Q336 -215 304 -183.5Q272 -152 226 -152Q214 -152 201 -155Q200 -156 200 -158ZM203 -5Q209 -5 216 -5.5Q223 -6 226 -6Q332 -6 407 -80.5Q482 -155 482 -261Q482 -315 460 -364Q460 -364 460 -365Q460 -368 462 -368H636V-514H255Q255 -514 255 -515Q240 -516 226 -516Q210 -516 202 -515Q200 -515 200 -518V-778H52V-153Q53 -143 54 -127Q55 -111 64.5 -79Q74 -47 91 -33Q124 -5 203 -5ZM226 -1Q223 -1 216 -0.5Q209 0 203 0Q122 0 87 -30Q70 -44 60 -77.5Q50 -111 49 -127Q48 -143 48 -153V-781Q48 -783 50 -783H202Q204 -783 204 -781V-520Q212 -521 226 -521Q241 -521 255 -520H639Q642 -520 642 -517V-365Q642 -362 639 -362H466Q486 -314 486 -261Q486 -153 410 -77Q334 -1 226 -1Z"/>
</svg>