<svg xmlns="http://www.w3.org/2000/svg" viewBox="0 -1000 1000 1000">
	<path fill="#000000" d="M233 195V53H385V195L325 327L267 323L276 195ZM0 -784H152V-159H617L618 -7H1V-8H0Z"/>
	<path fill="#2200f5" d="M283 205V63H435V205L375 337L317 333L326 205ZM50 -774H202V-149H667L668 3H51V2H50Z"/>
	<path fill="#00a0e1" d="M285 65V203H326Q328 203 328 205Q328 205 320 331L373 334L433 204V65ZM281 205V63Q281 61 283 61H435Q437 61 437 63V205Q437 206 437 206L377 338Q377 339 375 339L317 335Q315 335 315 333L323 207H283Q281 207 281 205ZM200 -772H52V0Q53 0 53 0H665V-146H202Q200 -146 200 -149ZM50 -776H202Q204 -776 204 -774V-152H667Q669 -152 669 -149L670 3Q670 6 668 6H51Q50 6 49 4Q48 3 48 2V-774Q48 -776 50 -776Z"/>
</svg>