<svg xmlns="http://www.w3.org/2000/svg" viewBox="0 -1000 1000 1000">
	<path fill="#000000" d="M282 -13V-276Q274 -275 258 -275Q151 -275 75.5 -350.5Q0 -426 0 -533Q0 -640 75.5 -715Q151 -790 258 -790H264Q270 -790 276.5 -790.5Q283 -791 293.5 -790.5Q304 -790 314 -789Q324 -788 335.5 -786Q347 -784 357 -781Q367 -778 377 -773Q387 -768 395 -762Q412 -748 421.5 -717.5Q431 -687 432 -664L434 -641V-13ZM282 -636Q270 -639 258 -639Q213 -639 182 -608Q151 -577 151 -533Q151 -488 182 -457Q213 -426 258 -426Q270 -426 282 -429Z"/>
	<path fill="#2200f5" d="M332 -3V-266Q324 -265 308 -265Q201 -265 125.5 -340.5Q50 -416 50 -523Q50 -630 125.5 -705Q201 -780 308 -780H314Q320 -780 326.5 -780.5Q333 -781 343.5 -780.5Q354 -780 364 -779Q374 -778 385.5 -776Q397 -774 407 -771Q417 -768 427 -763Q437 -758 445 -752Q462 -738 471.5 -707.5Q481 -677 482 -654L484 -631V-3ZM332 -626Q320 -629 308 -629Q263 -629 232 -598Q201 -567 201 -523Q201 -478 232 -447Q263 -416 308 -416Q320 -416 332 -419Z"/>
	<path fill="#00a0e1" d="M331 -778Q325 -778 318 -778Q311 -778 308 -778Q202 -778 127 -703.5Q52 -629 52 -523Q52 -417 127 -342.5Q202 -268 308 -268Q324 -268 332 -268Q334 -268 334 -266V-6H482V-631Q481 -640 480 -656Q479 -672 469.5 -704Q460 -736 443 -750Q410 -778 331 -778ZM308 -626Q264 -626 234 -596Q204 -566 204 -523Q204 -479 234 -448.5Q264 -418 308 -418Q319 -418 330 -421V-624Q319 -626 308 -626ZM334 -626V-419Q334 -417 333 -417Q320 -414 308 -414Q262 -414 230 -445.5Q198 -477 198 -523Q198 -568 230 -600Q262 -632 308 -632Q320 -632 333 -628Q334 -628 334 -626ZM308 -782Q311 -782 318 -782.5Q325 -783 331 -783Q412 -783 447 -754Q464 -739 474 -708.5Q484 -678 485 -654L486 -631V-3Q486 0 484 0H332Q330 0 330 -3V-263Q322 -262 309 -262Q308 -262 308 -262Q200 -262 124 -338.5Q48 -415 48 -523Q48 -631 124 -706.5Q200 -782 308 -782Z"/>
</svg>