<svg xmlns="http://www.w3.org/2000/svg" viewBox="0 -1000 1000 1000">
	<path fill="#000000" d="M1027 -813V-681H-50V-813H488Q479 -859 455 -883Q423 -914 392 -945Q368 -969 315.5 -982.5Q263 -996 240 -1020Q224 -1035 213.5 -1065Q203 -1095 201 -1118L199 -1140L287 -1228Q288 -1219 290 -1203.5Q292 -1188 303.5 -1154.5Q315 -1121 331 -1105Q353 -1083 404.5 -1071Q456 -1059 479 -1037L480 -1035L481 -1034L483 -1032L484 -1031L486 -1029L487 -1028L488 -1027L490 -1025L491 -1024L492 -1023L494 -1022L495 -1020L496 -1019L497 -1018L498 -1017L500 -1016L501 -1015L502 -1013L503 -1012L504 -1011L505 -1010L506 -1009L507 -1008L508 -1007L509 -1006L510 -1005L511 -1004L512 -1003L513 -1002L514 -1001L515 -1000L516 -999L517 -998L518 -997L519 -996L521 -994H522V-993L523 -992L524 -991L525 -990L526 -989L527 -988L528 -987L529 -986H530V-985L531 -984L532 -983L533 -982L534 -981H535V-980L536 -979L537 -978L538 -977L539 -976L540 -975L541 -974L542 -973L543 -972L544 -971H545L546 -970L547 -969L548 -968L549 -966Q563 -952 571.5 -931.5Q580 -911 582 -892Q584 -873 584 -856Q584 -839 583 -828.5Q582 -818 582 -818L577 -813ZM186 -482L78 -588Q155 -665 261.5 -666Q368 -667 445 -590Q492 -543 510 -480L589 -545Q604 -569 625 -590Q665 -630 718 -650L728 -658L727 -653Q793 -676 865.5 -659Q938 -642 992 -588L884 -482Q850 -515 807 -515Q764 -515 732 -483Q700 -451 700.5 -408Q701 -365 734 -331Q768 -298 811 -297.5Q854 -297 886 -329Q886 -329 887 -330L989 -227Q942 -179 882.5 -157.5Q823 -136 754 -151Q685 -166 628 -224Q574 -278 557 -351L484 -275L483 -276Q466 -247 442 -224Q385 -166 316 -151Q247 -136 187.5 -157.5Q128 -179 81 -227L183 -330Q184 -329 184 -329Q216 -297 259 -297.5Q302 -298 336 -331Q340 -335 343 -339L339 -341L353 -352Q373 -384 369 -420Q365 -456 338 -483Q306 -515 263 -515Q220 -515 186 -482Z"/>
	<path fill="#2200f5" d="M1077 -803V-671H0V-803H538Q529 -849 505 -873Q473 -904 442 -935Q418 -959 365.5 -972.5Q313 -986 290 -1010Q274 -1025 263.5 -1055Q253 -1085 251 -1108L249 -1130L337 -1218Q338 -1209 340 -1193.5Q342 -1178 353.5 -1144.5Q365 -1111 381 -1095Q403 -1073 454.5 -1061Q506 -1049 529 -1027L599 -956Q613 -942 621.5 -921.5Q630 -901 632 -882Q634 -863 634 -846Q634 -829 633 -818.5Q632 -808 632 -808L627 -803ZM236 -472L128 -578Q205 -655 311.5 -656Q418 -657 495 -580Q542 -533 560 -470L639 -535Q654 -559 675 -580Q715 -620 768 -640L778 -648L777 -643Q843 -666 915.5 -649Q988 -632 1042 -578L934 -472Q900 -505 857 -505Q814 -505 782 -473Q750 -441 750.5 -398Q751 -355 784 -321Q818 -288 861 -287.5Q904 -287 936 -319Q936 -319 937 -320L1039 -217Q992 -169 932.5 -147.5Q873 -126 804 -141Q735 -156 678 -214Q624 -268 607 -341L534 -265L533 -266Q516 -237 492 -214Q435 -156 366 -141Q297 -126 237.5 -147.5Q178 -169 131 -217L233 -320Q234 -319 234 -319Q266 -287 309 -287.5Q352 -288 386 -321Q390 -325 393 -329L389 -331L403 -342Q423 -374 419 -410Q415 -446 388 -473Q356 -505 313 -505Q270 -505 236 -472Z"/>
	<path fill="#00a0e1" d="M1075 -674V-800H628Q626 -800 626 -803Q626 -804 627 -805L631 -809Q631 -809 631 -810Q631 -811 631 -817Q633 -835 633 -848Q633 -920 598 -954L528 -1025Q505 -1047 454 -1059Q403 -1071 380 -1093Q346 -1127 336 -1213L252 -1129Q259 -1044 292 -1011Q315 -988 368 -974.5Q421 -961 444 -937Q476 -905 508 -875Q532 -850 542 -804V-803Q542 -800 539 -800H3V-674ZM1081 -803V-671Q1081 -668 1078 -668H1Q-1 -668 -1 -671V-803Q-1 -806 1 -806H536Q526 -848 504 -871Q473 -902 441 -934Q418 -957 365 -970.5Q312 -984 289 -1008Q273 -1024 262.5 -1056Q252 -1088 249.5 -1106Q247 -1124 247 -1130Q247 -1131 248 -1132L336 -1220Q337 -1221 338 -1221Q340 -1221 340 -1218Q341 -1209 343.5 -1193.5Q346 -1178 357 -1145.5Q368 -1113 384 -1097Q406 -1075 457 -1063Q508 -1051 531 -1028L602 -958Q638 -922 638 -848Q638 -835 636 -817Q636 -811 636 -810V-809Q636 -809 636 -808Q636 -807 634 -806H1078Q1081 -806 1081 -803ZM315 -508Q358 -508 391 -475Q423 -443 423 -400Q423 -369 406 -341Q406 -340 405 -340L395 -332Q397 -331 397 -329Q397 -328 396 -327Q393 -323 389 -319Q354 -285 309 -285Q266 -285 234 -316L135 -217Q215 -138 318 -138Q414 -138 491 -215Q515 -239 532 -267Q532 -268 534 -268L606 -343Q607 -344 608 -344Q610 -344 610 -342Q627 -269 681 -215Q758 -138 854 -138Q957 -138 1037 -217L938 -316Q906 -285 863 -285Q819 -285 783 -319Q749 -355 749 -400Q749 -443 781 -475Q814 -508 857 -508Q900 -508 935 -476Q1003 -543 1030 -569Q1036 -575 1039 -578Q963 -653 857 -653Q817 -653 778 -640Q776 -640 775 -642L771 -638Q770 -638 770 -637Q718 -618 678 -578Q657 -558 642 -533Q642 -533 641 -533L563 -468Q562 -468 561 -468Q559 -468 559 -470Q541 -532 494 -578Q419 -653 315 -653Q210 -653 133 -578Q141 -571 177 -535Q204 -509 237 -476Q272 -508 315 -508ZM127 -578Q127 -579 127 -579Q206 -658 315 -658Q421 -658 498 -582Q544 -536 562 -475L638 -536Q653 -561 674 -582Q715 -622 768 -642L777 -650Q778 -650 779 -650Q781 -650 781 -648Q781 -648 781 -647Q818 -658 857 -658Q966 -658 1045 -579Q1046 -579 1046 -578Q1046 -575 1043 -575L1041 -572L937 -470Q936 -470 935 -470Q934 -470 933 -470Q900 -503 857 -503Q816 -503 785 -471Q754 -441 754 -400Q754 -357 787 -323Q821 -290 863 -290Q905 -290 936 -321Q937 -322 938 -322Q939 -322 939 -321L1042 -219Q1043 -218 1043 -217Q1043 -216 1042 -215Q1004 -177 955 -155Q906 -133 854 -133Q756 -133 677 -212Q624 -265 606 -336L537 -263Q536 -262 535 -262V-263Q518 -235 495 -212Q416 -133 318 -133Q266 -133 217 -155Q168 -177 130 -215Q129 -216 129 -217Q129 -218 130 -219L233 -321Q233 -322 234 -322Q235 -322 237 -321Q268 -290 309 -290Q357 -290 390 -328Q387 -329 387 -331Q387 -332 388 -333L402 -344Q418 -370 418 -400Q418 -441 388 -471Q356 -503 315 -503Q273 -503 239 -470Q238 -470 237 -470Q236 -470 235 -470Q151 -554 131 -572Q129 -574 128 -575Q127 -576 127 -578Z"/>
</svg>