<svg xmlns="http://www.w3.org/2000/svg" viewBox="0 -1000 1000 1000">
	<path fill="#000000" d="M154 -93Q154 -93 152 -93Q152 -93 145 -93Q94 -97 59.5 -133.5Q25 -170 25 -221Q25 -272 60 -309Q95 -346 145 -350H152Q152 -350 154 -350Q154 -350 156 -350Q210 -350 247.5 -312.5Q285 -275 285 -221Q285 -168 247.5 -130.5Q210 -93 156 -93ZM155 -275Q151 -275 143 -273V-274Q124 -270 112.5 -255.5Q101 -241 101 -221Q101 -202 112.5 -187.5Q124 -173 143 -169V-170Q151 -168 155 -168Q159 -168 167 -170V-169Q186 -173 197.5 -187.5Q209 -202 209 -221Q209 -241 197.5 -255.5Q186 -270 167 -274V-273Q159 -275 155 -275ZM154 -493H152H145Q94 -497 59.5 -533.5Q25 -570 25 -621Q25 -672 60 -709Q95 -746 145 -750H152H154H156Q210 -750 247.5 -712.5Q285 -675 285 -621Q285 -568 247.5 -530.5Q210 -493 156 -493ZM155 -675Q151 -675 143 -673V-674Q124 -670 112.5 -655.5Q101 -641 101 -621Q101 -602 112.5 -587.5Q124 -573 143 -569V-570Q151 -568 155 -568Q159 -568 167 -570V-569Q186 -573 197.5 -587.5Q209 -602 209 -621Q209 -641 197.5 -655.5Q186 -670 167 -674V-673Q159 -675 155 -675Z"/>
	<path fill="#2200f5" d="M204 -83Q204 -83 202 -83Q202 -83 195 -83Q144 -87 109.5 -123.5Q75 -160 75 -211Q75 -262 110 -299Q145 -336 195 -340H202Q202 -340 204 -340Q204 -340 206 -340Q260 -340 297.5 -302.5Q335 -265 335 -211Q335 -158 297.5 -120.5Q260 -83 206 -83ZM205 -265Q201 -265 193 -263V-264Q174 -260 162.5 -245.5Q151 -231 151 -211Q151 -192 162.5 -177.5Q174 -163 193 -159V-160Q201 -158 205 -158Q209 -158 217 -160V-159Q236 -163 247.5 -177.5Q259 -192 259 -211Q259 -231 247.5 -245.5Q236 -260 217 -264V-263Q209 -265 205 -265ZM204 -483H202H195Q144 -487 109.5 -523.5Q75 -560 75 -611Q75 -662 110 -699Q145 -736 195 -740H202H204H206Q260 -740 297.5 -702.5Q335 -665 335 -611Q335 -558 297.5 -520.5Q260 -483 206 -483ZM205 -665Q201 -665 193 -663V-664Q174 -660 162.5 -645.5Q151 -631 151 -611Q151 -592 162.5 -577.5Q174 -563 193 -559V-560Q201 -558 205 -558Q209 -558 217 -560V-559Q236 -563 247.5 -577.5Q259 -592 259 -611Q259 -631 247.5 -645.5Q236 -660 217 -664V-663Q209 -665 205 -665Z"/>
	<path fill="#00a0e1" d="M195 -86H206Q259 -86 295.5 -122.5Q332 -159 332 -211Q332 -264 295.5 -301Q259 -338 206 -338H195Q146 -334 112 -297.5Q78 -261 78 -211Q78 -161 112 -125Q146 -89 195 -86ZM206 -80H195Q195 -80 195 -81Q143 -84 107.5 -121.5Q72 -159 72 -211Q72 -263 107.5 -301Q143 -339 195 -342H206Q261 -342 299.5 -304Q338 -266 338 -211Q338 -157 299.5 -118.5Q261 -80 206 -80ZM194 -261Q193 -260 193 -260Q192 -260 191 -261Q174 -257 164 -243Q154 -229 154 -211Q154 -193 164 -179.5Q174 -166 191 -162Q192 -162 193 -162Q193 -162 194 -162Q201 -160 205 -160Q209 -160 216 -162Q217 -162 217 -162Q218 -162 219 -162Q236 -166 246 -179.5Q256 -193 256 -211Q256 -229 246 -243Q236 -257 219 -261Q218 -261 217 -260Q217 -260 216 -261Q209 -262 205 -262Q201 -262 194 -261ZM195 -486H206Q259 -486 295.5 -522.5Q332 -559 332 -611Q332 -664 295.5 -701Q259 -738 206 -738H195Q146 -734 112 -697.5Q78 -661 78 -611Q78 -561 112 -525Q146 -489 195 -486ZM206 -480H195Q195 -480 195 -481Q143 -484 108 -521.5Q73 -559 72.5 -611Q72 -663 107.5 -701Q143 -739 195 -742H206Q261 -742 299.5 -704Q338 -666 338 -611Q338 -557 299.5 -518.5Q261 -480 206 -480ZM194 -661Q193 -660 193 -660Q192 -660 191 -661Q174 -657 164 -643Q154 -629 154 -611Q154 -593 164 -579.5Q174 -566 191 -562Q192 -562 193 -562Q193 -562 194 -562Q201 -560 205 -560Q209 -560 216 -562Q217 -562 217 -562Q218 -562 219 -562Q236 -566 246 -579.5Q256 -593 256 -611Q256 -629 246 -643Q236 -657 219 -661Q218 -661 217 -660Q217 -660 216 -661Q209 -662 205 -662Q201 -662 194 -661ZM215 -266Q216 -266 217 -266Q237 -263 249.5 -247Q262 -231 262 -211Q262 -191 249.5 -175.5Q237 -160 217 -157V-156Q216 -156 215 -157Q209 -156 205 -156Q201 -156 195 -157Q194 -157 193 -156V-157Q173 -160 160.5 -175.5Q148 -191 148 -211Q148 -231 160.5 -247Q173 -263 193 -266Q194 -266 195 -266Q201 -268 205 -268Q209 -268 215 -266ZM215 -666Q216 -666 217 -666Q237 -663 249.5 -647Q262 -631 262 -611Q262 -591 249.5 -575.5Q237 -560 217 -557V-556Q216 -556 215 -557Q209 -556 205 -556Q201 -556 195 -557Q194 -557 193 -556V-557Q173 -560 160.5 -575.5Q148 -591 148 -611Q148 -631 160.5 -647Q173 -663 193 -666Q194 -666 195 -666Q201 -668 205 -668Q209 -668 215 -666Z"/>
</svg>