<svg xmlns="http://www.w3.org/2000/svg" viewBox="0 -1000 1000 1000">
	<path fill="#000000" d="M259 -761H391V-376H259ZM261 -377Q260 -528 259 -528Q369 -528 446 -453Q523 -378 520 -270Q517 -161 442 -87Q367 -13 259 -13Q197 -13 148 -35Q99 -57 68.5 -94Q38 -131 22 -176.5Q6 -222 6 -271H151Q151 -271 151 -270Q151 -225 182 -195Q213 -165 260 -164Q307 -165 338 -195Q369 -225 369 -270Q369 -316 338.5 -346Q308 -376 261 -377Z"/>
	<path fill="#2200f5" d="M309 -751H441V-366H309ZM311 -367Q310 -518 309 -518Q419 -518 496 -443Q573 -368 570 -260Q567 -151 492 -77Q417 -3 309 -3Q247 -3 198 -25Q149 -47 118.5 -84Q88 -121 72 -166.5Q56 -212 56 -261H201Q201 -261 201 -260Q201 -215 232 -185Q263 -155 310 -154Q357 -155 388 -185Q419 -215 419 -260Q419 -306 388.5 -336Q358 -366 311 -367Z"/>
	<path fill="#00a0e1" d="M58 -258Q59 -210 75 -165Q91 -120 121 -84Q151 -48 200 -27Q249 -6 309 -6Q416 -6 490.5 -79Q565 -152 568 -260Q568 -263 568 -266Q568 -335 533 -392Q498 -449 440 -482Q438 -482 438 -484V-748H312V-518H311Q311 -518 312 -518V-368H324Q367 -363 394.5 -333Q422 -303 422 -260Q422 -214 390 -183Q358 -152 310 -152Q262 -152 230.5 -182.5Q199 -213 199 -258ZM53 -259Q53 -264 56 -264H201Q204 -264 204 -261Q204 -260 204 -260Q204 -216 234 -186.5Q264 -157 310 -157Q356 -157 386 -186.5Q416 -216 416 -260Q416 -301 390.5 -329.5Q365 -358 324 -364H309Q306 -364 306 -366L307 -517L309 -515Q309 -518 309 -520L306 -518V-751Q306 -754 309 -754H441Q444 -754 444 -751V-485Q503 -452 538 -394Q573 -336 573 -266Q573 -263 572 -260Q570 -150 494 -75.5Q418 -1 309 -1Q247 -1 197.5 -22.5Q148 -44 117 -81Q86 -118 69.5 -163.5Q53 -209 53 -259Z"/>
</svg>