<svg xmlns="http://www.w3.org/2000/svg" viewBox="0 -1000 1000 1000">
	<path fill="#000000" d="M285 240V163Q293 165 298 165Q321 165 336.5 149.5Q352 134 352 112Q352 90 336 74Q320 58 298 58Q293 58 285 60V-17H298Q352 -17 389.5 20.5Q427 58 427 112Q427 165 389.5 202.5Q352 240 298 240ZM3 -624V-776H579V-624H367V-8H215V-624Z"/>
	<path fill="#2200f5" d="M335 250V173Q343 175 348 175Q371 175 386.5 159.5Q402 144 402 122Q402 100 386 84Q370 68 348 68Q343 68 335 70V-7H348Q402 -7 439.5 30.5Q477 68 477 122Q477 175 439.5 212.5Q402 250 348 250ZM53 -614V-766H629V-614H417V2H265V-614Z"/>
	<path fill="#00a0e1" d="M338 248H348Q401 248 437.5 211Q474 174 474 122Q474 69 437.5 32.5Q401 -4 348 -4H338V67Q344 66 348 66Q372 66 388 82Q404 98 404 121.5Q404 145 388 161.5Q372 178 348 178Q344 178 338 176ZM332 250V173Q332 170 335 170Q335 170 336 171Q343 172 348 172Q370 172 385 157.5Q400 143 400 122Q400 101 384.5 85.5Q369 70 348 70Q343 70 336 72Q335 72 335 72Q332 72 332 70V-7Q332 -10 335 -10H348Q403 -10 441.5 28.5Q480 67 480 122Q480 176 441.5 214Q403 252 348 252H335Q332 252 332 250ZM56 -764V-616H265Q268 -616 268 -614V0H414V-614Q414 -616 417 -616H626V-764ZM50 -614V-766Q50 -768 53 -768H629Q632 -768 632 -766V-614Q632 -612 629 -612H420V2Q420 4 417 4H265Q262 4 262 2V-612H53Q50 -612 50 -614Z"/>
</svg>