<svg xmlns="http://www.w3.org/2000/svg" viewBox="0 -1000 1000 1000">
	<path fill="#000000" d="M511 -636V-484L144 -360L453 -164V-12L0 -284V-436ZM652 -813V-681H454V-813ZM454 -787H600V-11H454ZM305 -424Q305 -424 286 -424Q205 -424 148.5 -480Q92 -536 92 -616Q92 -696 148.5 -753Q205 -810 286 -810H305V-694Q296 -696 286 -696Q252 -696 228.5 -672.5Q205 -649 205 -615.5Q205 -582 228.5 -559Q252 -536 286 -536Q296 -536 305 -540Z"/>
	<path fill="#2200f5" d="M561 -626V-474L194 -350L503 -154V-2L50 -274V-426ZM702 -803V-671H504V-803ZM504 -777H650V-1H504ZM355 -414Q355 -414 336 -414Q255 -414 198.5 -470Q142 -526 142 -606Q142 -686 198.5 -743Q255 -800 336 -800H355V-684Q346 -686 336 -686Q302 -686 278.5 -662.5Q255 -639 255 -605.5Q255 -572 278.5 -549Q302 -526 336 -526Q346 -526 355 -530Z"/>
	<path fill="#00a0e1" d="M700 -674V-800H507V-777Q507 -776 506 -775V-603Q506 -601 504 -601L316 -527Q315 -527 314.5 -527Q314 -527 314 -527Q287 -534 269.5 -555.5Q252 -577 252 -606Q252 -640 276.5 -664.5Q301 -689 336 -689Q344 -689 352 -687V-797H336Q256 -797 200 -741Q144 -685 144 -606Q144 -535 191 -482Q191 -481 191 -480Q191 -478 190 -478L52 -424V-275L500 -7V-153L193 -347Q192 -348 192 -350Q192 -351 193 -352L503 -456Q503 -457 504 -457Q506 -457 506 -454V-4H647V-671Q647 -674 650 -674ZM705 -803V-671Q705 -668 702 -668H652V-1Q652 2 650 2H504Q501 2 501 -1L49 -271Q48 -272 48 -274V-426Q48 -427 49 -428L185 -481Q140 -535 140 -606Q140 -688 197 -745Q254 -802 336 -802H355Q358 -802 358 -800V-684Q358 -681 355 -681Q355 -681 354 -681Q346 -684 336 -684Q303 -684 280.5 -661Q258 -638 258 -606Q258 -579 273.5 -558.5Q289 -538 315 -532L501 -605V-777Q501 -778 502 -779V-803Q502 -806 504 -806H702Q705 -806 705 -803ZM200 -349L501 -159V-451Z"/>
</svg>