<svg xmlns="http://www.w3.org/2000/svg" viewBox="0 -1000 1000 1000">
	<path fill="#000000" d="M192 -793Q203 -795 211 -794Q297 -794 354.5 -736.5Q412 -679 418 -589Q420 -551 406 -516.5Q392 -482 370.5 -457Q349 -432 314.5 -405.5Q280 -379 252.5 -363.5Q225 -348 186.5 -326Q148 -304 130 -293L474 -177V-681V-787V-813H673V-681H620V-11H474V-26L38 -207V-359L261 -528Q261 -523 262 -518Q299 -543 299 -589Q299 -624 274 -649Q249 -674 213 -674Q203 -674 192 -671Z"/>
	<path fill="#2200f5" d="M242 -783Q253 -785 261 -784Q347 -784 404.5 -726.5Q462 -669 468 -579Q470 -541 456 -506.5Q442 -472 420.5 -447Q399 -422 364.5 -395.5Q330 -369 302.5 -353.5Q275 -338 236.5 -316Q198 -294 180 -283L524 -167V-671V-777V-803H723V-671H670V-1H524V-16L88 -197V-349L311 -518Q311 -513 312 -508Q349 -533 349 -579Q349 -614 324 -639Q299 -664 263 -664Q253 -664 242 -661Z"/>
	<path fill="#00a0e1" d="M526 -800V-167Q526 -164 524 -164Q524 -164 523 -164L179 -281Q178 -281 178 -283Q178 -284 179 -285Q197 -297 240 -321Q269 -337 285 -346Q301 -355 328.5 -373Q356 -391 372 -404Q388 -417 408 -437.5Q428 -458 439 -476.5Q450 -495 457.5 -519Q465 -543 465 -568Q465 -574 465 -579Q460 -668 403 -725Q346 -782 260 -782Q253 -782 245 -781V-664Q254 -666 263 -666Q300 -666 325.5 -640.5Q351 -615 351 -579Q351 -532 313 -506Q312 -505 312 -505Q309 -505 309 -513L90 -348V-199L525 -18Q526 -18 526 -16V-4H668V-671Q668 -674 670 -674H720V-800ZM260 -787Q348 -787 406.5 -728.5Q465 -670 470 -579Q470 -574 470 -568Q470 -542 462 -517.5Q454 -493 443.5 -474Q433 -455 412 -434Q391 -413 375 -400Q359 -387 331 -369Q303 -351 287.5 -342Q272 -333 243 -317Q203 -294 186 -284L522 -170V-803Q522 -806 524 -806H723Q726 -806 726 -803V-671Q726 -668 723 -668H672V-1Q672 2 670 2H524Q522 2 522 -1V-14L87 -195Q86 -195 86 -197V-349Q86 -350 86 -351L309 -520Q310 -520 311 -520Q313 -520 314 -513Q346 -537 346 -579Q346 -613 322 -637Q298 -661 263 -661Q253 -661 243 -659Q243 -659 242 -659Q240 -659 240 -661V-783Q240 -786 242 -786Q253 -787 260 -787Z"/>
</svg>