<svg xmlns="http://www.w3.org/2000/svg" viewBox="0 -1000 1000 1000">
	<path fill="#000000" d="M-149 -776L-78 -944H-77H-2H-1L51 -776H-25L-45 -884L-73 -776Z"/>
	<path fill="#2200f5" d="M-99 -766L-28 -934H-27H48H49L101 -766H25L5 -874L-23 -766Z"/>
	<path fill="#00a0e1" d="M6 -874L27 -769H97L46 -931H-27L-97 -769H-26L1 -874Q2 -876 4 -876Q6 -876 6 -874ZM-29 -936H48Q49 -936 50 -934L103 -767Q103 -767 103 -766Q103 -764 100 -764H24Q22 -764 22 -766L3 -862L-22 -766Q-23 -764 -24 -764H-100Q-103 -764 -103 -766Q-103 -767 -103 -767L-31 -934Q-31 -936 -29 -936Z"/>
</svg>