<svg xmlns="http://www.w3.org/2000/svg" viewBox="0 -1000 1000 1000">
	<path fill="#000000" d="M791 -813V-681H-50V-813ZM594 -813H746V-8H594ZM27 -190L58 -337L329 -497L40 -701L71 -813L490 -579L459 -432L252 -272L631 -155L600 -8Z"/>
	<path fill="#2200f5" d="M841 -803V-671H0V-803ZM644 -803H796V2H644ZM77 -180L108 -327L379 -487L90 -691L121 -803L540 -569L509 -422L302 -262L681 -145L650 2Z"/>
	<path fill="#00a0e1" d="M643 -668H368L542 -571Q544 -570 544 -569Q544 -569 544 -568L512 -421Q512 -421 511 -420L309 -263L643 -160ZM301 -262Q301 -263 302 -264L508 -423L538 -568L357 -669Q356 -670 356 -671Q356 -674 358 -674H645Q647 -674 647 -671V-157Q647 -154 645 -154Q645 -154 644 -154L302 -260Q301 -260 301 -262ZM795 -671Q795 -674 797 -674H839V-800H3V-674H119Q120 -674 121 -673L382 -490Q383 -489 383 -487.5Q383 -486 382 -485L111 -325L81 -182L646 -3Q647 -2 647 0H795ZM1 -668Q-1 -668 -1 -671V-803Q-1 -806 1 -806H842Q845 -806 845 -803V-671Q845 -668 842 -668H799V2Q799 4 797 4H645Q643 4 643 2L77 -178Q75 -178 75 -180V-181L107 -328Q107 -329 108 -329L376 -488L118 -668Z"/>
</svg>