<svg xmlns="http://www.w3.org/2000/svg" viewBox="0 -1000 1000 1000">
	<path fill="#000000" d="M494 -812L405 -724Q405 -725 395 -724Q385 -723 367.5 -723Q350 -723 331 -725Q312 -727 292 -735Q272 -743 258 -757L187 -828Q164 -851 152.5 -902Q141 -953 118 -976Q102 -992 71.5 -1003Q41 -1014 18 -1017L-5 -1020L84 -1108Q93 -1107 108 -1105.5Q123 -1104 155.5 -1093.5Q188 -1083 204 -1067Q227 -1044 241 -991Q255 -938 278 -915Q310 -883 341 -852Q363 -830 401 -820.5Q439 -811 466 -811ZM589 -813V-681H-50V-813ZM566 -194Q550 -136 505.5 -94.5Q461 -53 405 -33.5Q349 -14 285 -13.5Q221 -13 164.5 -32Q108 -51 64 -93Q20 -135 3 -194L0 -771H167V-195Q196 -162 285 -161.5Q374 -161 402 -195V-383H569Z"/>
	<path fill="#2200f5" d="M544 -802L455 -714Q455 -715 445 -714Q435 -713 417.5 -713Q400 -713 381 -715Q362 -717 342 -725Q322 -733 308 -747L237 -818Q214 -841 202.5 -892Q191 -943 168 -966Q152 -982 121.5 -993Q91 -1004 68 -1007L45 -1010L134 -1098Q143 -1097 158 -1095.5Q173 -1094 205.5 -1083.5Q238 -1073 254 -1057Q277 -1034 291 -981Q305 -928 328 -905Q360 -873 391 -842Q413 -820 451 -810.5Q489 -801 516 -801ZM639 -803V-671H0V-803ZM616 -184Q600 -126 555.5 -84.5Q511 -43 455 -23.5Q399 -4 335 -3.5Q271 -3 214.5 -22Q158 -41 114 -83Q70 -125 53 -184L50 -761H217V-185Q246 -152 335 -151.5Q424 -151 452 -185V-373H619Z"/>
	<path fill="#00a0e1" d="M455 -370V-185Q455 -184 455 -183Q426 -149 337 -149Q297 -149 264 -158Q231 -167 216 -183Q215 -184 215 -185V-671Q215 -674 218 -674H637V-800H495Q495 -800 495 -801Q423 -807 390 -840Q359 -871 327 -903Q304 -927 290 -979.5Q276 -1032 253 -1055Q220 -1088 136 -1095L52 -1012Q137 -1001 171 -968Q194 -945 205.5 -893.5Q217 -842 240 -820L255 -805Q255 -804 255 -803Q255 -800 253 -800H3V-674H51Q54 -674 54 -671L56 -184Q81 -99 159 -52Q237 -5 334 -5Q432 -5 511 -52Q590 -99 615 -184L617 -370ZM1 -668Q-1 -668 -1 -671V-803Q-1 -806 1 -806H247L236 -816Q213 -839 201.5 -890.5Q190 -942 168 -964Q152 -980 120.5 -990.5Q89 -1001 70 -1004Q51 -1007 46 -1007Q44 -1007 44 -1010Q44 -1011 44 -1011L133 -1100Q134 -1100 135 -1100Q140 -1100 158.5 -1098Q177 -1096 208.5 -1085.5Q240 -1075 257 -1059Q280 -1035 294 -982.5Q308 -930 331 -907Q363 -875 393 -843Q426 -812 495 -806H640Q643 -806 643 -803V-671Q643 -668 640 -668H221V-186Q234 -171 266.5 -162.5Q299 -154 337 -154Q374 -154 405.5 -162.5Q437 -171 451 -186V-373Q451 -376 453 -376H620Q623 -376 622 -373L619 -184Q619 -184 619 -183Q595 -96 514.5 -48Q434 0 334 0Q236 0 156.5 -48Q77 -96 52 -183Q52 -184 52 -184L49 -668Z"/>
</svg>