<svg xmlns="http://www.w3.org/2000/svg" viewBox="0 -1000 1000 1000">
	<path fill="#000000" d="M215 194V52H367V194L307 326L249 322L258 194ZM3 -624V-776H579V-624H367V-8H215V-624Z"/>
	<path fill="#2200f5" d="M265 204V62H417V204L357 336L299 332L308 204ZM53 -614V-766H629V-614H417V2H265V-614Z"/>
	<path fill="#00a0e1" d="M267 64V202H308Q310 202 310 204Q310 204 302 330L355 333L415 203V64ZM263 204V62Q263 60 265 60H417Q419 60 419 62V204Q419 205 419 205L359 337Q359 338 357 338L299 334Q297 334 297 332L305 206H265Q263 206 263 204ZM56 -764V-616H265Q268 -616 268 -614V0H414V-614Q414 -616 417 -616H626V-764ZM50 -614V-766Q50 -768 53 -768H629Q632 -768 632 -766V-614Q632 -612 629 -612H420V2Q420 4 417 4H265Q262 4 262 2V-612H53Q50 -612 50 -614Z"/>
</svg>