<svg xmlns="http://www.w3.org/2000/svg" viewBox="0 -1000 1000 1000">
	<path fill="#000000" d="M79 -942Q79 -942 79 -928Q79 -875 42 -837.5Q5 -800 -49 -800Q-103 -800 -140 -837Q-177 -874 -177 -928V-942H-101Q-103 -934 -103 -928Q-103 -906 -87 -890Q-71 -874 -48.5 -874Q-26 -874 -10.5 -890Q5 -906 5 -928Q5 -934 3 -942Z"/>
	<path fill="#2200f5" d="M129 -932Q129 -932 129 -918Q129 -865 92 -827.5Q55 -790 1 -790Q-53 -790 -90 -827Q-127 -864 -127 -918V-932H-51Q-53 -924 -53 -918Q-53 -896 -37 -880Q-21 -864 1.5 -864Q24 -864 39.5 -880Q55 -896 55 -918Q55 -924 53 -932Z"/>
	<path fill="#00a0e1" d="M-126 -929V-918Q-126 -866 -89 -829Q-52 -792 0.5 -792Q53 -792 89.5 -829Q126 -866 126 -918V-929H55Q56 -923 56 -918Q56 -895 40 -878.5Q24 -862 0.5 -862Q-23 -862 -39.5 -878.5Q-56 -895 -56 -918Q-56 -923 -55 -929ZM131 -932V-918Q131 -864 93 -825.5Q55 -787 0 -787Q-55 -787 -93 -825Q-131 -863 -131 -918V-932Q-131 -934 -128 -934H-52Q-49 -934 -49 -932Q-49 -931 -49 -931Q-51 -923 -51 -918Q-51 -897 -36 -882Q-21 -867 0.5 -867Q22 -867 36.5 -882Q51 -897 51 -918Q51 -923 49 -931Q49 -931 49 -932Q49 -934 52 -934H128Q131 -934 131 -932Z"/>
</svg>