<svg xmlns="http://www.w3.org/2000/svg" viewBox="0 -1000 1000 1000">
	<path fill="#000000" d="M154 -493Q154 -493 152 -493Q152 -493 145 -493Q94 -497 59.5 -533.5Q25 -570 25 -621Q25 -672 60 -709Q95 -746 145 -750H152Q152 -750 154 -750Q154 -750 156 -750Q210 -750 247.5 -712.5Q285 -675 285 -621Q285 -568 247.5 -530.5Q210 -493 156 -493ZM155 -675Q151 -675 143 -673V-674Q124 -670 112.5 -655.5Q101 -641 101 -621Q101 -602 112.5 -587.5Q124 -573 143 -569V-570Q151 -568 155 -568Q159 -568 167 -570V-569Q186 -573 197.5 -587.5Q209 -602 209 -621Q209 -641 197.5 -655.5Q186 -670 167 -674V-673Q159 -675 155 -675ZM108 -437L341 -79L235 -18L2 -376Z"/>
	<path fill="#2200f5" d="M204 -483Q204 -483 202 -483Q202 -483 195 -483Q144 -487 109.5 -523.5Q75 -560 75 -611Q75 -662 110 -699Q145 -736 195 -740H202Q202 -740 204 -740Q204 -740 206 -740Q260 -740 297.5 -702.5Q335 -665 335 -611Q335 -558 297.5 -520.5Q260 -483 206 -483ZM205 -665Q201 -665 193 -663V-664Q174 -660 162.5 -645.5Q151 -631 151 -611Q151 -592 162.5 -577.5Q174 -563 193 -559V-560Q201 -558 205 -558Q209 -558 217 -560V-559Q236 -563 247.5 -577.5Q259 -592 259 -611Q259 -631 247.5 -645.5Q236 -660 217 -664V-663Q209 -665 205 -665ZM158 -427L391 -69L285 -8L52 -366Z"/>
	<path fill="#00a0e1" d="M195 -486H206Q259 -486 295.5 -522.5Q332 -559 332 -611Q332 -664 295.5 -701Q259 -738 206 -738H195Q146 -734 112 -697.5Q78 -661 78 -611Q78 -561 112 -525Q146 -489 195 -486ZM206 -480H195Q195 -480 195 -481Q143 -484 108 -521.5Q73 -559 72.5 -611Q72 -663 107.5 -701Q143 -739 195 -742H206Q261 -742 299.5 -704Q338 -666 338 -611Q338 -557 299.5 -518.5Q261 -480 206 -480ZM194 -661Q193 -660 193 -660Q192 -660 191 -661Q174 -657 164 -643Q154 -629 154 -611Q154 -593 164 -579.5Q174 -566 191 -562Q192 -562 193 -562Q193 -562 194 -562Q201 -560 205 -560Q209 -560 216 -562Q217 -562 217 -562Q218 -562 219 -562Q236 -566 246 -579.5Q256 -593 256 -611Q256 -629 246 -643Q236 -657 219 -661Q218 -661 217 -660Q217 -660 216 -661Q209 -662 205 -662Q201 -662 194 -661ZM387 -70L157 -424L56 -365L286 -11ZM394 -69Q394 -68 392 -67L286 -6Q286 -6 285 -6Q284 -6 283 -7L50 -365Q50 -365 50 -366Q50 -367 51 -368L157 -429Q157 -430 158 -430Q159 -430 160 -428L393 -70Q394 -70 394 -69ZM215 -666Q216 -666 217 -666Q237 -663 249.5 -647Q262 -631 262 -611Q262 -591 249.5 -575.5Q237 -560 217 -557V-556Q216 -556 215 -557Q209 -556 205 -556Q201 -556 195 -557Q194 -557 193 -556V-557Q173 -560 160.5 -575.5Q148 -591 148 -611Q148 -631 160.5 -647Q173 -663 193 -666Q194 -666 195 -666Q201 -668 205 -668Q209 -668 215 -666Z"/>
</svg>