<svg xmlns="http://www.w3.org/2000/svg" viewBox="0 -1000 1000 1000">
	<path fill="#000000" d="M49 -114Q48 -127 48 -140Q48 -247 123 -322.5Q198 -398 305 -398Q375 -398 434 -363.5Q493 -329 527 -271Q541 -330 525 -389Q509 -448 464 -493Q395 -562 299 -563.5Q203 -565 136 -497Q109 -471 93 -437L-22 -552Q-1 -582 25 -608Q98 -682 197.5 -707Q297 -732 397.5 -704Q498 -676 574 -600Q649 -524 677 -424Q705 -324 680 -224.5Q655 -125 581 -52Q555 -26 525 -5L416 -114H409Q409 -117 410 -120L407 -123Q409 -123 411 -124Q412 -132 412 -140Q412 -185 381 -216Q350 -247 305 -247Q261 -247 230 -216Q199 -185 199 -140Q199 -127 202 -114Z"/>
	<path fill="#2200f5" d="M98 -104Q97 -117 97 -130Q97 -237 172 -312.5Q247 -388 354 -388Q424 -388 483 -353.5Q542 -319 576 -261Q590 -320 574 -379Q558 -438 513 -483Q444 -552 348 -553.5Q252 -555 185 -487Q158 -461 142 -427L27 -542Q48 -572 74 -598Q147 -672 246.5 -697Q346 -722 446.5 -694Q547 -666 623 -590Q698 -514 726 -414Q754 -314 729 -214.5Q704 -115 630 -42Q604 -16 574 5L465 -104H458Q458 -107 459 -110L456 -113Q458 -113 460 -114Q461 -122 461 -130Q461 -175 430 -206Q399 -237 354 -237Q310 -237 279 -206Q248 -175 248 -130Q248 -117 251 -104Z"/>
	<path fill="#00a0e1" d="M462 -110Q462 -109 461 -106H465Q466 -106 467 -106L574 2Q603 -18 629 -44Q682 -97 710 -166Q738 -235 738 -309Q738 -385 708 -458Q678 -531 621 -588Q563 -646 490.5 -675.5Q418 -705 341 -705Q267 -705 198 -677.5Q129 -650 76 -597Q51 -571 31 -542L141 -431Q158 -463 183 -489Q250 -556 345 -556Q444 -556 515 -485Q585 -414 585 -316Q585 -288 579 -261Q578 -259 576 -259Q575 -259 574 -260Q540 -317 481.5 -351Q423 -385 354 -385Q248 -385 173.5 -310.5Q99 -236 99 -130Q99 -118 100 -106H248Q245 -118 245 -130Q245 -176 277 -207.5Q309 -239 354 -239Q400 -239 431.5 -207.5Q463 -176 463 -130Q463 -122 462 -114Q462 -113 461 -112Q462 -111 462 -110ZM455 -104Q455 -105 455.5 -107Q456 -109 456 -109Q454 -112 454 -113Q454 -114 457 -116Q458 -123 458 -130Q458 -174 428 -204Q398 -234 354 -234Q311 -234 280.5 -204Q250 -174 250 -130Q250 -117 253 -104Q253 -101 251 -101H98Q96 -101 96 -104Q94 -117 94 -130Q94 -238 170 -314Q246 -390 354 -390Q423 -390 481.5 -357Q540 -324 575 -268Q576 -272 577 -278.5Q578 -285 578.5 -291Q579 -297 579.5 -302.5Q580 -308 580 -312Q580 -316 580 -316Q580 -412 511 -481Q442 -551 345 -551Q252 -551 187 -485Q160 -459 144 -426Q144 -425 142 -425Q141 -425 140 -425L26 -540Q25 -541 25 -542Q25 -542 25 -543Q46 -574 72 -600Q126 -654 196 -682Q266 -710 341 -710Q418 -710 492 -680Q566 -650 624 -592Q682 -534 712.5 -460Q743 -386 743 -309Q743 -234 715 -164Q687 -94 632 -40Q606 -14 575 7Q575 7 574 7Q573 7 572 7L464 -101H458Q455 -101 455 -104Z"/>
</svg>