<svg xmlns="http://www.w3.org/2000/svg" viewBox="0 -1000 1000 1000">
	<path fill="#000000" d="M115 -741.5L61 -795L152 -886L206 -832.5ZM153 -885H229V-497H153Z"/>
	<path fill="#2200f5" d="M140 -736.5L86 -790L177 -881L231 -827.5ZM178 -880H254V-492H178Z"/>
	<path fill="#00a0e1" d="M178 -776Q179 -776 179 -774.5V-493H253V-879H178Q177.5 -879 177 -879L88 -790L140 -738.5L177 -775.5Q177.5 -776 178 -776ZM85 -791L176 -882Q176.5 -882 177 -882Q177.5 -882 178.5 -881H254Q255 -881 255 -880V-492Q255 -491 254 -491H178Q177 -491 177 -492V-771.5L141 -735.5Q140.5 -735 140 -735Q139.5 -735 139 -735.5L85 -789Q85 -789.5 85 -790Q85 -790.5 85 -791Z"/>
</svg>