<svg xmlns="http://www.w3.org/2000/svg" viewBox="0 -1000 1000 1000">
	<path fill="#000000" d="M623 -297L805 -115L697 -8L515 -190ZM699 -10V-786H851V-10ZM532 -636V-484L164 -360L474 -164V-12L20 -284V-436ZM894 -813V-681H-50V-813ZM474 -787H620V-11H474Z"/>
	<path fill="#2200f5" d="M673 -287L855 -105L747 2L565 -180ZM749 0V-776H901V0ZM582 -626V-474L214 -350L524 -154V-2L70 -274V-426ZM944 -803V-671H0V-803ZM524 -777H670V-1H524Z"/>
	<path fill="#00a0e1" d="M747 -668H673V-289Q673 -289 674 -290Q675 -290 676 -289L747 -217ZM671 -674H750Q753 -674 753 -671V-211Q753 -208 750 -208Q749 -208 748 -209L674 -283Q672 -282 671 -282Q669 -282 669 -284V-671Q669 -674 671 -674ZM943 -674V-800H3V-674H525Q527 -674 527 -671V-603Q527 -601 526 -601L74 -424V-275L522 -7V-153L214 -347Q213 -348 213 -350Q213 -351 215 -352L524 -456Q525 -457 525 -457Q527 -457 527 -454V-4H669V-75Q669 -78 671 -78Q672 -78 673 -77L748 -2Q749 -2 750 -2H899V-671Q899 -674 902 -674ZM947 -803V-671Q947 -668 945 -668H905V0Q905 2 902 2H751Q749 4 748 4Q747 4 746 4L673 -69V-1Q673 2 671 2H525Q523 2 523 -1L70 -271Q69 -272 69 -274V-426Q69 -427 71 -428L523 -605V-668H1Q-1 -668 -1 -671V-803Q-1 -806 1 -806H945Q947 -806 947 -803ZM221 -349L523 -159V-451Z"/>
</svg>