<svg xmlns="http://www.w3.org/2000/svg" viewBox="0 -1000 1000 1000">
	<path fill="#000000" d="M58 -54Q56 -66 56 -80Q56 -187 131.5 -262.5Q207 -338 314 -338Q421 -338 496.5 -262.5Q572 -187 572 -80Q572 -66 570 -54H417Q420 -66 420 -80Q420 -124 389 -155Q358 -186 314 -186Q269 -186 238.5 -155Q208 -124 208 -80Q208 -66 211 -54ZM611 -813V-681H-50V-813ZM414 -813H566V-8H414Z"/>
	<path fill="#2200f5" d="M108 -44Q106 -56 106 -70Q106 -177 181.5 -252.5Q257 -328 364 -328Q471 -328 546.5 -252.5Q622 -177 622 -70Q622 -56 620 -44H467Q470 -56 470 -70Q470 -114 439 -145Q408 -176 364 -176Q319 -176 288.5 -145Q258 -114 258 -70Q258 -56 261 -44ZM661 -803V-671H0V-803ZM464 -803H616V2H464Z"/>
	<path fill="#00a0e1" d="M659 -674V-800H3V-674H465Q467 -674 467 -671V-307Q467 -305 465 -305Q464 -305 464 -305Q417 -325 365 -325Q259 -325 184.5 -250.5Q110 -176 110 -70Q110 -58 111 -46H258Q256 -58 256 -70Q256 -115 287.5 -147Q319 -179 365 -179Q400 -179 428 -159.5Q456 -140 467 -108Q467 -107 467 -107V0H615V-44Q615 -46 617 -46H619Q620 -58 620 -70Q620 -96 615 -122V-123V-671Q615 -674 617 -674ZM665 -803V-671Q665 -668 662 -668H619V-123Q625 -97 625 -70Q625 -56 624 -43Q623 -41 621 -41H619V2Q619 4 617 4H465Q463 4 463 2V-107Q451 -137 424.5 -155.5Q398 -174 365 -174Q321 -174 291 -143.5Q261 -113 261 -70Q261 -57 264 -44Q264 -41 262 -41H109Q107 -41 106 -43Q105 -56 105 -70Q105 -178 181 -254Q257 -330 365 -330Q416 -330 463 -311V-668H1Q-1 -668 -1 -671V-803Q-1 -806 1 -806H662Q665 -806 665 -803Z"/>
</svg>