<svg xmlns="http://www.w3.org/2000/svg" viewBox="0 -1000 1000 1000">
	<path fill="#000000" d="M1211 -813V-681H1050V-813ZM896 -810V-681H-50V-810ZM351 -515Q351 -514 349.5 -546.5Q348 -579 347 -612L346 -644Q347 -644 348 -644Q475 -644 564.5 -552Q654 -460 654 -330Q654 -199 564.5 -107Q475 -15 348 -15Q221 -15 131.5 -107Q42 -199 42 -330Q42 -330 103.5 -331.5Q165 -333 165 -334Q165 -331 165 -328Q165 -250 218.5 -195Q272 -140 348 -140Q424 -140 477.5 -195Q531 -250 531 -328Q531 -405 478.5 -459.5Q426 -514 351 -515ZM647 -297L829 -115L721 -8L539 -190ZM723 -10V-786H875V-10ZM1009 -497L704 -810H905L1117 -604ZM1011 -860H1163V-8H1011Z"/>
	<path fill="#2200f5" d="M1261 -803V-671H1100V-803ZM946 -800V-671H0V-800ZM401 -505Q401 -504 399.5 -536.5Q398 -569 397 -602L396 -634Q397 -634 398 -634Q525 -634 614.5 -542Q704 -450 704 -320Q704 -189 614.5 -97Q525 -5 398 -5Q271 -5 181.5 -97Q92 -189 92 -320Q92 -320 153.5 -321.5Q215 -323 215 -324Q215 -321 215 -318Q215 -240 268.5 -185Q322 -130 398 -130Q474 -130 527.5 -185Q581 -240 581 -318Q581 -395 528.5 -449.5Q476 -504 401 -505ZM697 -287L879 -105L771 2L589 -180ZM773 0V-776H925V0ZM1059 -487L754 -800H955L1167 -594ZM1061 -850H1213V2H1061Z"/>
	<path fill="#00a0e1" d="M213 -321Q205 -320 154.5 -319Q104 -318 96 -318Q96 -269 119 -228Q142 -187 179.5 -157.5Q217 -128 256 -104.5Q295 -81 336.5 -55Q378 -29 399 -7Q471 -7 534 -40Q597 -73 640 -130Q640 -131 642 -131Q643 -131 644 -130L772 -2Q773 -2 774 -2H923V-625Q923 -627 926 -627Q927 -627 928 -626L1060 -491Q1061 -491 1062 -491Q1065 -491 1065 -489V0H1211V-671Q1211 -674 1214 -674H1259V-800H1214Q1211 -800 1211 -803V-848H1065V-697Q1065 -694 1062 -694Q1061 -694 1060 -695L955 -798H3V-674H774Q777 -674 777 -671V-211Q777 -208 774 -208Q773 -208 772 -209L701 -281Q700 -281 700 -283Q702 -301 702 -320Q702 -449 613.5 -540.5Q525 -632 400 -632L404 -508Q480 -506 532.5 -450.5Q585 -395 585 -318Q585 -239 530.5 -183.5Q476 -128 399 -128Q322 -128 267.5 -183.5Q213 -239 213 -318Q213 -320 213 -321ZM394 -634Q394 -637 399 -637Q527 -637 617 -544Q707 -451 707 -320Q707 -302 705 -283L771 -217V-668H1Q-1 -668 -1 -671V-800Q-1 -802 1 -802H956Q957 -802 958 -802L1059 -703V-850Q1059 -852 1062 -852H1214Q1217 -852 1217 -850V-806H1262Q1265 -806 1265 -803V-671Q1265 -668 1262 -668H1217V2Q1217 4 1214 4H1062Q1059 4 1059 2V-485Q1059 -485 1058 -485L929 -618V0Q929 2 926 2H775Q773 4 772 4Q771 4 770 4L642 -124Q599 -68 535.5 -35Q472 -2 399 -2Q271 -2 181 -95Q91 -188 91 -320Q91 -323 94 -323Q94 -323 94 -323Q100 -323 154.5 -324Q209 -325 215 -326Q216 -326 216 -326L213 -324L218 -323Q218 -321 218 -318Q218 -241 271 -187Q324 -133 399 -133Q474 -133 527 -187Q580 -241 580 -318Q580 -394 528 -448Q476 -502 402 -503Q399 -503 399 -505Q394 -634 394 -634Z"/>
</svg>