<svg xmlns="http://www.w3.org/2000/svg" viewBox="0 -1000 1000 1000">
	<path fill="#000000" d="M532 -636V-484L164 -360L474 -164V-12L20 -284V-436ZM673 -813V-681H-50V-813ZM474 -787H620V-11H474ZM44 -8V-150H196V-8Z"/>
	<path fill="#2200f5" d="M582 -626V-474L214 -350L524 -154V-2L70 -274V-426ZM723 -803V-671H0V-803ZM524 -777H670V-1H524ZM94 2V-140H246V2Z"/>
	<path fill="#00a0e1" d="M721 -674V-800H3V-674H525Q527 -674 527 -671V-603Q527 -601 526 -601L74 -424V-275L522 -7V-153L214 -347Q213 -348 213 -350Q213 -351 215 -352L524 -456Q525 -457 525 -457Q527 -457 527 -454V-4H669V-671Q669 -674 671 -674ZM727 -803V-671Q727 -668 724 -668H673V-1Q673 2 671 2H525Q523 2 523 -1L70 -271Q69 -272 69 -274V-426Q69 -427 71 -428L523 -605V-668H1Q-1 -668 -1 -671V-803Q-1 -806 1 -806H724Q727 -806 727 -803ZM97 -138V0H245V-138ZM93 2V-140Q93 -142 95 -142H247Q249 -142 249 -140V2Q249 4 247 4H95Q93 4 93 2ZM221 -349L523 -159V-451Z"/>
</svg>