<svg xmlns="http://www.w3.org/2000/svg" viewBox="0 -1000 1000 1000">
	<path fill="#000000" d="M267 195V53H419V195L359 327L301 323L310 195ZM414 -16Q380 -7 343 -7Q256 -7 189 -59Q122 -111 98 -194L97 -374H0V-526H96L95 -771H262V-526H359V-374H262V-195Q294 -158 343 -158Q383 -158 414 -184Z"/>
	<path fill="#2200f5" d="M317 205V63H469V205L409 337L351 333L360 205ZM464 -6Q430 3 393 3Q306 3 239 -49Q172 -101 148 -184L147 -364H50V-516H146L145 -761H312V-516H409V-364H312V-185Q344 -148 393 -148Q433 -148 464 -174Z"/>
	<path fill="#00a0e1" d="M319 65V203H360Q362 203 362 205Q362 205 354 331L407 334L467 204V65ZM315 205V63Q315 61 317 61H469Q471 61 471 63V205Q471 206 471 206L411 338Q411 339 409 339L351 335Q349 335 349 333L357 207H317Q315 207 315 205ZM393 0Q428 0 462 -8V-169Q431 -146 393 -146Q343 -146 310 -183Q310 -184 310 -185V-364Q310 -366 312 -366H406V-514H312Q310 -514 310 -516V-758H148L149 -516Q149 -514 146 -514H52V-366H147Q150 -366 150 -364V-184Q174 -102 240.5 -51Q307 0 393 0ZM393 6Q305 6 237 -47Q169 -100 146 -183Q146 -184 146 -184L145 -362H50Q48 -362 48 -364V-516Q48 -518 50 -518H144L143 -761Q143 -764 145 -764H312Q314 -764 314 -761V-518H409Q412 -518 412 -516V-364Q412 -362 409 -362H314V-186Q346 -150 393 -150Q432 -150 462 -176Q463 -176 464 -176Q466 -176 466 -174V-6Q466 -4 465 -4Q430 6 393 6Z"/>
</svg>