<svg xmlns="http://www.w3.org/2000/svg" viewBox="0 -1000 1000 1000">
	<path fill="#000000" d="M259 -761H391V-376H259ZM566 -813V-681H-50V-813ZM261 -377Q260 -528 259 -528Q369 -528 446 -453Q523 -378 520 -270Q517 -161 442 -87Q367 -13 259 -13Q197 -13 148 -35Q99 -57 68.5 -94Q38 -131 22 -176.5Q6 -222 6 -271H151Q151 -271 151 -270Q151 -225 182 -195Q213 -165 260 -164Q307 -165 338 -195Q369 -225 369 -270Q369 -316 338.5 -346Q308 -376 261 -377Z"/>
	<path fill="#2200f5" d="M309 -751H441V-366H309ZM616 -803V-671H0V-803ZM311 -367Q310 -518 309 -518Q419 -518 496 -443Q573 -368 570 -260Q567 -151 492 -77Q417 -3 309 -3Q247 -3 198 -25Q149 -47 118.5 -84Q88 -121 72 -166.5Q56 -212 56 -261H201Q201 -261 201 -260Q201 -215 232 -185Q263 -155 310 -154Q357 -155 388 -185Q419 -215 419 -260Q419 -306 388.5 -336Q358 -366 311 -367Z"/>
	<path fill="#00a0e1" d="M59 -258Q60 -210 76 -165Q92 -120 122 -84Q152 -48 201 -27Q250 -6 310 -6Q417 -6 491.5 -79Q566 -152 569 -260Q569 -263 569 -266Q569 -335 534 -392Q499 -449 441 -482Q439 -482 439 -484V-671Q439 -674 442 -674H615V-800H3V-674H310Q313 -674 313 -671V-518H312Q312 -518 313 -518V-368H325Q368 -363 395.5 -333Q423 -303 423 -260Q423 -214 391 -183Q359 -152 311 -152Q263 -152 231.5 -182.5Q200 -213 200 -258ZM54 -259Q54 -264 57 -264H202Q205 -264 205 -261Q205 -260 205 -260Q205 -216 235 -186.5Q265 -157 311 -157Q357 -157 387 -186.5Q417 -216 417 -260Q417 -301 391.5 -329.5Q366 -358 325 -364H310Q307 -364 307 -366L308 -517L310 -515Q310 -518 310 -520L307 -518V-668H1Q-1 -668 -1 -671V-803Q-1 -806 1 -806H617Q619 -806 619 -803V-671Q619 -668 617 -668H445V-485Q504 -452 539 -394Q574 -336 574 -266Q574 -263 573 -260Q571 -150 495 -75.5Q419 -1 310 -1Q248 -1 198.5 -22.5Q149 -44 118 -81Q87 -118 70.5 -163.5Q54 -209 54 -259Z"/>
</svg>