<svg xmlns="http://www.w3.org/2000/svg" viewBox="0 -1000 1000 1000">
	<path fill="#000000" d="M271 -724H403L287 -454L239 -519ZM286 -608V-456L145 -284L454 -170V-12L1 -190V-342ZM675 -813V-681H477V-813ZM455 -787H601V-11H455ZM269 -723Q269 -723 269 -704Q269 -623 212.5 -566.5Q156 -510 77 -510Q-5 -510 -61 -566.5Q-117 -623 -117 -704V-723H-1Q-5 -714 -5 -704Q-5 -670 19 -646.5Q43 -623 76.5 -623Q110 -623 132.5 -646.5Q155 -670 155 -704Q155 -714 153 -723Z"/>
	<path fill="#2200f5" d="M321 -714H453L337 -444L289 -509ZM336 -598V-446L195 -274L504 -160V-2L51 -180V-332ZM725 -803V-671H527V-803ZM505 -777H651V-1H505ZM319 -713Q319 -713 319 -694Q319 -613 262.5 -556.5Q206 -500 127 -500Q45 -500 -11 -556.5Q-67 -613 -67 -694V-713H49Q45 -704 45 -694Q45 -660 69 -636.5Q93 -613 126.5 -613Q160 -613 182.5 -636.5Q205 -660 205 -694Q205 -704 203 -713Z"/>
	<path fill="#00a0e1" d="M318 -698Q315 -698 315 -701V-710H205Q207 -702 207 -694Q207 -659 183.5 -634.5Q160 -610 125.5 -610Q91 -610 66.5 -634.5Q42 -659 42 -694Q42 -702 44 -710H-66V-694Q-66 -614 -10 -558Q46 -502 126 -502Q187 -502 236 -537.5Q285 -573 304 -630Q305 -632 307 -632Q309 -632 309 -629L299 -561Q299 -560 298 -560L52 -330V-181L500 -6V-158L193 -271Q192 -272 192 -274Q192 -274 192 -275L333 -447Q333 -447 334 -448L448 -712H322L320 -700Q320 -698 318 -698ZM320 -716H452Q454 -716 454 -714Q454 -713 454 -713L338 -443Q337 -442 336 -442H335L198 -275L501 -163V-777Q501 -780 504 -780H524V-803Q524 -806 526 -806H724Q727 -806 727 -803V-671Q727 -668 724 -668H652V-1Q652 2 650 2H504Q501 2 501 -1L49 -177Q48 -178 48 -180V-332Q48 -333 48 -333L294 -563L301 -609Q277 -559 230 -528.5Q183 -498 126 -498Q43 -498 -14 -555Q-71 -612 -71 -694V-713Q-71 -716 -68 -716H48Q50 -716 50 -713Q50 -713 50 -712Q47 -704 47 -694Q47 -661 70 -638.5Q93 -616 126 -616Q158 -616 180 -638.5Q202 -661 202 -694Q202 -704 199 -712Q199 -713 199 -713Q199 -716 202 -716H318Q318 -716 320 -716ZM722 -674V-800H529V-777Q529 -774 526 -774H506V-4H647V-671Q647 -674 650 -674Z"/>
</svg>