<svg xmlns="http://www.w3.org/2000/svg" viewBox="0 -1000 1000 1000">
	<path fill="#000000" d="M-150 -944H-74L-46 -836L-26 -944H50L-2 -776H-3H-78H-79Z"/>
	<path fill="#2200f5" d="M-100 -934H-24L4 -826L24 -934H100L48 -766H47H-28H-29Z"/>
	<path fill="#00a0e1" d="M3 -825L-25 -932H-95L-26 -768H47L98 -932H27L7 -826Q7 -824 5 -824Q3 -824 3 -825ZM-99 -936H-23Q-21 -936 -21 -935L5 -838L23 -934Q23 -936 25 -936H101Q103 -936 103 -934Q103 -934 103 -933L51 -765Q51 -764 49 -764H-28Q-30 -764 -30 -765L-101 -933Q-101 -933 -101 -934Q-101 -936 -99 -936Z"/>
</svg>