<svg xmlns="http://www.w3.org/2000/svg" viewBox="0 -1000 1000 1000">
	<path fill="#000000" d="M289 -730Q289 -734 289.5 -741.5Q290 -749 289 -769.5Q288 -790 284.5 -808Q281 -826 272 -847.5Q263 -869 250 -883Q218 -914 187 -945Q163 -969 110.5 -982.5Q58 -996 35 -1020Q19 -1035 8.5 -1065Q-2 -1095 -4 -1118L-6 -1140L82 -1228Q83 -1219 85 -1203.5Q87 -1188 98.5 -1154.5Q110 -1121 126 -1105Q148 -1083 199.5 -1071Q251 -1059 274 -1037L275 -1035L276 -1034L278 -1032L279 -1031L281 -1029L282 -1028L283 -1027L285 -1025L286 -1024L287 -1023L289 -1022L290 -1020L291 -1019L292 -1018L293 -1017L295 -1016L296 -1015L297 -1013L298 -1012L299 -1011L300 -1010L301 -1009L302 -1008L303 -1007L304 -1006L305 -1005L306 -1004L307 -1003L308 -1002L309 -1001L310 -1000L311 -999L312 -998L313 -997L314 -996L316 -994H317V-993L318 -992L319 -991L320 -990L321 -989L322 -988L323 -987L324 -986H325V-985L326 -984L327 -983L328 -982L329 -981H330V-980L331 -979L332 -978L333 -977L334 -976L335 -975L336 -974L337 -973L338 -972L339 -971H340L341 -970L342 -969L343 -968L344 -966Q358 -952 366.5 -931.5Q375 -911 377 -892Q379 -873 379 -856Q379 -839 378 -828.5Q377 -818 377 -818ZM186 -482L78 -588Q155 -665 261.5 -666Q368 -667 445 -590Q521 -513 520 -407Q519 -301 442 -224Q385 -166 316 -151Q247 -136 187.5 -157.5Q128 -179 81 -227L183 -330Q184 -329 184 -329Q216 -297 259 -297.5Q302 -298 336 -331Q369 -365 369.5 -408Q370 -451 338 -483Q306 -515 263 -515Q220 -515 186 -482ZM639 -813V-681H-50V-813ZM384 -9L87 -229L288 -231L543 -9Z"/>
	<path fill="#2200f5" d="M339 -720Q339 -724 339.5 -731.5Q340 -739 339 -759.5Q338 -780 334.5 -798Q331 -816 322 -837.5Q313 -859 300 -873Q268 -904 237 -935Q213 -959 160.5 -972.5Q108 -986 85 -1010Q69 -1025 58.5 -1055Q48 -1085 46 -1108L44 -1130L132 -1218Q133 -1209 135 -1193.5Q137 -1178 148.5 -1144.5Q160 -1111 176 -1095Q198 -1073 249.5 -1061Q301 -1049 324 -1027L394 -956Q408 -942 416.5 -921.5Q425 -901 427 -882Q429 -863 429 -846Q429 -829 428 -818.5Q427 -808 427 -808ZM236 -472L128 -578Q205 -655 311.5 -656Q418 -657 495 -580Q571 -503 570 -397Q569 -291 492 -214Q435 -156 366 -141Q297 -126 237.5 -147.5Q178 -169 131 -217L233 -320Q234 -319 234 -319Q266 -287 309 -287.5Q352 -288 386 -321Q419 -355 419.5 -398Q420 -441 388 -473Q356 -505 313 -505Q270 -505 236 -472ZM689 -803V-671H0V-803ZM434 1L137 -219L338 -221L593 1Z"/>
	<path fill="#00a0e1" d="M315 -508Q358 -508 391 -475Q423 -443 423 -400Q423 -355 389 -319Q354 -285 309 -285Q266 -285 234 -316L135 -217Q176 -176 228 -156Q228 -155 228 -155L436 -2H587L412 -154Q411 -155 411 -156Q411 -158 412 -159Q455 -178 491 -215Q569 -293 569 -400Q569 -504 494 -578Q419 -653 315 -653Q210 -653 133 -578Q141 -571 177 -535Q204 -509 237 -476Q272 -508 315 -508ZM127 -578Q127 -579 127 -579Q206 -658 315 -658Q421 -658 498 -582Q574 -506 574 -400Q574 -291 495 -212Q459 -176 418 -156L596 -1Q597 0 597 1Q597 4 594 4H435Q434 4 434 3L226 -151Q172 -173 130 -215Q129 -216 129 -217Q129 -218 130 -219L233 -321Q233 -322 234 -322Q235 -322 237 -321Q268 -290 309 -290Q352 -290 385 -323Q418 -357 418 -400Q418 -441 388 -471Q356 -503 315 -503Q273 -503 239 -470Q238 -470 237 -470Q236 -470 235 -470Q151 -554 131 -572Q129 -574 128 -575Q127 -576 127 -578ZM687 -674V-800H423Q421 -800 421 -803Q421 -804 422 -805L426 -809Q426 -809 426 -810Q426 -811 426 -817Q428 -835 428 -848Q428 -920 393 -954L323 -1025Q300 -1047 249 -1059Q198 -1071 175 -1093Q141 -1127 131 -1213L47 -1129Q54 -1044 87 -1011Q110 -988 163 -974.5Q216 -961 239 -937Q271 -905 303 -875Q327 -850 337 -804V-803Q337 -800 334 -800H3V-674ZM693 -803V-671Q693 -668 690 -668H1Q-1 -668 -1 -671V-803Q-1 -806 1 -806H331Q321 -848 299 -871Q268 -902 236 -934Q213 -957 160 -970.5Q107 -984 84 -1008Q68 -1024 57.5 -1056Q47 -1088 44.5 -1106Q42 -1124 42 -1130Q42 -1131 43 -1132L131 -1220Q132 -1221 133 -1221Q135 -1221 135 -1218Q136 -1209 138.5 -1193.5Q141 -1178 152 -1145.5Q163 -1113 179 -1097Q201 -1075 252 -1063Q303 -1051 326 -1028L397 -958Q433 -922 433 -848Q433 -835 431 -817Q431 -811 431 -810V-809Q431 -809 431 -808Q431 -807 429 -806H690Q693 -806 693 -803Z"/>
</svg>