<svg xmlns="http://www.w3.org/2000/svg" viewBox="0 -1000 1000 1000">
	<path fill="#000000" d="M249 -732Q250 -736 250 -743.5Q250 -751 249 -771.5Q248 -792 245 -810.5Q242 -829 233 -850Q224 -871 210 -885Q179 -916 147 -948Q123 -971 70.5 -985Q18 -999 -5 -1022Q-21 -1038 -31 -1068Q-41 -1098 -44 -1120L-46 -1142L42 -1230Q43 -1221 45.5 -1205.5Q48 -1190 59 -1156.5Q70 -1123 86 -1107Q109 -1085 160 -1073Q211 -1061 234 -1039L235 -1037L237 -1036L238 -1035L239 -1033L241 -1032L242 -1030L244 -1029L245 -1028L246 -1026L247 -1025L249 -1024L250 -1023L251 -1022L252 -1020L253 -1019L255 -1018L256 -1017L257 -1016L258 -1015L259 -1014L260 -1013L261 -1011L262 -1010L263 -1009L264 -1008L265 -1007L266 -1006L267 -1005L268 -1004L269 -1003L270 -1002L271 -1001L272 -1000L273 -999L274 -998H275L276 -997L277 -996V-995H278L279 -994L280 -993V-992L281 -991H282L283 -990L284 -989V-988L285 -987L286 -986H287L288 -985L289 -984L290 -983V-982L291 -981L292 -980H293L294 -979L295 -978L296 -977L297 -976L298 -975L299 -974L300 -973V-972L301 -971L302 -970L303 -969L304 -968Q318 -954 326.5 -933.5Q335 -913 337 -894Q339 -875 339 -858Q339 -841 338 -830.5Q337 -820 338 -820ZM254 -761H386V-376H254ZM561 -813V-681H-55V-813ZM256 -377Q255 -528 254 -528Q364 -528 441 -453Q518 -378 515 -270Q512 -161 437 -87Q362 -13 254 -13Q192 -13 143 -35Q94 -57 63.5 -94Q33 -131 17 -176.5Q1 -222 1 -271H146Q146 -271 146 -270Q146 -225 177 -195Q208 -165 255 -164Q302 -165 333 -195Q364 -225 364 -270Q364 -316 333.5 -346Q303 -376 256 -377Z"/>
	<path fill="#2200f5" d="M299 -722Q300 -726 300 -733.5Q300 -741 299 -761.5Q298 -782 295 -800.5Q292 -819 283 -840Q274 -861 260 -875Q229 -906 197 -938Q173 -961 120.5 -975Q68 -989 45 -1012Q29 -1028 19 -1058Q9 -1088 6 -1110L4 -1132L92 -1220Q93 -1211 95.5 -1195.5Q98 -1180 109 -1146.5Q120 -1113 136 -1097Q159 -1075 210 -1063Q261 -1051 284 -1029L285 -1027L287 -1026L288 -1024L290 -1023L291 -1022L292 -1020L294 -1019L295 -1018L296 -1016L298 -1015L299 -1014L300 -1012L301 -1011L303 -1010L304 -1009L305 -1008L306 -1007L307 -1006L308 -1004L309 -1003L310 -1002L311 -1001L312 -1000L313 -999L314 -998L315 -997L316 -996L317 -995L318 -994L319 -993L320 -992H321L322 -991L323 -990L324 -989L325 -988L326 -987L327 -986L328 -985L329 -984L331 -982V-981L332 -980H333L334 -979L335 -978L336 -977V-976L337 -975H338L339 -974L340 -973L341 -972L342 -971V-970L343 -969L344 -968L345 -967H346L347 -966L348 -965L349 -964L350 -963L351 -962L352 -961L353 -960L354 -958Q368 -944 376.5 -923.5Q385 -903 387 -884Q389 -865 389 -848Q389 -831 388 -820.5Q387 -810 388 -810ZM304 -751H436V-366H304ZM611 -803V-671H-5V-803ZM306 -367Q305 -518 304 -518Q414 -518 491 -443Q568 -368 565 -260Q562 -151 487 -77Q412 -3 304 -3Q242 -3 193 -25Q144 -47 113.5 -84Q83 -121 67 -166.5Q51 -212 51 -261H196Q196 -261 196 -260Q196 -215 227 -185Q258 -155 305 -154Q352 -155 383 -185Q414 -215 414 -260Q414 -306 383.5 -336Q353 -366 306 -367Z"/>
	<path fill="#00a0e1" d="M54 -258Q55 -210 71 -165Q87 -120 117 -84Q147 -48 196 -27Q245 -6 305 -6Q412 -6 486.5 -79Q561 -152 564 -260Q564 -263 564 -266Q564 -335 529 -392Q494 -449 436 -482Q435 -482 435 -484V-671Q435 -674 437 -674H609V-800H381Q379 -800 379 -803Q379 -804 380 -805L386 -811Q386 -812 386 -812Q386 -813 386 -819Q388 -837 388 -850Q388 -922 354 -956L283 -1027Q261 -1049 209.5 -1061Q158 -1073 135 -1096Q101 -1130 91 -1215L7 -1131Q14 -1047 48 -1014Q71 -991 123.5 -977Q176 -963 200 -939Q231 -908 263 -877Q288 -852 298 -804V-803Q298 -800 295 -800H-1V-674H305Q307 -674 307 -671V-518H308H307Q307 -518 307 -518V-368H320Q363 -363 390 -333Q417 -303 417 -260Q417 -214 385.5 -183Q354 -152 306 -152Q258 -152 226.5 -182.5Q195 -213 195 -258ZM49 -259Q49 -264 52 -264H197Q200 -264 200 -261Q199 -261 199 -260Q199 -216 229.5 -186.5Q260 -157 306 -157Q352 -157 382.5 -186.5Q413 -216 413 -260Q413 -301 387 -329.5Q361 -358 320 -364H305Q303 -364 303 -366V-517L305 -515Q305 -518 305 -520L303 -518V-668H-4Q-7 -668 -7 -671V-803Q-7 -806 -4 -806H292Q282 -850 259 -873Q228 -904 196 -936Q173 -959 120.5 -973Q68 -987 44 -1010Q28 -1026 17.5 -1058Q7 -1090 4.5 -1108Q2 -1126 2 -1132Q2 -1133 3 -1134L91 -1222Q92 -1223 93 -1223Q95 -1223 96 -1221Q97 -1211 99 -1195.5Q101 -1180 112 -1147.5Q123 -1115 139 -1099Q161 -1077 212.5 -1065Q264 -1053 287 -1031L357 -960Q393 -924 393 -850Q393 -837 391 -819Q391 -813 391 -812V-811Q391 -811 391 -810Q391 -809 387 -806H612Q615 -806 615 -803V-671Q615 -668 612 -668H439V-485Q499 -452 534 -394Q569 -336 569 -266Q569 -263 568 -260Q566 -150 490 -75.5Q414 -1 305 -1Q244 -1 194 -22.5Q144 -44 113 -81Q82 -118 65.5 -163.5Q49 -209 49 -259Z"/>
</svg>