<svg xmlns="http://www.w3.org/2000/svg" viewBox="0 -1000 1000 1000">
	<path fill="#000000" d="M186 -482Q186 -482 78 -588Q155 -665 261.5 -666Q368 -667 445 -590Q521 -513 520 -407Q519 -301 442 -224Q385 -166 316 -151Q247 -136 187.5 -157.5Q128 -179 81 -227L183 -330Q184 -329 184 -329Q216 -297 259 -297.5Q302 -298 336 -331Q369 -365 369.5 -408Q370 -451 338 -483Q306 -515 263 -515Q220 -515 186 -482ZM639 -813V-681H-50V-813ZM384 -9L87 -229L288 -231L543 -9Z"/>
	<path fill="#2200f5" d="M236 -472Q236 -472 128 -578Q205 -655 311.5 -656Q418 -657 495 -580Q571 -503 570 -397Q569 -291 492 -214Q435 -156 366 -141Q297 -126 237.5 -147.5Q178 -169 131 -217L233 -320Q234 -319 234 -319Q266 -287 309 -287.5Q352 -288 386 -321Q419 -355 419.5 -398Q420 -441 388 -473Q356 -505 313 -505Q270 -505 236 -472ZM689 -803V-671H0V-803ZM434 1L137 -219L338 -221L593 1Z"/>
	<path fill="#00a0e1" d="M315 -508Q358 -508 391 -475Q423 -443 423 -400Q423 -355 389 -319Q354 -285 309 -285Q266 -285 234 -316L135 -217Q176 -176 228 -156Q228 -155 228 -155L436 -2H587L412 -154Q411 -155 411 -156Q411 -158 412 -159Q455 -178 491 -215Q569 -293 569 -400Q569 -504 494 -578Q419 -653 315 -653Q210 -653 133 -578Q141 -571 177 -535Q204 -509 237 -476Q272 -508 315 -508ZM127 -578Q127 -579 127 -579Q206 -658 315 -658Q421 -658 498 -582Q574 -506 574 -400Q574 -291 495 -212Q459 -176 418 -156L596 -1Q597 0 597 1Q597 4 594 4H435Q434 4 434 3L226 -151Q172 -173 130 -215Q129 -216 129 -217Q129 -218 130 -219L233 -321Q233 -322 234 -322Q235 -322 237 -321Q268 -290 309 -290Q352 -290 385 -323Q418 -357 418 -400Q418 -441 388 -471Q356 -503 315 -503Q273 -503 239 -470Q238 -470 237 -470Q236 -470 235 -470Q151 -554 131 -572Q129 -574 128 -575Q127 -576 127 -578ZM687 -674V-800H3V-674ZM693 -803V-671Q693 -668 690 -668H1Q-1 -668 -1 -671V-803Q-1 -806 1 -806H690Q693 -806 693 -803Z"/>
</svg>