<svg xmlns="http://www.w3.org/2000/svg" viewBox="0 -1000 1000 1000">
	<path fill="#000000" d="M189 -57L256 -169Q263 -162 278 -157Q318 -140 349.5 -144Q381 -148 401 -172Q424 -199 379 -211Q367 -214 325 -221Q278 -240 241 -280Q204 -320 186 -365.5Q168 -411 170.5 -459Q173 -507 201 -539Q209 -549 226 -571Q243 -593 252 -603.5Q261 -614 277.5 -630.5Q294 -647 308 -653.5Q322 -660 341.5 -665.5Q361 -671 383.5 -667.5Q406 -664 432 -654Q433 -654 434 -654Q450 -654 468 -649.5Q486 -645 498 -641Q510 -637 520.5 -636Q531 -635 536 -642Q541 -649 541 -666Q541 -696 445.5 -712Q350 -728 247 -722.5Q144 -717 123 -693V-12H-44L-41 -694Q-17 -777 50 -829Q91 -861 170 -873.5Q249 -886 337 -876Q425 -866 505.5 -841.5Q586 -817 639 -770Q692 -723 692 -666Q692 -589 680.5 -547Q669 -505 649 -494.5Q629 -484 604 -489.5Q579 -495 548.5 -508.5Q518 -522 489 -532Q460 -542 429.5 -537Q399 -532 376 -505Q360 -487 355.5 -460Q351 -433 364 -409Q377 -385 407 -380Q451 -361 490.5 -325Q530 -289 553 -247Q576 -205 578.5 -161.5Q581 -118 553 -85Q506 -28 406 -15.5Q306 -3 211 -44Q203 -46 189 -57Z"/>
	<path fill="#2200f5" d="M239 -47L306 -159Q313 -152 328 -147Q368 -130 399.5 -134Q431 -138 451 -162Q474 -189 429 -201Q417 -204 375 -211Q328 -230 291 -270Q254 -310 236 -355.5Q218 -401 220.5 -449Q223 -497 251 -529Q259 -539 276 -561Q293 -583 302 -593.5Q311 -604 327.5 -620.5Q344 -637 358 -643.5Q372 -650 391.5 -655.5Q411 -661 433.5 -657.5Q456 -654 482 -644Q483 -644 484 -644Q500 -644 518 -639.5Q536 -635 548 -631Q560 -627 570.5 -626Q581 -625 586 -632Q591 -639 591 -656Q591 -686 495.5 -702Q400 -718 297 -712.5Q194 -707 173 -683V-2H6L9 -684Q33 -767 100 -819Q141 -851 220 -863.5Q299 -876 387 -866Q475 -856 555.5 -831.5Q636 -807 689 -760Q742 -713 742 -656Q742 -579 730.5 -537Q719 -495 699 -484.5Q679 -474 654 -479.5Q629 -485 598.5 -498.5Q568 -512 539 -522Q510 -532 479.5 -527Q449 -522 426 -495Q410 -477 405.5 -450Q401 -423 414 -399Q427 -375 457 -370Q501 -351 540.5 -315Q580 -279 603 -237Q626 -195 628.5 -151.5Q631 -108 603 -75Q556 -18 456 -5.5Q356 7 261 -34Q253 -36 239 -47Z"/>
	<path fill="#00a0e1" d="M412 -5Q473 -5 523 -24Q573 -43 601 -77Q626 -106 626 -148Q626 -209 575 -274Q524 -339 456 -368Q429 -372 416 -391Q403 -410 403 -435Q403 -472 424 -497Q453 -531 496 -531Q528 -531 594 -503Q649 -480 672 -480Q704 -480 722 -518.5Q740 -557 740 -656Q740 -720 673 -769.5Q606 -819 510 -843Q414 -867 314 -867Q166 -867 102 -817Q35 -766 11 -684L9 -4H170V-683Q170 -684 171 -685Q198 -716 347 -716Q455 -716 528 -698Q594 -682 594 -656Q594 -623 572 -623Q564 -623 541 -630Q505 -642 484 -642Q481 -642 481 -642Q446 -656 416 -656Q393 -656 374 -648.5Q355 -641 336.5 -624.5Q318 -608 307 -595.5Q296 -583 277 -558Q261 -537 253 -527Q223 -492 223 -438Q223 -371 266 -305.5Q309 -240 375 -213Q379 -213 388 -211.5Q397 -210 401.5 -209Q406 -208 414.5 -206.5Q423 -205 427.5 -204Q432 -203 438 -201Q444 -199 447.5 -197Q451 -195 454.5 -192Q458 -189 460 -186Q462 -183 462 -179Q462 -171 453 -160Q427 -130 386 -130Q358 -130 327 -145Q313 -149 306 -155L242 -48Q254 -38 261 -36Q261 -36 262 -36Q333 -5 412 -5ZM306 -162Q307 -162 307 -161Q314 -154 328 -149Q329 -149 329 -149Q359 -135 386 -135Q425 -135 449 -164Q457 -173 457 -179Q457 -185 450.5 -189.5Q444 -194 429 -198Q414 -202 405 -203.5Q396 -205 374 -209Q306 -236 262 -302.5Q218 -369 218 -438Q218 -494 249 -531Q257 -540 273 -561Q292 -586 303 -598.5Q314 -611 333 -628.5Q352 -646 372 -653.5Q392 -661 416 -661Q446 -661 482 -647Q483 -647 484 -646Q506 -646 543 -635Q564 -628 572 -628Q588 -628 588 -656Q588 -678 527 -693Q454 -711 347 -711Q284 -711 236 -703Q188 -695 176 -682V-2Q176 0 173 0H6Q4 0 4 -2L7 -684Q7 -684 7 -685Q31 -768 98 -821Q164 -872 314 -872Q388 -872 463 -857.5Q538 -843 601.5 -817Q665 -791 704.5 -748.5Q744 -706 744 -656Q744 -556 725.5 -515.5Q707 -475 672 -475Q648 -475 592 -499Q527 -526 496 -526Q455 -526 428 -493Q408 -470 408 -435Q408 -412 420 -394.5Q432 -377 457 -372Q457 -372 458 -372Q527 -343 579 -277Q631 -211 631 -148Q631 -105 605 -73Q576 -38 525 -19Q474 0 412 0Q332 0 260 -32Q252 -34 237 -45Q236 -46 236 -47Q236 -48 236 -48L303 -160Q304 -162 306 -162Z"/>
</svg>