<svg xmlns="http://www.w3.org/2000/svg" viewBox="0 -1000 1000 1000">
	<path fill="#000000" d="M283 -843Q283 -843 281 -843Q281 -843 274 -843Q223 -847 188.5 -883.5Q154 -920 154 -971Q154 -1022 189 -1059Q224 -1096 274 -1100H281Q281 -1100 283 -1100Q283 -1100 285 -1100Q339 -1100 376.5 -1062.5Q414 -1025 414 -971Q414 -918 376.5 -880.5Q339 -843 285 -843ZM284 -1025Q280 -1025 272 -1023V-1024Q253 -1020 241.5 -1005.5Q230 -991 230 -971Q230 -952 241.5 -937.5Q253 -923 272 -919V-920Q280 -918 284 -918Q288 -918 296 -920V-919Q315 -923 326.5 -937.5Q338 -952 338 -971Q338 -991 326.5 -1005.5Q315 -1020 296 -1024V-1023Q288 -1025 284 -1025ZM566 -194Q550 -136 505.5 -94.5Q461 -53 405 -33.5Q349 -14 285 -13.5Q221 -13 164.5 -32Q108 -51 64 -93Q20 -135 3 -194L0 -771H167V-195Q196 -162 285 -161.5Q374 -161 402 -195V-771H569Z"/>
	<path fill="#2200f5" d="M333 -833Q333 -833 331 -833Q331 -833 324 -833Q273 -837 238.5 -873.5Q204 -910 204 -961Q204 -1012 239 -1049Q274 -1086 324 -1090H331Q331 -1090 333 -1090Q333 -1090 335 -1090Q389 -1090 426.5 -1052.5Q464 -1015 464 -961Q464 -908 426.5 -870.5Q389 -833 335 -833ZM334 -1015Q330 -1015 322 -1013V-1014Q303 -1010 291.5 -995.5Q280 -981 280 -961Q280 -942 291.5 -927.5Q303 -913 322 -909V-910Q330 -908 334 -908Q338 -908 346 -910V-909Q365 -913 376.5 -927.5Q388 -942 388 -961Q388 -981 376.5 -995.5Q365 -1010 346 -1014V-1013Q338 -1015 334 -1015ZM616 -184Q600 -126 555.5 -84.5Q511 -43 455 -23.5Q399 -4 335 -3.5Q271 -3 214.5 -22Q158 -41 114 -83Q70 -125 53 -184L50 -761H217V-185Q246 -152 335 -151.5Q424 -151 452 -185V-761H619Z"/>
	<path fill="#00a0e1" d="M324 -835H335Q388 -835 425 -872Q462 -909 462 -961Q462 -1014 425 -1050.5Q388 -1087 335 -1087H324Q275 -1084 240.5 -1047.5Q206 -1011 206 -961Q206 -911 240.5 -875Q275 -839 324 -835ZM335 -831H324Q272 -834 237 -871.5Q202 -909 202 -961Q202 -1013 237 -1051Q272 -1089 324 -1092Q324 -1092 324 -1093H335Q390 -1093 428 -1054.5Q466 -1016 466 -961Q466 -907 428 -869Q390 -831 335 -831ZM323 -1011Q322 -1011 322 -1011Q321 -1011 320 -1011Q303 -1007 293 -993Q283 -979 282.5 -961Q282 -943 292.5 -929.5Q303 -916 320 -912Q321 -912 322 -913Q322 -913 323 -912Q330 -911 334 -911Q338 -911 345 -912Q346 -913 346 -913Q347 -913 348 -912Q365 -916 375.5 -929.5Q386 -943 386 -961Q386 -979 375.5 -993Q365 -1007 348 -1011Q347 -1011 346 -1011Q346 -1011 345 -1011Q338 -1013 334 -1013Q330 -1013 323 -1011ZM344 -1016Q345 -1016 346 -1017V-1016Q366 -1013 378 -997Q390 -981 390 -961Q390 -941 378 -925.5Q366 -910 346 -907Q345 -907 344 -907Q338 -905 334 -905Q330 -905 324 -907Q323 -907 322 -907Q302 -910 290 -925.5Q278 -941 278 -961Q278 -981 290 -997Q302 -1013 322 -1016Q322 -1016 322 -1017Q323 -1017 324 -1016Q330 -1017 334 -1017Q338 -1017 344 -1016ZM454 -758V-185Q454 -184 454 -183Q425 -149 336 -149Q296 -149 263 -158Q230 -167 215 -183Q214 -184 214 -185V-758H53L55 -184Q80 -99 158 -52Q236 -5 333 -5Q431 -5 510 -52Q589 -99 614 -184L616 -758ZM50 -764H217Q220 -764 220 -761V-186Q233 -171 265.5 -162.5Q298 -154 336 -154Q373 -154 404.5 -162.5Q436 -171 450 -186V-761Q450 -764 452 -764H619Q622 -764 622 -761L618 -184Q618 -184 618 -183Q594 -96 513.5 -48Q433 0 333 0Q235 0 155.5 -48Q76 -96 51 -183Q51 -184 51 -184L48 -761Q48 -764 50 -764Z"/>
</svg>