<svg xmlns="http://www.w3.org/2000/svg" viewBox="0 -1000 1000 1000">
	<path fill="#000000" d="M477 -843L369 -950L551 -1132L659 -1025ZM0 -779H152L276 -302L400 -779H401H552H553L677 -302L801 -779H953L753 -10H601L476 -489L352 -10H200Z"/>
	<path fill="#2200f5" d="M527 -833L419 -940L601 -1122L709 -1015ZM50 -769H202L326 -292L450 -769H451H602H603L727 -292L851 -769H1003L803 0H651L526 -479L402 0H250Z"/>
	<path fill="#00a0e1" d="M423 -940L527 -837L705 -1015L601 -1118ZM417 -942L599 -1124Q600 -1125 601 -1125Q602 -1125 603 -1124L711 -1017Q712 -1016 712 -1015Q712 -1014 711 -1013L529 -831Q528 -831 527 -831Q526 -831 525 -831L417 -938Q416 -939 416 -940Q416 -941 417 -942ZM529 -479L653 -2H801L1000 -766H853L729 -291Q729 -290 727 -290Q725 -290 725 -291L601 -766H452L328 -292Q328 -290 326 -290Q324 -290 324 -292L200 -766H53L252 -2H400L524 -479Q525 -481 526.5 -481Q528 -481 529 -479ZM50 -772H202Q204 -772 204 -770L326 -302L448 -770Q448 -772 450 -772H603Q605 -772 605 -770L727 -302L849 -770Q849 -772 851 -772H1003Q1006 -772 1006 -769Q1006 -769 1005 -768L805 1Q805 2 803 2H651Q649 2 649 1L526 -469L404 1Q404 2 402 2H250Q248 2 248 1L48 -768Q48 -769 48 -769Q48 -772 50 -772Z"/>
</svg>