<svg xmlns="http://www.w3.org/2000/svg" viewBox="0 -1000 1000 1000">
	<path fill="#000000" d="M376 -842L447 -1010H448H523H524L576 -842H500L480 -950L452 -842ZM0 -779H152L276 -302L400 -779H401H552H553L677 -302L801 -779H953L753 -10H601L476 -489L352 -10H200Z"/>
	<path fill="#2200f5" d="M426 -832L497 -1000H498H573H574L626 -832H550L530 -940L502 -832ZM50 -769H202L326 -292L450 -769H451H602H603L727 -292L851 -769H1003L803 0H651L526 -479L402 0H250Z"/>
	<path fill="#00a0e1" d="M532 -940L553 -835H623L572 -997H499L429 -835H500L527 -940Q528 -942 530 -942Q532 -942 532 -940ZM497 -1002H574Q575 -1002 576 -1000L629 -833Q629 -833 629 -832Q629 -830 626 -830H550Q548 -830 548 -832L529 -928L504 -832Q503 -830 502 -830H426Q423 -830 423 -832Q423 -833 423 -833L495 -1000Q495 -1002 497 -1002ZM529 -479L653 -2H801L1000 -766H853L729 -291Q729 -290 727 -290Q725 -290 725 -291L601 -766H452L328 -292Q328 -290 326 -290Q324 -290 324 -292L200 -766H53L252 -2H400L524 -479Q525 -481 526.5 -481Q528 -481 529 -479ZM50 -772H202Q204 -772 204 -770L326 -302L448 -770Q448 -772 450 -772H603Q605 -772 605 -770L727 -302L849 -770Q849 -772 851 -772H1003Q1006 -772 1006 -769Q1006 -769 1005 -768L805 1Q805 2 803 2H651Q649 2 649 1L526 -469L404 1Q404 2 402 2H250Q248 2 248 1L48 -768Q48 -769 48 -769Q48 -772 50 -772Z"/>
</svg>