<svg xmlns="http://www.w3.org/2000/svg" viewBox="0 -1000 1000 1000">
	<path fill="#000000" d="M477 -843L295 -1025L403 -1132L585 -950ZM0 -779H152L276 -302L400 -779H401H552H553L677 -302L801 -779H953L753 -10H601L476 -489L352 -10H200Z"/>
	<path fill="#2200f5" d="M527 -833L345 -1015L453 -1122L635 -940ZM50 -769H202L326 -292L450 -769H451H602H603L727 -292L851 -769H1003L803 0H651L526 -479L402 0H250Z"/>
	<path fill="#00a0e1" d="M349 -1015L527 -837L631 -940L453 -1118ZM343 -1017L451 -1124Q452 -1125 453 -1125Q454 -1125 455 -1124L637 -942Q638 -941 638 -940Q638 -939 637 -938L529 -831Q528 -831 527 -831Q526 -831 525 -831L343 -1013Q342 -1014 342 -1015Q342 -1016 343 -1017ZM529 -479L653 -2H801L1000 -766H853L729 -291Q729 -290 727 -290Q725 -290 725 -291L601 -766H452L328 -292Q328 -290 326 -290Q324 -290 324 -292L200 -766H53L252 -2H400L524 -479Q525 -481 526.5 -481Q528 -481 529 -479ZM50 -772H202Q204 -772 204 -770L326 -302L448 -770Q448 -772 450 -772H603Q605 -772 605 -770L727 -302L849 -770Q849 -772 851 -772H1003Q1006 -772 1006 -769Q1006 -769 1005 -768L805 1Q805 2 803 2H651Q649 2 649 1L526 -469L404 1Q404 2 402 2H250Q248 2 248 1L48 -768Q48 -769 48 -769Q48 -772 50 -772Z"/>
</svg>