<svg xmlns="http://www.w3.org/2000/svg" viewBox="0 -1000 1000 1000">
	<path fill="#000000" d="M0 -780L186 -778L316 -551L448 -779L623 -778L403 -398L624 -10L449 -8L313 -243L179 -12L1 -9L224 -394Z"/>
	<path fill="#2200f5" d="M50 -770L236 -768L366 -541L498 -769L673 -768L453 -388L674 0L499 2L363 -233L229 -2L51 1L274 -384Z"/>
	<path fill="#00a0e1" d="M277 -383L55 -2L228 -4L360 -234Q361 -235 362.5 -235Q364 -235 365 -234L500 -1L670 -2L451 -387Q450 -387 450 -388Q450 -389 451 -389L669 -766H499L368 -540Q367 -538 365.5 -538Q364 -538 363 -540L235 -766L54 -767L277 -385Q277 -385 277 -384Q277 -383 277 -383ZM676 -768Q676 -767 675 -767L456 -388L676 -1Q676 -1 676 0Q676 2 674 2Q499 4 499 4Q498 4 497 3L363 -228L231 -1Q230 0 229 0Q51 3 51 4Q48 4 48 1Q48 0 49 0L272 -384L48 -769Q48 -769 48 -770Q48 -773 50 -772L236 -770Q237 -770 238 -769L366 -546L496 -770Q497 -772 498 -772L673 -770Q676 -770 676 -768Z"/>
</svg>