<svg xmlns="http://www.w3.org/2000/svg" viewBox="0 -1000 1000 1000">
	<path fill="#000000" d="M220 -843L112 -950L294 -1132L402 -1025ZM143 -461L-56 -775H96L220 -604L344 -775H496L296 -460H295V-11H143Z"/>
	<path fill="#2200f5" d="M270 -833L162 -940L344 -1122L452 -1015ZM193 -451L-6 -765H146L270 -594L394 -765H546L346 -450H345V-1H193Z"/>
	<path fill="#00a0e1" d="M166 -940L270 -837L448 -1015L344 -1118ZM160 -942L342 -1124Q343 -1125 344 -1125Q345 -1125 346 -1124L454 -1017Q455 -1016 455 -1015Q455 -1014 454 -1013L272 -831Q271 -831 270 -831Q269 -831 268 -831L160 -938Q159 -939 159 -940Q159 -941 160 -942ZM196 -450V-4H342V-450Q342 -452 345 -452L541 -762H395L272 -593Q271 -592 270 -592Q269 -592 268 -593L145 -762H-1L195 -452Q196 -452 196 -451Q196 -450 196 -450ZM348 -1Q348 2 345 2H193Q190 2 190 -1V-451L-8 -764Q-8 -764 -8 -765Q-8 -768 -6 -768H146Q147 -768 148 -766L270 -598L392 -766Q393 -768 394 -768H546Q548 -768 548 -765Q548 -764 548 -764L348 -449Q348 -448 348 -448Z"/>
</svg>