<svg xmlns="http://www.w3.org/2000/svg" viewBox="0 -1000 1000 1000">
	<path fill="#000000" d="M120 -842L191 -1010H192H267H268L320 -842H244L224 -950L196 -842ZM143 -461L-56 -775H96L220 -604L344 -775H496L296 -460H295V-11H143Z"/>
	<path fill="#2200f5" d="M170 -832L241 -1000H242H317H318L370 -832H294L274 -940L246 -832ZM193 -451L-6 -765H146L270 -594L394 -765H546L346 -450H345V-1H193Z"/>
	<path fill="#00a0e1" d="M276 -940L297 -835H367L316 -997H243L173 -835H244L271 -940Q272 -942 274 -942Q276 -942 276 -940ZM241 -1002H318Q319 -1002 320 -1000L373 -833Q373 -833 373 -832Q373 -830 370 -830H294Q292 -830 292 -832L273 -928L248 -832Q247 -830 246 -830H170Q167 -830 167 -832Q167 -833 167 -833L239 -1000Q239 -1002 241 -1002ZM196 -450V-4H342V-450Q342 -452 345 -452L541 -762H395L272 -593Q271 -592 270 -592Q269 -592 268 -593L145 -762H-1L195 -452Q196 -452 196 -451Q196 -450 196 -450ZM348 -1Q348 2 345 2H193Q190 2 190 -1V-451L-8 -764Q-8 -764 -8 -765Q-8 -768 -6 -768H146Q147 -768 148 -766L270 -598L392 -766Q393 -768 394 -768H546Q548 -768 548 -765Q548 -764 548 -764L348 -449Q348 -448 348 -448Z"/>
</svg>