<svg xmlns="http://www.w3.org/2000/svg" viewBox="0 -1000 1000 1000">
	<path fill="#000000" d="M244 -843V-985H396V-843ZM44 -843V-985H196V-843ZM143 -461L-56 -775H96L220 -604L344 -775H496L296 -460H295V-11H143Z"/>
	<path fill="#2200f5" d="M294 -833V-975H446V-833ZM94 -833V-975H246V-833ZM193 -451L-6 -765H146L270 -594L394 -765H546L346 -450H345V-1H193Z"/>
	<path fill="#00a0e1" d="M296 -973V-835H444V-973ZM292 -833V-975Q292 -977 294 -977H446Q448 -977 448 -975V-833Q448 -831 446 -831H294Q292 -831 292 -833ZM96 -973V-835H244V-973ZM92 -833V-975Q92 -977 94 -977H246Q248 -977 248 -975V-833Q248 -831 246 -831H94Q92 -831 92 -833ZM196 -450V-4H342V-450Q342 -452 345 -452L541 -762H395L272 -593Q271 -592 270 -592Q269 -592 268 -593L145 -762H-1L195 -452Q196 -452 196 -451Q196 -450 196 -450ZM348 -1Q348 2 345 2H193Q190 2 190 -1V-451L-8 -764Q-8 -764 -8 -765Q-8 -768 -6 -768H146Q147 -768 148 -766L270 -598L392 -766Q393 -768 394 -768H546Q548 -768 548 -765Q548 -764 548 -764L348 -449Q348 -448 348 -448Z"/>
</svg>