<svg xmlns="http://www.w3.org/2000/svg" viewBox="0 -1000 1000 1000">
	<path fill="#000000" d="M242 -1011H318L346 -903L366 -1011H442L390 -843H389H314H313ZM0 -20V-172L430 -620H0V-772H683V-620L251 -172H683V-20Z"/>
	<path fill="#2200f5" d="M292 -1001H368L396 -893L416 -1001H492L440 -833H439H364H363ZM50 -10V-162L480 -610H50V-762H733V-610L301 -162H733V-10Z"/>
	<path fill="#00a0e1" d="M394 -892L366 -999H296L365 -835H438L489 -999H418L398 -893Q398 -891 396 -891Q394 -891 394 -892ZM292 -1003H368Q370 -1003 370 -1002L396 -905L414 -1001Q414 -1003 416 -1003H492Q494 -1003 494 -1001Q494 -1001 494 -1000L442 -832Q442 -831 440 -831H363Q361 -831 361 -832L290 -1000Q290 -1000 290 -1001Q290 -1003 292 -1003ZM730 -12V-160H301Q298 -160 298 -162Q298 -163 299 -164L730 -611V-760H52V-612H480Q482 -612 482 -610Q482 -609 482 -608L52 -161V-12ZM48 -10V-162Q48 -163 48 -164L474 -608H50Q48 -608 48 -610V-762Q48 -764 50 -764H733Q736 -764 736 -762V-610Q736 -609 735 -608L307 -164H733Q736 -164 736 -162V-10Q736 -8 733 -8H50Q48 -8 48 -10Z"/>
</svg>