<svg xmlns="http://www.w3.org/2000/svg" viewBox="0 -1000 1000 1000">
	<path fill="#000000" d="M688 -390Q688 -283 647 -192Q606 -101 536 -48.5Q466 4 382.5 4Q299 4 228.5 -48.5Q158 -101 117 -192Q76 -283 76 -390Q76 -497 117 -587.5Q158 -678 228.5 -730.5Q299 -783 382.5 -783Q466 -783 536 -730.5Q606 -678 647 -587.5Q688 -497 688 -390ZM566 -388Q566 -485 512.5 -553.5Q459 -622 382.5 -622Q306 -622 252 -553.5Q198 -485 198 -388Q198 -290 252 -221.5Q306 -153 382.5 -153Q459 -153 512.5 -221.5Q566 -290 566 -388Z"/>
	<path fill="#2200f5" d="M738 -380Q738 -273 697 -182Q656 -91 586 -38.5Q516 14 432.5 14Q349 14 278.5 -38.5Q208 -91 167 -182Q126 -273 126 -380Q126 -487 167 -577.5Q208 -668 278.5 -720.5Q349 -773 432.5 -773Q516 -773 586 -720.5Q656 -668 697 -577.5Q738 -487 738 -380ZM616 -378Q616 -475 562.5 -543.5Q509 -612 432.5 -612Q356 -612 302 -543.5Q248 -475 248 -378Q248 -280 302 -211.5Q356 -143 432.5 -143Q509 -143 562.5 -211.5Q616 -280 616 -378Z"/>
	<path fill="#00a0e1" d="M735 -380Q735 -486 694.5 -576Q654 -666 584.5 -718Q515 -770 432.5 -770Q350 -770 280 -718Q210 -666 169.5 -576Q129 -486 129 -380Q129 -273 169.5 -183Q210 -93 280 -40.5Q350 12 432.5 12Q515 12 584.5 -40.5Q654 -93 694.5 -183Q735 -273 735 -380ZM740 -380Q740 -272 699 -181Q658 -90 587.5 -37Q517 16 432.5 16Q348 16 277 -37Q206 -90 165 -181Q124 -272 124 -380Q124 -487 165 -578Q206 -669 277 -722.5Q348 -776 432 -776Q516 -776 587 -722.5Q658 -669 699 -578Q740 -487 740 -380ZM613 -378Q613 -474 560.5 -542Q508 -610 432.5 -610Q357 -610 304 -542Q251 -474 251 -378Q251 -281 304 -213.5Q357 -146 432.5 -146Q508 -146 560.5 -213.5Q613 -281 613 -378ZM618 -378Q618 -279 564 -209.5Q510 -140 432.5 -140Q355 -140 300.5 -210Q246 -280 246 -378Q246 -476 300.5 -545Q355 -614 432.5 -614Q510 -614 564 -545Q618 -476 618 -378Z"/>
</svg>