<svg xmlns="http://www.w3.org/2000/svg" viewBox="0 -1000 1000 1000">
	<path fill="#000000" d="M208 -588L279 -756H280H355H356L408 -588H332L312 -696L284 -588ZM332 -11V-19Q324 -18 308 -18Q201 -18 125.5 -93.5Q50 -169 50 -276Q50 -382 125 -453.5Q200 -525 308 -525Q324 -525 332 -524H484V-11ZM332 -379Q320 -382 308 -382Q263 -382 232 -351Q201 -320 201 -276Q201 -231 232 -200Q263 -169 308 -169Q320 -169 332 -172Z"/>
	<path fill="#2200f5" d="M208 -578L279 -746H280H355H356L408 -578H332L312 -686L284 -578ZM332 -1V-9Q324 -8 308 -8Q201 -8 125.5 -83.5Q50 -159 50 -266Q50 -372 125 -443.5Q200 -515 308 -515Q324 -515 332 -514H484V-1ZM332 -369Q320 -372 308 -372Q263 -372 232 -341Q201 -310 201 -266Q201 -221 232 -190Q263 -159 308 -159Q320 -159 332 -162Z"/>
</svg>