<svg xmlns="http://www.w3.org/2000/svg" viewBox="0 -1000 1000 1000">
	<path fill="#000000" d="M503 -307L695 -304Q691 -308 675 -327Q659 -346 650 -355.5Q641 -365 625.5 -375Q610 -385 596 -385Q578 -385 562.5 -373Q547 -361 526.5 -335.5Q506 -310 503 -307ZM332 -379Q320 -382 308 -382Q263 -382 232 -351Q201 -320 201 -276Q201 -231 232 -200Q263 -169 308 -169Q320 -169 332 -172ZM854 -270Q854 -260 854.5 -242.5Q855 -225 855 -218L508 -215Q539 -164 596 -164Q630 -164 733.5 -166.5Q837 -169 845 -172V-16Q826 -13 596 -13Q549 -13 505 -29L332 -11V-19Q324 -18 308 -18Q201 -18 125.5 -93.5Q50 -169 50 -276Q50 -382 125 -453.5Q200 -525 308 -525Q324 -525 332 -524H505L596 -528Q703 -528 778.5 -452.5Q854 -377 854 -270Z"/>
	<path fill="#2200f5" d="M503 -297L695 -294Q691 -298 675 -317Q659 -336 650 -345.5Q641 -355 625.5 -365Q610 -375 596 -375Q578 -375 562.5 -363Q547 -351 526.5 -325.5Q506 -300 503 -297ZM332 -369Q320 -372 308 -372Q263 -372 232 -341Q201 -310 201 -266Q201 -221 232 -190Q263 -159 308 -159Q320 -159 332 -162ZM854 -260Q854 -250 854.5 -232.5Q855 -215 855 -208L508 -205Q539 -154 596 -154Q630 -154 733.5 -156.5Q837 -159 845 -162V-6Q826 -3 596 -3Q549 -3 505 -19L332 -1V-9Q324 -8 308 -8Q201 -8 125.5 -83.5Q50 -159 50 -266Q50 -372 125 -443.5Q200 -515 308 -515Q324 -515 332 -514H505L596 -518Q703 -518 778.5 -442.5Q854 -367 854 -260Z"/>
</svg>