<svg xmlns="http://www.w3.org/2000/svg" viewBox="0 -1000 1000 1000">
	<path fill="#000000" d="M307 -588Q307 -588 305 -588Q305 -588 298 -588Q247 -592 212.5 -628.5Q178 -665 178 -716Q178 -767 213 -804Q248 -841 298 -845H305Q305 -845 307 -845Q307 -845 309 -845Q363 -845 400.5 -807.5Q438 -770 438 -716Q438 -663 400.5 -625.5Q363 -588 309 -588ZM308 -770Q304 -770 296 -768V-769Q277 -765 265.5 -750.5Q254 -736 254 -716Q254 -697 265.5 -682.5Q277 -668 296 -664V-665Q304 -663 308 -663Q312 -663 320 -665V-664Q339 -668 350.5 -682.5Q362 -697 362 -716Q362 -736 350.5 -750.5Q339 -765 320 -769V-768Q312 -770 308 -770ZM332 -11V-19Q324 -18 308 -18Q201 -18 125.5 -93.5Q50 -169 50 -276Q50 -382 125 -453.5Q200 -525 308 -525Q324 -525 332 -524H484V-11ZM332 -379Q320 -382 308 -382Q263 -382 232 -351Q201 -320 201 -276Q201 -231 232 -200Q263 -169 308 -169Q320 -169 332 -172Z"/>
	<path fill="#2200f5" d="M307 -578Q307 -578 305 -578Q305 -578 298 -578Q247 -582 212.5 -618.5Q178 -655 178 -706Q178 -757 213 -794Q248 -831 298 -835H305Q305 -835 307 -835Q307 -835 309 -835Q363 -835 400.5 -797.5Q438 -760 438 -706Q438 -653 400.5 -615.5Q363 -578 309 -578ZM308 -760Q304 -760 296 -758V-759Q277 -755 265.5 -740.5Q254 -726 254 -706Q254 -687 265.5 -672.5Q277 -658 296 -654V-655Q304 -653 308 -653Q312 -653 320 -655V-654Q339 -658 350.5 -672.5Q362 -687 362 -706Q362 -726 350.5 -740.5Q339 -755 320 -759V-758Q312 -760 308 -760ZM332 -1V-9Q324 -8 308 -8Q201 -8 125.5 -83.5Q50 -159 50 -266Q50 -372 125 -443.5Q200 -515 308 -515Q324 -515 332 -514H484V-1ZM332 -369Q320 -372 308 -372Q263 -372 232 -341Q201 -310 201 -266Q201 -221 232 -190Q263 -159 308 -159Q320 -159 332 -162Z"/>
</svg>