<svg xmlns="http://www.w3.org/2000/svg" viewBox="0 -1000 1000 1000">
	<path fill="#000000" d="M535 -749V-597H264V-749ZM332 -790H484V-14H332Q320 -13 308 -13Q201 -13 125.5 -88Q50 -163 50 -270Q50 -377 125.5 -452.5Q201 -528 308 -528Q320 -528 332 -527ZM332 -167V-374Q320 -377 308 -377Q263 -377 232 -346Q201 -315 201 -270Q201 -226 232 -195Q263 -164 308 -164Q320 -164 332 -167Z"/>
	<path fill="#2200f5" d="M535 -739V-587H264V-739ZM332 -780H484V-4H332Q320 -3 308 -3Q201 -3 125.5 -78Q50 -153 50 -260Q50 -367 125.5 -442.5Q201 -518 308 -518Q320 -518 332 -517ZM332 -157V-364Q320 -367 308 -367Q263 -367 232 -336Q201 -305 201 -260Q201 -216 232 -185Q263 -154 308 -154Q320 -154 332 -157Z"/>
</svg>