<svg xmlns="http://www.w3.org/2000/svg" viewBox="0 -1000 1000 1000">
	<path fill="#000000" d="M208 -756H284L312 -648L332 -756H408L356 -588H355H280H279ZM566 -270Q566 -260 566.5 -242.5Q567 -225 567 -218L216 -215Q230 -192 254.5 -178Q279 -164 308 -164Q342 -164 445.5 -166.5Q549 -169 557 -172V-16Q538 -13 308 -13Q201 -13 125.5 -88Q50 -163 50 -270Q50 -377 125.5 -452.5Q201 -528 308 -528Q415 -528 490.5 -452.5Q566 -377 566 -270ZM211 -307L407 -304Q403 -308 387 -327Q371 -346 362 -355.5Q353 -365 337.5 -375Q322 -385 308 -385Q294 -385 279 -375.5Q264 -366 254.5 -356Q245 -346 230 -329Q215 -312 211 -307Z"/>
	<path fill="#2200f5" d="M208 -746H284L312 -638L332 -746H408L356 -578H355H280H279ZM566 -260Q566 -250 566.5 -232.5Q567 -215 567 -208L216 -205Q230 -182 254.5 -168Q279 -154 308 -154Q342 -154 445.5 -156.5Q549 -159 557 -162V-6Q538 -3 308 -3Q201 -3 125.5 -78Q50 -153 50 -260Q50 -367 125.5 -442.5Q201 -518 308 -518Q415 -518 490.5 -442.5Q566 -367 566 -260ZM211 -297L407 -294Q403 -298 387 -317Q371 -336 362 -345.5Q353 -355 337.5 -365Q322 -375 308 -375Q294 -375 279 -365.5Q264 -356 254.5 -346Q245 -336 230 -319Q215 -302 211 -297Z"/>
</svg>