<svg xmlns="http://www.w3.org/2000/svg" viewBox="0 -1000 1000 1000">
	<path fill="#000000" d="M310 -377Q297 -377 286 -374V-375Q249 -367 225 -338Q201 -309 201 -270Q201 -232 225 -203Q249 -174 286 -166V-167Q297 -164 310 -164Q322 -164 334 -167V-166Q371 -174 395 -203Q419 -232 419 -270Q419 -309 395 -338Q371 -367 334 -375V-374Q322 -377 310 -377ZM135 -790H287Q295 -783 302 -777L340 -815L427 -739L387 -699Q434 -651 468 -604.5Q502 -558 529 -493Q556 -428 561.5 -359.5Q567 -291 549 -201.5Q531 -112 484 -14H332Q320 -13 308 -13Q201 -13 125.5 -88Q50 -163 50 -270Q50 -377 125.5 -452.5Q201 -528 308 -528Q320 -528 332 -527L282 -594L245 -557L158 -633L212 -687Z"/>
	<path fill="#2200f5" d="M310 -367Q297 -367 286 -364V-365Q249 -357 225 -328Q201 -299 201 -260Q201 -222 225 -193Q249 -164 286 -156V-157Q297 -154 310 -154Q322 -154 334 -157V-156Q371 -164 395 -193Q419 -222 419 -260Q419 -299 395 -328Q371 -357 334 -365V-364Q322 -367 310 -367ZM135 -780H287Q295 -773 302 -767L340 -805L427 -729L387 -689Q434 -641 468 -594.5Q502 -548 529 -483Q556 -418 561.5 -349.5Q567 -281 549 -191.5Q531 -102 484 -4H332Q320 -3 308 -3Q201 -3 125.5 -78Q50 -153 50 -260Q50 -367 125.5 -442.5Q201 -518 308 -518Q320 -518 332 -517L282 -584L245 -547L158 -623L212 -677Z"/>
</svg>