<svg xmlns="http://www.w3.org/2000/svg" viewBox="0 -1000 1000 1000">
	<path fill="#000000" d="M190 -842L261 -1010H262H337H338L390 -842H314L294 -950L266 -842ZM50 185V17Q81 43 121 43Q170 43 202 6V-527H369L366 7Q342 90 275 142Q208 194 121 194Q84 194 50 185ZM214 -782H366V-640H214Z"/>
	<path fill="#2200f5" d="M190 -832L261 -1000H262H337H338L390 -832H314L294 -940L266 -832ZM50 195V27Q81 53 121 53Q170 53 202 16V-517H369L366 17Q342 100 275 152Q208 204 121 204Q84 204 50 195ZM214 -772H366V-630H214Z"/>
</svg>