<svg xmlns="http://www.w3.org/2000/svg" viewBox="0 -1000 1000 1000">
	<path fill="#000000" d="M50 -532H219V-522Q258 -534 299 -534Q389 -534 458 -478L546 -522Q585 -534 626 -534Q713 -534 780 -482Q847 -430 871 -347L874 -16H707V-346Q675 -383 626 -383Q578 -383 546 -348V-126L547 -16H546H380H377L380 -333V-346Q348 -383 299 -383Q251 -383 219 -348V-16H50Z"/>
	<path fill="#2200f5" d="M50 -522H219V-512Q258 -524 299 -524Q389 -524 458 -468L546 -512Q585 -524 626 -524Q713 -524 780 -472Q847 -420 871 -337L874 -6H707V-336Q675 -373 626 -373Q578 -373 546 -338V-116L547 -6H546H380H377L380 -323V-336Q348 -373 299 -373Q251 -373 219 -338V-6H50Z"/>
</svg>