<svg xmlns="http://www.w3.org/2000/svg" viewBox="0 -1000 1000 1000">
	<path fill="#000000" d="M423 -711V-635Q422 -633 414.5 -624Q407 -615 391 -604.5Q375 -594 359 -594H309Q293 -594 270.5 -608Q248 -622 232 -622Q221 -622 206 -615Q191 -608 182 -601L173 -594V-670Q205 -698 230 -698Q247 -698 270.5 -684.5Q294 -671 310 -671Q333 -671 355 -671Q370 -671 387 -681Q404 -691 413 -701ZM50 -532H219V-522Q258 -534 299 -534Q386 -534 453 -482Q520 -430 544 -347L547 -16H380V-346Q348 -383 299 -383Q251 -383 219 -348V-16H50Z"/>
	<path fill="#2200f5" d="M423 -701V-625Q422 -623 414.5 -614Q407 -605 391 -594.5Q375 -584 359 -584H309Q293 -584 270.5 -598Q248 -612 232 -612Q221 -612 206 -605Q191 -598 182 -591L173 -584V-660Q205 -688 230 -688Q247 -688 270.5 -674.5Q294 -661 310 -661Q333 -661 355 -661Q370 -661 387 -671Q404 -681 413 -691ZM50 -522H219V-512Q258 -524 299 -524Q386 -524 453 -472Q520 -420 544 -337L547 -6H380V-336Q348 -373 299 -373Q251 -373 219 -338V-6H50Z"/>
</svg>