<svg xmlns="http://www.w3.org/2000/svg" viewBox="0 -1000 1000 1000">
	<path fill="#000000" d="M437 -712Q437 -712 437 -698Q437 -645 400 -607.5Q363 -570 309 -570Q255 -570 218 -607Q181 -644 181 -698V-712H257Q255 -704 255 -698Q255 -676 271 -660Q287 -644 309.5 -644Q332 -644 347.5 -660Q363 -676 363 -698Q363 -704 361 -712ZM309 -13Q308 -13 308 -13Q306 -13 304 -13Q296 -13 290 -14Q189 -20 119.5 -94Q50 -168 50 -270Q50 -372 119.5 -446.5Q189 -521 290 -527Q296 -528 304 -528Q306 -528 308 -528Q308 -528 309 -528Q310 -528 312 -528Q419 -528 494.5 -452.5Q570 -377 570 -270Q570 -163 494.5 -88Q419 -13 312 -13Q310 -13 309 -13ZM310 -377Q297 -377 286 -374V-375Q249 -367 225 -338Q201 -309 201 -270Q201 -232 225 -203Q249 -174 286 -166V-167Q297 -164 310 -164Q322 -164 334 -167V-166Q371 -174 395 -203Q419 -232 419 -270Q419 -309 395 -338Q371 -367 334 -375V-374Q322 -377 310 -377Z"/>
	<path fill="#2200f5" d="M437 -702Q437 -702 437 -688Q437 -635 400 -597.5Q363 -560 309 -560Q255 -560 218 -597Q181 -634 181 -688V-702H257Q255 -694 255 -688Q255 -666 271 -650Q287 -634 309.5 -634Q332 -634 347.5 -650Q363 -666 363 -688Q363 -694 361 -702ZM309 -3Q308 -3 308 -3Q306 -3 304 -3Q296 -3 290 -4Q189 -10 119.5 -84Q50 -158 50 -260Q50 -362 119.5 -436.5Q189 -511 290 -517Q296 -518 304 -518Q306 -518 308 -518Q308 -518 309 -518Q310 -518 312 -518Q419 -518 494.5 -442.5Q570 -367 570 -260Q570 -153 494.5 -78Q419 -3 312 -3Q310 -3 309 -3ZM310 -367Q297 -367 286 -364V-365Q249 -357 225 -328Q201 -299 201 -260Q201 -222 225 -193Q249 -164 286 -156V-157Q297 -154 310 -154Q322 -154 334 -157V-156Q371 -164 395 -193Q419 -222 419 -260Q419 -299 395 -328Q371 -357 334 -365V-364Q322 -367 310 -367Z"/>
</svg>