<svg xmlns="http://www.w3.org/2000/svg" viewBox="0 -1000 1000 1000">
	<path fill="#000000" d="M310 -377Q297 -377 286 -374V-375Q249 -367 225 -338Q201 -309 201 -270Q201 -232 225 -203Q249 -174 286 -166V-167Q297 -164 310 -164Q322 -164 334 -167V-166Q371 -174 395 -203Q419 -232 419 -270Q419 -309 395 -338Q371 -367 334 -375V-374Q322 -377 310 -377ZM593 -307L789 -304Q785 -308 769 -327Q753 -346 744 -355.5Q735 -365 719.5 -375Q704 -385 690 -385Q676 -385 661 -375.5Q646 -366 636.5 -356Q627 -346 612 -329Q597 -312 593 -307ZM309 -13Q309 -13 308 -13Q306 -13 304 -13Q296 -13 290 -14Q189 -20 119.5 -94Q50 -168 50 -270Q50 -372 119.5 -446.5Q189 -521 290 -527Q296 -528 304 -528Q306 -528 308 -528Q308 -528 309 -528Q310 -528 312 -528Q425 -528 501 -446Q577 -528 690 -528Q797 -528 872.5 -452.5Q948 -377 948 -270Q948 -260 948.5 -242.5Q949 -225 949 -218L598 -215Q612 -192 636.5 -178Q661 -164 690 -164Q724 -164 827.5 -166.5Q931 -169 939 -172V-16Q920 -13 690 -13Q577 -13 501 -95Q425 -13 312 -13Q311 -13 310 -13Q309 -13 309 -13Z"/>
	<path fill="#2200f5" d="M310 -367Q297 -367 286 -364V-365Q249 -357 225 -328Q201 -299 201 -260Q201 -222 225 -193Q249 -164 286 -156V-157Q297 -154 310 -154Q322 -154 334 -157V-156Q371 -164 395 -193Q419 -222 419 -260Q419 -299 395 -328Q371 -357 334 -365V-364Q322 -367 310 -367ZM593 -297L789 -294Q785 -298 769 -317Q753 -336 744 -345.5Q735 -355 719.5 -365Q704 -375 690 -375Q676 -375 661 -365.5Q646 -356 636.5 -346Q627 -336 612 -319Q597 -302 593 -297ZM309 -3Q309 -3 308 -3Q306 -3 304 -3Q296 -3 290 -4Q189 -10 119.5 -84Q50 -158 50 -260Q50 -362 119.5 -436.5Q189 -511 290 -517Q296 -518 304 -518Q306 -518 308 -518Q308 -518 309 -518Q310 -518 312 -518Q425 -518 501 -436Q577 -518 690 -518Q797 -518 872.5 -442.5Q948 -367 948 -260Q948 -250 948.5 -232.5Q949 -215 949 -208L598 -205Q612 -182 636.5 -168Q661 -154 690 -154Q724 -154 827.5 -156.5Q931 -159 939 -162V-6Q920 -3 690 -3Q577 -3 501 -85Q425 -3 312 -3Q311 -3 310 -3Q309 -3 309 -3Z"/>
</svg>