<svg xmlns="http://www.w3.org/2000/svg" viewBox="0 -1000 1000 1000">
	<path fill="#000000" d="M50 -270Q50 -377 124.5 -452.5Q199 -528 308 -528Q308 -528 309 -528Q310 -528 312 -528Q351 -528 388 -517L458 -635L564 -574L493 -454Q570 -378 570 -270Q570 -163 494.5 -88Q419 -13 312 -13Q311 -13 310 -13Q309 -13 309 -13Q309 -13 308 -13Q273 -13 240 -22L184 73L78 12L133 -81Q94 -117 72 -166Q50 -215 50 -270ZM306 -377Q295 -376 286 -374V-375Q249 -367 225 -338Q201 -309 201 -270Q201 -243 214 -219ZM324 -165Q329 -166 334 -167V-166Q371 -174 395 -203Q419 -232 419 -270Q419 -292 410 -313Z"/>
	<path fill="#2200f5" d="M50 -260Q50 -367 124.5 -442.5Q199 -518 308 -518Q308 -518 309 -518Q310 -518 312 -518Q351 -518 388 -507L458 -625L564 -564L493 -444Q570 -368 570 -260Q570 -153 494.5 -78Q419 -3 312 -3Q311 -3 310 -3Q309 -3 309 -3Q309 -3 308 -3Q273 -3 240 -12L184 83L78 22L133 -71Q94 -107 72 -156Q50 -205 50 -260ZM306 -367Q295 -366 286 -364V-365Q249 -357 225 -328Q201 -299 201 -260Q201 -233 214 -209ZM324 -155Q329 -156 334 -157V-156Q371 -164 395 -193Q419 -222 419 -260Q419 -282 410 -303Z"/>
</svg>