<svg xmlns="http://www.w3.org/2000/svg" viewBox="0 -1000 1000 1000">
	<path fill="#000000" d="M202 192H50V-519H202Q210 -520 226 -520Q333 -520 408.5 -445Q484 -370 484 -263Q484 -156 408.5 -80.5Q333 -5 226 -5Q210 -5 202 -6ZM202 -366V-159Q214 -156 226 -156Q271 -156 302 -187Q333 -218 333 -263Q333 -307 302 -338Q271 -369 226 -369Q214 -369 202 -366Z"/>
	<path fill="#2200f5" d="M202 202H50V-509H202Q210 -510 226 -510Q333 -510 408.5 -435Q484 -360 484 -253Q484 -146 408.5 -70.5Q333 5 226 5Q210 5 202 4ZM202 -356V-149Q214 -146 226 -146Q271 -146 302 -177Q333 -208 333 -253Q333 -297 302 -328Q271 -359 226 -359Q214 -359 202 -356Z"/>
</svg>