<svg xmlns="http://www.w3.org/2000/svg" viewBox="0 -1000 1000 1000">
	<path fill="#000000" d="M332 192V-6Q324 -5 308 -5Q201 -5 125.5 -80.5Q50 -156 50 -263Q50 -370 125.5 -445Q201 -520 308 -520Q324 -520 332 -519H484V192ZM332 -366Q320 -369 308 -369Q263 -369 232 -338Q201 -307 201 -263Q201 -218 232 -187Q263 -156 308 -156Q320 -156 332 -159Z"/>
	<path fill="#2200f5" d="M332 202V4Q324 5 308 5Q201 5 125.5 -70.5Q50 -146 50 -253Q50 -360 125.5 -435Q201 -510 308 -510Q324 -510 332 -509H484V202ZM332 -356Q320 -359 308 -359Q263 -359 232 -328Q201 -297 201 -253Q201 -208 232 -177Q263 -146 308 -146Q320 -146 332 -149Z"/>
</svg>