<svg xmlns="http://www.w3.org/2000/svg" viewBox="0 -1000 1000 1000">
	<path fill="#000000" d="M169 -756H245L273 -648L293 -756H369L317 -588H316H241H240ZM69 -57L136 -169Q143 -162 158 -157Q198 -140 229.5 -144Q261 -148 281 -172Q304 -199 259 -211Q247 -214 205 -221Q139 -247 99 -281.5Q59 -316 51 -358Q43 -400 81 -444Q128 -501 228 -512.5Q328 -524 424 -483Q442 -475 446 -472L379 -342Q365 -351 357 -354Q316 -370 296 -366Q276 -362 256 -338Q231 -312 235.5 -302.5Q240 -293 287 -285Q326 -268 355 -253.5Q384 -239 410.5 -219Q437 -199 448.5 -179.5Q460 -160 457.5 -135.5Q455 -111 433 -85Q386 -28 286 -15.5Q186 -3 91 -44Q83 -46 69 -57Z"/>
	<path fill="#2200f5" d="M169 -746H245L273 -638L293 -746H369L317 -578H316H241H240ZM69 -47L136 -159Q143 -152 158 -147Q198 -130 229.5 -134Q261 -138 281 -162Q304 -189 259 -201Q247 -204 205 -211Q139 -237 99 -271.5Q59 -306 51 -348Q43 -390 81 -434Q128 -491 228 -502.5Q328 -514 424 -473Q442 -465 446 -462L379 -332Q365 -341 357 -344Q316 -360 296 -356Q276 -352 256 -328Q231 -302 235.5 -292.5Q240 -283 287 -275Q326 -258 355 -243.5Q384 -229 410.5 -209Q437 -189 448.5 -169.5Q460 -150 457.5 -125.5Q455 -101 433 -75Q386 -18 286 -5.5Q186 7 91 -34Q83 -36 69 -47Z"/>
</svg>