<svg xmlns="http://www.w3.org/2000/svg" viewBox="0 -1000 1000 1000">
	<path fill="#000000" d="M202 189H50V-711H197L202 -522Q210 -523 226 -523Q333 -523 408.5 -448Q484 -373 484 -266Q484 -159 408.5 -83.5Q333 -8 226 -8Q210 -8 202 -9ZM202 -369V-162Q214 -159 226 -159Q271 -159 302 -190Q333 -221 333 -266Q333 -310 302 -341Q271 -372 226 -372Q214 -372 202 -369Z"/>
	<path fill="#2200f5" d="M202 199H50V-701H197L202 -512Q210 -513 226 -513Q333 -513 408.5 -438Q484 -363 484 -256Q484 -149 408.5 -73.5Q333 2 226 2Q210 2 202 1ZM202 -359V-152Q214 -149 226 -149Q271 -149 302 -180Q333 -211 333 -256Q333 -300 302 -331Q271 -362 226 -362Q214 -362 202 -359Z"/>
</svg>