<svg xmlns="http://www.w3.org/2000/svg" viewBox="0 -1000 1000 1000">
	<path fill="#000000" d="M550 248Q550 248 537 248Q483 248 445.5 210.5Q408 173 408 120Q408 66 445.5 28.5Q483 -9 537 -9H550V68Q542 66 537 66Q515 66 499 82Q483 98 483 120Q483 142 498.5 157.5Q514 173 537 173Q542 173 550 171ZM548 -3H379V-13Q340 -1 299 -1Q212 -1 145 -53Q78 -105 54 -188L51 -519H218V-189Q250 -152 299 -152Q347 -152 379 -187V-519H548Z"/>
	<path fill="#2200f5" d="M550 258Q550 258 537 258Q483 258 445.5 220.5Q408 183 408 130Q408 76 445.5 38.5Q483 1 537 1H550V78Q542 76 537 76Q515 76 499 92Q483 108 483 130Q483 152 498.5 167.5Q514 183 537 183Q542 183 550 181ZM548 7H379V-3Q340 9 299 9Q212 9 145 -43Q78 -95 54 -178L51 -509H218V-179Q250 -142 299 -142Q347 -142 379 -177V-509H548Z"/>
</svg>