<svg xmlns="http://www.w3.org/2000/svg" viewBox="0 -1000 1000 1000">
	<path fill="#000000" d="M425 -711V-635Q424 -633 416.5 -624Q409 -615 393 -604.5Q377 -594 361 -594H311Q295 -594 272.5 -608Q250 -622 234 -622Q223 -622 208 -615Q193 -608 184 -601L175 -594V-670Q207 -698 232 -698Q249 -698 272.5 -684.5Q296 -671 312 -671Q335 -671 357 -671Q372 -671 389 -681Q406 -691 415 -701ZM548 -12H379V-22Q340 -10 299 -10Q212 -10 145 -62Q78 -114 54 -197L51 -528H218V-198Q250 -161 299 -161Q347 -161 379 -196V-528H548Z"/>
	<path fill="#2200f5" d="M425 -701V-625Q424 -623 416.5 -614Q409 -605 393 -594.5Q377 -584 361 -584H311Q295 -584 272.5 -598Q250 -612 234 -612Q223 -612 208 -605Q193 -598 184 -591L175 -584V-660Q207 -688 232 -688Q249 -688 272.5 -674.5Q296 -661 312 -661Q335 -661 357 -661Q372 -661 389 -671Q406 -681 415 -691ZM548 -2H379V-12Q340 0 299 0Q212 0 145 -52Q78 -104 54 -187L51 -518H218V-188Q250 -151 299 -151Q347 -151 379 -186V-518H548Z"/>
</svg>