<svg xmlns="http://www.w3.org/2000/svg" viewBox="0 -1000 1000 1000">
	<path fill="#000000" d="M453 -307L645 -304Q641 -308 625 -327Q609 -346 600 -355.5Q591 -365 575.5 -375Q560 -385 546 -385Q528 -385 512.5 -373Q497 -361 476.5 -335.5Q456 -310 453 -307ZM282 -379Q270 -382 258 -382Q213 -382 182 -351Q151 -320 151 -276Q151 -231 182 -200Q213 -169 258 -169Q270 -169 282 -172ZM804 -270Q804 -260 804.5 -242.5Q805 -225 805 -218L458 -215Q489 -164 546 -164Q580 -164 683.5 -166.5Q787 -169 795 -172V-16Q776 -13 546 -13Q499 -13 455 -29L282 -11V-19Q274 -18 258 -18Q151 -18 75.5 -93.5Q0 -169 0 -276Q0 -382 75 -453.5Q150 -525 258 -525Q274 -525 282 -524H455L546 -528Q653 -528 728.5 -452.5Q804 -377 804 -270Z"/>
	<path fill="#2200f5" d="M503 -297L695 -294Q691 -298 675 -317Q659 -336 650 -345.5Q641 -355 625.5 -365Q610 -375 596 -375Q578 -375 562.5 -363Q547 -351 526.5 -325.5Q506 -300 503 -297ZM332 -369Q320 -372 308 -372Q263 -372 232 -341Q201 -310 201 -266Q201 -221 232 -190Q263 -159 308 -159Q320 -159 332 -162ZM854 -260Q854 -250 854.5 -232.5Q855 -215 855 -208L508 -205Q539 -154 596 -154Q630 -154 733.5 -156.5Q837 -159 845 -162V-6Q826 -3 596 -3Q549 -3 505 -19L332 -1V-9Q324 -8 308 -8Q201 -8 125.5 -83.5Q50 -159 50 -266Q50 -372 125 -443.5Q200 -515 308 -515Q324 -515 332 -514H505L596 -518Q703 -518 778.5 -442.5Q854 -367 854 -260Z"/>
	<path fill="#00a0e1" d="M689 -297Q687 -299 674 -314.5Q661 -330 655 -336.5Q649 -343 637.5 -353.5Q626 -364 616 -368.5Q606 -373 596 -373Q584 -373 570.5 -364Q557 -355 548.5 -346.5Q540 -338 526 -320.5Q512 -303 508 -299ZM596 -378Q610 -378 626 -368Q642 -358 651.5 -348.5Q661 -339 677 -319.5Q693 -300 697 -296Q697 -295 697 -294Q697 -292 695 -292L503 -294Q500 -294 500 -297Q500 -298 501 -298Q504 -302 524.5 -328Q545 -354 561.5 -366Q578 -378 596 -378ZM308 -370Q264 -370 234 -339.5Q204 -309 204 -266Q204 -222 234 -192Q264 -162 308 -162Q319 -162 330 -164V-367Q319 -370 308 -370ZM334 -369V-162Q334 -160 333 -160Q320 -156 308 -156Q262 -156 230 -188Q198 -220 198 -266Q198 -311 230 -342.5Q262 -374 308 -374Q320 -374 333 -371Q334 -371 334 -369ZM852 -210Q852 -218 852 -234.5Q852 -251 852 -260Q852 -366 777 -440.5Q702 -515 596 -515L505 -511L332 -512Q324 -512 308 -512Q201 -512 126.5 -441.5Q52 -371 52 -266Q52 -160 127 -85Q202 -10 308 -10Q324 -10 332 -11Q332 -11 332 -12Q334 -12 334 -9V-4L505 -22Q505 -22 506 -22Q549 -6 596 -6Q802 -6 842 -8V-159Q829 -157 765.5 -155Q702 -153 653 -152Q604 -151 596 -152Q537 -152 506 -204Q505 -205 505 -205Q505 -208 508 -208ZM856 -260Q856 -251 857 -233.5Q858 -216 858 -208Q858 -206 855 -206L512 -203Q543 -156 596 -156Q627 -156 732 -159Q837 -162 844 -164Q845 -164 845 -164Q848 -164 848 -162V-6Q848 -4 845 -4Q826 -1 596 0Q549 0 505 -17L332 1Q332 1 332 2Q330 2 330 -1V-6Q322 -5 309 -5Q308 -5 308 -6Q200 -6 124 -82Q48 -158 48 -266Q48 -373 123.5 -445.5Q199 -518 308 -518Q312 -518 320 -517Q328 -516 332 -516H505L596 -521Q704 -521 780 -444.5Q856 -368 856 -260Z"/>
</svg>