<svg xmlns="http://www.w3.org/2000/svg" viewBox="0 -1000 1000 1000">
	<path fill="#000000" d="M394 -664V-588H122V-664ZM282 -11V-19Q274 -18 258 -18Q151 -18 75.5 -93.5Q0 -169 0 -276Q0 -382 75 -453.5Q150 -525 258 -525Q274 -525 282 -524H434V-11ZM282 -379Q270 -382 258 -382Q213 -382 182 -351Q151 -320 151 -276Q151 -231 182 -200Q213 -169 258 -169Q270 -169 282 -172Z"/>
	<path fill="#2200f5" d="M444 -654V-578H172V-654ZM332 -1V-9Q324 -8 308 -8Q201 -8 125.5 -83.5Q50 -159 50 -266Q50 -372 125 -443.5Q200 -515 308 -515Q324 -515 332 -514H484V-1ZM332 -369Q320 -372 308 -372Q263 -372 232 -341Q201 -310 201 -266Q201 -221 232 -190Q263 -159 308 -159Q320 -159 332 -162Z"/>
	<path fill="#00a0e1" d="M442 -580V-652H174V-580ZM446 -654V-578Q446 -576 444 -576H172Q170 -576 170 -578V-654Q170 -656 172 -656H444Q446 -656 446 -654ZM482 -512H332Q324 -512 308 -512Q201 -512 126.5 -441.5Q52 -371 52 -266Q52 -160 127 -85Q202 -10 308 -10Q324 -10 332 -11Q332 -11 332 -12Q334 -12 334 -9V-4H482ZM308 -370Q264 -370 234 -339.5Q204 -309 204 -266Q204 -222 234 -192Q264 -162 308 -162Q319 -162 330 -164V-367Q319 -370 308 -370ZM334 -369V-162Q334 -160 333 -160Q320 -156 308 -156Q262 -156 230 -188Q198 -220 198 -266Q198 -311 230 -342.5Q262 -374 308 -374Q320 -374 333 -371Q334 -371 334 -369ZM332 -516H484Q486 -516 486 -514V-1Q486 2 484 2H332Q330 2 330 -1V-6Q322 -5 309 -5Q308 -5 308 -6Q200 -6 124 -82Q48 -158 48 -266Q48 -373 123.5 -445.5Q199 -518 308 -518Q312 -518 320 -517Q328 -516 332 -516Z"/>
</svg>