<svg xmlns="http://www.w3.org/2000/svg" viewBox="0 -1000 1000 1000">
	<path fill="#000000" d="M432 233Q432 233 419 233Q365 233 327.5 195.5Q290 158 290 105Q290 51 327.5 13.5Q365 -24 419 -24H432V53Q424 51 419 51Q397 51 381 67Q365 83 365 105Q365 127 380.5 142.5Q396 158 419 158Q424 158 432 156ZM282 -11V-19Q274 -18 258 -18Q151 -18 75.5 -93.5Q0 -169 0 -276Q0 -382 75 -453.5Q150 -525 258 -525Q274 -525 282 -524H434V-11ZM282 -379Q270 -382 258 -382Q213 -382 182 -351Q151 -320 151 -276Q151 -231 182 -200Q213 -169 258 -169Q270 -169 282 -172Z"/>
	<path fill="#2200f5" d="M482 243Q482 243 469 243Q415 243 377.5 205.5Q340 168 340 115Q340 61 377.5 23.5Q415 -14 469 -14H482V63Q474 61 469 61Q447 61 431 77Q415 93 415 115Q415 137 430.5 152.5Q446 168 469 168Q474 168 482 166ZM332 -1V-9Q324 -8 308 -8Q201 -8 125.5 -83.5Q50 -159 50 -266Q50 -372 125 -443.5Q200 -515 308 -515Q324 -515 332 -514H484V-1ZM332 -369Q320 -372 308 -372Q263 -372 232 -341Q201 -310 201 -266Q201 -221 232 -190Q263 -159 308 -159Q320 -159 332 -162Z"/>
	<path fill="#00a0e1" d="M479 -11H469Q416 -11 379.5 25.5Q343 62 343 115Q343 167 379.5 204Q416 241 469 241H479V169Q473 171 469 171Q445 171 429 154.5Q413 138 413 114.5Q413 91 429 75Q445 59 469 59Q473 59 479 60ZM482 245H469Q414 245 375.5 207Q337 169 337 115Q337 60 375.5 21.5Q414 -17 469 -17H482Q485 -17 485 -14V63Q485 65 482 65Q482 65 481 65Q474 63 469 63Q448 63 432.5 78.5Q417 94 417 115Q417 136 432 150.5Q447 165 469 165Q474 165 481 164Q482 163 482 163Q485 163 485 166V243Q485 245 482 245ZM482 -512H332Q324 -512 308 -512Q201 -512 126.5 -441.5Q52 -371 52 -266Q52 -160 127 -85Q202 -10 308 -10Q324 -10 332 -11Q332 -11 332 -12Q334 -12 334 -9V-4H482ZM308 -370Q264 -370 234 -339.5Q204 -309 204 -266Q204 -222 234 -192Q264 -162 308 -162Q319 -162 330 -164V-367Q319 -370 308 -370ZM334 -369V-162Q334 -160 333 -160Q320 -156 308 -156Q262 -156 230 -188Q198 -220 198 -266Q198 -311 230 -342.5Q262 -374 308 -374Q320 -374 333 -371Q334 -371 334 -369ZM332 -516H484Q486 -516 486 -514V-1Q486 2 484 2H332Q330 2 330 -1V-6Q322 -5 309 -5Q308 -5 308 -6Q200 -6 124 -82Q48 -158 48 -266Q48 -373 123.5 -445.5Q199 -518 308 -518Q312 -518 320 -517Q328 -516 332 -516Z"/>
</svg>