<svg xmlns="http://www.w3.org/2000/svg" viewBox="0 -1000 1000 1000">
	<path fill="#000000" d="M383 -705V-629Q382 -627 374.5 -618Q367 -609 351 -598.5Q335 -588 319 -588H269Q253 -588 230.5 -602Q208 -616 192 -616Q181 -616 166 -609Q151 -602 142 -595L133 -588V-664Q165 -692 190 -692Q207 -692 230.5 -678.5Q254 -665 270 -665Q293 -665 315 -665Q330 -665 347 -675Q364 -685 373 -695ZM282 -11V-19Q274 -18 258 -18Q151 -18 75.5 -93.5Q0 -169 0 -276Q0 -382 75 -453.5Q150 -525 258 -525Q274 -525 282 -524H434V-11ZM282 -379Q270 -382 258 -382Q213 -382 182 -351Q151 -320 151 -276Q151 -231 182 -200Q213 -169 258 -169Q270 -169 282 -172Z"/>
	<path fill="#2200f5" d="M433 -695V-619Q432 -617 424.5 -608Q417 -599 401 -588.5Q385 -578 369 -578H319Q303 -578 280.5 -592Q258 -606 242 -606Q231 -606 216 -599Q201 -592 192 -585L183 -578V-654Q215 -682 240 -682Q257 -682 280.5 -668.5Q304 -655 320 -655Q343 -655 365 -655Q380 -655 397 -665Q414 -675 423 -685ZM332 -1V-9Q324 -8 308 -8Q201 -8 125.5 -83.5Q50 -159 50 -266Q50 -372 125 -443.5Q200 -515 308 -515Q324 -515 332 -514H484V-1ZM332 -369Q320 -372 308 -372Q263 -372 232 -341Q201 -310 201 -266Q201 -221 232 -190Q263 -159 308 -159Q320 -159 332 -162Z"/>
	<path fill="#00a0e1" d="M320 -652Q303 -652 279.5 -666Q256 -680 240 -680Q218 -680 186 -653V-583Q219 -609 242 -609Q259 -609 281 -595Q303 -581 319 -581H369Q388 -581 404.5 -594Q421 -607 430 -619V-688Q396 -652 365 -652Q365 -652 320 -652ZM240 -685Q257 -685 280.5 -671Q304 -657 320 -657Q343 -657 365 -657Q379 -657 396.5 -668Q414 -679 420.5 -685.5Q427 -692 431 -696Q432 -697 433 -697Q435 -697 435 -695V-619Q435 -616 427 -606.5Q419 -597 402.5 -586.5Q386 -576 369 -576H319Q302 -576 280 -590Q258 -604 242 -604Q232 -604 217.5 -597Q203 -590 194 -583L185 -576Q184 -576 183 -576Q181 -576 181 -578V-654Q181 -655 182 -656Q214 -685 240 -685ZM482 -512H332Q324 -512 308 -512Q201 -512 126.5 -441.5Q52 -371 52 -266Q52 -160 127 -85Q202 -10 308 -10Q324 -10 332 -11Q332 -11 332 -12Q334 -12 334 -9V-4H482ZM308 -370Q264 -370 234 -339.5Q204 -309 204 -266Q204 -222 234 -192Q264 -162 308 -162Q319 -162 330 -164V-367Q319 -370 308 -370ZM334 -369V-162Q334 -160 333 -160Q320 -156 308 -156Q262 -156 230 -188Q198 -220 198 -266Q198 -311 230 -342.5Q262 -374 308 -374Q320 -374 333 -371Q334 -371 334 -369ZM332 -516H484Q486 -516 486 -514V-1Q486 2 484 2H332Q330 2 330 -1V-6Q322 -5 309 -5Q308 -5 308 -6Q200 -6 124 -82Q48 -158 48 -266Q48 -373 123.5 -445.5Q199 -518 308 -518Q312 -518 320 -517Q328 -516 332 -516Z"/>
</svg>