<svg xmlns="http://www.w3.org/2000/svg" viewBox="0 -1000 1000 1000">
	<path fill="#000000" d="M152 -790V-527Q160 -528 176 -528Q283 -528 358.5 -452.5Q434 -377 434 -270Q434 -163 358.5 -88Q283 -13 176 -13Q160 -13 152 -14H0V-790ZM152 -167Q164 -164 176 -164Q221 -164 252 -195Q283 -226 283 -270Q283 -315 252 -346Q221 -377 176 -377Q164 -377 152 -374Z"/>
	<path fill="#2200f5" d="M202 -780V-517Q210 -518 226 -518Q333 -518 408.5 -442.5Q484 -367 484 -260Q484 -153 408.5 -78Q333 -3 226 -3Q210 -3 202 -4H50V-780ZM202 -157Q214 -154 226 -154Q271 -154 302 -185Q333 -216 333 -260Q333 -305 302 -336Q271 -367 226 -367Q214 -367 202 -364Z"/>
	<path fill="#00a0e1" d="M52 -6H202Q210 -6 226 -6Q332 -6 407 -80Q482 -154 482 -260Q482 -366 407 -441Q332 -516 226 -516Q210 -516 202 -515Q202 -515 202 -514Q200 -514 200 -517V-778H52ZM226 -156Q270 -156 300 -186.5Q330 -217 330 -260Q330 -304 300 -334Q270 -364 226 -364Q215 -364 204 -362V-159Q215 -156 226 -156ZM200 -157V-364Q200 -366 201 -366Q214 -370 226 -370Q272 -370 304 -338Q336 -306 336 -260Q336 -215 304 -183.5Q272 -152 226 -152Q214 -152 201 -155Q200 -155 200 -157ZM202 -2H50Q48 -2 48 -4V-780Q48 -782 50 -782H202Q204 -782 204 -780V-520Q212 -521 226 -521V-520Q334 -520 410 -444Q486 -368 486 -260Q486 -152 410 -76Q334 0 226 0Q222 0 214 -1Q206 -2 202 -2Z"/>
</svg>