<svg xmlns="http://www.w3.org/2000/svg" viewBox="0 -1000 1000 1000">
	<path fill="#000000" d="M158 -588L229 -756H230H305H306L358 -588H282L262 -696L234 -588ZM284 -14Q271 -13 258 -13Q151 -13 75.5 -88Q0 -163 0 -270Q0 -377 75.5 -452.5Q151 -528 258 -528Q271 -528 284 -527V-374Q271 -377 258 -377Q213 -377 182 -346Q151 -315 151 -270Q151 -226 182 -195Q213 -164 258 -164Q271 -164 284 -167Z"/>
	<path fill="#2200f5" d="M208 -578L279 -746H280H355H356L408 -578H332L312 -686L284 -578ZM334 -4Q321 -3 308 -3Q201 -3 125.5 -78Q50 -153 50 -260Q50 -367 125.5 -442.5Q201 -518 308 -518Q321 -518 334 -517V-364Q321 -367 308 -367Q263 -367 232 -336Q201 -305 201 -260Q201 -216 232 -185Q263 -154 308 -154Q321 -154 334 -157Z"/>
	<path fill="#00a0e1" d="M314 -686L335 -581H405L354 -743H281L211 -581H282L309 -686Q310 -688 312 -688Q314 -688 314 -686ZM279 -748H356Q357 -748 358 -746L411 -579Q411 -579 411 -578Q411 -576 408 -576H332Q330 -576 330 -578L311 -674L286 -578Q285 -576 284 -576H208Q205 -576 205 -578Q205 -579 205 -579L277 -746Q277 -748 279 -748ZM52 -260Q52 -154 127 -80Q202 -6 308 -6Q320 -6 332 -7V-154Q320 -152 308 -152Q262 -152 230 -183.5Q198 -215 198 -260Q198 -306 230 -338Q262 -370 308 -370Q320 -370 332 -367V-514Q320 -516 308 -516Q202 -516 127 -441Q52 -366 52 -260ZM308 0Q200 0 124 -76Q48 -152 48 -260Q48 -368 124 -444Q200 -520 308 -520Q321 -520 334 -519Q336 -519 336 -517V-364Q336 -361 334 -361Q334 -361 333 -361Q321 -364 308 -364Q264 -364 234 -334Q204 -304 204 -260Q204 -217 234 -186.5Q264 -156 308 -156Q321 -156 333 -160Q334 -160 334 -160Q336 -160 336 -157V-4Q336 -2 334 -2Q321 0 308 0Z"/>
</svg>