<svg xmlns="http://www.w3.org/2000/svg" viewBox="0 -1000 1000 1000">
	<path fill="#000000" d="M282 -790H434V-14H282Q270 -13 258 -13Q151 -13 75.5 -88Q0 -163 0 -270Q0 -377 75.5 -452.5Q151 -528 258 -528Q270 -528 282 -527ZM282 -167V-374Q270 -377 258 -377Q213 -377 182 -346Q151 -315 151 -270Q151 -226 182 -195Q213 -164 258 -164Q270 -164 282 -167Z"/>
	<path fill="#2200f5" d="M332 -780H484V-4H332Q320 -3 308 -3Q201 -3 125.5 -78Q50 -153 50 -260Q50 -367 125.5 -442.5Q201 -518 308 -518Q320 -518 332 -517ZM332 -157V-364Q320 -367 308 -367Q263 -367 232 -336Q201 -305 201 -260Q201 -216 232 -185Q263 -154 308 -154Q320 -154 332 -157Z"/>
	<path fill="#00a0e1" d="M482 -778H334V-517Q334 -514 332 -514Q320 -516 308 -516Q202 -516 127 -441Q52 -366 52 -260Q52 -154 127 -80Q202 -6 308 -6Q320 -6 332 -7Q332 -7 333 -6H482ZM332 -782H484Q486 -782 486 -780V-4Q486 -2 484 -2H332Q320 -1 308 0Q200 0 124 -76Q48 -152 48 -260Q48 -368 124 -444Q200 -520 308 -520Q319 -520 330 -520V-780Q330 -782 332 -782ZM308 -364Q264 -364 234 -334Q204 -304 204 -260Q204 -217 234 -186.5Q264 -156 308 -156Q319 -156 330 -159V-362Q319 -364 308 -364ZM308 -152Q262 -152 230 -183.5Q198 -215 198 -260Q198 -306 230 -338Q262 -370 308 -370Q320 -370 333 -367Q334 -366 334 -364V-157Q334 -155 333 -154Q320 -152 308 -152Z"/>
</svg>