<svg xmlns="http://www.w3.org/2000/svg" viewBox="0 -1000 1000 1000">
	<path fill="#000000" d="M282 -588V-730H434V-588ZM82 -588V-730H234V-588ZM516 -270Q516 -260 516.5 -242.5Q517 -225 517 -218L166 -215Q180 -192 204.5 -178Q229 -164 258 -164Q292 -164 395.5 -166.5Q499 -169 507 -172V-16Q488 -13 258 -13Q151 -13 75.5 -88Q0 -163 0 -270Q0 -377 75.5 -452.5Q151 -528 258 -528Q365 -528 440.5 -452.5Q516 -377 516 -270ZM161 -307L357 -304Q353 -308 337 -327Q321 -346 312 -355.5Q303 -365 287.5 -375Q272 -385 258 -385Q244 -385 229 -375.5Q214 -366 204.5 -356Q195 -346 180 -329Q165 -312 161 -307Z"/>
	<path fill="#2200f5" d="M332 -578V-720H484V-578ZM132 -578V-720H284V-578ZM566 -260Q566 -250 566.5 -232.5Q567 -215 567 -208L216 -205Q230 -182 254.5 -168Q279 -154 308 -154Q342 -154 445.5 -156.5Q549 -159 557 -162V-6Q538 -3 308 -3Q201 -3 125.5 -78Q50 -153 50 -260Q50 -367 125.5 -442.5Q201 -518 308 -518Q415 -518 490.5 -442.5Q566 -367 566 -260ZM211 -297L407 -294Q403 -298 387 -317Q371 -336 362 -345.5Q353 -355 337.5 -365Q322 -375 308 -375Q294 -375 279 -365.5Q264 -356 254.5 -346Q245 -336 230 -319Q215 -302 211 -297Z"/>
	<path fill="#00a0e1" d="M334 -718V-580H482V-718ZM330 -578V-720Q330 -722 332 -722H484Q486 -722 486 -720V-578Q486 -576 484 -576H332Q330 -576 330 -578ZM134 -718V-580H282V-718ZM130 -578V-720Q130 -722 132 -722H284Q286 -722 286 -720V-578Q286 -576 284 -576H132Q130 -576 130 -578ZM564 -210Q564 -218 564 -234.5Q564 -251 564 -260Q564 -366 489 -441Q414 -516 308 -516Q202 -516 127 -441Q52 -366 52 -260Q52 -154 127 -80Q202 -6 308 -6Q514 -6 554 -8V-159Q535 -156 438.5 -154Q342 -152 308 -152Q278 -152 253 -166Q228 -180 214 -204Q213 -205 213 -205Q213 -208 216 -208ZM568 -260Q568 -251 569 -233.5Q570 -216 570 -208Q570 -206 567 -206L220 -203Q251 -156 308 -156Q339 -156 444 -159Q549 -162 556 -164Q557 -164 557 -164Q560 -164 560 -162V-6Q560 -4 557 -4Q538 0 308 0Q200 0 124 -76Q48 -152 48 -260Q48 -368 124 -444Q200 -520 308 -520Q416 -520 492 -444Q568 -368 568 -260ZM401 -297Q399 -299 386 -314.5Q373 -330 367 -336.5Q361 -343 349.5 -353.5Q338 -364 328 -368.5Q318 -373 308 -373Q298 -373 288 -368.5Q278 -364 267.5 -354Q257 -344 250 -337Q243 -330 231.5 -316.5Q220 -303 216 -299ZM308 -378Q322 -378 338 -368Q354 -358 363.5 -348.5Q373 -339 389 -319.5Q405 -300 409 -296Q409 -295 409 -294Q409 -292 407 -292L211 -294Q208 -294 208 -297Q208 -298 209 -298Q214 -304 229 -321.5Q244 -339 253.5 -349Q263 -359 278.5 -368.5Q294 -378 308 -378Z"/>
</svg>