<svg xmlns="http://www.w3.org/2000/svg" viewBox="0 -1000 1000 1000">
	<path fill="#000000" d="M493 239Q493 239 480 239Q426 239 388.5 201.5Q351 164 351 111Q351 57 388.5 19.5Q426 -18 480 -18H493V59Q485 57 480 57Q458 57 442 73Q426 89 426 111Q426 133 441.5 148.5Q457 164 480 164Q485 164 493 162ZM516 -270Q516 -260 516.5 -242.5Q517 -225 517 -218L166 -215Q180 -192 204.5 -178Q229 -164 258 -164Q292 -164 395.5 -166.5Q499 -169 507 -172V-16Q488 -13 258 -13Q151 -13 75.5 -88Q0 -163 0 -270Q0 -377 75.5 -452.5Q151 -528 258 -528Q365 -528 440.5 -452.5Q516 -377 516 -270ZM161 -307L357 -304Q353 -308 337 -327Q321 -346 312 -355.5Q303 -365 287.5 -375Q272 -385 258 -385Q244 -385 229 -375.5Q214 -366 204.5 -356Q195 -346 180 -329Q165 -312 161 -307Z"/>
	<path fill="#2200f5" d="M543 249Q543 249 530 249Q476 249 438.5 211.5Q401 174 401 121Q401 67 438.5 29.5Q476 -8 530 -8H543V69Q535 67 530 67Q508 67 492 83Q476 99 476 121Q476 143 491.5 158.5Q507 174 530 174Q535 174 543 172ZM566 -260Q566 -250 566.5 -232.5Q567 -215 567 -208L216 -205Q230 -182 254.5 -168Q279 -154 308 -154Q342 -154 445.5 -156.5Q549 -159 557 -162V-6Q538 -3 308 -3Q201 -3 125.5 -78Q50 -153 50 -260Q50 -367 125.5 -442.5Q201 -518 308 -518Q415 -518 490.5 -442.5Q566 -367 566 -260ZM211 -297L407 -294Q403 -298 387 -317Q371 -336 362 -345.5Q353 -355 337.5 -365Q322 -375 308 -375Q294 -375 279 -365.5Q264 -356 254.5 -346Q245 -336 230 -319Q215 -302 211 -297Z"/>
	<path fill="#00a0e1" d="M540 -5H530Q477 -5 440.5 31.5Q404 68 404 121Q404 173 440.5 210Q477 247 530 247H540V175Q534 177 530 177Q506 177 490 160.5Q474 144 474 120.5Q474 97 490 81Q506 65 530 65Q534 65 540 66ZM543 251H530Q475 251 436.5 213Q398 175 398 121Q398 66 436.5 27.5Q475 -11 530 -11H543Q546 -11 546 -8V69Q546 71 543 71Q543 71 542 71Q535 69 530 69Q509 69 493.5 84.5Q478 100 478 121Q478 142 493 156.5Q508 171 530 171Q535 171 542 170Q543 169 543 169Q546 169 546 172V249Q546 251 543 251ZM564 -210Q564 -218 564 -234.5Q564 -251 564 -260Q564 -366 489 -441Q414 -516 308 -516Q202 -516 127 -441Q52 -366 52 -260Q52 -154 127 -80Q202 -6 308 -6Q514 -6 554 -8V-159Q535 -156 438.5 -154Q342 -152 308 -152Q278 -152 253 -166Q228 -180 214 -204Q213 -205 213 -205Q213 -208 216 -208ZM568 -260Q568 -251 569 -233.5Q570 -216 570 -208Q570 -206 567 -206L220 -203Q251 -156 308 -156Q339 -156 444 -159Q549 -162 556 -164Q557 -164 557 -164Q560 -164 560 -162V-6Q560 -4 557 -4Q538 0 308 0Q200 0 124 -76Q48 -152 48 -260Q48 -368 124 -444Q200 -520 308 -520Q416 -520 492 -444Q568 -368 568 -260ZM401 -297Q399 -299 386 -314.5Q373 -330 367 -336.5Q361 -343 349.5 -353.5Q338 -364 328 -368.5Q318 -373 308 -373Q298 -373 288 -368.5Q278 -364 267.5 -354Q257 -344 250 -337Q243 -330 231.5 -316.5Q220 -303 216 -299ZM308 -378Q322 -378 338 -368Q354 -358 363.5 -348.5Q373 -339 389 -319.5Q405 -300 409 -296Q409 -295 409 -294Q409 -292 407 -292L211 -294Q208 -294 208 -297Q208 -298 209 -298Q214 -304 229 -321.5Q244 -339 253.5 -349Q263 -359 278.5 -368.5Q294 -378 308 -378Z"/>
</svg>