<svg xmlns="http://www.w3.org/2000/svg" viewBox="0 -1000 1000 1000">
	<path fill="#000000" d="M414 -762V-594Q383 -620 343 -620Q294 -620 262 -583V-521H359V-369H262V-7H95L97 -369H0V-521H98V-584Q122 -667 189 -719Q256 -771 343 -771Q380 -771 414 -762Z"/>
	<path fill="#2200f5" d="M464 -752V-584Q433 -610 393 -610Q344 -610 312 -573V-511H409V-359H312V3H145L147 -359H50V-511H148V-574Q172 -657 239 -709Q306 -761 393 -761Q430 -761 464 -752Z"/>
	<path fill="#00a0e1" d="M393 -758Q307 -758 240.5 -707Q174 -656 150 -574V-511Q150 -508 148 -508H52V-362H147Q149 -362 149 -359L148 0H310V-359Q310 -362 312 -362H406V-508H312Q310 -508 310 -511V-573Q310 -574 310 -575Q343 -612 393 -612Q431 -612 462 -589V-750Q428 -758 393 -758ZM466 -752V-584Q466 -582 464 -582Q463 -582 462 -582Q432 -608 393 -608Q346 -608 314 -572V-514H409Q412 -514 412 -511V-359Q412 -356 409 -356H314V3Q314 6 312 6H145Q142 6 142 3L144 -356H50Q48 -356 48 -359V-511Q48 -514 50 -514H145L146 -574Q146 -574 146 -575Q169 -658 237 -711Q305 -764 393 -764Q430 -764 465 -754Q466 -754 466 -752Z"/>
</svg>