<svg xmlns="http://www.w3.org/2000/svg" viewBox="0 -1000 1000 1000">
	<path fill="#000000" d="M182 -588V-730H334V-588ZM260 -377Q247 -377 236 -374V-375Q199 -367 175 -338Q151 -309 151 -270Q151 -232 175 -203Q199 -174 236 -166V-167Q247 -164 260 -164Q272 -164 284 -167V-166Q321 -174 345 -203Q369 -232 369 -270Q369 -309 345 -338Q321 -367 284 -375V-374Q272 -377 260 -377ZM259 -13Q258 -13 258 -13Q256 -13 254 -13Q254 -13 250 -13Q213 -13 209 -14Q111 -21 55.5 -92.5Q0 -164 0 -270Q0 -372 69.5 -446.5Q139 -521 240 -527Q246 -528 254 -528Q256 -528 258 -528Q258 -528 259 -528Q260 -528 262 -528Q369 -528 444.5 -453Q520 -378 520 -271Q520 -270 520 -270Q520 -267 520 -263L517 8Q493 91 427.5 143Q362 195 275 195Q104 195 70 186V18Q82 28 161 36Q240 44 275 44Q301 44 327.5 34Q354 24 369 7V-36Q318 -13 262 -13Q260 -13 259 -13Z"/>
	<path fill="#2200f5" d="M232 -578V-720H384V-578ZM310 -367Q297 -367 286 -364V-365Q249 -357 225 -328Q201 -299 201 -260Q201 -222 225 -193Q249 -164 286 -156V-157Q297 -154 310 -154Q322 -154 334 -157V-156Q371 -164 395 -193Q419 -222 419 -260Q419 -299 395 -328Q371 -357 334 -365V-364Q322 -367 310 -367ZM309 -3Q308 -3 308 -3Q306 -3 304 -3Q304 -3 300 -3Q263 -3 259 -4Q161 -11 105.5 -82.5Q50 -154 50 -260Q50 -362 119.5 -436.5Q189 -511 290 -517Q296 -518 304 -518Q306 -518 308 -518Q308 -518 309 -518Q310 -518 312 -518Q419 -518 494.5 -443Q570 -368 570 -261Q570 -260 570 -260Q570 -257 570 -253L567 18Q543 101 477.5 153Q412 205 325 205Q154 205 120 196V28Q132 38 211 46Q290 54 325 54Q351 54 377.5 44Q404 34 419 17V-26Q368 -3 312 -3Q310 -3 309 -3Z"/>
	<path fill="#00a0e1" d="M234 -718V-580H382V-718ZM230 -578V-720Q230 -722 232 -722H384Q386 -722 386 -720V-578Q386 -576 384 -576H232Q230 -576 230 -578ZM286 -362Q285 -362 285 -362Q249 -354 226.5 -326Q204 -298 204 -260Q204 -223 226.5 -195Q249 -167 285 -159Q285 -160 286 -160Q286 -160 287 -159Q297 -157 310 -157Q322 -157 333 -160Q334 -160 334 -160Q335 -160 336 -159Q371 -167 393.5 -195Q416 -223 416 -260Q416 -298 393.5 -326Q371 -354 336 -362Q335 -361 334 -361Q334 -361 333 -361Q322 -364 310 -364Q297 -364 287 -362Q286 -362 286 -362ZM419 -28Q422 -28 422 -26V17Q422 18 421 19Q406 36 378.5 46Q351 56 325 56Q292 56 217.5 49.5Q143 43 122 32V194Q141 198 216.5 200Q292 202 325 202Q411 202 476 151Q541 100 565 18L567 -254Q568 -257 568 -260V-261Q567 -367 492.5 -441.5Q418 -516 312 -516H308Q298 -516 290 -515Q190 -508 121 -434.5Q52 -361 52 -260Q52 -155 107.5 -84Q163 -13 259 -6Q272 -6 300 -6H304Q306 -6 308 -6H312Q368 -6 418 -28Q418 -28 419 -28ZM325 208Q289 208 212 205Q135 202 119 198Q118 198 118 196V28Q118 26 120 26Q121 26 122 26Q133 36 212.5 44Q292 52 325 52Q350 52 376 42Q402 32 416 16V-22Q367 -1 312 -1H308Q306 -1 304 -1H300Q264 -1 259 -2Q160 -8 104 -81Q48 -154 48 -260Q48 -363 118 -438Q188 -513 290 -520Q297 -520 308 -520H312Q420 -520 496 -444.5Q572 -369 572 -261V-260Q572 -257 572 -253L569 18Q569 18 569 19Q546 103 479.5 155.5Q413 208 325 208ZM334 -367Q372 -360 397 -330Q422 -300 422 -260Q422 -221 397 -191Q372 -161 334 -154Q333 -154 332 -154Q321 -152 310 -152Q298 -152 287 -154Q287 -154 286 -154Q248 -161 223 -191Q198 -221 198 -260Q198 -300 223 -330Q248 -360 286 -367Q287 -367 287 -367Q298 -369 310 -369Q321 -369 332 -367Q333 -367 334 -367Z"/>
</svg>