<svg xmlns="http://www.w3.org/2000/svg" viewBox="0 -1000 1000 1000">
	<path fill="#000000" d="M100 -588V-730H252V-588ZM-100 -588V-730H52V-588ZM0 -522H152V-8H0Z"/>
	<path fill="#2200f5" d="M150 -578V-720H302V-578ZM-50 -578V-720H102V-578ZM50 -512H202V2H50Z"/>
	<path fill="#00a0e1" d="M152 -718V-580H300V-718ZM148 -578V-720Q148 -722 150 -722H302Q304 -722 304 -720V-578Q304 -576 302 -576H150Q148 -576 148 -578ZM-48 -718V-580H100V-718ZM-52 -578V-720Q-52 -722 -50 -722H102Q104 -722 104 -720V-578Q104 -576 102 -576H-50Q-52 -576 -52 -578ZM200 -510H52V0H200ZM50 -514H202Q204 -514 204 -512V2Q204 4 202 4H50Q48 4 48 2V-512Q48 -514 50 -514Z"/>
</svg>