<svg xmlns="http://www.w3.org/2000/svg" viewBox="0 -1000 1000 1000">
	<path fill="#000000" d="M76 -588L-106 -770L2 -877L184 -695ZM0 -522H152V-8H0Z"/>
	<path fill="#2200f5" d="M126 -578L-56 -760L52 -867L234 -685ZM50 -512H202V2H50Z"/>
	<path fill="#00a0e1" d="M-52 -760L126 -582L230 -685L52 -863ZM-58 -762L50 -869Q51 -870 52 -870Q53 -870 54 -869L236 -687Q237 -686 237 -685Q237 -684 236 -683L128 -576Q127 -576 126 -576Q125 -576 124 -576L-58 -758Q-59 -759 -59 -760Q-59 -761 -58 -762ZM200 -510H52V0H200ZM50 -514H202Q204 -514 204 -512V2Q204 4 202 4H50Q48 4 48 2V-512Q48 -514 50 -514Z"/>
</svg>