<svg xmlns="http://www.w3.org/2000/svg" viewBox="0 -1000 1000 1000">
	<path fill="#000000" d="M201 -705V-629Q200 -627 192.5 -618Q185 -609 169 -598.5Q153 -588 137 -588H87Q71 -588 48.5 -602Q26 -616 10 -616Q-1 -616 -16 -609Q-31 -602 -40 -595L-49 -588V-664Q-17 -692 8 -692Q25 -692 48.5 -678.5Q72 -665 88 -665Q111 -665 133 -665Q148 -665 165 -675Q182 -685 191 -695ZM0 -522H152V-8H0Z"/>
	<path fill="#2200f5" d="M251 -695V-619Q250 -617 242.5 -608Q235 -599 219 -588.5Q203 -578 187 -578H137Q121 -578 98.5 -592Q76 -606 60 -606Q49 -606 34 -599Q19 -592 10 -585L1 -578V-654Q33 -682 58 -682Q75 -682 98.5 -668.5Q122 -655 138 -655Q161 -655 183 -655Q198 -655 215 -665Q232 -675 241 -685ZM50 -512H202V2H50Z"/>
	<path fill="#00a0e1" d="M138 -652Q121 -652 97.5 -666Q74 -680 58 -680Q36 -680 4 -653V-583Q37 -609 60 -609Q77 -609 99 -595Q121 -581 137 -581H187Q206 -581 222.5 -594Q239 -607 248 -619V-688Q214 -652 183 -652Q183 -652 138 -652ZM58 -685Q75 -685 98.5 -671Q122 -657 138 -657Q161 -657 183 -657Q197 -657 214.5 -668Q232 -679 238.5 -685.5Q245 -692 249 -696Q250 -697 251 -697Q253 -697 253 -695V-619Q253 -616 245 -606.5Q237 -597 220.5 -586.5Q204 -576 187 -576H137Q120 -576 98 -590Q76 -604 60 -604Q50 -604 35.5 -597Q21 -590 12 -583L3 -576Q2 -576 1 -576Q-1 -576 -1 -578V-654Q-1 -655 0 -656Q32 -685 58 -685ZM200 -510H52V0H200ZM50 -514H202Q204 -514 204 -512V2Q204 4 202 4H50Q48 4 48 2V-512Q48 -514 50 -514Z"/>
</svg>