<svg xmlns="http://www.w3.org/2000/svg" viewBox="0 -1000 1000 1000">
	<path fill="#000000" d="M140 -842L211 -1010H212H287H288L340 -842H264L244 -950L216 -842ZM0 185V17Q31 43 71 43Q120 43 152 6V-527H319L316 7Q292 90 225 142Q158 194 71 194Q34 194 0 185ZM164 -782H316V-640H164Z"/>
	<path fill="#2200f5" d="M190 -832L261 -1000H262H337H338L390 -832H314L294 -940L266 -832ZM50 195V27Q81 53 121 53Q170 53 202 16V-517H369L366 17Q342 100 275 152Q208 204 121 204Q84 204 50 195ZM214 -772H366V-630H214Z"/>
	<path fill="#00a0e1" d="M296 -940L317 -835H387L336 -997H263L193 -835H264L291 -940Q292 -942 294 -942Q296 -942 296 -940ZM261 -1002H338Q339 -1002 340 -1000L393 -833Q393 -833 393 -832Q393 -830 390 -830H314Q312 -830 312 -832L293 -928L268 -832Q267 -830 266 -830H190Q187 -830 187 -832Q187 -833 187 -833L259 -1000Q259 -1002 261 -1002ZM121 202Q207 202 273.5 150.5Q340 99 364 17L366 -514H204V16Q204 17 204 18Q171 55 121 56Q83 56 52 32V193Q86 202 121 202ZM48 195V27Q48 24 50 24Q51 24 52 25Q82 50 121 50Q168 50 200 15V-517Q200 -520 202 -520H369Q372 -520 372 -517L368 17Q368 17 368 18Q345 101 277 153.5Q209 206 121 206Q84 206 49 197Q48 197 48 195ZM364 -770H216V-632H364ZM214 -774H366Q368 -774 368 -772V-630Q368 -628 366 -628H214Q212 -628 212 -630V-772Q212 -774 214 -774Z"/>
</svg>