<svg xmlns="http://www.w3.org/2000/svg" viewBox="0 -1000 1000 1000">
	<path fill="#000000" d="M249 -594L141 -701L323 -883L431 -776ZM0 -532H169V-522Q208 -534 249 -534Q336 -534 403 -482Q470 -430 494 -347L497 -16H330V-346Q298 -383 249 -383Q201 -383 169 -348V-16H0Z"/>
	<path fill="#2200f5" d="M299 -584L191 -691L373 -873L481 -766ZM50 -522H219V-512Q258 -524 299 -524Q386 -524 453 -472Q520 -420 544 -337L547 -6H380V-336Q348 -373 299 -373Q251 -373 219 -338V-6H50Z"/>
	<path fill="#00a0e1" d="M195 -691L299 -588L477 -766L373 -869ZM189 -693L371 -875Q372 -876 373 -876Q374 -876 375 -875L483 -768Q484 -767 484 -766Q484 -765 483 -764L301 -582Q300 -582 299 -582Q298 -582 297 -582L189 -689Q188 -690 188 -691Q188 -692 189 -693ZM216 -520H52V-8H216V-338Q216 -339 217 -340Q250 -376 299 -376Q349 -376 382 -338Q382 -337 382 -336V-8H544L542 -337Q518 -419 451.5 -470.5Q385 -522 299 -522Q258 -522 220 -510Q219 -510 219 -510Q216 -510 216 -512ZM50 -524H219Q222 -524 222 -522V-515Q259 -526 299 -526Q387 -526 455 -473.5Q523 -421 546 -338Q546 -337 546 -337L550 -6Q550 -4 547 -4H380Q378 -4 378 -6V-335Q346 -370 299 -370Q252 -370 222 -337V-6Q222 -4 219 -4H50Q48 -4 48 -6V-522Q48 -524 50 -524Z"/>
</svg>