<svg xmlns="http://www.w3.org/2000/svg" viewBox="0 -1000 1000 1000">
	<path fill="#000000" d="M373 -711V-635Q372 -633 364.5 -624Q357 -615 341 -604.5Q325 -594 309 -594H259Q243 -594 220.5 -608Q198 -622 182 -622Q171 -622 156 -615Q141 -608 132 -601L123 -594V-670Q155 -698 180 -698Q197 -698 220.5 -684.5Q244 -671 260 -671Q283 -671 305 -671Q320 -671 337 -681Q354 -691 363 -701ZM0 -532H169V-522Q208 -534 249 -534Q336 -534 403 -482Q470 -430 494 -347L497 -16H330V-346Q298 -383 249 -383Q201 -383 169 -348V-16H0Z"/>
	<path fill="#2200f5" d="M423 -701V-625Q422 -623 414.5 -614Q407 -605 391 -594.5Q375 -584 359 -584H309Q293 -584 270.5 -598Q248 -612 232 -612Q221 -612 206 -605Q191 -598 182 -591L173 -584V-660Q205 -688 230 -688Q247 -688 270.5 -674.5Q294 -661 310 -661Q333 -661 355 -661Q370 -661 387 -671Q404 -681 413 -691ZM50 -522H219V-512Q258 -524 299 -524Q386 -524 453 -472Q520 -420 544 -337L547 -6H380V-336Q348 -373 299 -373Q251 -373 219 -338V-6H50Z"/>
	<path fill="#00a0e1" d="M310 -658Q293 -658 269.5 -672Q246 -686 230 -686Q208 -686 176 -659V-589Q209 -615 232 -615Q249 -615 271 -601Q293 -587 309 -587H359Q378 -587 394.5 -600Q411 -613 420 -625V-694Q386 -658 355 -658Q355 -658 310 -658ZM230 -691Q247 -691 270.5 -677Q294 -663 310 -663Q333 -663 355 -663Q369 -663 386.5 -674Q404 -685 410.5 -691.5Q417 -698 421 -702Q422 -703 423 -703Q425 -703 425 -701V-625Q425 -622 417 -612.5Q409 -603 392.5 -592.5Q376 -582 359 -582H309Q292 -582 270 -596Q248 -610 232 -610Q222 -610 207.5 -603Q193 -596 184 -589L175 -582Q174 -582 173 -582Q171 -582 171 -584V-660Q171 -661 172 -662Q204 -691 230 -691ZM216 -520H52V-8H216V-338Q216 -339 217 -340Q250 -376 299 -376Q349 -376 382 -338Q382 -337 382 -336V-8H544L542 -337Q518 -419 451.5 -470.5Q385 -522 299 -522Q258 -522 220 -510Q219 -510 219 -510Q216 -510 216 -512ZM50 -524H219Q222 -524 222 -522V-515Q259 -526 299 -526Q387 -526 455 -473.5Q523 -421 546 -338Q546 -337 546 -337L550 -6Q550 -4 547 -4H380Q378 -4 378 -6V-335Q346 -370 299 -370Q252 -370 222 -337V-6Q222 -4 219 -4H50Q48 -4 48 -6V-522Q48 -524 50 -524Z"/>
</svg>