<svg xmlns="http://www.w3.org/2000/svg" viewBox="0 -1000 1000 1000">
	<path fill="#000000" d="M158 -588L229 -756H230H305H306L358 -588H282L262 -696L234 -588ZM259 -13Q258 -13 258 -13Q256 -13 254 -13Q246 -13 240 -14Q139 -20 69.5 -94Q0 -168 0 -270Q0 -372 69.5 -446.5Q139 -521 240 -527Q246 -528 254 -528Q256 -528 258 -528Q258 -528 259 -528Q260 -528 262 -528Q369 -528 444.5 -452.5Q520 -377 520 -270Q520 -163 444.5 -88Q369 -13 262 -13Q260 -13 259 -13ZM260 -377Q247 -377 236 -374V-375Q199 -367 175 -338Q151 -309 151 -270Q151 -232 175 -203Q199 -174 236 -166V-167Q247 -164 260 -164Q272 -164 284 -167V-166Q321 -174 345 -203Q369 -232 369 -270Q369 -309 345 -338Q321 -367 284 -375V-374Q272 -377 260 -377Z"/>
	<path fill="#2200f5" d="M208 -578L279 -746H280H355H356L408 -578H332L312 -686L284 -578ZM309 -3Q308 -3 308 -3Q306 -3 304 -3Q296 -3 290 -4Q189 -10 119.5 -84Q50 -158 50 -260Q50 -362 119.5 -436.5Q189 -511 290 -517Q296 -518 304 -518Q306 -518 308 -518Q308 -518 309 -518Q310 -518 312 -518Q419 -518 494.5 -442.5Q570 -367 570 -260Q570 -153 494.5 -78Q419 -3 312 -3Q310 -3 309 -3ZM310 -367Q297 -367 286 -364V-365Q249 -357 225 -328Q201 -299 201 -260Q201 -222 225 -193Q249 -164 286 -156V-157Q297 -154 310 -154Q322 -154 334 -157V-156Q371 -164 395 -193Q419 -222 419 -260Q419 -299 395 -328Q371 -357 334 -365V-364Q322 -367 310 -367Z"/>
	<path fill="#00a0e1" d="M314 -686L335 -581H405L354 -743H281L211 -581H282L309 -686Q310 -688 312 -688Q314 -688 314 -686ZM279 -748H356Q357 -748 358 -746L411 -579Q411 -579 411 -578Q411 -576 408 -576H332Q330 -576 330 -578L311 -674L286 -578Q285 -576 284 -576H208Q205 -576 205 -578Q205 -579 205 -579L277 -746Q277 -748 279 -748ZM568 -260Q568 -366 493 -441Q418 -516 312 -516H308Q298 -516 290 -515Q190 -508 121 -434.5Q52 -361 52 -260Q52 -159 121 -86Q190 -13 290 -6Q298 -6 308 -6H312Q418 -6 493 -80Q568 -154 568 -260ZM48 -260Q48 -363 118 -438Q188 -513 290 -520Q297 -520 308 -520H312Q420 -520 496 -444Q572 -368 572 -260Q572 -152 496 -76.5Q420 -1 312 -1H308Q297 -1 290 -1Q188 -8 118 -82.5Q48 -157 48 -260ZM286 -362Q285 -362 285 -362Q249 -354 226.5 -326Q204 -298 204 -260Q204 -223 226.5 -195Q249 -167 285 -159Q285 -160 286 -160Q286 -160 287 -159Q297 -157 310 -157Q322 -157 333 -160Q334 -160 334 -160Q335 -160 336 -159Q371 -167 393.5 -195Q416 -223 416 -260Q416 -298 393.5 -326Q371 -354 336 -362Q335 -361 334 -361Q334 -361 333 -361Q322 -364 310 -364Q297 -364 287 -362Q286 -362 286 -362ZM334 -367Q372 -360 397 -330Q422 -300 422 -260Q422 -221 397 -191Q372 -161 334 -154Q333 -154 332 -154Q321 -152 310 -152Q298 -152 287 -154Q287 -154 286 -154Q248 -161 223 -191Q198 -221 198 -260Q198 -300 223 -330Q248 -360 286 -367Q287 -367 287 -367Q298 -369 310 -369Q321 -369 332 -367Q333 -367 334 -367Z"/>
</svg>