<svg xmlns="http://www.w3.org/2000/svg" viewBox="0 -1000 1000 1000">
	<path fill="#000000" d="M260 -377Q247 -377 236 -374V-375Q199 -367 175 -338Q151 -309 151 -270Q151 -232 175 -203Q199 -174 236 -166V-167Q247 -164 260 -164Q272 -164 284 -167V-166Q321 -174 345 -203Q369 -232 369 -270Q369 -309 345 -338Q321 -367 284 -375V-374Q272 -377 260 -377ZM543 -307L739 -304Q735 -308 719 -327Q703 -346 694 -355.5Q685 -365 669.5 -375Q654 -385 640 -385Q626 -385 611 -375.5Q596 -366 586.5 -356Q577 -346 562 -329Q547 -312 543 -307ZM259 -13Q259 -13 258 -13Q256 -13 254 -13Q246 -13 240 -14Q139 -20 69.5 -94Q0 -168 0 -270Q0 -372 69.5 -446.5Q139 -521 240 -527Q246 -528 254 -528Q256 -528 258 -528Q258 -528 259 -528Q260 -528 262 -528Q375 -528 451 -446Q527 -528 640 -528Q747 -528 822.5 -452.5Q898 -377 898 -270Q898 -260 898.5 -242.5Q899 -225 899 -218L548 -215Q562 -192 586.5 -178Q611 -164 640 -164Q674 -164 777.5 -166.5Q881 -169 889 -172V-16Q870 -13 640 -13Q527 -13 451 -95Q375 -13 262 -13Q261 -13 260 -13Q259 -13 259 -13Z"/>
	<path fill="#2200f5" d="M310 -367Q297 -367 286 -364V-365Q249 -357 225 -328Q201 -299 201 -260Q201 -222 225 -193Q249 -164 286 -156V-157Q297 -154 310 -154Q322 -154 334 -157V-156Q371 -164 395 -193Q419 -222 419 -260Q419 -299 395 -328Q371 -357 334 -365V-364Q322 -367 310 -367ZM593 -297L789 -294Q785 -298 769 -317Q753 -336 744 -345.5Q735 -355 719.5 -365Q704 -375 690 -375Q676 -375 661 -365.5Q646 -356 636.5 -346Q627 -336 612 -319Q597 -302 593 -297ZM309 -3Q309 -3 308 -3Q306 -3 304 -3Q296 -3 290 -4Q189 -10 119.5 -84Q50 -158 50 -260Q50 -362 119.5 -436.5Q189 -511 290 -517Q296 -518 304 -518Q306 -518 308 -518Q308 -518 309 -518Q310 -518 312 -518Q425 -518 501 -436Q577 -518 690 -518Q797 -518 872.5 -442.5Q948 -367 948 -260Q948 -250 948.5 -232.5Q949 -215 949 -208L598 -205Q612 -182 636.5 -168Q661 -154 690 -154Q724 -154 827.5 -156.5Q931 -159 939 -162V-6Q920 -3 690 -3Q577 -3 501 -85Q425 -3 312 -3Q311 -3 310 -3Q309 -3 309 -3Z"/>
	<path fill="#00a0e1" d="M286 -362Q285 -362 285 -362Q249 -354 226.5 -326Q204 -298 204 -260Q204 -223 226.5 -195Q249 -167 285 -159Q285 -160 286 -160Q286 -160 287 -159Q297 -157 310 -157Q322 -157 333 -160Q334 -160 334 -160Q335 -160 336 -159Q371 -167 393.5 -195Q416 -223 416 -260Q416 -298 393.5 -326Q371 -354 336 -362Q335 -361 334 -361Q334 -361 333 -361Q322 -364 310 -364Q297 -364 287 -362Q286 -362 286 -362ZM783 -297Q781 -299 768 -314.5Q755 -330 749 -336.5Q743 -343 731.5 -353.5Q720 -364 710 -368.5Q700 -373 690 -373Q680 -373 670 -368.5Q660 -364 649.5 -354Q639 -344 632 -337Q625 -330 613.5 -316.5Q602 -303 598 -299ZM690 -378Q704 -378 720 -368Q736 -358 745.5 -348.5Q755 -339 771 -319.5Q787 -300 791 -296Q791 -295 791 -294Q791 -292 789 -292L593 -294Q590 -294 590 -297Q590 -298 591 -298Q596 -304 611 -321.5Q626 -339 635.5 -349Q645 -359 660.5 -368.5Q676 -378 690 -378ZM946 -210Q946 -218 946 -234.5Q946 -251 946 -260Q946 -366 871 -441Q796 -516 690 -516Q578 -516 503 -434Q502 -434 501 -434Q500 -434 499 -434Q424 -516 312 -516H308Q298 -516 290 -515Q190 -508 121 -434.5Q52 -361 52 -260Q52 -159 121 -86Q190 -13 290 -6Q298 -6 308 -6H312Q423 -6 499 -87Q500 -87 501 -87Q502 -87 503 -87Q579 -6 690 -6Q896 -6 936 -8V-159Q923 -157 859.5 -155Q796 -153 747 -152Q698 -151 690 -152Q660 -152 635 -166Q610 -180 596 -204Q595 -205 595 -205Q595 -208 598 -208ZM950 -260Q950 -251 951 -233.5Q952 -216 952 -208Q952 -206 949 -206L602 -203Q633 -156 690 -156Q721 -156 826 -159Q931 -162 938 -164Q939 -164 939 -164Q942 -164 942 -162V-6Q942 -4 939 -4Q920 -1 690 0Q578 0 501 -81Q424 -1 312 -1H308Q297 -1 290 -1Q188 -8 118 -82.5Q48 -157 48 -260Q48 -363 118 -438Q188 -513 290 -520Q297 -520 308 -520H312Q424 -520 501 -440Q578 -520 690 -520Q798 -520 874 -444Q950 -368 950 -260ZM334 -367Q372 -360 397 -330Q422 -300 422 -260Q422 -221 397 -191Q372 -161 334 -154Q333 -154 332 -154Q321 -152 310 -152Q298 -152 287 -154Q287 -154 286 -154Q248 -161 223 -191Q198 -221 198 -260Q198 -300 223 -330Q248 -360 286 -367Q287 -367 287 -367Q298 -369 310 -369Q321 -369 332 -367Q333 -367 334 -367Z"/>
</svg>