<svg xmlns="http://www.w3.org/2000/svg" viewBox="0 -1000 1000 1000">
	<path fill="#000000" d="M0 -270Q0 -377 74.5 -452.5Q149 -528 258 -528Q258 -528 259 -528Q260 -528 262 -528Q301 -528 338 -517L408 -635L514 -574L443 -454Q520 -378 520 -270Q520 -163 444.5 -88Q369 -13 262 -13Q261 -13 260 -13Q259 -13 259 -13Q259 -13 258 -13Q223 -13 190 -22L134 73L28 12L83 -81Q44 -117 22 -166Q0 -215 0 -270ZM256 -377Q245 -376 236 -374V-375Q199 -367 175 -338Q151 -309 151 -270Q151 -243 164 -219ZM274 -165Q279 -166 284 -167V-166Q321 -174 345 -203Q369 -232 369 -270Q369 -292 360 -313Z"/>
	<path fill="#2200f5" d="M50 -260Q50 -367 124.5 -442.5Q199 -518 308 -518Q308 -518 309 -518Q310 -518 312 -518Q351 -518 388 -507L458 -625L564 -564L493 -444Q570 -368 570 -260Q570 -153 494.5 -78Q419 -3 312 -3Q311 -3 310 -3Q309 -3 309 -3Q309 -3 308 -3Q273 -3 240 -12L184 83L78 22L133 -71Q94 -107 72 -156Q50 -205 50 -260ZM306 -367Q295 -366 286 -364V-365Q249 -357 225 -328Q201 -299 201 -260Q201 -233 214 -209ZM324 -155Q329 -156 334 -157V-156Q371 -164 395 -193Q419 -222 419 -260Q419 -282 410 -303Z"/>
	<path fill="#00a0e1" d="M52 -260Q52 -149 134 -73Q135 -72 135 -71Q135 -71 135 -70L81 21L183 80L238 -13Q238 -15 240 -15Q240 -15 240 -14Q273 -6 308 -6Q308 -6 312 -6Q418 -6 493 -80Q568 -154 568 -260Q568 -367 492 -442Q491 -443 491 -444Q491 -445 491 -445L561 -563L459 -622L391 -505Q390 -504 388 -504Q351 -516 312 -516H308Q200 -516 126 -441Q52 -366 52 -260ZM48 -260Q48 -368 123 -444Q198 -520 308 -520Q308 -520 312 -520Q351 -520 387 -510L456 -626Q457 -628 458 -628Q459 -628 459 -627L565 -566Q566 -565 566 -564Q566 -563 566 -563L497 -444Q572 -368 572 -260Q572 -152 496 -76.5Q420 -1 312 -1H308Q274 -1 241 -9L186 84Q185 86 184 86Q183 86 183 85L77 24Q76 23 76 22Q76 21 76 21L130 -71Q48 -148 48 -260ZM286 -362Q285 -362 285 -362Q249 -354 226.5 -326Q204 -298 204 -260Q204 -236 214 -214L302 -364Q294 -363 287 -362Q286 -362 286 -362ZM287 -367Q298 -369 306 -369Q309 -369 309 -367Q309 -366 309 -366L216 -208Q215 -207 213.5 -207Q212 -207 212 -208Q198 -232 198 -260Q198 -300 223 -330Q248 -360 286 -367Q287 -367 287 -367ZM329 -159Q329 -159 331 -159.5Q333 -160 334 -160Q335 -160 336 -159Q371 -167 393.5 -195Q416 -223 416 -260Q416 -279 410 -297ZM332 -154Q326 -153 324 -153Q321 -153 321 -155Q321 -156 322 -156L408 -304Q409 -305 410 -305Q412 -305 413 -304Q422 -283 422 -260Q422 -221 397 -191Q372 -161 334 -154Q333 -154 332 -154Z"/>
</svg>