<svg xmlns="http://www.w3.org/2000/svg" viewBox="0 -1000 1000 1000">
	<path fill="#000000" d="M152 192H0V-519H152Q160 -520 176 -520Q283 -520 358.5 -445Q434 -370 434 -263Q434 -156 358.5 -80.5Q283 -5 176 -5Q160 -5 152 -6ZM152 -366V-159Q164 -156 176 -156Q221 -156 252 -187Q283 -218 283 -263Q283 -307 252 -338Q221 -369 176 -369Q164 -369 152 -366Z"/>
	<path fill="#2200f5" d="M202 202H50V-509H202Q210 -510 226 -510Q333 -510 408.5 -435Q484 -360 484 -253Q484 -146 408.5 -70.5Q333 5 226 5Q210 5 202 4ZM202 -356V-149Q214 -146 226 -146Q271 -146 302 -177Q333 -208 333 -253Q333 -297 302 -328Q271 -359 226 -359Q214 -359 202 -356Z"/>
	<path fill="#00a0e1" d="M52 200H200V4Q200 2 202 2Q210 2 226 2Q332 2 407 -72.5Q482 -147 482 -253Q482 -359 407 -433.5Q332 -508 226 -508Q210 -508 202 -507Q202 -507 202 -506H52ZM202 204H50Q48 204 48 202V-509Q48 -512 50 -512H202Q210 -513 226 -513Q226 -513 226 -512Q334 -512 410 -436.5Q486 -361 486 -253Q486 -145 410 -69Q334 7 226 8Q222 8 215 7.5Q208 7 204 7V202Q204 204 202 204ZM226 -148Q270 -148 300 -178.5Q330 -209 330 -253Q330 -296 300 -326Q270 -356 226 -356Q215 -356 204 -354V-151Q215 -148 226 -148ZM226 -362Q272 -362 304 -330Q336 -298 336 -253Q336 -207 304 -175.5Q272 -144 226 -144Q214 -144 201 -147Q200 -147 200 -149V-356Q200 -358 201 -358Q214 -362 226 -362Z"/>
</svg>