<svg xmlns="http://www.w3.org/2000/svg" viewBox="0 -1000 1000 1000">
	<path fill="#000000" d="M282 192V-6Q274 -5 258 -5Q151 -5 75.5 -80.5Q0 -156 0 -263Q0 -370 75.5 -445Q151 -520 258 -520Q274 -520 282 -519H434V192ZM282 -366Q270 -369 258 -369Q213 -369 182 -338Q151 -307 151 -263Q151 -218 182 -187Q213 -156 258 -156Q270 -156 282 -159Z"/>
	<path fill="#2200f5" d="M332 202V4Q324 5 308 5Q201 5 125.5 -70.5Q50 -146 50 -253Q50 -360 125.5 -435Q201 -510 308 -510Q324 -510 332 -509H484V202ZM332 -356Q320 -359 308 -359Q263 -359 232 -328Q201 -297 201 -253Q201 -208 232 -177Q263 -146 308 -146Q320 -146 332 -149Z"/>
	<path fill="#00a0e1" d="M482 -506H332Q332 -506 332 -507Q324 -508 308 -508Q202 -508 127 -433.5Q52 -359 52 -253Q52 -147 127 -72Q202 3 308 2Q324 2 332 2Q334 2 334 4V200H482ZM308 -356Q264 -356 234 -326Q204 -296 204 -253Q204 -209 234 -178.5Q264 -148 308 -148Q319 -148 330 -151V-354Q319 -356 308 -356ZM334 -356V-149Q334 -147 333 -147Q320 -144 308 -144Q262 -144 230 -175.5Q198 -207 198 -253Q198 -298 230 -330Q262 -362 308 -362Q320 -362 333 -358Q334 -358 334 -356ZM332 -512H484Q486 -512 486 -509V202Q486 204 484 204H332Q330 204 330 202V7Q322 8 309 8Q308 8 308 8Q200 8 124 -68.5Q48 -145 48 -253Q48 -361 124 -436.5Q200 -512 308 -512Q312 -512 320 -512Q328 -512 332 -512Z"/>
</svg>