<svg xmlns="http://www.w3.org/2000/svg" viewBox="0 -1000 1000 1000">
	<path fill="#000000" d="M243 -594L135 -701L317 -883L425 -776ZM0 -532H169V-522Q208 -534 249 -534Q329 -534 393.5 -483Q458 -432 487 -355H322V-354Q291 -383 249 -383Q201 -383 169 -348V-16H0Z"/>
	<path fill="#2200f5" d="M293 -584L185 -691L367 -873L475 -766ZM50 -522H219V-512Q258 -524 299 -524Q379 -524 443.5 -473Q508 -422 537 -345H372V-344Q341 -373 299 -373Q251 -373 219 -338V-6H50Z"/>
	<path fill="#00a0e1" d="M189 -691L293 -588L471 -766L367 -869ZM183 -693L365 -875Q366 -876 367 -876Q368 -876 369 -875L477 -768Q478 -767 478 -766Q478 -765 477 -764L295 -582Q294 -582 293 -582Q292 -582 291 -582L183 -689Q182 -690 182 -691Q182 -692 183 -693ZM216 -520H52V-8H216V-338Q216 -339 217 -340Q250 -376 299 -376Q341 -376 372 -348H533Q504 -422 440.5 -472Q377 -522 299 -522Q258 -522 220 -510Q219 -510 219 -510Q216 -510 216 -512ZM50 -524H219Q222 -524 222 -522V-515Q259 -526 299 -526Q380 -526 445 -474.5Q510 -423 539 -346Q540 -345 540 -345Q540 -342 537 -342H374Q373 -342 372 -342Q371 -342 370 -342Q340 -370 299 -370Q252 -370 222 -337V-6Q222 -4 219 -4H50Q48 -4 48 -6V-522Q48 -524 50 -524Z"/>
</svg>