<svg xmlns="http://www.w3.org/2000/svg" viewBox="0 -1000 1000 1000">
	<path fill="#000000" d="M144 -762H220L248 -654L268 -762H344L292 -594H291H216H215ZM0 -532H169V-522Q208 -534 249 -534Q329 -534 393.5 -483Q458 -432 487 -355H322V-354Q291 -383 249 -383Q201 -383 169 -348V-16H0Z"/>
	<path fill="#2200f5" d="M194 -752H270L298 -644L318 -752H394L342 -584H341H266H265ZM50 -522H219V-512Q258 -524 299 -524Q379 -524 443.5 -473Q508 -422 537 -345H372V-344Q341 -373 299 -373Q251 -373 219 -338V-6H50Z"/>
	<path fill="#00a0e1" d="M296 -643L268 -750H198L267 -586H340L391 -750H320L300 -644Q300 -642 298 -642Q296 -642 296 -643ZM194 -754H270Q272 -754 272 -753L298 -656L316 -752Q316 -754 318 -754H394Q396 -754 396 -752Q396 -752 396 -751L344 -583Q344 -582 342 -582H265Q263 -582 263 -583L192 -751Q192 -751 192 -752Q192 -754 194 -754ZM216 -520H52V-8H216V-338Q216 -339 217 -340Q250 -376 299 -376Q341 -376 372 -348H533Q504 -422 440.5 -472Q377 -522 299 -522Q258 -522 220 -510Q219 -510 219 -510Q216 -510 216 -512ZM50 -524H219Q222 -524 222 -522V-515Q259 -526 299 -526Q380 -526 445 -474.5Q510 -423 539 -346Q540 -345 540 -345Q540 -342 537 -342H374Q373 -342 372 -342Q371 -342 370 -342Q340 -370 299 -370Q252 -370 222 -337V-6Q222 -4 219 -4H50Q48 -4 48 -6V-522Q48 -524 50 -524Z"/>
</svg>