<svg xmlns="http://www.w3.org/2000/svg" viewBox="0 -1000 1000 1000">
	<path fill="#000000" d="M119 -756H195L223 -648L243 -756H319L267 -588H266H191H190ZM19 -57L86 -169Q93 -162 108 -157Q148 -140 179.5 -144Q211 -148 231 -172Q254 -199 209 -211Q197 -214 155 -221Q89 -247 49 -281.5Q9 -316 1 -358Q-7 -400 31 -444Q78 -501 178 -512.5Q278 -524 374 -483Q392 -475 396 -472L329 -342Q315 -351 307 -354Q266 -370 246 -366Q226 -362 206 -338Q181 -312 185.5 -302.5Q190 -293 237 -285Q276 -268 305 -253.5Q334 -239 360.5 -219Q387 -199 398.5 -179.5Q410 -160 407.5 -135.5Q405 -111 383 -85Q336 -28 236 -15.5Q136 -3 41 -44Q33 -46 19 -57Z"/>
	<path fill="#2200f5" d="M169 -746H245L273 -638L293 -746H369L317 -578H316H241H240ZM69 -47L136 -159Q143 -152 158 -147Q198 -130 229.5 -134Q261 -138 281 -162Q304 -189 259 -201Q247 -204 205 -211Q139 -237 99 -271.5Q59 -306 51 -348Q43 -390 81 -434Q128 -491 228 -502.5Q328 -514 424 -473Q442 -465 446 -462L379 -332Q365 -341 357 -344Q316 -360 296 -356Q276 -352 256 -328Q231 -302 235.5 -292.5Q240 -283 287 -275Q326 -258 355 -243.5Q384 -229 410.5 -209Q437 -189 448.5 -169.5Q460 -150 457.5 -125.5Q455 -101 433 -75Q386 -18 286 -5.5Q186 7 91 -34Q83 -36 69 -47Z"/>
	<path fill="#00a0e1" d="M271 -637L243 -744H173L242 -580H315L366 -744H295L275 -638Q275 -636 273 -636Q271 -636 271 -637ZM169 -748H245Q247 -748 247 -747L273 -650L291 -746Q291 -748 293 -748H369Q371 -748 371 -746Q371 -746 371 -745L319 -577Q319 -576 317 -576H240Q238 -576 238 -577L167 -745Q167 -745 167 -746Q167 -748 169 -748ZM242 -5Q303 -5 353 -24Q403 -43 431 -77Q456 -106 456 -134Q456 -173 410.5 -206Q365 -239 286 -273Q257 -278 245 -282.5Q233 -287 233 -296Q233 -305 254 -330Q279 -359 306 -359Q326 -359 357 -346Q366 -344 378 -336L442 -461Q440 -463 423 -471Q349 -502 269 -502Q209 -502 159.5 -484Q110 -466 83 -432Q52 -397 52 -361Q52 -318 93 -280Q134 -242 205 -213Q209 -213 218 -211.5Q227 -210 231.5 -209Q236 -208 244.5 -206.5Q253 -205 257.5 -204Q262 -203 268 -201Q274 -199 277.5 -197Q281 -195 284.5 -192Q288 -189 290 -186Q292 -183 292 -179Q292 -171 283 -160Q257 -130 216 -130Q188 -130 157 -145Q143 -149 136 -155L72 -48Q84 -38 91 -36Q91 -36 92 -36Q163 -5 242 -5ZM136 -162Q137 -162 137 -161Q144 -154 158 -149Q159 -149 159 -149Q189 -135 216 -135Q255 -135 279 -164Q287 -173 287 -179Q287 -185 280.5 -189.5Q274 -194 259 -198Q244 -202 235 -203.5Q226 -205 204 -209Q132 -237 90 -276.5Q48 -316 48 -361Q48 -399 79 -436Q107 -470 157.5 -488.5Q208 -507 269 -507Q350 -507 425 -475Q443 -467 447 -464Q448 -463 448 -462Q448 -461 448 -461L381 -331Q380 -330 379 -330Q378 -330 376 -331Q364 -339 356 -342Q325 -354 306 -354Q281 -354 258 -326Q238 -303 238 -296Q238 -286 287 -277Q287 -277 288 -277Q368 -243 414.5 -209Q461 -175 461 -134Q461 -105 435 -73Q406 -38 355 -19Q304 0 242 0Q162 0 90 -32Q82 -34 67 -45Q66 -46 66 -47Q66 -48 66 -48L133 -160Q134 -162 136 -162Z"/>
</svg>