<svg xmlns="http://www.w3.org/2000/svg" viewBox="0 -1000 1000 1000">
	<path fill="#000000" d="M152 189H0V-711H147L152 -522Q160 -523 176 -523Q283 -523 358.5 -448Q434 -373 434 -266Q434 -159 358.5 -83.5Q283 -8 176 -8Q160 -8 152 -9ZM152 -369V-162Q164 -159 176 -159Q221 -159 252 -190Q283 -221 283 -266Q283 -310 252 -341Q221 -372 176 -372Q164 -372 152 -369Z"/>
	<path fill="#2200f5" d="M202 199H50V-701H197L202 -512Q210 -513 226 -513Q333 -513 408.5 -438Q484 -363 484 -256Q484 -149 408.5 -73.5Q333 2 226 2Q210 2 202 1ZM202 -359V-152Q214 -149 226 -149Q271 -149 302 -180Q333 -211 333 -256Q333 -300 302 -331Q271 -362 226 -362Q214 -362 202 -359Z"/>
	<path fill="#00a0e1" d="M52 196H200V1Q200 -2 202 -2Q202 -2 202 -1Q210 0 226 0Q332 0 407 -75Q482 -150 482 -256Q482 -362 407 -436Q332 -510 226 -510Q210 -510 202 -510Q200 -510 200 -512L195 -698H52ZM202 202H50Q48 202 48 199V-701Q48 -704 50 -704H197Q199 -704 199 -701L204 -515Q212 -516 225 -516Q226 -516 226 -516Q334 -516 410 -440Q486 -364 486 -256Q486 -148 410 -72Q334 4 226 4Q222 4 215 4Q208 4 204 4V199Q204 202 202 202ZM226 -152Q270 -152 300 -182Q330 -212 330 -256Q330 -299 300 -329.5Q270 -360 226 -360Q215 -360 204 -357V-154Q215 -152 226 -152ZM226 -364Q272 -364 304 -332.5Q336 -301 336 -256Q336 -210 304 -178Q272 -146 226 -146Q214 -146 201 -150Q200 -150 200 -152V-359Q200 -361 201 -361Q214 -364 226 -364Z"/>
</svg>