<svg xmlns="http://www.w3.org/2000/svg" viewBox="0 -1000 1000 1000">
	<path fill="#000000" d="M378 -718Q378 -718 378 -704Q378 -651 341 -613.5Q304 -576 250 -576Q196 -576 159 -613Q122 -650 122 -704V-718H198Q196 -710 196 -704Q196 -682 212 -666Q228 -650 250.5 -650Q273 -650 288.5 -666Q304 -682 304 -704Q304 -710 302 -718ZM498 -12H329V-22Q290 -10 249 -10Q162 -10 95 -62Q28 -114 4 -197L1 -528H168V-198Q200 -161 249 -161Q297 -161 329 -196V-528H498Z"/>
	<path fill="#2200f5" d="M428 -708Q428 -708 428 -694Q428 -641 391 -603.5Q354 -566 300 -566Q246 -566 209 -603Q172 -640 172 -694V-708H248Q246 -700 246 -694Q246 -672 262 -656Q278 -640 300.5 -640Q323 -640 338.5 -656Q354 -672 354 -694Q354 -700 352 -708ZM548 -2H379V-12Q340 0 299 0Q212 0 145 -52Q78 -104 54 -187L51 -518H218V-188Q250 -151 299 -151Q347 -151 379 -186V-518H548Z"/>
	<path fill="#00a0e1" d="M174 -705V-694Q174 -642 211 -605Q248 -568 300.5 -568Q353 -568 389.5 -605Q426 -642 426 -694V-705H355Q356 -699 356 -694Q356 -671 340 -654.5Q324 -638 300.5 -638Q277 -638 260.5 -654.5Q244 -671 244 -694Q244 -699 245 -705ZM431 -708V-694Q431 -640 393 -601.5Q355 -563 300 -563Q245 -563 207 -601Q169 -639 169 -694V-708Q169 -710 172 -710H248Q251 -710 251 -708Q251 -707 251 -707Q249 -699 249 -694Q249 -673 264 -658Q279 -643 300.5 -643Q322 -643 336.5 -658Q351 -673 351 -694Q351 -699 349 -707Q349 -707 349 -708Q349 -710 352 -710H428Q431 -710 431 -708ZM382 -4H546V-516H382V-186Q382 -185 381 -184Q348 -148 299 -148Q249 -148 216 -186Q216 -187 216 -188V-516H54L56 -187Q80 -105 146.5 -53.5Q213 -2 299 -2Q340 -2 378 -14Q379 -14 379 -14Q382 -14 382 -12ZM548 0H379Q376 0 376 -2V-9Q339 2 299 2Q211 2 143 -50.5Q75 -103 52 -186Q52 -187 52 -187L48 -518Q48 -520 51 -520H218Q220 -520 220 -518V-189Q252 -154 299 -154Q346 -154 376 -187V-518Q376 -520 379 -520H548Q550 -520 550 -518V-2Q550 0 548 0Z"/>
</svg>