<svg xmlns="http://www.w3.org/2000/svg" viewBox="0 -1000 1000 1000">
	<path fill="#000000" d="M392 -594L284 -701L466 -883L574 -776ZM106 -596L-2 -703L180 -885L288 -778ZM498 -12H329V-22Q290 -10 249 -10Q162 -10 95 -62Q28 -114 4 -197L1 -528H168V-198Q200 -161 249 -161Q297 -161 329 -196V-528H498Z"/>
	<path fill="#2200f5" d="M442 -584L334 -691L516 -873L624 -766ZM156 -586L48 -693L230 -875L338 -768ZM548 -2H379V-12Q340 0 299 0Q212 0 145 -52Q78 -104 54 -187L51 -518H218V-188Q250 -151 299 -151Q347 -151 379 -186V-518H548Z"/>
	<path fill="#00a0e1" d="M338 -691L442 -588L620 -766L516 -869ZM332 -693L514 -875Q515 -876 516 -876Q517 -876 518 -875L626 -768Q626 -767 626 -766Q626 -765 626 -764L444 -582Q443 -582 442 -582Q441 -582 440 -582L332 -689Q332 -690 332 -691Q332 -692 332 -693ZM52 -693L156 -590L334 -768L230 -871ZM46 -695L228 -877Q229 -878 230 -878Q231 -878 232 -877L340 -770Q340 -769 340 -768Q340 -767 340 -766L158 -584Q157 -584 156 -584Q155 -584 154 -584L46 -691Q46 -692 46 -693Q46 -694 46 -695ZM382 -4H546V-516H382V-186Q382 -185 381 -184Q348 -148 299 -148Q249 -148 216 -186Q216 -187 216 -188V-516H54L56 -187Q80 -105 146.5 -53.5Q213 -2 299 -2Q340 -2 378 -14Q379 -14 379 -14Q382 -14 382 -12ZM548 0H379Q376 0 376 -2V-9Q339 2 299 2Q211 2 143 -50.5Q75 -103 52 -186Q52 -187 52 -187L48 -518Q48 -520 51 -520H218Q220 -520 220 -518V-189Q252 -154 299 -154Q346 -154 376 -187V-518Q376 -520 379 -520H548Q550 -520 550 -518V-2Q550 0 548 0Z"/>
</svg>