<svg xmlns="http://www.w3.org/2000/svg" viewBox="0 -1000 1000 1000">
	<path fill="#000000" d="M386 -670V-594H114V-670ZM498 -12H329V-22Q290 -10 249 -10Q162 -10 95 -62Q28 -114 4 -197L1 -528H168V-198Q200 -161 249 -161Q297 -161 329 -196V-528H498Z"/>
	<path fill="#2200f5" d="M436 -660V-584H164V-660ZM548 -2H379V-12Q340 0 299 0Q212 0 145 -52Q78 -104 54 -187L51 -518H218V-188Q250 -151 299 -151Q347 -151 379 -186V-518H548Z"/>
	<path fill="#00a0e1" d="M434 -586V-658H166V-586ZM438 -660V-584Q438 -582 436 -582H164Q162 -582 162 -584V-660Q162 -662 164 -662H436Q438 -662 438 -660ZM382 -4H546V-516H382V-186Q382 -185 381 -184Q348 -148 299 -148Q249 -148 216 -186Q216 -187 216 -188V-516H54L56 -187Q80 -105 146.5 -53.5Q213 -2 299 -2Q340 -2 378 -14Q379 -14 379 -14Q382 -14 382 -12ZM548 0H379Q376 0 376 -2V-9Q339 2 299 2Q211 2 143 -50.5Q75 -103 52 -186Q52 -187 52 -187L48 -518Q48 -520 51 -520H218Q220 -520 220 -518V-189Q252 -154 299 -154Q346 -154 376 -187V-518Q376 -520 379 -520H548Q550 -520 550 -518V-2Q550 0 548 0Z"/>
</svg>