<svg xmlns="http://www.w3.org/2000/svg" viewBox="0 -1000 1000 1000">
	<path fill="#000000" d="M249 -594Q249 -594 247 -594Q247 -594 240 -594Q189 -598 154.5 -634.5Q120 -671 120 -722Q120 -773 155 -810Q190 -847 240 -851H247Q247 -851 249 -851Q249 -851 251 -851Q305 -851 342.5 -813.5Q380 -776 380 -722Q380 -669 342.5 -631.5Q305 -594 251 -594ZM250 -776Q246 -776 238 -774V-775Q219 -771 207.5 -756.5Q196 -742 196 -722Q196 -703 207.5 -688.5Q219 -674 238 -670V-671Q246 -669 250 -669Q254 -669 262 -671V-670Q281 -674 292.5 -688.5Q304 -703 304 -722Q304 -742 292.5 -756.5Q281 -771 262 -775V-774Q254 -776 250 -776ZM498 -12H329V-22Q290 -10 249 -10Q162 -10 95 -62Q28 -114 4 -197L1 -528H168V-198Q200 -161 249 -161Q297 -161 329 -196V-528H498Z"/>
	<path fill="#2200f5" d="M299 -584Q299 -584 297 -584Q297 -584 290 -584Q239 -588 204.5 -624.5Q170 -661 170 -712Q170 -763 205 -800Q240 -837 290 -841H297Q297 -841 299 -841Q299 -841 301 -841Q355 -841 392.5 -803.5Q430 -766 430 -712Q430 -659 392.5 -621.5Q355 -584 301 -584ZM300 -766Q296 -766 288 -764V-765Q269 -761 257.5 -746.5Q246 -732 246 -712Q246 -693 257.5 -678.5Q269 -664 288 -660V-661Q296 -659 300 -659Q304 -659 312 -661V-660Q331 -664 342.5 -678.5Q354 -693 354 -712Q354 -732 342.5 -746.5Q331 -761 312 -765V-764Q304 -766 300 -766ZM548 -2H379V-12Q340 0 299 0Q212 0 145 -52Q78 -104 54 -187L51 -518H218V-188Q250 -151 299 -151Q347 -151 379 -186V-518H548Z"/>
	<path fill="#00a0e1" d="M290 -586H301Q354 -586 391 -623Q428 -660 428 -712Q428 -765 391 -801.5Q354 -838 301 -838H290Q241 -835 206.5 -798.5Q172 -762 172 -712Q172 -662 206.5 -626Q241 -590 290 -586ZM301 -582H290Q238 -585 203 -622.5Q168 -660 168 -712Q168 -764 203 -802Q238 -840 290 -843Q290 -843 290 -844H301Q356 -844 394 -805.5Q432 -767 432 -712Q432 -658 394 -620Q356 -582 301 -582ZM289 -762Q288 -762 288 -762Q287 -762 286 -762Q269 -758 259 -744Q249 -730 248.5 -712Q248 -694 258.5 -680.5Q269 -667 286 -663Q287 -663 288 -664Q288 -664 289 -663Q296 -662 300 -662Q304 -662 311 -663Q312 -664 312 -664Q313 -664 314 -663Q331 -667 341.5 -680.5Q352 -694 352 -712Q352 -730 341.5 -744Q331 -758 314 -762Q313 -762 312 -762Q312 -762 311 -762Q304 -764 300 -764Q296 -764 289 -762ZM310 -767Q311 -767 312 -768V-767Q332 -764 344 -748Q356 -732 356 -712Q356 -692 344 -676.5Q332 -661 312 -658Q311 -658 310 -658Q304 -656 300 -656Q296 -656 290 -658Q289 -658 288 -658Q268 -661 256 -676.5Q244 -692 244 -712Q244 -732 256 -748Q268 -764 288 -767Q288 -767 288 -768Q289 -768 290 -767Q296 -768 300 -768Q304 -768 310 -767ZM382 -4H546V-516H382V-186Q382 -185 381 -184Q348 -148 299 -148Q249 -148 216 -186Q216 -187 216 -188V-516H54L56 -187Q80 -105 146.5 -53.5Q213 -2 299 -2Q340 -2 378 -14Q379 -14 379 -14Q382 -14 382 -12ZM548 0H379Q376 0 376 -2V-9Q339 2 299 2Q211 2 143 -50.5Q75 -103 52 -186Q52 -187 52 -187L48 -518Q48 -520 51 -520H218Q220 -520 220 -518V-189Q252 -154 299 -154Q346 -154 376 -187V-518Q376 -520 379 -520H548Q550 -520 550 -518V-2Q550 0 548 0Z"/>
</svg>