<svg xmlns="http://www.w3.org/2000/svg" viewBox="0 -1000 1000 1000">
	<path fill="#000000" d="M472 -588L290 -770L398 -877L580 -695ZM396 -521H548L668 -154L792 -521H944L744 -10H596L472 -327L348 -10H200L0 -521H148L272 -154Z"/>
	<path fill="#2200f5" d="M522 -578L340 -760L448 -867L630 -685ZM446 -511H598L718 -144L842 -511H994L794 0H646L522 -317L398 0H250L50 -511H198L322 -144Z"/>
	<path fill="#00a0e1" d="M344 -760L522 -582L626 -685L448 -863ZM338 -762L446 -869Q447 -870 448 -870Q449 -870 450 -869L632 -687Q633 -686 633 -685Q633 -684 632 -683L524 -576Q523 -576 522 -576Q521 -576 520 -576L338 -758Q337 -759 337 -760Q337 -761 338 -762ZM320 -143L196 -508H54L252 -2H396L520 -318Q520 -319 522 -319Q524 -319 524 -318L648 -2H792L990 -508H844L720 -143Q720 -142 718 -142Q716 -142 716 -143L596 -508H448L324 -143Q324 -142 322 -142Q320 -142 320 -143ZM446 -514H598Q600 -514 600 -512L718 -152L840 -512Q840 -514 842 -514H994Q996 -514 996 -511Q996 -511 996 -510L796 1Q796 2 794 2H646Q644 2 644 1L522 -310L400 1Q400 3 398 2H250Q248 2 248 1L48 -510Q48 -511 48 -511Q48 -514 50 -514H198Q200 -514 200 -512L322 -152L444 -512Q444 -514 446 -514Z"/>
</svg>