<svg xmlns="http://www.w3.org/2000/svg" viewBox="0 -1000 1000 1000">
	<path fill="#000000" d="M265 -576L157 -683L339 -865L447 -758ZM0 -521H171L295 -154L400 -521L585 -524L306 190L158 194L227 -10Z"/>
	<path fill="#2200f5" d="M315 -566L207 -673L389 -855L497 -748ZM50 -511H221L345 -144L450 -511L635 -514L356 200L208 204L277 0Z"/>
	<path fill="#00a0e1" d="M211 -673L315 -570L493 -748L389 -851ZM205 -675L387 -857Q388 -858 389 -858Q390 -858 391 -857L499 -750Q500 -749 500 -748Q500 -747 499 -746L317 -564Q316 -564 315 -564Q314 -564 313 -564L205 -671Q204 -672 204 -673Q204 -674 205 -675ZM343 -143L219 -508H54L279 -2Q280 -1 280 0Q280 0 280 1L212 201L354 198L631 -511L452 -509L347 -143Q347 -142 345 -142Q343 -142 343 -143ZM50 -514H221Q223 -514 223 -512L345 -152L448 -512Q448 -513 450 -513Q635 -516 635 -516Q638 -516 638 -514Q638 -514 637 -513L358 201Q358 202 356 202Q208 206 208 206Q206 206 206 204Q206 204 206 203L275 1L48 -510Q48 -510 48 -511Q48 -514 50 -514Z"/>
</svg>