<svg xmlns="http://www.w3.org/2000/svg" viewBox="0 -1000 1000 1000">
	<path fill="#000000" d="M173 -620L244 -788H245H320H321L373 -620H297L277 -728L249 -620ZM0 -521H171L295 -154L400 -521L585 -524L306 190L158 194L227 -10Z"/>
	<path fill="#2200f5" d="M223 -610L294 -778H295H370H371L423 -610H347L327 -718L299 -610ZM50 -511H221L345 -144L450 -511L635 -514L356 200L208 204L277 0Z"/>
	<path fill="#00a0e1" d="M329 -718L350 -613H420L369 -775H296L226 -613H297L324 -718Q325 -720 327 -720Q329 -720 329 -718ZM294 -780H371Q372 -780 373 -778L426 -611Q426 -611 426 -610Q426 -608 423 -608H347Q345 -608 345 -610L326 -706L301 -610Q300 -608 299 -608H223Q220 -608 220 -610Q220 -611 220 -611L292 -778Q292 -780 294 -780ZM343 -143L219 -508H54L279 -2Q280 -1 280 0Q280 0 280 1L212 201L354 198L631 -511L452 -509L347 -143Q347 -142 345 -142Q343 -142 343 -143ZM50 -514H221Q223 -514 223 -512L345 -152L448 -512Q448 -513 450 -513Q635 -516 635 -516Q638 -516 638 -514Q638 -514 637 -513L358 201Q358 202 356 202Q208 206 208 206Q206 206 206 204Q206 204 206 203L275 1L48 -510Q48 -510 48 -511Q48 -514 50 -514Z"/>
</svg>