<svg xmlns="http://www.w3.org/2000/svg" viewBox="0 -1000 1000 1000">
	<path fill="#000000" d="M333 -584V-726H485V-584ZM133 -584V-726H285V-584ZM0 -521H171L295 -154L400 -521L585 -524L306 190L158 194L227 -10Z"/>
	<path fill="#2200f5" d="M383 -574V-716H535V-574ZM183 -574V-716H335V-574ZM50 -511H221L345 -144L450 -511L635 -514L356 200L208 204L277 0Z"/>
	<path fill="#00a0e1" d="M385 -714V-576H533V-714ZM381 -574V-716Q381 -718 383 -718H535Q537 -718 537 -716V-574Q537 -572 535 -572H383Q381 -572 381 -574ZM185 -714V-576H333V-714ZM181 -574V-716Q181 -718 183 -718H335Q337 -718 337 -716V-574Q337 -572 335 -572H183Q181 -572 181 -574ZM343 -143L219 -508H54L279 -2Q280 -1 280 0Q280 0 280 1L212 201L354 198L631 -511L452 -509L347 -143Q347 -142 345 -142Q343 -142 343 -143ZM50 -514H221Q223 -514 223 -512L345 -152L448 -512Q448 -513 450 -513Q635 -516 635 -516Q638 -516 638 -514Q638 -514 637 -513L358 201Q358 202 356 202Q208 206 208 206Q206 206 206 204Q206 204 206 203L275 1L48 -510Q48 -510 48 -511Q48 -514 50 -514Z"/>
</svg>