<svg xmlns="http://www.w3.org/2000/svg" viewBox="0 -1000 1000 1000">
	<path fill="#000000" d="M291 -564L109 -746L217 -853L399 -671ZM0 -521H171L295 -154L400 -521L585 -524L306 190L158 194L227 -10Z"/>
	<path fill="#2200f5" d="M341 -554L159 -736L267 -843L449 -661ZM50 -511H221L345 -144L450 -511L635 -514L356 200L208 204L277 0Z"/>
	<path fill="#00a0e1" d="M163 -736L341 -558L445 -661L267 -839ZM157 -738L265 -845Q266 -846 267 -846Q268 -846 269 -845L451 -663Q452 -662 452 -661Q452 -660 451 -659L343 -552Q342 -552 341 -552Q340 -552 339 -552L157 -734Q156 -735 156 -736Q156 -737 157 -738ZM343 -143L219 -508H54L279 -2Q280 -1 280 0Q280 0 280 1L212 201L354 198L631 -511L452 -509L347 -143Q347 -142 345 -142Q343 -142 343 -143ZM50 -514H221Q223 -514 223 -512L345 -152L448 -512Q448 -513 450 -513Q635 -516 635 -516Q638 -516 638 -514Q638 -514 637 -513L358 201Q358 202 356 202Q208 206 208 206Q206 206 206 204Q206 204 206 203L275 1L48 -510Q48 -510 48 -511Q48 -514 50 -514Z"/>
</svg>