<svg xmlns="http://www.w3.org/2000/svg" viewBox="0 -1000 1000 1000">
	<path fill="#000000" d="M0 -20V-172L243 -376H0V-528H453V-376L251 -172H453V-20Z"/>
	<path fill="#2200f5" d="M50 -10V-162L293 -366H50V-518H503V-366L301 -162H503V-10Z"/>
	<path fill="#00a0e1" d="M52 -12H500V-160H301Q298 -160 298 -162Q298 -163 299 -164L500 -367V-516H52V-368H293Q296 -368 296 -366Q296 -365 295 -364L52 -161ZM48 -10V-162Q48 -163 48 -164L286 -364H50Q48 -364 48 -366V-518Q48 -520 50 -520H503Q506 -520 506 -518V-366Q506 -365 505 -364L307 -164H503Q506 -164 506 -162V-10Q506 -8 503 -8H50Q48 -8 48 -10Z"/>
</svg>