<svg xmlns="http://www.w3.org/2000/svg" viewBox="0 -1000 1000 1000">
	<path fill="#000000" d="M227 -588L119 -695L301 -877L409 -770ZM0 -20V-172L243 -376H0V-528H453V-376L251 -172H453V-20Z"/>
	<path fill="#2200f5" d="M277 -578L169 -685L351 -867L459 -760ZM50 -10V-162L293 -366H50V-518H503V-366L301 -162H503V-10Z"/>
	<path fill="#00a0e1" d="M173 -685L277 -582L455 -760L351 -863ZM167 -687L349 -869Q350 -870 351 -870Q352 -870 353 -869L461 -762Q462 -761 462 -760Q462 -759 461 -758L279 -576Q278 -576 277 -576Q276 -576 275 -576L167 -683Q166 -684 166 -685Q166 -686 167 -687ZM52 -12H500V-160H301Q298 -160 298 -162Q298 -163 299 -164L500 -367V-516H52V-368H293Q296 -368 296 -366Q296 -365 295 -364L52 -161ZM48 -10V-162Q48 -163 48 -164L286 -364H50Q48 -364 48 -366V-518Q48 -520 50 -520H503Q506 -520 506 -518V-366Q506 -365 505 -364L307 -164H503Q506 -164 506 -162V-10Q506 -8 503 -8H50Q48 -8 48 -10Z"/>
</svg>