<svg xmlns="http://www.w3.org/2000/svg" viewBox="0 -1000 1000 1000">
	<path fill="#000000" d="M550 -10L461 -238V-237H261L202 -10H50L266 -779H418L702 -10ZM407 -377L357 -545L297 -377Z"/>
	<path fill="#2200f5" d="M550 0L461 -228V-227H261L202 0H50L266 -769H418L702 0ZM407 -367L357 -535L297 -367Z"/>
	<path fill="#00a0e1" d="M461 -231Q463 -231 463 -229L552 -2H698L416 -766H268L53 -2H200L259 -228Q259 -230 261 -230H459Q460 -231 461 -231ZM301 -370H403L357 -527ZM407 -364H297Q295 -364 295 -367Q295 -367 295 -368L355 -536Q355 -538 357 -538Q359 -538 360 -536L409 -368Q409 -367 409 -367Q409 -364 407 -364ZM202 2H50Q48 2 48 0Q48 0 48 -1L264 -770Q264 -772 266 -772H418Q420 -772 420 -770L704 -1Q704 0 704 0Q704 2 702 2H550Q548 2 548 1L460 -224H263L204 1Q204 2 202 2Z"/>
</svg>