<svg xmlns="http://www.w3.org/2000/svg" viewBox="0 -1000 1000 1000">
	<path fill="#000000" d="M454 -967Q454 -967 454 -953Q454 -900 417 -862.5Q380 -825 326 -825Q272 -825 235 -862Q198 -899 198 -953V-967H274Q272 -959 272 -953Q272 -931 288 -915Q304 -899 326.5 -899Q349 -899 364.5 -915Q380 -931 380 -953Q380 -959 378 -967ZM550 -10L461 -238V-237H261L202 -10H50L266 -779H418L702 -10ZM407 -377L357 -545L297 -377Z"/>
	<path fill="#2200f5" d="M454 -957Q454 -957 454 -943Q454 -890 417 -852.5Q380 -815 326 -815Q272 -815 235 -852Q198 -889 198 -943V-957H274Q272 -949 272 -943Q272 -921 288 -905Q304 -889 326.5 -889Q349 -889 364.5 -905Q380 -921 380 -943Q380 -949 378 -957ZM550 0L461 -228V-227H261L202 0H50L266 -769H418L702 0ZM407 -367L357 -535L297 -367Z"/>
	<path fill="#00a0e1" d="M200 -954V-943Q200 -891 237 -854Q274 -817 326.5 -817Q379 -817 415.5 -854Q452 -891 452 -943V-954H381Q382 -948 382 -943Q382 -920 366 -903.5Q350 -887 326.5 -887Q303 -887 286.5 -903.5Q270 -920 270 -943Q270 -948 271 -954ZM457 -957V-943Q457 -889 419 -850.5Q381 -812 326 -812Q271 -812 233 -850Q195 -888 195 -943V-957Q195 -959 198 -959H274Q277 -959 277 -957Q277 -956 277 -956Q275 -948 275 -943Q275 -922 290 -907Q305 -892 326.5 -892Q348 -892 362.5 -907Q377 -922 377 -943Q377 -948 375 -956Q375 -956 375 -957Q375 -959 378 -959H454Q457 -959 457 -957ZM461 -231Q463 -231 463 -229L552 -2H698L416 -766H268L53 -2H200L259 -228Q259 -230 261 -230H459Q460 -231 461 -231ZM301 -370H403L357 -527ZM407 -364H297Q295 -364 295 -367Q295 -367 295 -368L355 -536Q355 -538 357 -538Q359 -538 360 -536L409 -368Q409 -367 409 -367Q409 -364 407 -364ZM202 2H50Q48 2 48 0Q48 0 48 -1L264 -770Q264 -772 266 -772H418Q420 -772 420 -770L704 -1Q704 0 704 0Q704 2 702 2H550Q548 2 548 1L460 -224H263L204 1Q204 2 202 2Z"/>
</svg>