<svg xmlns="http://www.w3.org/2000/svg" viewBox="0 -1000 1000 1000">
	<path fill="#000000" d="M549 -587V-435Q548 -431 532.5 -413Q517 -395 485 -374.5Q453 -354 421 -354H321Q289 -354 244.5 -382Q200 -410 168 -410Q145 -410 115.5 -396Q86 -382 68 -368L50 -354V-506Q114 -562 164 -562Q197 -562 244 -534.5Q291 -507 324 -507Q369 -507 413 -507Q444 -507 478 -527Q512 -547 530 -567Z"/>
	<path fill="#2200f5" d="M549 -577V-425Q548 -421 532.5 -403Q517 -385 485 -364.5Q453 -344 421 -344H321Q289 -344 244.5 -372Q200 -400 168 -400Q145 -400 115.5 -386Q86 -372 68 -358L50 -344V-496Q114 -552 164 -552Q197 -552 244 -524.5Q291 -497 324 -497Q369 -497 413 -497Q444 -497 478 -517Q512 -537 530 -557Z"/>
	<path fill="#00a0e1" d="M324 -494Q291 -494 244 -522Q197 -550 164 -550Q117 -550 52 -495V-349Q120 -402 168 -402Q200 -402 244.5 -374Q289 -346 321 -346H421Q443 -346 465 -355.5Q487 -365 504 -380.5Q521 -396 530 -406Q539 -416 546 -426V-570Q533 -556 517.5 -542Q502 -528 471 -511Q440 -494 413 -494Q371 -494 324 -494ZM164 -554Q197 -554 244 -527Q291 -500 324 -500Q369 -500 413 -499Q432 -499 453 -507.5Q474 -516 489 -526.5Q504 -537 519 -551Q534 -565 539.5 -570.5Q545 -576 547 -579Q548 -580 549 -580Q552 -580 552 -577V-425Q552 -424 545.5 -415Q539 -406 526.5 -394Q514 -382 498.5 -370Q483 -358 462.5 -350Q442 -342 421 -342H321Q289 -342 244.5 -370Q200 -398 168 -398Q119 -397 52 -342Q51 -342 50 -342Q48 -342 48 -344V-496Q48 -497 48 -498Q56 -504 68 -513.5Q80 -523 110.5 -538.5Q141 -554 164 -554Z"/>
</svg>