<svg xmlns="http://www.w3.org/2000/svg" viewBox="0 -1000 1000 1000">
	<path fill="#000000" d="M524 -176ZM485 -430Q481 -431 473 -431Q450 -431 434.5 -415.5Q419 -400 419 -378Q419 -356 434.5 -340Q450 -324 473 -324Q477 -324 485 -326ZM561 -246ZM487 -238L473 -249Q419 -249 381 -286.5Q343 -324 343 -378Q343 -431 381 -466.5Q419 -502 473 -502H485H561L568 -328Q570 -316 583.5 -302Q597 -288 613.5 -280.5Q630 -273 644.5 -286Q659 -299 662 -336Q662 -337 660 -344Q658 -351 658 -352Q667 -406 651 -458.5Q635 -511 595 -551Q527 -618 431.5 -616.5Q336 -615 268 -547Q199 -478 198 -382.5Q197 -287 264 -219Q316 -167 388 -156Q460 -145 524 -176Q535 -181 563 -153Q591 -125 614 -94L637 -64Q524 12 387 0.5Q250 -11 153 -108Q41 -220 43.5 -381Q46 -542 161 -657Q276 -772 436.5 -774.5Q597 -777 709 -665Q793 -581 814 -458Q835 -335 787 -230Q765 -217 743 -209Q721 -201 696.5 -199.5Q672 -198 655 -197.5Q638 -197 611 -203.5Q584 -210 571.5 -213Q559 -216 527.5 -225.5Q496 -235 487 -238Z"/>
	<path fill="#2200f5" d="M524 -166ZM485 -420Q481 -421 473 -421Q450 -421 434.5 -405.5Q419 -390 419 -368Q419 -346 434.5 -330Q450 -314 473 -314Q477 -314 485 -316ZM561 -236ZM487 -228L473 -239Q419 -239 381 -276.5Q343 -314 343 -368Q343 -421 381 -456.5Q419 -492 473 -492H485H561L568 -318Q570 -306 583.5 -292Q597 -278 613.5 -270.5Q630 -263 644.5 -276Q659 -289 662 -326Q662 -327 660 -334Q658 -341 658 -342Q667 -396 651 -448.5Q635 -501 595 -541Q527 -608 431.5 -606.5Q336 -605 268 -537Q199 -468 198 -372.5Q197 -277 264 -209Q316 -157 388 -146Q460 -135 524 -166Q535 -171 563 -143Q591 -115 614 -84L637 -54Q524 22 387 10.5Q250 -1 153 -98Q41 -210 43.5 -371Q46 -532 161 -647Q276 -762 436.5 -764.5Q597 -767 709 -655Q793 -571 814 -448Q835 -325 787 -220Q765 -207 743 -199Q721 -191 696.5 -189.5Q672 -188 655 -187.5Q638 -187 611 -193.5Q584 -200 571.5 -203Q559 -206 527.5 -215.5Q496 -225 487 -228Z"/>
	<path fill="#00a0e1" d="M473 -418Q451 -418 436.5 -403.5Q422 -389 422 -368Q422 -347 437 -331.5Q452 -316 473 -316Q476 -316 482 -318V-418Q479 -418 473 -418ZM473 -424Q474 -424 475 -424Q488 -424 488 -420V-316Q488 -314 486 -314Q477 -312 473 -312Q449 -312 432.5 -328Q416 -344 416 -367.5Q416 -391 432.5 -407.5Q449 -424 473 -424ZM661 -342Q661 -341 662 -337.5Q663 -334 663.5 -330.5Q664 -327 664 -326Q660 -266 626 -266Q607 -266 587.5 -284Q568 -302 566 -318L559 -490H473Q420 -490 383 -455Q346 -420 346 -368Q346 -315 383 -278.5Q420 -242 473 -242Q474 -242 475 -241L488 -230Q493 -229 529 -218Q565 -207 579 -203.5Q593 -200 620 -195Q647 -190 669 -190Q730 -190 785 -222Q818 -296 818 -379Q818 -456 789.5 -527.5Q761 -599 707 -653Q654 -707 585 -734.5Q516 -762 442 -762Q366 -762 293 -732Q220 -702 163 -645Q105 -588 75.5 -515Q46 -442 46 -365Q46 -291 73.5 -222Q101 -153 154.5 -99.5Q208 -46 277 -18.5Q346 9 419 9Q535 9 633 -55Q608 -90 583 -118Q542 -164 527 -164Q526 -164 525 -164Q477 -141 423 -141Q329 -141 262 -207Q195 -274 195 -369Q195 -468 266 -539Q337 -609 435 -609Q530 -609 597 -543Q664 -476 664 -381Q664 -361 661 -342ZM561 -234Q558 -234 558 -236Q558 -238 561 -238Q564 -238 564 -236Q564 -234 561 -234ZM659 -326Q659 -327 657 -333.5Q655 -340 655 -342Q655 -342 656 -342Q659 -362 659 -381Q659 -474 593 -539Q528 -604 435 -604Q339 -604 270 -535Q200 -466 200 -369Q200 -276 266 -211Q331 -146 423 -146Q475 -146 523 -168Q525 -169 527 -169Q544 -169 587 -121Q614 -90 639 -55Q640 -55 640 -54Q640 -53 638 -52Q538 14 419 14Q345 14 275.5 -14Q206 -42 151.5 -96.5Q97 -151 69 -220.5Q41 -290 41 -365Q41 -443 71 -517Q101 -591 159 -649Q217 -707 291 -737Q365 -767 442 -767Q517 -767 587 -739Q657 -711 711 -657Q765 -602 794 -529.5Q823 -457 823 -379Q823 -294 789 -219Q789 -218 788 -218Q732 -185 669 -185Q647 -185 619.5 -190Q592 -195 577.5 -198.5Q563 -202 527.5 -213Q492 -224 486 -226Q486 -226 485 -226L472 -237Q417 -237 378.5 -275Q340 -313 340 -368Q340 -422 379 -458Q418 -494 473 -494H561Q563 -494 563 -492L571 -319Q573 -305 591 -288Q609 -271 626 -271Q655 -271 659 -326Z"/>
</svg>