<svg xmlns="http://www.w3.org/2000/svg" viewBox="0 -1000 1000 1000">
	<path fill="#000000" d="M451 -960V-884Q450 -882 442.5 -873Q435 -864 419 -853.5Q403 -843 387 -843H337Q321 -843 298.5 -857Q276 -871 260 -871Q249 -871 234 -864Q219 -857 210 -850L201 -843V-919Q233 -947 258 -947Q275 -947 298.5 -933.5Q322 -920 338 -920Q361 -920 383 -920Q398 -920 415 -930Q432 -940 441 -950ZM550 -10L461 -238V-237H261L202 -10H50L266 -779H418L702 -10ZM407 -377L357 -545L297 -377Z"/>
	<path fill="#2200f5" d="M451 -950V-874Q450 -872 442.5 -863Q435 -854 419 -843.5Q403 -833 387 -833H337Q321 -833 298.5 -847Q276 -861 260 -861Q249 -861 234 -854Q219 -847 210 -840L201 -833V-909Q233 -937 258 -937Q275 -937 298.5 -923.5Q322 -910 338 -910Q361 -910 383 -910Q398 -910 415 -920Q432 -930 441 -940ZM550 0L461 -228V-227H261L202 0H50L266 -769H418L702 0ZM407 -367L357 -535L297 -367Z"/>
	<path fill="#00a0e1" d="M338 -907Q321 -907 297.5 -921Q274 -935 258 -935Q236 -935 204 -908V-838Q237 -864 260 -864Q277 -864 299 -850Q321 -836 337 -836H387Q406 -836 422.5 -849Q439 -862 448 -874V-943Q414 -907 383 -907Q383 -907 338 -907ZM258 -940Q275 -940 298.5 -926Q322 -912 338 -912Q361 -912 383 -912Q397 -912 414.5 -923Q432 -934 438.5 -940.5Q445 -947 449 -951Q450 -952 451 -952Q453 -952 453 -950V-874Q453 -871 445 -861.5Q437 -852 420.5 -841.5Q404 -831 387 -831H337Q320 -831 298 -845Q276 -859 260 -859Q250 -859 235.5 -852Q221 -845 212 -838L203 -831Q202 -831 201 -831Q199 -831 199 -833V-909Q199 -910 200 -911Q232 -940 258 -940ZM461 -231Q463 -231 463 -229L552 -2H698L416 -766H268L53 -2H200L259 -228Q259 -230 261 -230H459Q460 -231 461 -231ZM301 -370H403L357 -527ZM407 -364H297Q295 -364 295 -367Q295 -367 295 -368L355 -536Q355 -538 357 -538Q359 -538 360 -536L409 -368Q409 -367 409 -367Q409 -364 407 -364ZM202 2H50Q48 2 48 0Q48 0 48 -1L264 -770Q264 -772 266 -772H418Q420 -772 420 -770L704 -1Q704 0 704 0Q704 2 702 2H550Q548 2 548 1L460 -224H263L204 1Q204 2 202 2Z"/>
</svg>