<svg xmlns="http://www.w3.org/2000/svg" viewBox="0 -1000 1000 1000">
	<path fill="#000000" d="M451 75Q436 82 414 82Q370 82 335.5 40Q301 -2 289 -68L288 -238L179 -368L288 -495L289 -665Q301 -731 335.5 -773Q370 -815 414 -815Q436 -815 451 -808V-673Q435 -694 414 -694Q390 -694 373 -664L374 -480L292 -379L373 -238V-68Q389 -39 414 -39Q435 -39 451 -60Z"/>
	<path fill="#2200f5" d="M451 85Q436 92 414 92Q370 92 335.5 50Q301 8 289 -58L288 -228L179 -358L288 -485L289 -655Q301 -721 335.5 -763Q370 -805 414 -805Q436 -805 451 -798V-663Q435 -684 414 -684Q390 -684 373 -654L374 -470L292 -369L373 -228V-58Q389 -29 414 -29Q435 -29 451 -50Z"/>
	<path fill="#00a0e1" d="M414 -26Q388 -26 371 -57Q370 -57 370 -58V-227L290 -368Q290 -368 290 -369Q290 -370 290 -371L371 -471V-654Q371 -655 371 -655Q388 -686 414 -686Q433 -686 448 -670V-796Q434 -802 414 -802Q371 -802 337.5 -761Q304 -720 291 -655L290 -485Q290 -484 290 -483L182 -358L290 -230Q290 -229 290 -228L291 -58Q304 7 337.5 48.5Q371 90 414 90Q434 90 448 83V-43Q433 -26 414 -26ZM414 94Q368 94 333.5 51.5Q299 9 287 -58L286 -227L177 -356Q176 -357 176 -358Q176 -359 177 -360L286 -486L287 -655Q299 -722 333.5 -765Q368 -808 414 -808Q436 -808 452 -800Q454 -800 454 -798V-663Q454 -660 451 -660Q450 -660 449 -661Q434 -682 414 -682Q391 -682 376 -653V-470Q376 -469 376 -468L295 -369L375 -229Q376 -229 376 -228V-59Q391 -32 414 -32Q434 -32 449 -52Q450 -52 451 -52Q454 -52 454 -50V85Q454 87 452 87Q436 94 414 94Z"/>
</svg>