<svg xmlns="http://www.w3.org/2000/svg" viewBox="0 -1000 1000 1000">
	<path fill="#000000" d="M378 -594Q378 -594 378 -580Q378 -527 341 -489.5Q304 -452 250 -452Q196 -452 159 -489Q122 -526 122 -580V-594H198Q196 -586 196 -580Q196 -558 212 -542Q228 -526 250.5 -526Q273 -526 288.5 -542Q304 -558 304 -580Q304 -586 302 -594Z"/>
	<path fill="#2200f5" d="M378 -584Q378 -584 378 -570Q378 -517 341 -479.5Q304 -442 250 -442Q196 -442 159 -479Q122 -516 122 -570V-584H198Q196 -576 196 -570Q196 -548 212 -532Q228 -516 250.5 -516Q273 -516 288.5 -532Q304 -548 304 -570Q304 -576 302 -584Z"/>
	<path fill="#00a0e1" d="M124 -581V-570Q124 -518 161 -481Q198 -444 250.5 -444Q303 -444 339.5 -481Q376 -518 376 -570V-581H305Q306 -575 306 -570Q306 -547 290 -530.5Q274 -514 250.5 -514Q227 -514 210.5 -530.5Q194 -547 194 -570Q194 -575 195 -581ZM381 -584V-570Q381 -516 343 -477.5Q305 -439 250 -439Q195 -439 157 -477Q119 -515 119 -570V-584Q119 -586 122 -586H198Q201 -586 201 -584Q201 -583 201 -583Q199 -575 199 -570Q199 -549 214 -534Q229 -519 250.5 -519Q272 -519 286.5 -534Q301 -549 301 -570Q301 -575 299 -583Q299 -583 299 -584Q299 -586 302 -586H378Q381 -586 381 -584Z"/>
</svg>