<svg xmlns="http://www.w3.org/2000/svg" viewBox="0 -1000 1000 1000">
	<path fill="#000000" d="M238 -710H285V89H238ZM334 -14Q321 -13 308 -13Q201 -13 125.5 -88Q50 -163 50 -270Q50 -377 125.5 -452.5Q201 -528 308 -528Q321 -528 334 -527V-374Q321 -377 308 -377Q263 -377 232 -346Q201 -315 201 -270Q201 -226 232 -195Q263 -164 308 -164Q321 -164 334 -167Z"/>
	<path fill="#2200f5" d="M238 -700H285V99H238ZM334 -4Q321 -3 308 -3Q201 -3 125.5 -78Q50 -153 50 -260Q50 -367 125.5 -442.5Q201 -518 308 -518Q321 -518 334 -517V-364Q321 -367 308 -367Q263 -367 232 -336Q201 -305 201 -260Q201 -216 232 -185Q263 -154 308 -154Q321 -154 334 -157Z"/>
	<path fill="#00a0e1" d="M204 -260Q204 -215 236 -185V-336Q204 -305 204 -260ZM240 -342V-179Q240 -177 238 -177Q237 -177 236 -177Q198 -210 198 -260Q198 -311 236 -343Q237 -344 238 -344Q240 -344 240 -342ZM282 96V-4Q282 -7 285 -7Q285 -7 285 -6Q297 -6 308 -6Q320 -6 332 -7V-154Q320 -152 308 -152Q296 -152 284 -154Q282 -154 282 -156V-365Q282 -367 284 -367Q296 -370 308 -370Q320 -370 332 -367V-514Q320 -516 308 -516Q297 -516 285 -515Q285 -514 285 -514Q282 -514 282 -517V-698H240V-508Q240 -507 239 -506Q157 -483 104.5 -415Q52 -347 52 -260Q52 -173 104.5 -105.5Q157 -38 239 -15Q240 -14 240 -13V96ZM308 0Q298 0 288 -1V99Q288 102 285 102H238Q236 102 236 99V-11Q153 -34 100.5 -103Q48 -172 48 -260Q48 -348 100.5 -417.5Q153 -487 236 -510V-700Q236 -702 238 -702H285Q288 -702 288 -700V-520Q298 -520 308 -520Q321 -520 334 -519Q336 -519 336 -517V-364Q336 -361 334 -361Q334 -361 333 -361Q321 -364 308 -364Q298 -364 288 -363V-158Q298 -156 308 -156Q321 -156 333 -160Q334 -160 334 -160Q336 -160 336 -157V-4Q336 -2 334 -2Q321 0 308 0Z"/>
</svg>