<svg xmlns="http://www.w3.org/2000/svg" viewBox="0 -1000 1000 1000">
	<path fill="#000000" d="M221.5 -371.5L293 -538.5H293.5H369H369.5L422.5 -371.5H346.5L325.5 -478.5L297.5 -371.5Z"/>
	<path fill="#2200f5" d="M221.5 -366.5L293 -533.5H293.5H369H369.5L422.5 -366.5H346.5L325.5 -473.5L297.5 -366.5Z"/>
	<path fill="#00a0e1" d="M326.5 -473.5L347.5 -368H421L368.5 -532H294L223.5 -368H296.5L324.5 -474Q324.5 -475 325.5 -475Q326.5 -475 326.5 -473.5ZM293 -535H369.5Q370.5 -535 370.5 -534L423.5 -367Q424 -366.5 424 -366.5Q424 -365 422.5 -365H346.5Q345.5 -365 345.5 -366.5L325.5 -468L298.5 -366Q298.5 -365 297.5 -365H221.5Q220 -365 220 -366.5Q220 -367 220.5 -367L292 -534Q292 -535 293 -535Z"/>
</svg>