<svg xmlns="http://www.w3.org/2000/svg" viewBox="0 -1000 1000 1000">
	<path fill="#000000" d="M493 -206Q485 -205 477 -205Q410 -205 363 -252Q316 -299 316 -365Q316 -432 363 -479.5Q410 -527 477 -527Q485 -527 493 -526V-430Q485 -432 477 -432Q449 -432 429.5 -413Q410 -394 410 -365Q410 -338 429.5 -318.5Q449 -299 477 -299Q485 -299 493 -301ZM780 -390Q780 -292 733.5 -209.5Q687 -127 607 -79Q527 -31 432 -31Q337 -31 257 -79Q177 -127 130.5 -209.5Q84 -292 84 -390Q84 -487 130.5 -569.5Q177 -652 257 -700Q337 -748 432 -748Q527 -748 607 -700Q687 -652 733.5 -569.5Q780 -487 780 -390ZM725 -388Q725 -512 639.5 -600Q554 -688 432 -688Q310 -688 224.5 -600Q139 -512 139 -388Q139 -263 224.5 -175Q310 -87 432 -87Q554 -87 639.5 -175Q725 -263 725 -388Z"/>
	<path fill="#2200f5" d="M493 -196Q485 -195 477 -195Q410 -195 363 -242Q316 -289 316 -355Q316 -422 363 -469.5Q410 -517 477 -517Q485 -517 493 -516V-420Q485 -422 477 -422Q449 -422 429.5 -403Q410 -384 410 -355Q410 -328 429.5 -308.5Q449 -289 477 -289Q485 -289 493 -291ZM780 -380Q780 -282 733.5 -199.5Q687 -117 607 -69Q527 -21 432 -21Q337 -21 257 -69Q177 -117 130.5 -199.5Q84 -282 84 -380Q84 -477 130.5 -559.5Q177 -642 257 -690Q337 -738 432 -738Q527 -738 607 -690Q687 -642 733.5 -559.5Q780 -477 780 -380ZM725 -378Q725 -502 639.5 -590Q554 -678 432 -678Q310 -678 224.5 -590Q139 -502 139 -378Q139 -253 224.5 -165Q310 -77 432 -77Q554 -77 639.5 -165Q725 -253 725 -378Z"/>
	<path fill="#00a0e1" d="M477 -514Q411 -514 364.5 -467.5Q318 -421 318 -355Q318 -290 364.5 -243.5Q411 -197 477 -197Q484 -197 491 -198V-288Q484 -287 477 -287Q448 -287 428 -307Q408 -327 408 -355Q408 -385 428 -405Q448 -425 477 -425Q484 -425 491 -423V-514Q484 -514 477 -514ZM477 -192Q409 -192 361 -240Q313 -288 313 -355Q313 -424 361 -471.5Q409 -519 477 -519Q485 -519 494 -518Q496 -518 496 -516V-420Q496 -418 493 -418Q485 -420 477 -420Q450 -420 431.5 -401.5Q413 -383 413 -355Q413 -329 431.5 -310.5Q450 -292 477 -292Q485 -292 493 -294Q496 -294 496 -291V-196Q496 -193 494 -193Q485 -192 477 -192ZM778 -380Q778 -477 731.5 -558.5Q685 -640 605.5 -688Q526 -736 432 -736Q338 -736 258.5 -688Q179 -640 132.5 -558.5Q86 -477 86 -380Q86 -283 132.5 -201Q179 -119 258.5 -71Q338 -23 432 -23Q526 -23 605.5 -71Q685 -119 731.5 -201Q778 -283 778 -380ZM783 -380Q783 -282 736 -198.5Q689 -115 608 -66.5Q527 -18 432 -18Q337 -18 256 -66.5Q175 -115 128 -198.5Q81 -282 81 -380Q81 -478 128 -561Q175 -644 256 -692.5Q337 -741 432 -741Q527 -741 608 -692.5Q689 -644 736 -561Q783 -478 783 -380ZM723 -378Q723 -501 638 -588.5Q553 -676 432 -676Q311 -676 226 -588.5Q141 -501 141 -378Q141 -254 226 -167Q311 -80 432 -80Q553 -80 638 -167Q723 -254 723 -378ZM728 -378Q728 -252 641.5 -163.5Q555 -75 432 -75Q309 -75 222.5 -163.5Q136 -252 136 -378Q136 -503 222.5 -592Q309 -681 432 -681Q555 -681 641.5 -592Q728 -503 728 -378Z"/>
</svg>