<svg xmlns="http://www.w3.org/2000/svg" viewBox="0 -1000 1000 1000">
	<path fill="#000000" d="M215 -1011H291L319 -903L339 -1011H415L363 -843H362H287H286ZM50 -778Q65 -773 124 -778Q183 -783 198 -783Q356 -783 468 -668Q580 -553 580 -390Q580 -283 529.5 -193Q479 -103 392 -50Q305 3 202 4H50ZM202 -153Q296 -155 361.5 -223.5Q427 -292 427 -388Q427 -484 361.5 -552Q296 -620 202 -622Z"/>
	<path fill="#2200f5" d="M215 -1001H291L319 -893L339 -1001H415L363 -833H362H287H286ZM50 -768Q65 -763 124 -768Q183 -773 198 -773Q356 -773 468 -658Q580 -543 580 -380Q580 -273 529.5 -183Q479 -93 392 -40Q305 13 202 14H50ZM202 -143Q296 -145 361.5 -213.5Q427 -282 427 -378Q427 -474 361.5 -542Q296 -610 202 -612Z"/>
	<path fill="#00a0e1" d="M317 -892L289 -999H219L288 -835H361L412 -999H341L321 -893Q321 -891 319 -891Q317 -891 317 -892ZM215 -1003H291Q293 -1003 293 -1002L319 -905L337 -1001Q337 -1003 339 -1003H415Q417 -1003 417 -1001Q417 -1001 417 -1000L365 -832Q365 -831 363 -831H286Q284 -831 284 -832L213 -1000Q213 -1000 213 -1001Q213 -1003 215 -1003ZM198 -770Q179 -770 141 -766.5Q103 -763 84 -763Q67 -763 52 -765V11H202Q304 10 390.5 -42.5Q477 -95 527.5 -184.5Q578 -274 578 -380Q578 -486 527 -576Q476 -666 388.5 -718Q301 -770 198 -770ZM84 -768Q103 -768 141 -772Q179 -776 198 -776Q302 -776 391 -723Q480 -670 531 -578.5Q582 -487 582 -380Q582 -273 531.5 -182Q481 -91 393.5 -38Q306 15 202 16H50Q48 16 48 14V-768Q48 -770 50 -770Q66 -768 84 -768ZM424 -378Q424 -472 360 -539.5Q296 -607 204 -609V-146Q296 -148 360 -215.5Q424 -283 424 -378ZM200 -143V-612Q200 -614 202 -614Q297 -613 363.5 -544Q430 -475 430 -378Q430 -281 363.5 -211.5Q297 -142 202 -141Q200 -141 200 -143Z"/>
</svg>