<svg xmlns="http://www.w3.org/2000/svg" viewBox="0 -1000 1000 1000">
	<path fill="#000000" d="M307.5 -536.5Q307 -536.5 307 -536.5Q306 -536.5 305 -536.5Q301 -536.5 298 -537Q247.5 -540 212.75 -577Q178 -614 178 -665Q178 -716 212.75 -753.25Q247.5 -790.5 298 -793.5Q301 -794 305 -794Q306 -794 307 -794Q307 -794 307.5 -794Q308 -794 309 -794Q362.5 -794 400.25 -756.25Q438 -718.5 438 -665Q438 -611.5 400.25 -574Q362.5 -536.5 309 -536.5Q308 -536.5 307.5 -536.5ZM308 -718.5Q301.5 -718.5 296 -717V-717.5Q277.5 -713.5 265.5 -699Q253.5 -684.5 253.5 -665Q253.5 -646 265.5 -631.5Q277.5 -617 296 -613V-613.5Q301.5 -612 308 -612Q314 -612 320 -613.5V-613Q338.5 -617 350.5 -631.5Q362.5 -646 362.5 -665Q362.5 -684.5 350.5 -699Q338.5 -713.5 320 -717.5V-717Q314 -718.5 308 -718.5Z"/>
	<path fill="#2200f5" d="M307.5 -531.5Q307 -531.5 307 -531.5Q306 -531.5 305 -531.5Q301 -531.5 298 -532Q247.5 -535 212.75 -572Q178 -609 178 -660Q178 -711 212.75 -748.25Q247.5 -785.5 298 -788.5Q301 -789 305 -789Q306 -789 307 -789Q307 -789 307.5 -789Q308 -789 309 -789Q362.5 -789 400.25 -751.25Q438 -713.5 438 -660Q438 -606.5 400.25 -569Q362.5 -531.5 309 -531.5Q308 -531.5 307.5 -531.5ZM308 -713.5Q301.5 -713.5 296 -712V-712.5Q277.5 -708.5 265.5 -694Q253.5 -679.5 253.5 -660Q253.5 -641 265.5 -626.5Q277.5 -612 296 -608V-608.5Q301.5 -607 308 -607Q314 -607 320 -608.5V-608Q338.5 -612 350.5 -626.5Q362.5 -641 362.5 -660Q362.5 -679.5 350.5 -694Q338.5 -708.5 320 -712.5V-712Q314 -713.5 308 -713.5Z"/>
	<path fill="#00a0e1" d="M437 -660Q437 -713 399.5 -750.5Q362 -788 309 -788H307Q302 -788 298 -787.5Q248 -784 213.5 -747.25Q179 -710.5 179 -660Q179 -609.5 213.5 -573Q248 -536.5 298 -533Q302 -533 307 -533H309Q362 -533 399.5 -570Q437 -607 437 -660ZM177 -660Q177 -711.5 212 -749Q247 -786.5 298 -790Q301.5 -790 307 -790H309Q363 -790 401 -752Q439 -714 439 -660Q439 -606 401 -568.25Q363 -530.5 309 -530.5H307Q301.5 -530.5 298 -530.5Q247 -534 212 -571.25Q177 -608.5 177 -660ZM296 -711Q295.5 -711 295.5 -711Q277.5 -707 266.25 -693Q255 -679 255 -660Q255 -641.5 266.25 -627.5Q277.5 -613.5 295.5 -609.5Q295.5 -610 296 -610Q296 -610 296.5 -609.5Q301.5 -608.5 308 -608.5Q314 -608.5 319.5 -610Q320 -610 320 -610Q320.5 -610 321 -609.5Q338.5 -613.5 349.75 -627.5Q361 -641.5 361 -660Q361 -679 349.75 -693Q338.5 -707 321 -711Q320.5 -710.5 320 -710.5Q320 -710.5 319.5 -710.5Q314 -712 308 -712Q301.5 -712 296.5 -711Q296 -711 296 -711ZM320 -713.5Q339 -710 351.5 -695Q364 -680 364 -660Q364 -640.5 351.5 -625.5Q339 -610.5 320 -607Q319.5 -607 319 -607Q313.5 -606 308 -606Q302 -606 296.5 -607Q296.5 -607 296 -607Q277 -610.5 264.5 -625.5Q252 -640.5 252 -660Q252 -680 264.5 -695Q277 -710 296 -713.5Q296.5 -713.5 296.5 -713.5Q302 -714.5 308 -714.5Q313.5 -714.5 319 -713.5Q319.5 -713.5 320 -713.5Z"/>
</svg>