<svg xmlns="http://www.w3.org/2000/svg" viewBox="0 -1000 1000 1000">
	<path fill="#000000" d="M594 -506V-354H50V-506ZM250 -561V-703H402V-561ZM250 -161V-303H402V-161Z"/>
	<path fill="#2200f5" d="M594 -496V-344H50V-496ZM250 -551V-693H402V-551ZM250 -151V-293H402V-151Z"/>
	<path fill="#00a0e1" d="M592 -346V-494H52V-346ZM596 -496V-344Q596 -342 594 -342H50Q48 -342 48 -344V-496Q48 -498 50 -498H594Q596 -498 596 -496ZM252 -690V-554H400V-690ZM248 -551V-693Q248 -696 250 -696H402Q404 -696 404 -693V-551Q404 -548 402 -548H250Q248 -548 248 -551ZM252 -290V-154H400V-290ZM248 -151V-293Q248 -296 250 -296H402Q404 -296 404 -293V-151Q404 -148 402 -148H250Q248 -148 248 -151Z"/>
</svg>