<svg xmlns="http://www.w3.org/2000/svg" viewBox="0 -1000 1000 1000">
	<path fill="#000000" d="M333 -848L225 -955L407 -1137L515 -1030ZM509 -495L510 -343H202V-159H617L618 -7H51V-8H50V-784V-788H617L618 -636H202V-495Z"/>
	<path fill="#2200f5" d="M333 -838L225 -945L407 -1127L515 -1020ZM509 -485L510 -333H202V-149H617L618 3H51V2H50V-774V-778H617L618 -626H202V-485Z"/>
	<path fill="#00a0e1" d="M229 -945L333 -842L511 -1020L407 -1123ZM223 -947L405 -1129Q406 -1130 407 -1130Q408 -1130 409 -1129L517 -1022Q518 -1021 518 -1020Q518 -1019 517 -1018L335 -836Q334 -836 333 -836Q332 -836 331 -836L223 -943Q222 -944 222 -945Q222 -946 223 -947ZM202 -482Q200 -482 200 -485V-626Q200 -628 202 -628H615V-776H53Q53 -775 53 -774.5Q53 -774 53 -774Q53 -774 52 -774V0Q53 0 53 0H615V-146H202Q200 -146 200 -149V-333Q200 -336 202 -336H507V-482ZM510 -330H204V-152H617Q619 -152 619 -149L620 3Q620 6 618 6H51Q50 6 49 4Q48 3 48 2V-774Q48 -774 48 -778Q48 -780 50 -780H617Q619 -780 619 -778L620 -626Q620 -624 618 -624H204V-488H509Q511 -488 511 -485L512 -333Q512 -330 510 -330Z"/>
</svg>