<svg xmlns="http://www.w3.org/2000/svg" viewBox="0 -1000 1000 1000">
	<path fill="#000000" d="M619 253Q619 253 606 253Q552 253 514.5 215.5Q477 178 477 125Q477 71 514.5 33.5Q552 -4 606 -4H619V73Q611 71 606 71Q584 71 568 87Q552 103 552 125Q552 147 567.5 162.5Q583 178 606 178Q611 178 619 176ZM509 -495L510 -343H202V-159H617L618 -7H51V-8H50V-784V-788H617L618 -636H202V-495Z"/>
	<path fill="#2200f5" d="M619 263Q619 263 606 263Q552 263 514.5 225.5Q477 188 477 135Q477 81 514.5 43.5Q552 6 606 6H619V83Q611 81 606 81Q584 81 568 97Q552 113 552 135Q552 157 567.5 172.5Q583 188 606 188Q611 188 619 186ZM509 -485L510 -333H202V-149H617L618 3H51V2H50V-774V-778H617L618 -626H202V-485Z"/>
	<path fill="#00a0e1" d="M616 9H606Q553 9 516.5 45.5Q480 82 480 135Q480 187 516.5 224Q553 261 606 261H616V189Q610 191 606 191Q582 191 566 174.5Q550 158 550 134.5Q550 111 566 95Q582 79 606 79Q610 79 616 80ZM619 265H606Q551 265 512.5 227Q474 189 474 135Q474 80 512.5 41.5Q551 3 606 3H619Q622 3 622 6V83Q622 85 619 85Q619 85 618 85Q611 83 606 83Q585 83 569.5 98.5Q554 114 554 135Q554 156 569 170.5Q584 185 606 185Q611 185 618 184Q619 183 619 183Q622 183 622 186V263Q622 265 619 265ZM202 -482Q200 -482 200 -485V-626Q200 -628 202 -628H615V-776H53Q53 -775 53 -774.5Q53 -774 53 -774Q53 -774 52 -774V0Q53 0 53 0H615V-146H202Q200 -146 200 -149V-333Q200 -336 202 -336H507V-482ZM510 -330H204V-152H617Q619 -152 619 -149L620 3Q620 6 618 6H51Q50 6 49 4Q48 3 48 2V-774Q48 -774 48 -778Q48 -780 50 -780H617Q619 -780 619 -778L620 -626Q620 -624 618 -624H204V-488H509Q511 -488 511 -485L512 -333Q512 -330 510 -330Z"/>
</svg>