<svg xmlns="http://www.w3.org/2000/svg" viewBox="0 -1000 1000 1000">
	<path fill="#000000" d="M50 -14V-167Q62 -164 76 -164Q121 -164 152 -195Q183 -226 183 -270Q183 -315 152 -346Q121 -377 76 -377Q62 -377 50 -374V-407V-527V-783H51V-784H368L367 -632H202V-495Q262 -461 298 -401.5Q334 -342 334 -270Q334 -163 258.5 -88Q183 -13 76 -13Q59 -13 50 -14Z"/>
	<path fill="#2200f5" d="M50 -4V-157Q62 -154 76 -154Q121 -154 152 -185Q183 -216 183 -260Q183 -305 152 -336Q121 -367 76 -367Q62 -367 50 -364V-397V-517V-773H51V-774H368L367 -622H202V-485Q262 -451 298 -391.5Q334 -332 334 -260Q334 -153 258.5 -78Q183 -3 76 -3Q59 -3 50 -4Z"/>
	<path fill="#00a0e1" d="M76 -6Q182 -6 257 -80Q332 -154 332 -260Q332 -331 296 -390.5Q260 -450 201 -483Q200 -484 200 -485V-622Q200 -624 202 -624H365V-772H53Q53 -771 52 -771V-367Q64 -370 76 -370Q122 -370 154 -338Q186 -306 186 -260Q186 -215 154 -183.5Q122 -152 76 -152Q64 -152 52 -154V-6Q60 -6 76 -6ZM48 -4V-157Q48 -160 50 -160Q50 -160 51 -159Q62 -156 76 -156Q120 -156 150 -186.5Q180 -217 180 -260Q180 -304 150 -334Q120 -364 76 -364Q62 -364 51 -362Q50 -362 50 -362Q48 -362 48 -364V-773Q48 -774 49 -775Q50 -776 51 -776H368Q370 -776 370 -774L369 -622Q369 -620 367 -620H204V-486Q265 -452 300.5 -392Q336 -332 336 -260Q336 -152 260 -76Q184 0 76 0Q59 0 50 -2Q48 -2 48 -4Z"/>
</svg>