<svg xmlns="http://www.w3.org/2000/svg" viewBox="0 -1000 1000 1000">
	<path fill="#000000" d="M239 -57L306 -169Q313 -162 328 -157Q368 -140 399.5 -144Q431 -148 451 -172Q474 -199 429 -211Q417 -214 375 -221Q309 -247 269 -281.5Q229 -316 221 -358Q213 -400 251 -444Q259 -454 276 -476Q293 -498 302 -508.5Q311 -519 327.5 -535.5Q344 -552 358 -558.5Q372 -565 391.5 -570.5Q411 -576 433.5 -572.5Q456 -569 482 -559Q483 -559 484 -559Q529 -559 560 -590Q591 -621 591 -666Q591 -696 495.5 -712Q400 -728 297 -722.5Q194 -717 173 -693V-12H6L9 -694Q33 -777 100 -829Q141 -861 220 -873.5Q299 -886 387 -876Q475 -866 555.5 -841.5Q636 -817 689 -770Q742 -723 742 -666Q742 -589 730.5 -542Q719 -495 699 -476Q679 -457 654 -452Q629 -447 598.5 -450.5Q568 -454 539 -456Q510 -458 479 -447.5Q448 -437 426 -410Q410 -392 405.5 -365Q401 -338 414 -314Q427 -290 457 -285Q496 -268 525 -253.5Q554 -239 580.5 -219Q607 -199 618.5 -179.5Q630 -160 627.5 -135.5Q625 -111 603 -85Q556 -28 456 -15.5Q356 -3 261 -44Q253 -46 239 -57Z"/>
	<path fill="#2200f5" d="M239 -47L306 -159Q313 -152 328 -147Q368 -130 399.5 -134Q431 -138 451 -162Q474 -189 429 -201Q417 -204 375 -211Q309 -237 269 -271.5Q229 -306 221 -348Q213 -390 251 -434Q259 -444 276 -466Q293 -488 302 -498.5Q311 -509 327.5 -525.5Q344 -542 358 -548.5Q372 -555 391.5 -560.5Q411 -566 433.5 -562.5Q456 -559 482 -549Q483 -549 484 -549Q529 -549 560 -580Q591 -611 591 -656Q591 -686 495.5 -702Q400 -718 297 -712.5Q194 -707 173 -683V-2H6L9 -684Q33 -767 100 -819Q141 -851 220 -863.5Q299 -876 387 -866Q475 -856 555.5 -831.5Q636 -807 689 -760Q742 -713 742 -656Q742 -579 730.5 -532Q719 -485 699 -466Q679 -447 654 -442Q629 -437 598.5 -440.5Q568 -444 539 -446Q510 -448 479 -437.5Q448 -427 426 -400Q410 -382 405.5 -355Q401 -328 414 -304Q427 -280 457 -275Q496 -258 525 -243.5Q554 -229 580.5 -209Q607 -189 618.5 -169.5Q630 -150 627.5 -125.5Q625 -101 603 -75Q556 -18 456 -5.5Q356 7 261 -34Q253 -36 239 -47Z"/>
	<path fill="#00a0e1" d="M532 -448Q548 -448 579.5 -445Q611 -442 626 -442Q647 -442 662.5 -446.5Q678 -451 693.5 -464Q709 -477 718.5 -500Q728 -523 734 -562.5Q740 -602 740 -656Q740 -720 673 -769.5Q606 -819 510 -843Q414 -867 314 -867Q166 -867 102 -817Q35 -766 11 -684L9 -4H170V-683Q170 -684 171 -685Q198 -716 347 -716Q455 -716 528 -698Q594 -682 594 -656Q594 -610 562 -578Q530 -546 484 -546Q481 -546 481 -547Q446 -561 416 -561Q393 -561 374 -553.5Q355 -546 336.5 -529.5Q318 -513 307 -500.5Q296 -488 277 -463Q261 -442 253 -432Q223 -397 223 -361Q223 -318 263.5 -280Q304 -242 375 -213Q379 -213 388 -211.5Q397 -210 401.5 -209Q406 -208 414.5 -206.5Q423 -205 427.5 -204Q432 -203 438 -201Q444 -199 447.5 -197Q451 -195 454.5 -192Q458 -189 460 -186Q462 -183 462 -179Q462 -171 453 -160Q427 -130 386 -130Q358 -130 327 -145Q313 -149 306 -155L242 -48Q254 -38 261 -36Q261 -36 262 -36Q333 -5 412 -5Q473 -5 523 -24Q573 -43 601 -77Q626 -106 626 -134Q626 -173 580.5 -206Q535 -239 456 -273Q429 -277 416 -296Q403 -315 403 -340Q403 -377 424 -402Q463 -448 532 -448ZM626 -437Q611 -437 579.5 -440Q548 -443 532 -443Q465 -443 428 -398Q408 -375 408 -340Q408 -317 420 -299.5Q432 -282 457 -277Q457 -277 458 -277Q538 -243 584.5 -209Q631 -175 631 -134Q631 -105 605 -73Q576 -38 525 -19Q474 0 412 0Q332 0 260 -32Q252 -34 237 -45Q236 -46 236 -47Q236 -48 236 -48L303 -160Q304 -162 306 -162Q307 -162 307 -161Q314 -154 328 -149Q329 -149 329 -149Q359 -135 386 -135Q425 -135 449 -164Q457 -173 457 -179Q457 -185 450.5 -189.5Q444 -194 429 -198Q414 -202 405 -203.5Q396 -205 374 -209Q302 -237 260 -276.5Q218 -316 218 -361Q218 -399 249 -436Q257 -445 273 -466Q292 -491 303 -503.5Q314 -516 333 -533.5Q352 -551 372 -558.5Q392 -566 416 -566Q446 -566 482 -552Q483 -552 484 -552Q528 -552 558 -582Q588 -612 588 -656Q588 -678 527 -693Q454 -711 347 -711Q284 -711 236 -703Q188 -695 176 -682V-2Q176 0 173 0H6Q4 0 4 -2L7 -684Q7 -684 7 -685Q31 -768 98 -821Q164 -872 314 -872Q388 -872 463 -857.5Q538 -843 601.5 -817Q665 -791 704.5 -748.5Q744 -706 744 -656Q744 -588 735.5 -543Q727 -498 710 -476Q693 -454 673.5 -445.5Q654 -437 626 -437Z"/>
</svg>