<svg xmlns="http://www.w3.org/2000/svg" viewBox="0 -1000 1000 1000">
	<path fill="#000000" d="M50 -556L594 -413V-412V-261V-260L50 -154V-306L264 -348L50 -404Z"/>
	<path fill="#2200f5" d="M50 -546L594 -403V-402V-251V-250L50 -144V-296L264 -338L50 -394Z"/>
	<path fill="#00a0e1" d="M264 -336L52 -294V-147L592 -252V-401L52 -543V-396L265 -340Q266 -340 266 -338Q266 -336 264 -336ZM596 -403V-250Q596 -248 594 -248L50 -142Q48 -142 48 -144V-296Q48 -298 50 -298L253 -338L49 -392Q48 -392 48 -394V-546Q48 -548 50 -548Q50 -548 51 -548L595 -405Q596 -405 596 -403Z"/>
</svg>