<svg xmlns="http://www.w3.org/2000/svg" viewBox="0 -1000 1000 1000">
	<path fill="#000000" d="M50 -673L594 -413V-412V-261V-260L50 -16V-168L456 -348L50 -521ZM650 -673L1194 -413V-412V-261V-260L650 -16V-168L1056 -348L650 -521Z"/>
	<path fill="#2200f5" d="M50 -663L594 -403V-402V-251V-250L50 -6V-158L456 -338L50 -511ZM650 -663L1194 -403V-402V-251V-250L650 -6V-158L1056 -338L650 -511Z"/>
	<path fill="#00a0e1" d="M457 -335L52 -156V-10L592 -252V-401L52 -659V-513L457 -340Q459 -339 459 -337.5Q459 -336 457 -335ZM596 -403V-250Q596 -248 595 -248L51 -4Q51 -4 50 -4Q48 -4 48 -6V-158Q48 -160 49 -160L450 -338L49 -509Q48 -509 48 -511V-663Q48 -666 50 -666Q51 -666 51 -665L595 -405Q596 -405 596 -403ZM1057 -335L652 -156V-10L1192 -252V-401L652 -659V-513L1057 -340Q1059 -339 1059 -337.5Q1059 -336 1057 -335ZM1196 -403V-250Q1196 -248 1195 -248L651 -4Q651 -4 650 -4Q648 -4 648 -6V-158Q648 -160 649 -160L1050 -338L649 -509Q648 -509 648 -511V-663Q648 -666 650 -666Q651 -666 651 -665L1195 -405Q1196 -405 1196 -403Z"/>
</svg>