<svg xmlns="http://www.w3.org/2000/svg" viewBox="0 -1000 1000 1000">
	<path fill="#000000" d="M-71 -442V-519Q-63 -517 -58 -517Q-35 -517 -19.5 -532.5Q-4 -548 -4 -570Q-4 -592 -20 -608Q-36 -624 -58 -624Q-63 -624 -71 -622V-699H-58Q-4 -699 33.5 -661.5Q71 -624 71 -570Q71 -517 33.5 -479.5Q-4 -442 -58 -442Z"/>
	<path fill="#2200f5" d="M-71 -432V-509Q-63 -507 -58 -507Q-35 -507 -19.5 -522.5Q-4 -538 -4 -560Q-4 -582 -20 -598Q-36 -614 -58 -614Q-63 -614 -71 -612V-689H-58Q-4 -689 33.5 -651.5Q71 -614 71 -560Q71 -507 33.5 -469.5Q-4 -432 -58 -432Z"/>
	<path fill="#00a0e1" d="M-67 -434H-57Q-4 -434 32.5 -471Q69 -508 69 -560Q69 -613 32.5 -649.5Q-4 -686 -57 -686H-67V-615Q-61 -616 -57 -616Q-33 -616 -17 -600Q-1 -584 -1 -560.5Q-1 -537 -17 -520.5Q-33 -504 -57 -504Q-61 -504 -67 -506ZM-73 -432V-509Q-73 -512 -70 -512Q-70 -512 -69 -511Q-62 -510 -57 -510Q-35 -510 -20 -524.5Q-5 -539 -5 -560Q-5 -581 -20.5 -596.5Q-36 -612 -57 -612Q-62 -612 -69 -610Q-70 -610 -70 -610Q-73 -610 -73 -612V-689Q-73 -692 -70 -692H-57Q-2 -692 36.5 -653.5Q75 -615 75 -560Q75 -506 36.5 -468Q-2 -430 -57 -430H-70Q-73 -430 -73 -432Z"/>
</svg>