<svg xmlns="http://www.w3.org/2000/svg" viewBox="0 -1000 1000 1000">
	<path fill="#000000" d="M254 -968Q254 -968 254 -954Q254 -901 217 -863.5Q180 -826 126 -826Q72 -826 35 -863Q-2 -900 -2 -954V-968H74Q72 -960 72 -954Q72 -932 88 -916Q104 -900 126.5 -900Q149 -900 164.5 -916Q180 -932 180 -954Q180 -960 178 -968ZM50 -784H202V-8H50Z"/>
	<path fill="#2200f5" d="M254 -958Q254 -958 254 -944Q254 -891 217 -853.5Q180 -816 126 -816Q72 -816 35 -853Q-2 -890 -2 -944V-958H74Q72 -950 72 -944Q72 -922 88 -906Q104 -890 126.5 -890Q149 -890 164.5 -906Q180 -922 180 -944Q180 -950 178 -958ZM50 -774H202V2H50Z"/>
	<path fill="#00a0e1" d="M0 -955V-944Q0 -892 37 -855Q74 -818 126.5 -818Q179 -818 215.5 -855Q252 -892 252 -944V-955H181Q182 -949 182 -944Q182 -921 166 -904.5Q150 -888 126.5 -888Q103 -888 86.5 -904.5Q70 -921 70 -944Q70 -949 71 -955ZM257 -958V-944Q257 -890 219 -851.5Q181 -813 126 -813Q71 -813 33 -851Q-5 -889 -5 -944V-958Q-5 -960 -2 -960H74Q77 -960 77 -958Q77 -957 77 -957Q75 -949 75 -944Q75 -923 90 -908Q105 -893 126.5 -893Q148 -893 162.5 -908Q177 -923 177 -944Q177 -949 175 -957Q175 -957 175 -958Q175 -960 178 -960H254Q257 -960 257 -958ZM200 -772H52V0H200ZM50 -776H202Q204 -776 204 -774V2Q204 4 202 4H50Q48 4 48 2V-774Q48 -776 50 -776Z"/>
</svg>