<svg xmlns="http://www.w3.org/2000/svg" viewBox="0 -1000 1000 1000">
	<path fill="#000000" d="M26 -844L97 -1012H98H173H174L226 -844H150L130 -952L102 -844ZM50 -784H202V-8H50Z"/>
	<path fill="#2200f5" d="M26 -834L97 -1002H98H173H174L226 -834H150L130 -942L102 -834ZM50 -774H202V2H50Z"/>
	<path fill="#00a0e1" d="M132 -942L153 -837H223L172 -999H99L29 -837H100L127 -942Q128 -944 130 -944Q132 -944 132 -942ZM97 -1004H174Q175 -1004 176 -1002L229 -835Q229 -835 229 -834Q229 -832 226 -832H150Q148 -832 148 -834L129 -930L104 -834Q103 -832 102 -832H26Q23 -832 23 -834Q23 -835 23 -835L95 -1002Q95 -1004 97 -1004ZM200 -772H52V0H200ZM50 -776H202Q204 -776 204 -774V2Q204 4 202 4H50Q48 4 48 2V-774Q48 -776 50 -776Z"/>
</svg>