<svg xmlns="http://www.w3.org/2000/svg" viewBox="0 -1000 1000 1000">
	<path fill="#000000" d="M150 -844V-986H302V-844ZM-50 -844V-986H102V-844ZM50 -784H202V-8H50Z"/>
	<path fill="#2200f5" d="M150 -834V-976H302V-834ZM-50 -834V-976H102V-834ZM50 -774H202V2H50Z"/>
	<path fill="#00a0e1" d="M152 -974V-836H300V-974ZM148 -834V-976Q148 -978 150 -978H302Q304 -978 304 -976V-834Q304 -832 302 -832H150Q148 -832 148 -834ZM-48 -974V-836H100V-974ZM-52 -834V-976Q-52 -978 -50 -978H102Q104 -978 104 -976V-834Q104 -832 102 -832H-50Q-52 -832 -52 -834ZM200 -772H52V0H200ZM50 -776H202Q204 -776 204 -774V2Q204 4 202 4H50Q48 4 48 2V-774Q48 -776 50 -776Z"/>
</svg>