<svg xmlns="http://www.w3.org/2000/svg" viewBox="0 -1000 1000 1000">
	<path fill="#000000" d="M251 -961V-885Q250 -883 242.5 -874Q235 -865 219 -854.5Q203 -844 187 -844H137Q121 -844 98.5 -858Q76 -872 60 -872Q49 -872 34 -865Q19 -858 10 -851L1 -844V-920Q33 -948 58 -948Q75 -948 98.5 -934.5Q122 -921 138 -921Q161 -921 183 -921Q198 -921 215 -931Q232 -941 241 -951ZM50 -784H202V-8H50Z"/>
	<path fill="#2200f5" d="M251 -951V-875Q250 -873 242.5 -864Q235 -855 219 -844.5Q203 -834 187 -834H137Q121 -834 98.5 -848Q76 -862 60 -862Q49 -862 34 -855Q19 -848 10 -841L1 -834V-910Q33 -938 58 -938Q75 -938 98.5 -924.5Q122 -911 138 -911Q161 -911 183 -911Q198 -911 215 -921Q232 -931 241 -941ZM50 -774H202V2H50Z"/>
	<path fill="#00a0e1" d="M138 -908Q121 -908 97.5 -922Q74 -936 58 -936Q36 -936 4 -909V-839Q37 -865 60 -865Q77 -865 99 -851Q121 -837 137 -837H187Q206 -837 222.5 -850Q239 -863 248 -875V-944Q214 -908 183 -908Q183 -908 138 -908ZM58 -941Q75 -941 98.5 -927Q122 -913 138 -913Q161 -913 183 -913Q197 -913 214.5 -924Q232 -935 238.5 -941.5Q245 -948 249 -952Q250 -953 251 -953Q253 -953 253 -951V-875Q253 -872 245 -862.5Q237 -853 220.5 -842.5Q204 -832 187 -832H137Q120 -832 98 -846Q76 -860 60 -860Q50 -860 35.5 -853Q21 -846 12 -839L3 -832Q2 -832 1 -832Q-1 -832 -1 -834V-910Q-1 -911 0 -912Q32 -941 58 -941ZM200 -772H52V0H200ZM50 -776H202Q204 -776 204 -774V2Q204 4 202 4H50Q48 4 48 2V-774Q48 -776 50 -776Z"/>
</svg>