<svg xmlns="http://www.w3.org/2000/svg" viewBox="0 -1000 1000 1000">
	<path fill="#000000" d="M50 -16V-184Q81 -158 121 -158Q170 -158 202 -195V-771H369L366 -194Q342 -111 275 -59Q208 -7 121 -7Q84 -7 50 -16Z"/>
	<path fill="#2200f5" d="M50 -6V-174Q81 -148 121 -148Q170 -148 202 -185V-761H369L366 -184Q342 -101 275 -49Q208 3 121 3Q84 3 50 -6Z"/>
	<path fill="#00a0e1" d="M204 -758V-185Q204 -184 204 -183Q171 -146 121 -146Q83 -146 52 -169V-8Q86 0 121 0Q207 0 273.5 -51Q340 -102 364 -184L366 -758ZM48 -6V-174Q48 -176 50 -176Q51 -176 52 -176Q82 -150 121 -150Q168 -150 200 -186V-761Q200 -764 202 -764H369Q372 -764 372 -761L368 -184Q368 -184 368 -183Q345 -100 277 -47Q209 6 121 6Q84 6 49 -4Q48 -4 48 -6Z"/>
</svg>