<svg xmlns="http://www.w3.org/2000/svg" viewBox="0 -1000 1000 1000">
	<path fill="#000000" d="M186 -842L257 -1010H258H333H334L386 -842H310L290 -950L262 -842ZM50 -16V-184Q81 -158 121 -158Q170 -158 202 -195V-771H369L366 -194Q342 -111 275 -59Q208 -7 121 -7Q84 -7 50 -16Z"/>
	<path fill="#2200f5" d="M186 -832L257 -1000H258H333H334L386 -832H310L290 -940L262 -832ZM50 -6V-174Q81 -148 121 -148Q170 -148 202 -185V-761H369L366 -184Q342 -101 275 -49Q208 3 121 3Q84 3 50 -6Z"/>
	<path fill="#00a0e1" d="M292 -940L313 -835H383L332 -997H259L189 -835H260L287 -940Q288 -942 290 -942Q292 -942 292 -940ZM257 -1002H334Q335 -1002 336 -1000L389 -833Q389 -833 389 -832Q389 -830 386 -830H310Q308 -830 308 -832L289 -928L264 -832Q263 -830 262 -830H186Q183 -830 183 -832Q183 -833 183 -833L255 -1000Q255 -1002 257 -1002ZM204 -758V-185Q204 -184 204 -183Q171 -146 121 -146Q83 -146 52 -169V-8Q86 0 121 0Q207 0 273.5 -51Q340 -102 364 -184L366 -758ZM48 -6V-174Q48 -176 50 -176Q51 -176 52 -176Q82 -150 121 -150Q168 -150 200 -186V-761Q200 -764 202 -764H369Q372 -764 372 -761L368 -184Q368 -184 368 -183Q345 -100 277 -47Q209 6 121 6Q84 6 49 -4Q48 -4 48 -6Z"/>
</svg>