<svg xmlns="http://www.w3.org/2000/svg" viewBox="0 -1000 1000 1000">
	<path fill="#000000" d="M50 -784H202V-443L447 -780L633 -778L372 -397L703 -7L511 -8L259 -312L202 -229V-8H50Z"/>
	<path fill="#2200f5" d="M50 -774H202V-433L447 -770L633 -768L372 -387L703 3L511 2L259 -302L202 -219V2H50Z"/>
	<path fill="#00a0e1" d="M200 -772H52V0H200V-219Q200 -219 200 -220L257 -303Q258 -304 259 -304Q260 -304 261 -303L512 0H698L370 -385Q370 -386 370 -387Q370 -388 370 -388L628 -766L448 -767L204 -431Q203 -430 202 -430Q200 -430 200 -433ZM50 -776H202Q204 -776 204 -774V-441L445 -771Q446 -773 447 -772L633 -770Q636 -770 636 -768Q636 -767 635 -767L375 -387L705 1Q706 2 706 3Q706 6 703 6L511 4Q510 4 509 4L259 -298L204 -218V2Q204 4 202 4H50Q48 4 48 2V-774Q48 -776 50 -776Z"/>
</svg>