<svg xmlns="http://www.w3.org/2000/svg" viewBox="0 -1000 1000 1000">
	<path fill="#000000" d="M126 -844L18 -951L200 -1133L308 -1026ZM50 -784H202V-159H667L668 -7H51V-8H50Z"/>
	<path fill="#2200f5" d="M126 -834L18 -941L200 -1123L308 -1016ZM50 -774H202V-149H667L668 3H51V2H50Z"/>
	<path fill="#00a0e1" d="M22 -941L126 -838L304 -1016L200 -1119ZM16 -943L198 -1125Q199 -1126 200 -1126Q201 -1126 202 -1125L310 -1018Q311 -1017 311 -1016Q311 -1015 310 -1014L128 -832Q127 -832 126 -832Q125 -832 124 -832L16 -939Q15 -940 15 -941Q15 -942 16 -943ZM200 -772H52V0Q53 0 53 0H665V-146H202Q200 -146 200 -149ZM50 -776H202Q204 -776 204 -774V-152H667Q669 -152 669 -149L670 3Q670 6 668 6H51Q50 6 49 4Q48 3 48 2V-774Q48 -776 50 -776Z"/>
</svg>