<svg xmlns="http://www.w3.org/2000/svg" viewBox="0 -1000 1000 1000">
	<path fill="#000000" d="M283 -324V-466H435V-324ZM50 -784H202V-159H667L668 -7H51V-8H50Z"/>
	<path fill="#2200f5" d="M283 -314V-456H435V-314ZM50 -774H202V-149H667L668 3H51V2H50Z"/>
	<path fill="#00a0e1" d="M285 -454V-316H433V-454ZM281 -314V-456Q281 -458 283 -458H435Q437 -458 437 -456V-314Q437 -312 435 -312H283Q281 -312 281 -314ZM200 -772H52V0Q53 0 53 0H665V-146H202Q200 -146 200 -149ZM50 -776H202Q204 -776 204 -774V-152H667Q669 -152 669 -149L670 3Q670 6 668 6H51Q50 6 49 4Q48 3 48 2V-774Q48 -776 50 -776Z"/>
</svg>