<svg xmlns="http://www.w3.org/2000/svg" viewBox="0 -1000 1000 1000">
	<path fill="#000000" d="M50 -778H202L526 -156L850 -778H1002V-8H850V-486L602 -10H450L202 -486V-8H50Z"/>
	<path fill="#2200f5" d="M50 -768H202L526 -146L850 -768H1002V2H850V-476L602 0H450L202 -476V2H50Z"/>
	<path fill="#00a0e1" d="M52 -766V0H200V-476Q200 -479 202 -479Q204 -479 204 -477L452 -2H600L848 -477Q848 -479 850 -479Q852 -479 852 -476V0H1000V-766H852L528 -145Q528 -143 526 -143Q524 -143 524 -145L200 -766ZM50 -770H202Q204 -770 204 -769L526 -151L848 -769Q848 -770 850 -770H1002Q1004 -770 1004 -768V2Q1004 4 1002 4H850Q848 4 848 2V-466L604 1Q604 2 602 2H450Q448 2 448 1L204 -466V2Q204 4 202 4H50Q48 4 48 2V-768Q48 -770 50 -770Z"/>
</svg>