<svg xmlns="http://www.w3.org/2000/svg" viewBox="0 -1000 1000 1000">
	<path fill="#000000" d="M277 -156Q362 -156 426 -212Q490 -268 503 -352Q433 -276 330 -269Q322 -268 316 -268Q313 -268 312 -268Q312 -268 311 -268Q310 -268 308 -268Q217 -268 146.5 -324.5Q76 -381 56 -468Q50 -496 50 -526Q50 -566 62 -604Q92 -698 178 -748Q227 -782 277 -782Q281 -782 284 -782Q296 -783 308 -783Q309 -783 310 -783Q311 -783 311 -783Q311 -783 312 -783Q314 -783 316 -783Q324 -783 330 -782Q410 -776 472 -727Q557 -675 608 -585Q659 -495 659 -388Q659 -225 547 -110Q435 5 277 5Q194 5 158 -2V-168Q173 -163 213 -159.5Q253 -156 277 -156ZM326 -401Q337 -401 350 -404V-403Q387 -411 411 -440Q435 -469 435 -508Q435 -562 391 -594Q376 -603 359 -610Q354 -611 350 -612V-611Q339 -614 326 -614Q314 -614 302 -611V-612Q265 -604 241 -575Q217 -546 217 -508Q217 -469 241 -440Q265 -411 302 -403V-404Q314 -401 326 -401Z"/>
	<path fill="#2200f5" d="M277 -146Q362 -146 426 -202Q490 -258 503 -342Q433 -266 330 -259Q322 -258 316 -258Q313 -258 312 -258Q312 -258 311 -258Q310 -258 308 -258Q217 -258 146.5 -314.5Q76 -371 56 -458Q50 -486 50 -516Q50 -556 62 -594Q92 -688 178 -738Q227 -772 277 -772Q281 -772 284 -772Q296 -773 308 -773Q309 -773 310 -773Q311 -773 311 -773Q311 -773 312 -773Q314 -773 316 -773Q324 -773 330 -772Q410 -766 472 -717Q557 -665 608 -575Q659 -485 659 -378Q659 -215 547 -100Q435 15 277 15Q194 15 158 8V-158Q173 -153 213 -149.5Q253 -146 277 -146ZM326 -391Q337 -391 350 -394V-393Q387 -401 411 -430Q435 -459 435 -498Q435 -552 391 -584Q376 -593 359 -600Q354 -601 350 -602V-601Q339 -604 326 -604Q314 -604 302 -601V-602Q265 -594 241 -565Q217 -536 217 -498Q217 -459 241 -430Q265 -401 302 -393V-394Q314 -391 326 -391Z"/>
	<path fill="#00a0e1" d="M308 -770Q303 -770 292.5 -770Q282 -770 277 -770Q227 -770 179 -736Q94 -686 64 -593Q52 -556 52 -516Q52 -487 59 -459Q79 -372 148 -316Q217 -260 308 -260Q308 -260 312 -260Q321 -260 330 -261Q432 -268 501 -344Q502 -345 503 -345Q506 -345 506 -342Q506 -342 505 -342Q492 -257 427.5 -200.5Q363 -144 277 -144Q200 -144 160 -155V6Q199 12 277 12Q380 12 467.5 -40Q555 -92 605.5 -182Q656 -272 656 -378Q656 -484 606 -573.5Q556 -663 471 -715Q470 -715 470 -715Q409 -763 330 -770Q322 -770 312 -770ZM327 -394Q338 -394 349 -396Q350 -396 350 -396Q351 -396 351 -396Q387 -404 409.5 -432Q432 -460 432 -498Q432 -551 390 -582Q375 -591 358 -597Q355 -598 351 -599Q351 -598 350 -598Q350 -598 349 -599Q339 -601 326 -601Q314 -601 303 -598Q302 -598 302 -598Q301 -598 300 -599Q265 -591 242.5 -563Q220 -535 220 -498Q220 -460 242.5 -432Q265 -404 300 -396Q301 -397 302 -397Q302 -397 303 -397Q314 -394 326 -394Q326 -394 327 -394ZM662 -378Q662 -271 610.5 -179.5Q559 -88 470 -35Q381 18 277 18Q194 18 158 10Q156 10 156 8V-158Q156 -161 158 -161Q158 -161 159 -160Q174 -155 213.5 -151.5Q253 -148 277 -148Q359 -148 421 -201Q483 -254 499 -334Q430 -263 330 -256Q321 -256 312 -256H308Q216 -256 145 -313Q74 -370 54 -457Q48 -486 48 -516Q48 -556 60 -595Q90 -690 176 -740Q189 -749 213.5 -758Q238 -767 256 -771Q274 -775 278 -775Q278 -775 277.5 -775Q277 -775 277 -774Q281 -774 284 -774Q296 -775 308 -775H312Q323 -775 330 -775Q411 -768 473 -719Q559 -666 610.5 -575.5Q662 -485 662 -378ZM327 -389Q326 -389 326 -389Q315 -389 304 -391Q303 -391 302 -391Q264 -398 239 -428Q214 -458 214 -498Q214 -537 239 -567Q264 -597 302 -604Q303 -604 304 -604Q315 -606 326 -606Q338 -606 349 -604Q349 -604 350 -604Q354 -604 360 -602Q377 -595 393 -586Q438 -554 438 -498Q438 -458 413 -428Q388 -398 350 -391Q349 -391 349 -391Q337 -389 327 -389Z"/>
</svg>