<svg xmlns="http://www.w3.org/2000/svg" viewBox="0 -1000 1000 1000">
	<path fill="#000000" d="M149 -702H301L288 -628H436L449 -702H601L588 -628H599V-476H561L544 -378H599V-226H517L505 -159H353L365 -226H217L205 -159H53L65 -226H55V-378H92L109 -476H55V-628H136ZM409 -476H261L244 -378H392Z"/>
	<path fill="#2200f5" d="M149 -692H301L288 -618H436L449 -692H601L588 -618H599V-466H561L544 -368H599V-216H517L505 -149H353L365 -216H217L205 -149H53L65 -216H55V-368H92L109 -466H55V-618H136ZM409 -466H261L244 -368H392Z"/>
	<path fill="#00a0e1" d="M136 -616H58V-468H109Q112 -468 112 -466Q112 -466 94 -368Q94 -366 92 -366H58V-218H65Q67 -218 67 -216L56 -152H203L214 -216Q215 -218 217 -218H365Q367 -218 367 -216L356 -152H503L514 -216Q515 -218 517 -218H596V-366H544Q541 -366 541 -368L559 -466Q559 -468 561 -468H596V-616H588Q585 -616 585 -618L598 -690H451L438 -618Q438 -616 436 -616H288Q285 -616 285 -618L298 -690H151L138 -618Q138 -616 136 -616ZM149 -694H301Q304 -694 304 -692H303L291 -620H434L447 -692Q447 -694 449 -694H601Q604 -694 604 -692H603L591 -620H599Q602 -620 602 -618V-466Q602 -464 599 -464H563L547 -370H599Q602 -370 602 -368V-216Q602 -214 599 -214H519L507 -149Q507 -146 505 -146H353Q350 -146 350 -149H351L362 -214H219L207 -149Q207 -146 205 -146H53Q50 -146 50 -149H51L62 -214H55Q52 -214 52 -216V-368Q52 -370 55 -370H90L106 -464H55Q52 -464 52 -466V-618Q52 -620 55 -620H134L147 -692Q147 -694 149 -694ZM390 -370L406 -464H263L247 -370ZM392 -366H244Q241 -366 241 -368L259 -466Q259 -468 261 -468H409Q412 -468 412 -466L394 -368Q394 -366 392 -366Z"/>
</svg>