<svg xmlns="http://www.w3.org/2000/svg" viewBox="0 -1000 1000 1000">
	<path fill="#000000" d="M560 -967Q560 -967 560 -953Q560 -900 523 -862.5Q486 -825 432 -825Q378 -825 341 -862Q304 -899 304 -953V-967H380Q378 -959 378 -953Q378 -931 394 -915Q410 -899 432.5 -899Q455 -899 470.5 -915Q486 -931 486 -953Q486 -959 484 -967ZM814 -390Q814 -227 702 -111.5Q590 4 432 4Q274 4 162 -111.5Q50 -227 50 -390Q50 -553 162 -668Q274 -783 432 -783Q590 -783 702 -668Q814 -553 814 -390ZM661 -388Q661 -485 594 -553.5Q527 -622 432 -622Q337 -622 270 -553.5Q203 -485 203 -388Q203 -290 270 -221.5Q337 -153 432 -153Q527 -153 594 -221.5Q661 -290 661 -388Z"/>
	<path fill="#2200f5" d="M560 -957Q560 -957 560 -943Q560 -890 523 -852.5Q486 -815 432 -815Q378 -815 341 -852Q304 -889 304 -943V-957H380Q378 -949 378 -943Q378 -921 394 -905Q410 -889 432.5 -889Q455 -889 470.5 -905Q486 -921 486 -943Q486 -949 484 -957ZM814 -380Q814 -217 702 -101.5Q590 14 432 14Q274 14 162 -101.5Q50 -217 50 -380Q50 -543 162 -658Q274 -773 432 -773Q590 -773 702 -658Q814 -543 814 -380ZM661 -378Q661 -475 594 -543.5Q527 -612 432 -612Q337 -612 270 -543.5Q203 -475 203 -378Q203 -280 270 -211.5Q337 -143 432 -143Q527 -143 594 -211.5Q661 -280 661 -378Z"/>
	<path fill="#00a0e1" d="M306 -954V-943Q306 -891 343 -854Q380 -817 432.5 -817Q485 -817 521.5 -854Q558 -891 558 -943V-954H487Q488 -948 488 -943Q488 -920 472 -903.5Q456 -887 432.5 -887Q409 -887 392.5 -903.5Q376 -920 376 -943Q376 -948 377 -954ZM563 -957V-943Q563 -889 525 -850.5Q487 -812 432 -812Q377 -812 339 -850Q301 -888 301 -943V-957Q301 -959 304 -959H380Q383 -959 383 -957Q383 -956 383 -956Q381 -948 381 -943Q381 -922 396 -907Q411 -892 432.5 -892Q454 -892 468.5 -907Q483 -922 483 -943Q483 -948 481 -956Q481 -956 481 -957Q481 -959 484 -959H560Q563 -959 563 -957ZM812 -380Q812 -486 761 -576Q710 -666 622.5 -718Q535 -770 432 -770Q329 -770 241.5 -718Q154 -666 103 -576Q52 -486 52 -380Q52 -273 103 -183Q154 -93 241.5 -40.5Q329 12 432 12Q535 12 622.5 -40.5Q710 -93 761 -183Q812 -273 812 -380ZM816 -380Q816 -272 765 -180.5Q714 -89 625.5 -36.5Q537 16 432 16Q327 16 238.5 -36.5Q150 -89 99 -180.5Q48 -272 48 -380Q48 -487 99 -578.5Q150 -670 239 -723Q328 -776 432 -776Q536 -776 625 -723Q714 -670 765 -578.5Q816 -487 816 -380ZM658 -378Q658 -474 592 -542Q526 -610 432 -610Q338 -610 272 -542Q206 -474 206 -378Q206 -281 272 -213.5Q338 -146 432 -146Q526 -146 592 -213.5Q658 -281 658 -378ZM664 -378Q664 -279 596 -209.5Q528 -140 432 -140Q336 -140 268 -209.5Q200 -279 200 -378Q200 -476 268 -545Q336 -614 432 -614Q528 -614 596 -545Q664 -476 664 -378Z"/>
</svg>