<svg xmlns="http://www.w3.org/2000/svg" viewBox="0 -1000 1000 1000">
	<path fill="#000000" d="M456 -843V-985H608V-843ZM256 -843V-985H408V-843ZM814 -390Q814 -227 702 -111.5Q590 4 432 4Q274 4 162 -111.5Q50 -227 50 -390Q50 -553 162 -668Q274 -783 432 -783Q590 -783 702 -668Q814 -553 814 -390ZM661 -388Q661 -485 594 -553.5Q527 -622 432 -622Q337 -622 270 -553.5Q203 -485 203 -388Q203 -290 270 -221.5Q337 -153 432 -153Q527 -153 594 -221.5Q661 -290 661 -388Z"/>
	<path fill="#2200f5" d="M456 -833V-975H608V-833ZM256 -833V-975H408V-833ZM814 -380Q814 -217 702 -101.5Q590 14 432 14Q274 14 162 -101.5Q50 -217 50 -380Q50 -543 162 -658Q274 -773 432 -773Q590 -773 702 -658Q814 -543 814 -380ZM661 -378Q661 -475 594 -543.5Q527 -612 432 -612Q337 -612 270 -543.5Q203 -475 203 -378Q203 -280 270 -211.5Q337 -143 432 -143Q527 -143 594 -211.5Q661 -280 661 -378Z"/>
	<path fill="#00a0e1" d="M458 -973V-835H606V-973ZM454 -833V-975Q454 -977 456 -977H608Q610 -977 610 -975V-833Q610 -831 608 -831H456Q454 -831 454 -833ZM258 -973V-835H406V-973ZM254 -833V-975Q254 -977 256 -977H408Q410 -977 410 -975V-833Q410 -831 408 -831H256Q254 -831 254 -833ZM812 -380Q812 -486 761 -576Q710 -666 622.5 -718Q535 -770 432 -770Q329 -770 241.5 -718Q154 -666 103 -576Q52 -486 52 -380Q52 -273 103 -183Q154 -93 241.5 -40.5Q329 12 432 12Q535 12 622.5 -40.5Q710 -93 761 -183Q812 -273 812 -380ZM816 -380Q816 -272 765 -180.5Q714 -89 625.5 -36.5Q537 16 432 16Q327 16 238.5 -36.5Q150 -89 99 -180.5Q48 -272 48 -380Q48 -487 99 -578.5Q150 -670 239 -723Q328 -776 432 -776Q536 -776 625 -723Q714 -670 765 -578.5Q816 -487 816 -380ZM658 -378Q658 -474 592 -542Q526 -610 432 -610Q338 -610 272 -542Q206 -474 206 -378Q206 -281 272 -213.5Q338 -146 432 -146Q526 -146 592 -213.5Q658 -281 658 -378ZM664 -378Q664 -279 596 -209.5Q528 -140 432 -140Q336 -140 268 -209.5Q200 -279 200 -378Q200 -476 268 -545Q336 -614 432 -614Q528 -614 596 -545Q664 -476 664 -378Z"/>
</svg>