<svg xmlns="http://www.w3.org/2000/svg" viewBox="0 -1000 1000 1000">
	<path fill="#000000" d="M909 -495L910 -343H602V-159H1017L1018 -7H505V-3Q469 4 432 4Q274 4 162 -111.5Q50 -227 50 -390Q50 -553 162 -668Q274 -783 432 -783Q441 -783 450 -783V-784V-788H1017L1018 -636H602V-495ZM432 -622Q337 -622 270 -553.5Q203 -485 203 -388Q203 -290 270 -221.5Q337 -153 432 -153Q441 -153 450 -154V-621Q441 -622 432 -622Z"/>
	<path fill="#2200f5" d="M909 -485L910 -333H602V-149H1017L1018 3H505V7Q469 14 432 14Q274 14 162 -101.5Q50 -217 50 -380Q50 -543 162 -658Q274 -773 432 -773Q441 -773 450 -773V-774V-778H1017L1018 -626H602V-485ZM432 -612Q337 -612 270 -543.5Q203 -475 203 -378Q203 -280 270 -211.5Q337 -143 432 -143Q441 -143 450 -144V-611Q441 -612 432 -612Z"/>
	<path fill="#00a0e1" d="M450 -770Q447 -770 441 -770Q435 -770 432 -770Q329 -770 241.5 -718Q154 -666 103 -576Q52 -486 52 -380Q52 -273 103 -183Q154 -93 241.5 -40.5Q329 12 432 12Q468 12 502 5V3Q502 0 505 0H1015V-146H602Q600 -146 600 -149V-333Q600 -336 602 -336H907V-482H602Q600 -482 600 -485V-626Q600 -628 602 -628H1015V-776H452V-773Q452 -770 450 -770ZM910 -330H604V-152H1017Q1019 -152 1019 -149L1020 3Q1020 6 1018 6H508V7Q508 9 505 9Q469 16 432 16Q327 16 238.5 -36.5Q150 -89 99 -180.5Q48 -272 48 -380Q48 -487 99 -578.5Q150 -670 239 -723Q328 -776 432 -776Q440 -776 448 -775V-778Q448 -780 450 -780H1017Q1019 -780 1019 -778L1020 -626Q1020 -624 1018 -624H604V-488H909Q911 -488 911 -485L912 -333Q912 -330 910 -330ZM432 -610Q338 -610 272 -542Q206 -474 206 -378Q206 -281 272 -213.5Q338 -146 432 -146Q440 -146 448 -146V-609Q440 -610 432 -610ZM432 -614Q441 -614 450 -614Q452 -614 452 -611V-144Q452 -141 450 -141Q441 -140 432 -140Q336 -140 268 -209.5Q200 -279 200 -378Q200 -476 268 -545Q336 -614 432 -614Z"/>
</svg>