<svg xmlns="http://www.w3.org/2000/svg" viewBox="0 -1000 1000 1000">
	<path fill="#000000" d="M158 -497L50 -604L232 -786L340 -679ZM234 -784H386V-8H234Z"/>
	<path fill="#2200f5" d="M158 -487L50 -594L232 -776L340 -669ZM234 -774H386V2H234Z"/>
	<path fill="#00a0e1" d="M234 -566Q236 -566 236 -563V0H384V-772H234Q233 -772 232 -772L54 -594L158 -491L232 -565Q233 -566 234 -566ZM48 -596L230 -778Q231 -778 232 -778Q233 -778 235 -776H386Q388 -776 388 -774V2Q388 4 386 4H234Q232 4 232 2V-557L160 -485Q159 -484 158 -484Q157 -484 156 -485L48 -592Q48 -593 48 -594Q48 -595 48 -596Z"/>
</svg>