<svg xmlns="http://www.w3.org/2000/svg" viewBox="0 -1000 1000 1000">
	<path fill="#000000" d="M309 -413Q308 -413 308 -413Q306 -413 304 -413Q296 -413 290 -414Q189 -420 119.5 -494Q50 -568 50 -670Q50 -772 119.5 -846.5Q189 -921 290 -927Q296 -928 304 -928Q306 -928 308 -928Q308 -928 309 -928Q310 -928 312 -928Q419 -928 494.5 -852.5Q570 -777 570 -670Q570 -563 494.5 -488Q419 -413 312 -413Q310 -413 309 -413ZM310 -777Q297 -777 286 -774V-775Q249 -767 225 -738Q201 -709 201 -670Q201 -632 225 -603Q249 -574 286 -566V-567Q297 -564 310 -564Q322 -564 334 -567V-566Q371 -574 395 -603Q419 -632 419 -670Q419 -709 395 -738Q371 -767 334 -775V-774Q322 -777 310 -777Z"/>
	<path fill="#2200f5" d="M309 -403Q308 -403 308 -403Q306 -403 304 -403Q296 -403 290 -404Q189 -410 119.5 -484Q50 -558 50 -660Q50 -762 119.5 -836.5Q189 -911 290 -917Q296 -918 304 -918Q306 -918 308 -918Q308 -918 309 -918Q310 -918 312 -918Q419 -918 494.5 -842.5Q570 -767 570 -660Q570 -553 494.5 -478Q419 -403 312 -403Q310 -403 309 -403ZM310 -767Q297 -767 286 -764V-765Q249 -757 225 -728Q201 -699 201 -660Q201 -622 225 -593Q249 -564 286 -556V-557Q297 -554 310 -554Q322 -554 334 -557V-556Q371 -564 395 -593Q419 -622 419 -660Q419 -699 395 -728Q371 -757 334 -765V-764Q322 -767 310 -767Z"/>
	<path fill="#00a0e1" d="M568 -660Q568 -766 493 -841Q418 -916 312 -916H308Q298 -916 290 -915Q190 -908 121 -834.5Q52 -761 52 -660Q52 -559 121 -486Q190 -413 290 -406Q298 -406 308 -406H312Q418 -406 493 -480Q568 -554 568 -660ZM48 -660Q48 -763 118 -838Q188 -913 290 -920Q297 -920 308 -920H312Q420 -920 496 -844Q572 -768 572 -660Q572 -552 496 -476.5Q420 -401 312 -401H308Q297 -401 290 -401Q188 -408 118 -482.5Q48 -557 48 -660ZM286 -762Q285 -762 285 -762Q249 -754 226.5 -726Q204 -698 204 -660Q204 -623 226.5 -595Q249 -567 285 -559Q285 -560 286 -560Q286 -560 287 -559Q297 -557 310 -557Q322 -557 333 -560Q334 -560 334 -560Q335 -560 336 -559Q371 -567 393.5 -595Q416 -623 416 -660Q416 -698 393.5 -726Q371 -754 336 -762Q335 -761 334 -761Q334 -761 333 -761Q322 -764 310 -764Q297 -764 287 -762Q286 -762 286 -762ZM334 -767Q372 -760 397 -730Q422 -700 422 -660Q422 -621 397 -591Q372 -561 334 -554Q333 -554 332 -554Q321 -552 310 -552Q298 -552 287 -554Q287 -554 286 -554Q248 -561 223 -591Q198 -621 198 -660Q198 -700 223 -730Q248 -760 286 -767Q287 -767 287 -767Q298 -769 310 -769Q321 -769 332 -767Q333 -767 334 -767Z"/>
</svg>