<svg xmlns="http://www.w3.org/2000/svg" viewBox="0 -1000 1000 1000">
	<path fill="#000000" d="M814 -390Q814 -227 702 -111.5Q590 4 432 4Q361 4 295 -22L240 73L134 12L190 -85Q125 -140 87.5 -219.5Q50 -299 50 -390Q50 -553 162 -668Q274 -783 432 -783Q507 -783 576 -754L619 -828L725 -767L680 -689Q743 -634 778.5 -556Q814 -478 814 -390ZM495 -613Q464 -622 432 -622Q337 -622 270 -553.5Q203 -485 203 -388Q203 -291 269 -222ZM599 -548L375 -160Q403 -153 432 -153Q527 -153 594 -221.5Q661 -290 661 -388Q661 -481 599 -548Z"/>
	<path fill="#2200f5" d="M814 -380Q814 -217 702 -101.5Q590 14 432 14Q361 14 295 -12L240 83L134 22L190 -75Q125 -130 87.5 -209.5Q50 -289 50 -380Q50 -543 162 -658Q274 -773 432 -773Q507 -773 576 -744L619 -818L725 -757L680 -679Q743 -624 778.5 -546Q814 -468 814 -380ZM495 -603Q464 -612 432 -612Q337 -612 270 -543.5Q203 -475 203 -378Q203 -281 269 -212ZM599 -538L375 -150Q403 -143 432 -143Q527 -143 594 -211.5Q661 -280 661 -378Q661 -471 599 -538Z"/>
	<path fill="#00a0e1" d="M812 -380Q812 -468 776.5 -545Q741 -622 678 -677Q677 -678 677 -679Q677 -680 678 -680L722 -756L620 -815L578 -743Q578 -742 576 -742Q576 -742 575 -742Q507 -770 432 -770Q329 -770 241.5 -718Q154 -666 103 -576Q52 -486 52 -380Q52 -290 89.5 -211Q127 -132 192 -77Q193 -76 193 -75Q193 -74 192 -74L137 21L239 80L293 -13Q293 -15 295 -15Q295 -15 296 -14Q361 12 432 12Q535 12 622.5 -40.5Q710 -93 761 -183Q812 -273 812 -380ZM816 -380Q816 -272 765 -180.5Q714 -89 625.5 -36.5Q537 16 432 16Q361 16 296 -9L242 84Q241 86 240 86Q239 86 239 85L133 24Q132 23 132 22Q132 21 132 21L187 -74Q122 -130 85 -209.5Q48 -289 48 -380Q48 -487 99 -578.5Q150 -670 239 -723Q328 -776 432 -776Q507 -776 575 -747L617 -819Q618 -820 619 -820Q620 -820 620 -820L726 -759Q728 -758 728 -757Q728 -756 727 -756L683 -679Q746 -624 781 -546Q816 -468 816 -380ZM432 -610Q338 -610 272 -542Q206 -474 206 -378Q206 -284 269 -216L491 -602Q462 -610 432 -610ZM269 -210Q268 -210 268 -211Q200 -280 200 -378Q200 -476 268 -545Q336 -614 432 -614Q465 -614 496 -605Q497 -605 497 -603Q497 -602 497 -602L271 -211Q271 -210 269 -210ZM658 -378Q658 -468 599 -534L379 -152Q405 -146 432 -146Q526 -146 592 -213.5Q658 -281 658 -378ZM664 -378Q664 -279 596 -209.5Q528 -140 432 -140Q402 -140 374 -148Q372 -148 372 -150Q372 -151 373 -152L597 -540Q597 -541 599 -541Q600 -541 601 -540Q664 -472 664 -378Z"/>
</svg>