<svg xmlns="http://www.w3.org/2000/svg" viewBox="0 -1000 1000 1000">
	<path fill="#000000" d="M202 -13H50V-789H202Q210 -790 226 -790Q333 -790 408.5 -715Q484 -640 484 -533Q484 -426 408.5 -350.5Q333 -275 226 -275Q210 -275 202 -276ZM202 -636V-429Q214 -426 226 -426Q271 -426 302 -457Q333 -488 333 -533Q333 -577 302 -608Q271 -639 226 -639Q214 -639 202 -636Z"/>
	<path fill="#2200f5" d="M202 -3H50V-779H202Q210 -780 226 -780Q333 -780 408.5 -705Q484 -630 484 -523Q484 -416 408.5 -340.5Q333 -265 226 -265Q210 -265 202 -266ZM202 -626V-419Q214 -416 226 -416Q271 -416 302 -447Q333 -478 333 -523Q333 -567 302 -598Q271 -629 226 -629Q214 -629 202 -626Z"/>
	<path fill="#00a0e1" d="M52 -6H200V-266Q200 -268 202 -268Q210 -268 226 -268Q332 -268 407 -342.5Q482 -417 482 -523Q482 -629 407 -703.5Q332 -778 226 -778Q210 -778 202 -777Q202 -777 202 -776H52ZM202 0H50Q48 0 48 -3V-779Q48 -782 50 -782H202Q210 -783 225 -783Q226 -783 226 -782Q334 -782 410 -706.5Q486 -631 486 -523Q486 -415 410 -338.5Q334 -262 226 -262Q222 -262 215 -262.5Q208 -263 204 -263V-3Q204 0 202 0ZM226 -418Q270 -418 300 -448.5Q330 -479 330 -523Q330 -566 300 -596Q270 -626 226 -626Q215 -626 204 -624V-421Q215 -418 226 -418ZM226 -632Q272 -632 304 -600Q336 -568 336 -523Q336 -477 304 -445.5Q272 -414 226 -414Q214 -414 201 -417Q200 -417 200 -419V-626Q200 -628 201 -628Q214 -632 226 -632Z"/>
</svg>