<svg xmlns="http://www.w3.org/2000/svg" viewBox="0 -1000 1000 1000">
	<path fill="#000000" d="M123 -754L50 -776Q84 -783 123 -783Q281 -783 393 -668Q505 -553 505 -390Q505 -227 393 -111.5Q281 4 123 4Q84 4 50 -3L123 -21Q223 -21 312 -131.5Q401 -242 401 -388Q401 -533 312 -643.5Q223 -754 123 -754Z"/>
	<path fill="#2200f5" d="M123 -744L50 -766Q84 -773 123 -773Q281 -773 393 -658Q505 -543 505 -380Q505 -217 393 -101.5Q281 14 123 14Q84 14 50 7L123 -11Q223 -11 312 -121.5Q401 -232 401 -378Q401 -523 312 -633.5Q223 -744 123 -744Z"/>
	<path fill="#00a0e1" d="M404 -378Q404 -305 378 -235.5Q352 -166 312 -117Q272 -68 222 -38.5Q172 -9 123 -9L62 7Q90 12 123 12Q226 12 313.5 -40.5Q401 -93 451.5 -183Q502 -273 502 -380Q502 -486 451.5 -576Q401 -666 313.5 -718Q226 -770 123 -770Q89 -770 60 -765L123 -746Q172 -746 222 -716.5Q272 -687 312 -638Q352 -589 378 -520Q404 -451 404 -378ZM49 -768Q83 -776 123 -776Q227 -776 316 -723Q405 -670 456.5 -578.5Q508 -487 508 -380Q508 -272 456.5 -180.5Q405 -89 316.5 -36.5Q228 16 123 16Q83 16 49 9Q48 9 48 7Q48 5 49 5L122 -13Q123 -14 123 -14Q170 -14 219 -43Q268 -72 308 -120Q348 -168 373 -236.5Q398 -305 398 -378Q398 -450 373 -518.5Q348 -587 308 -635Q268 -683 219 -712.5Q170 -742 123 -742Q123 -742 122 -742L49 -764Q48 -764 48 -766Q48 -768 49 -768Z"/>
</svg>