<svg xmlns="http://www.w3.org/2000/svg" viewBox="0 -1000 1000 1000">
	<path fill="#000000" d="M204 -493Q204 -493 202 -493Q202 -493 195 -493Q144 -497 109.5 -533.5Q75 -570 75 -621Q75 -672 110 -709Q145 -746 195 -750H202Q202 -750 204 -750Q204 -750 206 -750Q260 -750 297.5 -712.5Q335 -675 335 -621Q335 -568 297.5 -530.5Q260 -493 206 -493ZM205 -675Q201 -675 193 -673V-674Q174 -670 162.5 -655.5Q151 -641 151 -621Q151 -602 162.5 -587.5Q174 -573 193 -569V-570Q201 -568 205 -568Q209 -568 217 -570V-569Q236 -573 247.5 -587.5Q259 -602 259 -621Q259 -641 247.5 -655.5Q236 -670 217 -674V-673Q209 -675 205 -675ZM509 -92H507H500Q449 -96 414.5 -132.5Q380 -169 380 -220Q380 -271 415 -308Q450 -345 500 -349H507H509H511Q565 -349 602.5 -311.5Q640 -274 640 -220Q640 -167 602.5 -129.5Q565 -92 511 -92ZM510 -274Q506 -274 498 -272V-273Q479 -269 467.5 -254.5Q456 -240 456 -220Q456 -201 467.5 -186.5Q479 -172 498 -168V-169Q506 -167 510 -167Q514 -167 522 -169V-168Q541 -172 552.5 -186.5Q564 -201 564 -220Q564 -240 552.5 -254.5Q541 -269 522 -273V-272Q514 -274 510 -274ZM535 -828L641 -767L156 73L50 12Z"/>
	<path fill="#2200f5" d="M204 -483Q204 -483 202 -483Q202 -483 195 -483Q144 -487 109.5 -523.5Q75 -560 75 -611Q75 -662 110 -699Q145 -736 195 -740H202Q202 -740 204 -740Q204 -740 206 -740Q260 -740 297.5 -702.5Q335 -665 335 -611Q335 -558 297.5 -520.5Q260 -483 206 -483ZM205 -665Q201 -665 193 -663V-664Q174 -660 162.5 -645.5Q151 -631 151 -611Q151 -592 162.5 -577.5Q174 -563 193 -559V-560Q201 -558 205 -558Q209 -558 217 -560V-559Q236 -563 247.5 -577.5Q259 -592 259 -611Q259 -631 247.5 -645.5Q236 -660 217 -664V-663Q209 -665 205 -665ZM509 -82H507H500Q449 -86 414.5 -122.5Q380 -159 380 -210Q380 -261 415 -298Q450 -335 500 -339H507H509H511Q565 -339 602.5 -301.5Q640 -264 640 -210Q640 -157 602.5 -119.5Q565 -82 511 -82ZM510 -264Q506 -264 498 -262V-263Q479 -259 467.5 -244.5Q456 -230 456 -210Q456 -191 467.5 -176.5Q479 -162 498 -158V-159Q506 -157 510 -157Q514 -157 522 -159V-158Q541 -162 552.5 -176.5Q564 -191 564 -210Q564 -230 552.5 -244.5Q541 -259 522 -263V-262Q514 -264 510 -264ZM535 -818L641 -757L156 83L50 22Z"/>
	<path fill="#00a0e1" d="M195 -486H206Q259 -486 295.5 -522.5Q332 -559 332 -611Q332 -664 295.5 -701Q259 -738 206 -738H195Q146 -734 112 -697.5Q78 -661 78 -611Q78 -561 112 -525Q146 -489 195 -486ZM206 -480H195Q195 -480 195 -481Q143 -484 108 -521.5Q73 -559 72.5 -611Q72 -663 107.5 -701Q143 -739 195 -742H206Q261 -742 299.5 -704Q338 -666 338 -611Q338 -557 299.5 -518.5Q261 -480 206 -480ZM194 -661Q193 -660 193 -660Q192 -660 191 -661Q174 -657 164 -643Q154 -629 154 -611Q154 -593 164 -579.5Q174 -566 191 -562Q192 -562 193 -562Q193 -562 194 -562Q201 -560 205 -560Q209 -560 216 -562Q217 -562 217 -562Q218 -562 219 -562Q236 -566 246 -579.5Q256 -593 256 -611Q256 -629 246 -643Q236 -657 219 -661Q218 -661 217 -660Q217 -660 216 -661Q209 -662 205 -662Q201 -662 194 -661ZM500 -84H511Q564 -84 601 -121Q638 -158 638 -210Q638 -263 601 -299.5Q564 -336 511 -336H500Q451 -333 416.5 -296.5Q382 -260 382 -210Q382 -160 416.5 -124Q451 -88 500 -84ZM511 -80H500Q448 -83 413 -120.5Q378 -158 378 -210Q378 -262 413 -300Q448 -338 500 -341Q500 -341 500 -342H511Q566 -342 604 -303.5Q642 -265 642 -210Q642 -156 604 -118Q566 -80 511 -80ZM499 -260Q498 -260 498 -260Q497 -260 496 -260Q479 -256 468.5 -242Q458 -228 458 -210Q458 -192 468.5 -178.5Q479 -165 496 -161Q497 -161 498 -162Q498 -162 499 -161Q506 -160 510 -160Q514 -160 521 -161Q522 -162 522 -162Q523 -162 524 -161Q541 -165 551.5 -178.5Q562 -192 562 -210Q562 -228 551.5 -242Q541 -256 524 -260Q523 -260 522 -260Q522 -260 521 -260Q514 -262 510 -262Q506 -262 499 -260ZM638 -756L536 -815L53 21L155 80ZM644 -757Q644 -756 643 -756L158 84Q157 86 156 86Q155 86 155 85L49 24Q48 23 48 22Q48 21 48 21L533 -819Q534 -820 535 -820Q536 -820 536 -820L642 -759Q644 -758 644 -757ZM215 -666Q216 -666 217 -666Q237 -663 249.5 -647Q262 -631 262 -611Q262 -591 249.5 -575.5Q237 -560 217 -557V-556Q216 -556 215 -557Q209 -556 205 -556Q201 -556 195 -557Q194 -557 193 -556V-557Q173 -560 160.5 -575.5Q148 -591 148 -611Q148 -631 160.5 -647Q173 -663 193 -666Q194 -666 195 -666Q201 -668 205 -668Q209 -668 215 -666ZM520 -265Q521 -265 522 -266V-265Q542 -262 554 -246Q566 -230 566 -210Q566 -190 554 -174.5Q542 -159 522 -156Q521 -156 520 -156Q514 -154 510 -154Q506 -154 500 -156Q499 -156 498 -156Q478 -159 466 -174.5Q454 -190 454 -210Q454 -230 466 -246Q478 -262 498 -265V-266Q499 -266 500 -265Q506 -266 510 -266Q514 -266 520 -265Z"/>
</svg>