<svg xmlns="http://www.w3.org/2000/svg" viewBox="0 -1000 1000 1000">
	<path fill="#000000" d="M50 -8V-150H202V-8ZM50 -838Q59 -839 76 -839Q183 -839 258.5 -764Q334 -689 334 -582Q334 -510 298 -450Q262 -390 202 -357V-240H50V-325V-450V-478Q62 -475 76 -475Q121 -475 152 -506Q183 -537 183 -582Q183 -626 152 -657Q121 -688 76 -688Q62 -688 50 -685Z"/>
	<path fill="#2200f5" d="M50 2V-140H202V2ZM50 -828Q59 -829 76 -829Q183 -829 258.5 -754Q334 -679 334 -572Q334 -500 298 -440Q262 -380 202 -347V-230H50V-315V-440V-468Q62 -465 76 -465Q121 -465 152 -496Q183 -527 183 -572Q183 -616 152 -647Q121 -678 76 -678Q62 -678 50 -675Z"/>
	<path fill="#00a0e1" d="M52 -138V0H200V-138ZM48 2V-140Q48 -142 50 -142H202Q204 -142 204 -140V2Q204 4 202 4H50Q48 4 48 2ZM200 -232V-347Q200 -348 201 -349Q260 -382 296 -441.5Q332 -501 332 -572Q332 -678 257 -752Q182 -826 76 -826Q72 -826 64 -826Q56 -826 52 -826V-678Q64 -680 76 -680Q122 -680 154 -648.5Q186 -617 186 -572Q186 -526 154 -494Q122 -462 76 -462Q64 -462 52 -465V-232ZM76 -832Q184 -832 260 -756Q336 -680 336 -572Q336 -500 300.5 -439.5Q265 -379 204 -345V-230Q204 -228 202 -228H50Q48 -228 48 -230V-468Q48 -470 50 -470Q50 -470 51 -470Q62 -468 76 -468Q120 -468 150 -498Q180 -528 180 -572Q180 -615 150 -645.5Q120 -676 76 -676Q62 -676 51 -673Q50 -672 50 -672Q48 -672 48 -675V-828Q48 -830 50 -830Q59 -832 76 -832Z"/>
</svg>