<svg xmlns="http://www.w3.org/2000/svg" viewBox="0 -1000 1000 1000">
	<path fill="#000000" d="M334 -839V-697H182V-839ZM334 -9Q325 -8 308 -8Q201 -8 125.5 -83Q50 -158 50 -265Q50 -337 86 -397Q122 -457 182 -490V-607H334V-522V-397V-369Q322 -372 308 -372Q263 -372 232 -341Q201 -310 201 -265Q201 -221 232 -190Q263 -159 308 -159Q322 -159 334 -162Z"/>
	<path fill="#2200f5" d="M334 -829V-687H182V-829ZM334 1Q325 2 308 2Q201 2 125.5 -73Q50 -148 50 -255Q50 -327 86 -387Q122 -447 182 -480V-597H334V-512V-387V-359Q322 -362 308 -362Q263 -362 232 -331Q201 -300 201 -255Q201 -211 232 -180Q263 -149 308 -149Q322 -149 334 -152Z"/>
	<path fill="#00a0e1" d="M332 -690V-826H184V-690ZM336 -829V-687Q336 -684 334 -684H182Q180 -684 180 -687V-829Q180 -832 182 -832H334Q336 -832 336 -829ZM184 -594V-480Q184 -479 183 -478Q124 -445 88 -385.5Q52 -326 52 -255Q52 -149 127 -74.5Q202 0 308 0Q312 0 320 -0.5Q328 -1 332 -1V-149Q320 -146 308 -146Q262 -146 230 -178Q198 -210 198 -255Q198 -301 230 -332.5Q262 -364 308 -364Q320 -364 332 -362V-594ZM308 5Q308 5 308 4Q200 4 124 -71.5Q48 -147 48 -255Q48 -327 83.5 -387.5Q119 -448 180 -482V-597Q180 -600 182 -600H334Q336 -600 336 -597V-359Q336 -356 334 -356Q334 -356 333 -357Q322 -360 308 -360Q264 -360 234 -329.5Q204 -299 204 -255Q204 -212 234 -182Q264 -152 308 -152Q322 -152 333 -154Q334 -154 334 -154Q336 -154 336 -152V1Q336 3 334 3Q325 5 308 5Z"/>
</svg>