<svg xmlns="http://www.w3.org/2000/svg" viewBox="0 -1000 1000 1000">
	<path fill="#000000" d="M395 -483V-407Q400 -406 404 -406Q420 -406 431.5 -417.5Q443 -429 443 -445Q443 -461 431.5 -472.5Q420 -484 404 -484Q400 -484 395 -483ZM395 -256H340V-538H395Q398 -539 404 -539Q443 -539 470.5 -511.5Q498 -484 498 -445Q498 -415 480.5 -390.5Q463 -366 436 -357L508 -253H457L397 -351Q396 -351 395 -351ZM710 -390Q710 -271 628.5 -187Q547 -103 432 -103Q317 -103 235.5 -187Q154 -271 154 -390Q154 -509 235.5 -592.5Q317 -676 432 -676Q547 -676 628.5 -592.5Q710 -509 710 -390ZM667 -389Q667 -488 598.5 -558Q530 -628 432 -628Q334 -628 265.5 -558Q197 -488 197 -389Q197 -289 265.5 -218.5Q334 -148 432 -148Q530 -148 598.5 -218.5Q667 -289 667 -389Z"/>
	<path fill="#2200f5" d="M395 -473V-397Q400 -396 404 -396Q420 -396 431.5 -407.5Q443 -419 443 -435Q443 -451 431.5 -462.5Q420 -474 404 -474Q400 -474 395 -473ZM395 -246H340V-528H395Q398 -529 404 -529Q443 -529 470.5 -501.5Q498 -474 498 -435Q498 -405 480.5 -380.5Q463 -356 436 -347L508 -243H457L397 -341Q396 -341 395 -341ZM710 -380Q710 -261 628.5 -177Q547 -93 432 -93Q317 -93 235.5 -177Q154 -261 154 -380Q154 -499 235.5 -582.5Q317 -666 432 -666Q547 -666 628.5 -582.5Q710 -499 710 -380ZM667 -379Q667 -478 598.5 -548Q530 -618 432 -618Q334 -618 265.5 -548Q197 -478 197 -379Q197 -279 265.5 -208.5Q334 -138 432 -138Q530 -138 598.5 -208.5Q667 -279 667 -379Z"/>
	<path fill="#00a0e1" d="M404 -399Q419 -399 429.5 -409.5Q440 -420 440 -435Q440 -450 429.5 -460.5Q419 -471 404 -471Q401 -471 398 -471V-399Q401 -399 404 -399ZM404 -394Q393 -394 393 -397V-473Q393 -475 395 -475Q399 -476 404 -476Q421 -476 433 -464Q445 -452 445 -435Q445 -418 433 -406Q421 -394 404 -394ZM404 -526Q402 -526 399.5 -526Q397 -526 395 -526H342V-248H393V-341Q393 -344 395 -344Q398 -344 399 -343L459 -246H503L434 -345Q433 -346 433 -347Q433 -348 435 -349Q462 -358 478.5 -382Q495 -406 495 -435Q495 -473 468.5 -499.5Q442 -526 404 -526ZM395 -243H340Q337 -243 337 -246V-528Q337 -531 340 -531H395Q398 -531 403 -531Q404 -531 404 -531Q444 -531 472 -503Q500 -475 500 -435Q500 -405 483.5 -380.5Q467 -356 440 -345L510 -245Q511 -244 511 -243Q511 -241 508 -241H457Q456 -241 455 -242L398 -335V-246Q398 -243 395 -243ZM708 -380Q708 -498 627 -581Q546 -664 432 -664Q318 -664 237 -581Q156 -498 156 -380Q156 -262 237 -178.5Q318 -95 432 -95Q546 -95 627 -178.5Q708 -262 708 -380ZM713 -380Q713 -260 630.5 -175Q548 -90 432 -90Q316 -90 233.5 -175Q151 -260 151 -380Q151 -500 233.5 -584.5Q316 -669 432 -669Q548 -669 630.5 -584.5Q713 -500 713 -380ZM664 -379Q664 -477 596 -546.5Q528 -616 432 -616Q336 -616 268 -546.5Q200 -477 200 -379Q200 -280 267.5 -210Q335 -140 432 -140Q529 -140 596.5 -210Q664 -280 664 -379ZM669 -379Q669 -278 600 -206.5Q531 -135 432 -135Q333 -135 264 -206.5Q195 -278 195 -379Q195 -479 264 -550Q333 -621 432 -621Q531 -621 600 -550Q669 -479 669 -379Z"/>
</svg>