<svg xmlns="http://www.w3.org/2000/svg" viewBox="0 -1000 1000 1000">
	<path fill="#000000" d="M-1 -470Q-1 -470 -3 -470Q-3 -470 -10 -470Q-61 -474 -95.5 -510.5Q-130 -547 -130 -598Q-130 -649 -95 -686Q-60 -723 -10 -727H-3Q-3 -727 -1 -727Q-1 -727 1 -727Q55 -727 92.5 -689.5Q130 -652 130 -598Q130 -545 92.5 -507.5Q55 -470 1 -470ZM0 -652Q-4 -652 -12 -650V-651Q-31 -647 -42.5 -632.5Q-54 -618 -54 -598Q-54 -579 -42.5 -564.5Q-31 -550 -12 -546V-547Q-4 -545 0 -545Q4 -545 12 -547V-546Q31 -550 42.5 -564.5Q54 -579 54 -598Q54 -618 42.5 -632.5Q31 -647 12 -651V-650Q4 -652 0 -652Z"/>
	<path fill="#2200f5" d="M-1 -460Q-1 -460 -3 -460Q-3 -460 -10 -460Q-61 -464 -95.5 -500.5Q-130 -537 -130 -588Q-130 -639 -95 -676Q-60 -713 -10 -717H-3Q-3 -717 -1 -717Q-1 -717 1 -717Q55 -717 92.5 -679.5Q130 -642 130 -588Q130 -535 92.5 -497.5Q55 -460 1 -460ZM0 -642Q-4 -642 -12 -640V-641Q-31 -637 -42.5 -622.5Q-54 -608 -54 -588Q-54 -569 -42.5 -554.5Q-31 -540 -12 -536V-537Q-4 -535 0 -535Q4 -535 12 -537V-536Q31 -540 42.5 -554.5Q54 -569 54 -588Q54 -608 42.5 -622.5Q31 -637 12 -641V-640Q4 -642 0 -642Z"/>
	<path fill="#00a0e1" d="M-10 -462H1Q54 -462 91 -499Q128 -536 128 -588Q128 -641 91 -677.5Q54 -714 1 -714H-10Q-59 -711 -93.5 -674.5Q-128 -638 -128 -588Q-128 -538 -93.5 -502Q-59 -466 -10 -462ZM1 -458H-10Q-62 -461 -97 -498.5Q-132 -536 -132 -588Q-132 -640 -97 -678Q-62 -716 -10 -719Q-10 -719 -10 -720H1Q56 -720 94 -681.5Q132 -643 132 -588Q132 -534 94 -496Q56 -458 1 -458ZM-11 -638Q-12 -638 -12 -638Q-13 -638 -14 -638Q-31 -634 -41 -620Q-51 -606 -51.5 -588Q-52 -570 -41.5 -556.5Q-31 -543 -14 -539Q-13 -539 -12 -540Q-12 -540 -11 -539Q-4 -538 0 -538Q4 -538 11 -539Q12 -540 12 -540Q13 -540 14 -539Q31 -543 41.5 -556.5Q52 -570 52 -588Q52 -606 41.5 -620Q31 -634 14 -638Q13 -638 12 -638Q12 -638 11 -638Q4 -640 0 -640Q-4 -640 -11 -638ZM10 -643Q11 -643 12 -644V-643Q32 -640 44 -624Q56 -608 56 -588Q56 -568 44 -552.5Q32 -537 12 -534Q11 -534 10 -534Q4 -532 0 -532Q-4 -532 -10 -534Q-11 -534 -12 -534Q-32 -537 -44 -552.5Q-56 -568 -56 -588Q-56 -608 -44 -624Q-32 -640 -12 -643Q-12 -643 -12 -644Q-11 -644 -10 -643Q-4 -644 0 -644Q4 -644 10 -643Z"/>
</svg>