<svg xmlns="http://www.w3.org/2000/svg" viewBox="0 -1000 1000 1000">
	<path fill="#000000" d="M323 -843L215 -950L397 -1132L505 -1025ZM55 -67L130 -192Q142 -182 152 -177Q190 -155 232 -165.5Q274 -176 297 -212Q319 -251 294.5 -284.5Q270 -318 227 -325Q160 -361 119.5 -408Q79 -455 68.5 -517.5Q58 -580 101 -649Q153 -736 256 -761.5Q359 -787 453 -737Q456 -734 463.5 -729.5Q471 -725 474 -722L399 -597Q387 -607 377 -612Q339 -633 296.5 -622.5Q254 -612 232 -575Q207 -534 227.5 -485Q248 -436 296 -428Q345 -402 378.5 -375.5Q412 -349 436.5 -313.5Q461 -278 459.5 -234Q458 -190 427 -140Q375 -52 272.5 -26.5Q170 -1 76 -52Q73 -55 65.5 -59.5Q58 -64 55 -67Z"/>
	<path fill="#2200f5" d="M323 -833L215 -940L397 -1122L505 -1015ZM55 -57L130 -182Q142 -172 152 -167Q190 -145 232 -155.5Q274 -166 297 -202Q319 -241 294.5 -274.5Q270 -308 227 -315Q160 -351 119.5 -398Q79 -445 68.5 -507.5Q58 -570 101 -639Q153 -726 256 -751.5Q359 -777 453 -727Q456 -724 463.5 -719.5Q471 -715 474 -712L399 -587Q387 -597 377 -602Q339 -623 296.5 -612.5Q254 -602 232 -565Q207 -524 227.5 -475Q248 -426 296 -418Q345 -392 378.5 -365.5Q412 -339 436.5 -303.5Q461 -268 459.5 -224Q458 -180 427 -130Q375 -42 272.5 -16.5Q170 9 76 -42Q73 -45 65.5 -49.5Q58 -54 55 -57Z"/>
	<path fill="#00a0e1" d="M219 -940L323 -837L501 -1015L397 -1118ZM213 -942L395 -1124Q396 -1125 397 -1125Q398 -1125 399 -1124L507 -1017Q508 -1016 508 -1015Q508 -1014 507 -1013L325 -831Q324 -831 323 -831Q322 -831 321 -831L213 -938Q212 -939 212 -940Q212 -941 213 -942ZM456 -229Q456 -286 413 -330.5Q370 -375 295 -416Q260 -422 238.5 -451.5Q217 -481 217 -517Q217 -544 230 -566Q245 -591 270 -604.5Q295 -618 324 -618Q353 -618 378 -604Q388 -599 398 -591L471 -711Q468 -713 461.5 -717.5Q455 -722 452 -725Q391 -757 323 -757Q255 -757 196 -725.5Q137 -694 103 -638Q70 -582 70 -527Q70 -464 113 -410Q156 -356 228 -317Q261 -312 285.5 -289.5Q310 -267 310 -237Q310 -219 299 -201Q284 -177 259 -163.5Q234 -150 206 -150Q177 -150 151 -165Q141 -170 131 -178L58 -58Q61 -56 67.5 -51.5Q74 -47 78 -44Q92 -36 114 -29.5Q136 -23 153.5 -20Q171 -17 188 -14.5Q205 -12 207 -11Q274 -11 332.5 -42.5Q391 -74 425 -131Q456 -183 456 -229ZM130 -184Q131 -184 132 -184Q143 -174 153 -169Q178 -155 206 -155Q233 -155 256.5 -167.5Q280 -180 295 -203Q305 -220 305 -237Q305 -265 281.5 -286Q258 -307 227 -313Q226 -313 226 -313Q153 -352 109 -407Q65 -462 65 -527Q65 -583 99 -640Q134 -698 194 -730Q254 -762 323 -762Q393 -762 454 -729Q455 -729 455 -729Q458 -726 465.5 -721Q473 -716 476 -714Q476 -713 476 -712Q476 -711 476 -711L401 -586Q400 -584 399 -584Q398 -584 397 -585Q386 -595 376 -600Q351 -613 324 -613Q296 -613 272.5 -600Q249 -587 234 -564Q222 -543 222 -517Q222 -482 242.5 -454Q263 -426 296 -420Q297 -420 297 -420Q373 -380 417 -334Q461 -288 461 -229Q461 -182 429 -129Q395 -71 335 -38.5Q275 -6 207 -6Q137 -6 75 -40Q74 -40 74 -40Q71 -43 63.5 -48Q56 -53 53 -55Q52 -56 52 -57Q52 -58 53 -58L128 -183Q129 -184 130 -184Z"/>
</svg>