<svg xmlns="http://www.w3.org/2000/svg" viewBox="0 -1000 1000 1000">
	<path fill="#000000" d="M-25 -118L50 -243Q62 -233 72 -228Q110 -206 152 -216.5Q194 -227 217 -263Q239 -302 214.5 -335.5Q190 -369 147 -376Q80 -412 39.5 -459Q-1 -506 -11.5 -568.5Q-22 -631 21 -700Q73 -787 176 -812.5Q279 -838 373 -788Q376 -785 383.5 -780.5Q391 -776 394 -773L319 -648Q307 -658 297 -663Q259 -684 216.5 -673.5Q174 -663 152 -626Q127 -585 147.5 -536Q168 -487 216 -479Q265 -453 298.5 -426.5Q332 -400 356.5 -364.5Q381 -329 379.5 -285Q378 -241 347 -191Q295 -103 192.5 -77.5Q90 -52 -4 -103Q-7 -106 -14.5 -110.5Q-22 -115 -25 -118ZM55 -467L130 -592Q142 -582 152 -577Q190 -555 232 -565.5Q274 -576 297 -612Q319 -651 294.5 -684.5Q270 -718 227 -725Q160 -761 119.5 -808Q79 -855 68.5 -917.5Q58 -980 101 -1049Q153 -1136 256 -1161.5Q359 -1187 453 -1137Q456 -1134 463.5 -1129.5Q471 -1125 474 -1122L399 -997Q387 -1007 377 -1012Q339 -1033 296.5 -1022.5Q254 -1012 232 -975Q207 -934 227.5 -885Q248 -836 296 -828Q345 -802 378.5 -775.5Q412 -749 436.5 -713.5Q461 -678 459.5 -634Q458 -590 427 -540Q375 -452 272.5 -426.5Q170 -401 76 -452Q73 -455 65.5 -459.5Q58 -464 55 -467Z"/>
	<path fill="#2200f5" d="M-25 -108L50 -233Q62 -223 72 -218Q110 -196 152 -206.5Q194 -217 217 -253Q239 -292 214.5 -325.5Q190 -359 147 -366Q80 -402 39.5 -449Q-1 -496 -11.5 -558.5Q-22 -621 21 -690Q73 -777 176 -802.5Q279 -828 373 -778Q376 -775 383.5 -770.5Q391 -766 394 -763L319 -638Q307 -648 297 -653Q259 -674 216.5 -663.5Q174 -653 152 -616Q127 -575 147.5 -526Q168 -477 216 -469Q265 -443 298.5 -416.5Q332 -390 356.5 -354.5Q381 -319 379.5 -275Q378 -231 347 -181Q295 -93 192.5 -67.5Q90 -42 -4 -93Q-7 -96 -14.5 -100.5Q-22 -105 -25 -108ZM55 -457L130 -582Q142 -572 152 -567Q190 -545 232 -555.5Q274 -566 297 -602Q319 -641 294.5 -674.5Q270 -708 227 -715Q160 -751 119.5 -798Q79 -845 68.5 -907.5Q58 -970 101 -1039Q153 -1126 256 -1151.5Q359 -1177 453 -1127Q456 -1124 463.5 -1119.5Q471 -1115 474 -1112L399 -987Q387 -997 377 -1002Q339 -1023 296.5 -1012.5Q254 -1002 232 -965Q207 -924 227.5 -875Q248 -826 296 -818Q345 -792 378.5 -765.5Q412 -739 436.5 -703.5Q461 -668 459.5 -624Q458 -580 427 -530Q375 -442 272.5 -416.5Q170 -391 76 -442Q73 -445 65.5 -449.5Q58 -454 55 -457Z"/>
	<path fill="#00a0e1" d="M245 -664Q207 -664 176.5 -639.5Q146 -615 143 -576Q143 -576 154 -569Q179 -555 207 -555Q234 -555 258 -567.5Q282 -580 296 -603Q306 -620 306 -637Q306 -642 305 -646Q301 -649 297 -651Q272 -664 245 -664ZM245 -669Q274 -669 299 -655Q304 -653 308 -650Q309 -649 310 -648Q311 -643 311 -637Q311 -619 300 -601Q285 -577 260 -563.5Q235 -550 207 -550Q178 -550 152 -565Q145 -568 139 -573Q138 -573 138 -575Q139 -598 151 -617Q166 -642 191 -655.5Q216 -669 245 -669ZM377 -280Q377 -355 291 -420Q290 -421 290 -422Q290 -424 291 -424Q380 -454 426 -531Q457 -583 457 -629Q457 -696 389 -754Q388 -755 388 -756Q388 -757 389 -757L392 -762Q389 -764 382.5 -768.5Q376 -773 373 -776Q356 -785 338 -791V-792Q319 -803 296 -816Q261 -822 239.5 -851.5Q218 -881 218 -917Q218 -944 231 -966Q246 -991 271 -1004.5Q296 -1018 325 -1018Q354 -1018 379 -1004Q389 -999 399 -991L472 -1111Q469 -1113 462.5 -1117.5Q456 -1122 453 -1125Q392 -1157 324 -1157Q256 -1157 197 -1125.5Q138 -1094 104 -1038Q71 -982 71 -927Q71 -853 133 -788Q134 -787 134 -786Q134 -785 132 -784Q63 -752 24 -689Q-9 -633 -9 -578Q-9 -515 34 -461Q77 -407 149 -368Q182 -363 206.5 -340.5Q231 -318 231 -288Q231 -270 220 -252Q205 -228 180 -214.5Q155 -201 127 -201Q98 -201 72 -216Q62 -221 52 -229L-21 -109Q-18 -107 -11.5 -102.5Q-5 -98 -1 -95Q13 -87 35 -80.5Q57 -74 74.5 -71Q92 -68 109 -65.5Q126 -63 128 -62Q195 -62 253.5 -93.5Q312 -125 346 -182Q377 -234 377 -280ZM51 -236Q52 -236 53 -235Q64 -225 74 -220Q99 -206 127 -206Q154 -206 177.5 -218.5Q201 -231 216 -254Q226 -271 226 -288Q226 -316 202.5 -337Q179 -358 148 -364Q147 -364 147 -364Q74 -403 30 -458Q-14 -513 -14 -578Q-14 -634 20 -691Q58 -755 127 -787Q66 -852 66 -927Q66 -983 100 -1040Q135 -1098 195 -1130Q255 -1162 324 -1162Q394 -1162 455 -1129Q456 -1129 456 -1129Q459 -1126 466.5 -1121Q474 -1116 477 -1114Q477 -1113 477 -1112Q477 -1111 477 -1111L402 -986Q401 -984 400 -984Q399 -984 398 -985Q387 -995 377 -1000Q352 -1013 325 -1013Q297 -1013 273.5 -1000Q250 -987 235 -964Q223 -943 223 -917Q223 -882 243.5 -854Q264 -826 297 -820Q298 -820 298 -820Q321 -808 340 -796Q358 -789 375 -780Q376 -780 376 -780Q379 -777 386.5 -772Q394 -767 397 -765Q397 -764 397 -763Q397 -762 397 -762L394 -757Q462 -698 462 -629Q462 -582 430 -529Q385 -452 298 -421Q382 -356 382 -280Q382 -233 350 -180Q316 -122 256 -89.5Q196 -57 128 -57Q58 -57 -4 -91Q-5 -91 -5 -91Q-8 -94 -15.5 -99Q-23 -104 -26 -106Q-27 -107 -27 -108Q-27 -109 -26 -109L49 -234Q50 -236 51 -236Z"/>
</svg>