<svg xmlns="http://www.w3.org/2000/svg" viewBox="0 -1000 1000 1000">
	<path fill="#000000" d="M50 -8V-150H202V-8L142 124L84 120L93 -8ZM50 -408V-550H202V-408Z"/>
	<path fill="#2200f5" d="M50 2V-140H202V2L142 134L84 130L93 2ZM50 -398V-540H202V-398Z"/>
	<path fill="#00a0e1" d="M52 -138V0H93Q95 0 95 2Q95 2 87 128L140 131L200 1V-138ZM48 2V-140Q48 -142 50 -142H202Q204 -142 204 -140V2Q204 3 204 3L144 135Q144 136 142 136L84 132Q82 132 82 130L90 4H50Q48 4 48 2ZM52 -538V-400H200V-538ZM48 -398V-540Q48 -542 50 -542H202Q204 -542 204 -540V-398Q204 -396 202 -396H50Q48 -396 48 -398Z"/>
</svg>