<svg xmlns="http://www.w3.org/2000/svg" viewBox="0 -1000 1000 1000">
	<path fill="#000000" d="M432 -622Q347 -622 283 -566Q219 -510 206 -426Q276 -502 379 -509Q387 -510 393 -510Q396 -510 397 -510Q397 -510 398 -510Q399 -510 401 -510Q492 -510 562.5 -453.5Q633 -397 653 -310Q659 -282 659 -252Q659 -212 647 -174Q617 -80 531 -30Q482 4 432 4Q428 4 425 4Q413 5 401 5Q400 5 399 5Q398 5 398 5Q398 5 397 5Q395 5 393 5Q385 5 379 4Q299 -2 237 -51Q152 -103 101 -193Q50 -283 50 -390Q50 -553 162 -668Q274 -783 432 -783Q515 -783 551 -776V-610Q536 -615 496 -618.5Q456 -622 432 -622ZM383 -377Q372 -377 359 -374V-375Q322 -367 298 -338Q274 -309 274 -270Q274 -216 318 -184Q333 -175 350 -168Q355 -167 359 -166V-167Q370 -164 383 -164Q395 -164 407 -167V-166Q444 -174 468 -203Q492 -232 492 -270Q492 -309 468 -338Q444 -367 407 -375V-374Q395 -377 383 -377Z"/>
	<path fill="#2200f5" d="M432 -612Q347 -612 283 -556Q219 -500 206 -416Q276 -492 379 -499Q387 -500 393 -500Q396 -500 397 -500Q397 -500 398 -500Q399 -500 401 -500Q492 -500 562.5 -443.5Q633 -387 653 -300Q659 -272 659 -242Q659 -202 647 -164Q617 -70 531 -20Q482 14 432 14Q428 14 425 14Q413 15 401 15Q400 15 399 15Q398 15 398 15Q398 15 397 15Q395 15 393 15Q385 15 379 14Q299 8 237 -41Q152 -93 101 -183Q50 -273 50 -380Q50 -543 162 -658Q274 -773 432 -773Q515 -773 551 -766V-600Q536 -605 496 -608.5Q456 -612 432 -612ZM383 -367Q372 -367 359 -364V-365Q322 -357 298 -328Q274 -299 274 -260Q274 -206 318 -174Q333 -165 350 -158Q355 -157 359 -156V-157Q370 -154 383 -154Q395 -154 407 -157V-156Q444 -164 468 -193Q492 -222 492 -260Q492 -299 468 -328Q444 -357 407 -365V-364Q395 -367 383 -367Z"/>
	<path fill="#00a0e1" d="M401 12Q406 12 416.5 11.5Q427 11 432 12Q482 12 530 -22Q615 -72 645 -165Q656 -202 656 -242Q656 -271 650 -299Q630 -386 561 -442Q492 -498 401 -498Q401 -498 397 -498Q388 -498 379 -497Q277 -490 208 -414Q207 -413 206 -413Q203 -413 203 -416Q203 -416 204 -416Q217 -501 281.5 -557.5Q346 -614 432 -614Q509 -614 548 -603V-764Q510 -770 432 -770Q329 -770 241.5 -718Q154 -666 103 -576Q52 -486 52 -380Q52 -274 102.5 -184.5Q153 -95 238 -43Q239 -43 239 -43Q300 5 379 12Q387 12 397 12ZM382 -364Q371 -364 360 -362Q359 -362 359 -362Q358 -362 358 -362Q322 -354 299 -326Q276 -298 276 -260Q276 -207 319 -176Q334 -167 351 -161Q354 -160 358 -159Q358 -160 359 -160Q359 -160 360 -159Q370 -157 383 -157Q395 -157 406 -160Q407 -160 407 -160Q408 -160 409 -159Q444 -167 467 -195Q490 -223 490 -260Q490 -298 467 -326Q444 -354 409 -362Q408 -361 407 -361Q407 -361 406 -361Q395 -364 383 -364Q383 -364 382 -364ZM48 -380Q48 -487 99 -578.5Q150 -670 239 -723Q328 -776 432 -776Q515 -776 551 -768Q554 -768 554 -766V-600Q554 -597 551 -597Q551 -597 550 -598Q535 -603 495.5 -606.5Q456 -610 432 -610Q350 -610 288 -557Q226 -504 210 -424Q279 -495 379 -502Q388 -502 397 -502H401Q493 -502 564 -445Q635 -388 655 -301Q662 -272 662 -242Q662 -202 649 -163Q619 -68 533 -18Q520 -9 495.5 0Q471 9 453 13Q435 17 431 17Q431 17 431.5 17Q432 17 432 16Q428 16 425 16Q413 17 401 17H397Q386 17 379 17Q298 10 236 -39Q150 -92 99 -182.5Q48 -273 48 -380ZM494 -260Q494 -221 469.5 -191Q445 -161 407 -154Q406 -154 405 -154Q394 -152 383 -152Q371 -152 360 -154Q360 -154 359 -154Q355 -154 349 -156Q332 -163 316 -172Q272 -204 272 -260Q272 -300 296.5 -330Q321 -360 359 -367Q360 -367 360 -367Q372 -369 382 -369Q383 -369 383 -369Q394 -369 405 -367Q406 -367 407 -367Q445 -360 469.5 -330Q494 -300 494 -260Z"/>
</svg>