<svg xmlns="http://www.w3.org/2000/svg" viewBox="0 -1000 1000 1000">
	<path fill="#000000" d="M758 -328Q766 -294 766 -258Q766 -170 714 -103Q662 -36 580 -12L2 -10V-176H578Q616 -208 616 -258Q616 -298 590 -328ZM464 -762V-594Q433 -620 393 -620Q344 -620 312 -583V-521H409V-369H312V-7H145L147 -369H50V-521H148V-584Q172 -667 239 -719Q306 -771 393 -771Q430 -771 464 -762Z"/>
	<path fill="#2200f5" d="M758 -318Q766 -284 766 -248Q766 -160 714 -93Q662 -26 580 -2L2 0V-166H578Q616 -198 616 -248Q616 -288 590 -318ZM464 -752V-584Q433 -610 393 -610Q344 -610 312 -573V-511H409V-359H312V3H145L147 -359H50V-511H148V-574Q172 -657 239 -709Q306 -761 393 -761Q430 -761 464 -752Z"/>
	<path fill="#00a0e1" d="M393 -758Q307 -758 240.5 -707Q174 -656 150 -574V-511Q150 -508 148 -508H52V-362H147Q149 -362 149 -359L148 -166Q148 -164 146 -164H5V-2L145 -3Q148 -3 148 0Q148 0 148 0H310V-1Q310 -4 312 -4L579 -5Q661 -29 712.5 -95Q764 -161 764 -248Q764 -283 756 -316H595Q618 -286 618 -248Q618 -197 580 -165Q579 -164 578 -164H312Q310 -164 310 -166V-359Q310 -362 312 -362H406V-508H312Q310 -508 310 -511V-573Q310 -574 310 -575Q343 -612 393 -612Q431 -612 462 -589V-750Q428 -758 393 -758ZM466 -752V-584Q466 -582 464 -582Q463 -582 462 -582Q432 -608 393 -608Q346 -608 314 -572V-514H409Q412 -514 412 -511V-359Q412 -356 409 -356H314V-169H578Q613 -200 613 -248Q613 -287 588 -317Q587 -318 587 -318Q587 -321 590 -321H758Q759 -321 760 -319Q769 -285 769 -248Q769 -160 716.5 -92Q664 -24 580 0L314 1V3Q314 6 312 6H145Q142 6 142 3Q142 3 142.5 2.5Q143 2 143 2L3 3Q0 3 0 0V-166Q0 -169 2 -169H143L144 -356H50Q48 -356 48 -359V-511Q48 -514 50 -514H145L146 -574Q146 -574 146 -575Q169 -658 237 -711Q305 -764 393 -764Q430 -764 465 -754Q466 -754 466 -752Z"/>
</svg>