<svg xmlns="http://www.w3.org/2000/svg" viewBox="0 -1000 1000 1000">
	<path fill="#000000" d="M202 -13H50V-913H197L202 -724Q210 -725 226 -725Q333 -725 408.5 -650Q484 -575 484 -468Q484 -361 408.5 -285.5Q333 -210 226 -210Q210 -210 202 -211ZM202 -571V-364Q214 -361 226 -361Q271 -361 302 -392Q333 -423 333 -468Q333 -512 302 -543Q271 -574 226 -574Q214 -574 202 -571Z"/>
	<path fill="#2200f5" d="M202 -3H50V-903H197L202 -714Q210 -715 226 -715Q333 -715 408.5 -640Q484 -565 484 -458Q484 -351 408.5 -275.5Q333 -200 226 -200Q210 -200 202 -201ZM202 -561V-354Q214 -351 226 -351Q271 -351 302 -382Q333 -413 333 -458Q333 -502 302 -533Q271 -564 226 -564Q214 -564 202 -561Z"/>
	<path fill="#00a0e1" d="M52 -6H200V-201Q200 -204 202 -204Q202 -204 202 -203Q210 -202 226 -202Q332 -202 407 -277Q482 -352 482 -458Q482 -564 407 -638Q332 -712 226 -712Q210 -712 202 -712Q200 -712 200 -714L195 -900H52ZM202 0H50Q48 0 48 -3V-903Q48 -906 50 -906H197Q199 -906 199 -903L204 -717Q212 -718 225 -718Q226 -718 226 -718Q334 -718 410 -642Q486 -566 486 -458Q486 -350 410 -274Q334 -198 226 -198Q222 -198 215 -198Q208 -198 204 -198V-3Q204 0 202 0ZM226 -354Q270 -354 300 -384Q330 -414 330 -458Q330 -501 300 -531.5Q270 -562 226 -562Q215 -562 204 -559V-356Q215 -354 226 -354ZM226 -566Q272 -566 304 -534.5Q336 -503 336 -458Q336 -412 304 -380Q272 -348 226 -348Q214 -348 201 -352Q200 -352 200 -354V-561Q200 -563 201 -563Q214 -566 226 -566Z"/>
</svg>