<svg xmlns="http://www.w3.org/2000/svg" viewBox="0 -1000 1000 1000">
	<path fill="#000000" d="M50 -5V-129Q63 -126 76 -126Q142 -126 188 -151Q234 -176 234 -212Q234 -246 207 -270Q180 -294 140 -298Q133 -298 127 -298Q121 -298 115 -298Q108 -298 101 -296V-299V-420V-423Q108 -421 115 -421Q121 -421 127 -421Q133 -421 140 -421Q180 -424 207 -448.5Q234 -473 234 -506Q234 -543 190 -568Q146 -593 82 -593Q69 -593 56 -590V-714Q69 -715 82 -715Q208 -715 296.5 -654Q385 -593 385 -506Q385 -420 310 -359Q385 -298 385 -212Q385 -126 294.5 -65Q204 -4 76 -4Q63 -4 50 -5Z"/>
	<path fill="#2200f5" d="M50 5V-119Q63 -116 76 -116Q142 -116 188 -141Q234 -166 234 -202Q234 -236 207 -260Q180 -284 140 -288Q133 -288 127 -288Q121 -288 115 -288Q108 -288 101 -286V-289V-410V-413Q108 -411 115 -411Q121 -411 127 -411Q133 -411 140 -411Q180 -414 207 -438.5Q234 -463 234 -496Q234 -533 190 -558Q146 -583 82 -583Q69 -583 56 -580V-704Q69 -705 82 -705Q208 -705 296.5 -644Q385 -583 385 -496Q385 -410 310 -349Q385 -288 385 -202Q385 -116 294.5 -55Q204 6 76 6Q63 6 50 5Z"/>
	<path fill="#00a0e1" d="M115 -408Q112 -408 104 -410V-289Q112 -291 115 -291Q121 -290 127 -290Q133 -290 140 -291Q181 -287 208.5 -262Q236 -237 236 -202Q236 -165 189.5 -139.5Q143 -114 76 -114Q64 -114 52 -116V3Q64 4 76 4Q204 4 293 -56.5Q382 -117 382 -202Q382 -287 309 -347Q308 -348 308 -349.5Q308 -351 309 -351Q382 -411 382 -496Q382 -582 294.5 -642.5Q207 -703 82 -703Q70 -703 58 -702V-583Q70 -585 82 -585Q147 -585 191.5 -559.5Q236 -534 236 -496Q236 -462 208.5 -437Q181 -412 140 -408Q139 -408 133.5 -408.5Q128 -409 127 -409Q121 -409 115 -408ZM48 5V-119Q48 -121 50 -121Q63 -119 76 -119Q142 -119 187 -143.5Q232 -168 232 -202Q232 -235 205.5 -258.5Q179 -282 140 -286Q133 -285 127 -285Q121 -285 115 -286Q108 -285 101 -284Q98 -284 98 -286V-413Q98 -415 101 -415Q108 -414 115 -413Q121 -414 127 -414Q133 -414 140 -413Q179 -417 205.5 -440.5Q232 -464 232 -496Q232 -531 188.5 -555.5Q145 -580 82 -580Q69 -580 56 -578Q54 -578 54 -580V-704Q54 -706 56 -707Q69 -708 82 -708Q209 -708 298.5 -646Q388 -584 388 -496Q388 -411 314 -349Q388 -288 388 -202Q388 -114 296.5 -52.5Q205 9 76 9Q63 9 50 8Q48 7 48 5Z"/>
</svg>