<svg xmlns="http://www.w3.org/2000/svg" viewBox="0 -1000 1000 1000">
	<path fill="#000000" d="M125 -587V-511Q124 -509 116.5 -500Q109 -491 93 -480.5Q77 -470 61 -470H11Q-5 -470 -27.5 -484Q-50 -498 -66 -498Q-77 -498 -92 -491Q-107 -484 -116 -477L-125 -470V-546Q-93 -574 -68 -574Q-51 -574 -27.5 -560.5Q-4 -547 12 -547Q35 -547 57 -547Q72 -547 89 -557Q106 -567 115 -577Z"/>
	<path fill="#2200f5" d="M125 -577V-501Q124 -499 116.5 -490Q109 -481 93 -470.5Q77 -460 61 -460H11Q-5 -460 -27.5 -474Q-50 -488 -66 -488Q-77 -488 -92 -481Q-107 -474 -116 -467L-125 -460V-536Q-93 -564 -68 -564Q-51 -564 -27.5 -550.5Q-4 -537 12 -537Q35 -537 57 -537Q72 -537 89 -547Q106 -557 115 -567Z"/>
	<path fill="#00a0e1" d="M12 -534Q-5 -534 -28.5 -548Q-52 -562 -68 -562Q-90 -562 -122 -535V-465Q-89 -491 -66 -491Q-49 -491 -27 -477Q-5 -463 11 -463H61Q80 -463 96.5 -476Q113 -489 122 -501V-570Q88 -534 57 -534Q57 -534 12 -534ZM-68 -567Q-51 -567 -27.5 -553Q-4 -539 12 -539Q35 -539 57 -539Q71 -539 88.5 -550Q106 -561 112.5 -567.5Q119 -574 123 -578Q124 -579 125 -579Q127 -579 127 -577V-501Q127 -498 119 -488.5Q111 -479 94.5 -468.5Q78 -458 61 -458H11Q-6 -458 -28 -472Q-50 -486 -66 -486Q-76 -486 -90.5 -479Q-105 -472 -114 -465L-123 -458Q-124 -458 -125 -458Q-127 -458 -127 -460V-536Q-127 -537 -126 -538Q-94 -567 -68 -567Z"/>
</svg>