<svg xmlns="http://www.w3.org/2000/svg" viewBox="0 -1000 1000 1000">
	<path fill="#000000" d="M726 -813V-681H0V-813ZM390 -523Q390 -522 391.5 -552.5Q393 -583 394 -614L396 -644Q397 -644 398 -644Q525 -644 614.5 -552Q704 -460 704 -330Q704 -199 614.5 -107Q525 -15 398 -15Q271 -15 181.5 -107Q92 -199 92 -330Q92 -330 148 -335.5Q204 -341 204 -342Q204 -339 204 -336Q204 -258 257.5 -203Q311 -148 387 -148Q463 -148 516.5 -203Q570 -258 570 -336Q570 -413 517.5 -467.5Q465 -522 390 -523Z"/>
	<path fill="#2200f5" d="M726 -803V-671H0V-803ZM390 -513Q390 -512 391.5 -542.5Q393 -573 394 -604L396 -634Q397 -634 398 -634Q525 -634 614.5 -542Q704 -450 704 -320Q704 -189 614.5 -97Q525 -5 398 -5Q271 -5 181.5 -97Q92 -189 92 -320Q92 -320 148 -325.5Q204 -331 204 -332Q204 -329 204 -326Q204 -248 257.5 -193Q311 -138 387 -138Q463 -138 516.5 -193Q570 -248 570 -326Q570 -403 517.5 -457.5Q465 -512 390 -513Z"/>
	<path fill="#00a0e1" d="M725 -674V-800H3V-674ZM729 -803V-671Q729 -668 727 -668H1Q-1 -668 -1 -671V-803Q-1 -806 1 -806H727Q729 -806 729 -803ZM202 -329Q189 -327 147.5 -323Q106 -319 96 -318Q97 -189 185.5 -98Q274 -7 399 -7Q525 -7 613.5 -98.5Q702 -190 702 -320Q702 -449 613.5 -540.5Q525 -632 399 -632L393 -516Q469 -514 521.5 -458.5Q574 -403 574 -326Q574 -247 519.5 -191.5Q465 -136 388 -136Q311 -136 256.5 -191.5Q202 -247 202 -326Q202 -327 202 -329ZM399 -637Q527 -637 617 -544Q707 -451 707 -320Q707 -188 617 -95Q527 -2 399 -2Q271 -2 181 -95Q91 -188 91 -320Q91 -322 100 -323Q108 -324 151.5 -328Q195 -332 203 -334H204H205L202 -332L207 -331Q207 -329 207 -326Q207 -249 260 -195Q313 -141 388 -141Q463 -141 516 -195Q569 -249 569 -326Q569 -402 517 -456Q465 -510 391 -511Q388 -511 388 -513L394 -634Q395 -637 399 -637Z"/>
</svg>