<svg xmlns="http://www.w3.org/2000/svg" viewBox="0 -1000 1000 1000">
	<path fill="#000000" d="M463 -967Q463 -967 463 -953Q463 -900 426 -862.5Q389 -825 335 -825Q281 -825 244 -862Q207 -899 207 -953V-967H283Q281 -959 281 -953Q281 -931 297 -915Q313 -899 335.5 -899Q358 -899 373.5 -915Q389 -931 389 -953Q389 -959 387 -967ZM616 -194Q600 -136 555.5 -94.5Q511 -53 455 -33.5Q399 -14 335 -13.5Q271 -13 214.5 -32Q158 -51 114 -93Q70 -135 53 -194L50 -771H217V-195Q246 -162 335 -161.5Q424 -161 452 -195V-771H619Z"/>
	<path fill="#2200f5" d="M463 -957Q463 -957 463 -943Q463 -890 426 -852.5Q389 -815 335 -815Q281 -815 244 -852Q207 -889 207 -943V-957H283Q281 -949 281 -943Q281 -921 297 -905Q313 -889 335.5 -889Q358 -889 373.5 -905Q389 -921 389 -943Q389 -949 387 -957ZM616 -184Q600 -126 555.5 -84.5Q511 -43 455 -23.5Q399 -4 335 -3.5Q271 -3 214.5 -22Q158 -41 114 -83Q70 -125 53 -184L50 -761H217V-185Q246 -152 335 -151.5Q424 -151 452 -185V-761H619Z"/>
	<path fill="#00a0e1" d="M209 -954V-943Q209 -891 246 -854Q283 -817 335.5 -817Q388 -817 424.5 -854Q461 -891 461 -943V-954H390Q391 -948 391 -943Q391 -920 375 -903.5Q359 -887 335.5 -887Q312 -887 295.5 -903.5Q279 -920 279 -943Q279 -948 280 -954ZM466 -957V-943Q466 -889 428 -850.5Q390 -812 335 -812Q280 -812 242 -850Q204 -888 204 -943V-957Q204 -959 207 -959H283Q286 -959 286 -957Q286 -956 286 -956Q284 -948 284 -943Q284 -922 299 -907Q314 -892 335.5 -892Q357 -892 371.5 -907Q386 -922 386 -943Q386 -948 384 -956Q384 -956 384 -957Q384 -959 387 -959H463Q466 -959 466 -957ZM454 -758V-185Q454 -184 454 -183Q425 -149 336 -149Q296 -149 263 -158Q230 -167 215 -183Q214 -184 214 -185V-758H53L55 -184Q80 -99 158 -52Q236 -5 333 -5Q431 -5 510 -52Q589 -99 614 -184L616 -758ZM50 -764H217Q220 -764 220 -761V-186Q233 -171 265.5 -162.5Q298 -154 336 -154Q373 -154 404.5 -162.5Q436 -171 450 -186V-761Q450 -764 452 -764H619Q622 -764 622 -761L618 -184Q618 -184 618 -183Q594 -96 513.5 -48Q433 0 333 0Q235 0 155.5 -48Q76 -96 51 -183Q51 -184 51 -184L48 -761Q48 -764 50 -764Z"/>
</svg>