<svg xmlns="http://www.w3.org/2000/svg" viewBox="0 -1000 1000 1000">
	<path fill="#000000" d="M688 -813V-681H526V-813ZM488 -860H640V-8H488ZM69 -393L136 -505Q143 -498 158 -493Q198 -476 229.5 -480Q261 -484 281 -508Q304 -535 259 -547Q247 -550 205 -557Q139 -583 99 -617.5Q59 -652 51 -694Q43 -736 81 -780Q128 -837 228 -848.5Q328 -860 424 -819Q433 -815 492.5 -785.5Q552 -756 557 -752L490 -622Q485 -625 424 -656.5Q363 -688 357 -690Q316 -706 296 -702Q276 -698 256 -674Q231 -648 235.5 -638.5Q240 -629 287 -621Q326 -604 355 -589.5Q384 -575 410.5 -555Q437 -535 448.5 -515.5Q460 -496 457.5 -471.5Q455 -447 433 -421Q386 -364 286 -351.5Q186 -339 91 -380Q83 -382 69 -393Z"/>
	<path fill="#2200f5" d="M688 -803V-671H526V-803ZM488 -850H640V2H488ZM69 -383L136 -495Q143 -488 158 -483Q198 -466 229.5 -470Q261 -474 281 -498Q304 -525 259 -537Q247 -540 205 -547Q139 -573 99 -607.5Q59 -642 51 -684Q43 -726 81 -770Q128 -827 228 -838.5Q328 -850 424 -809Q433 -805 492.5 -775.5Q552 -746 557 -742L490 -612Q485 -615 424 -646.5Q363 -678 357 -680Q316 -696 296 -692Q276 -688 256 -664Q231 -638 235.5 -628.5Q240 -619 287 -611Q326 -594 355 -579.5Q384 -565 410.5 -545Q437 -525 448.5 -505.5Q460 -486 457.5 -461.5Q455 -437 433 -411Q386 -354 286 -341.5Q186 -329 91 -370Q83 -372 69 -383Z"/>
	<path fill="#00a0e1" d="M242 -341Q303 -341 353 -360Q403 -379 431 -413Q456 -442 456 -470Q456 -509 410.5 -542Q365 -575 286 -609Q257 -614 245 -618.5Q233 -623 233 -632Q233 -641 254 -666Q279 -695 306 -695Q326 -695 357 -682Q364 -680 419 -652Q474 -624 489 -615Q490 -615 490 -613V0H637V-671Q637 -674 640 -674H685V-800H640Q637 -800 637 -803V-848H490V-778Q490 -775 488 -775Q487 -775 486 -776Q431 -803 423 -807Q349 -838 269 -838Q209 -838 159.5 -820Q110 -802 83 -768Q53 -733 53 -697Q53 -654 93.5 -616Q134 -578 205 -549Q209 -549 218 -547.5Q227 -546 231.5 -545Q236 -544 244.5 -542.5Q253 -541 257.5 -540Q262 -539 268 -537Q274 -535 277.5 -533Q281 -531 284.5 -528Q288 -525 290 -522Q292 -519 292 -515Q292 -507 283 -496Q257 -466 216 -466Q188 -466 157 -481Q143 -485 136 -491L72 -384Q84 -374 91 -372Q91 -372 92 -372Q163 -341 242 -341ZM136 -498Q137 -498 137 -497Q144 -490 158 -485Q159 -485 159 -485Q189 -471 216 -471Q255 -471 279 -500Q287 -509 287 -515Q287 -521 280.5 -525.5Q274 -530 259 -534Q244 -538 235 -539.5Q226 -541 204 -545Q132 -573 90 -612.5Q48 -652 48 -697Q48 -735 79 -772Q107 -806 157.5 -824.5Q208 -843 269 -843Q350 -843 425 -811Q432 -808 485 -782V-850Q485 -852 488 -852H640Q642 -852 642 -850V-806H688Q690 -806 690 -803V-671Q690 -668 688 -668H642V2Q642 4 640 4H488Q485 4 485 2V-612Q468 -621 414.5 -648.5Q361 -676 356 -678Q325 -690 306 -690Q281 -690 258 -662Q238 -639 238 -632Q238 -622 287 -613Q287 -613 288 -613Q368 -579 414.5 -545Q461 -511 461 -470Q461 -441 435 -409Q406 -374 355 -355Q304 -336 242 -336Q162 -336 90 -368Q82 -370 67 -381Q66 -382 66 -383Q66 -384 66 -384L133 -496Q134 -498 136 -498Z"/>
</svg>