<svg xmlns="http://www.w3.org/2000/svg" viewBox="0 -1000 1000 1000">
	<path fill="#000000" d="M434 -813V-681H273V-813ZM232 -497L-73 -795L128 -792L340 -604ZM234 -857H386V-8H234Z"/>
	<path fill="#2200f5" d="M434 -803V-671H273V-803ZM232 -487L-73 -785L128 -782L340 -594ZM234 -847H386V2H234Z"/>
	<path fill="#00a0e1" d="M385 -844H237V-688Q237 -686 235 -686Q234 -686 233 -686L128 -780L-66 -782L233 -491Q234 -491 235 -491Q237 -491 237 -489V0H385V-671Q385 -674 387 -674H433V-800H387Q385 -800 385 -803ZM235 -850H387Q389 -850 389 -847V-806H435Q437 -806 437 -803V-671Q437 -668 435 -668H389V2Q389 4 387 4H235Q233 4 233 2V-485Q232 -485 231 -485L-74 -783Q-75 -784 -75 -785Q-75 -788 -72 -787L129 -784Q130 -784 131 -784L233 -694V-847Q233 -850 235 -850Z"/>
</svg>