<svg xmlns="http://www.w3.org/2000/svg" viewBox="0 -1000 1000 1000">
	<path fill="#000000" d="M218 -777Q265.5 -777 299 -749.5Q332.5 -722 332.5 -683.5Q332.5 -645 299.5 -621Q266.5 -597 218 -597Q199 -597 181.5 -602L180 -484L431.5 -486.5V-547L294 -546Q346 -563 377.5 -599.75Q409 -636.5 409 -684Q409 -727 383.5 -763.25Q358 -799.5 314 -820.5Q270 -841.5 218 -841.5Q199.5 -841.5 181.5 -838.5V-772Q199 -777 218 -777Z"/>
	<path fill="#2200f5" d="M218 -772Q265.5 -772 299 -744.5Q332.5 -717 332.5 -678.5Q332.5 -640 299.5 -616Q266.5 -592 218 -592Q199 -592 181.5 -597L180 -479L431.5 -481.5V-542L294 -541Q346 -558 377.5 -594.75Q409 -631.5 409 -679Q409 -722 383.5 -758.25Q358 -794.5 314 -815.5Q270 -836.5 218 -836.5Q199.5 -836.5 181.5 -833.5V-767Q199 -772 218 -772Z"/>
	<path fill="#00a0e1" d="M218 -773Q266 -773 300 -745.5Q334 -718 334 -678.5Q334 -639.5 300.5 -615.25Q267 -591 218 -591Q200 -591 182.5 -595L181.5 -480.5L430 -482.5V-541L294 -539.5Q292.5 -539.5 292.5 -541Q292.5 -542 293.5 -542Q345 -559 376.5 -595.5Q408 -632 408 -679Q408 -721.5 382.5 -757.5Q357 -793.5 313.25 -814.25Q269.5 -835 218 -835Q200 -835 183 -832.5V-769Q200 -773 218 -773ZM218 -771Q199.5 -771 182 -766Q181.5 -766 181.5 -766Q180 -766 180 -767V-833.5Q180 -834.5 181.5 -835Q199.5 -837.5 218 -837.5Q270 -837.5 314.25 -816.5Q358.5 -795.5 384.25 -759Q410 -722.5 410 -679Q410 -633 380.5 -596.5Q351 -560 301.5 -542L431.5 -543.5Q433 -543.5 433 -542V-481.5Q433 -480 431.5 -480L180 -478Q178.5 -478 179 -479L180.5 -597Q180.5 -598 181.5 -598Q181.5 -598 182 -598Q199.5 -593 218 -593Q266 -593 298.5 -617Q331 -641 331 -678.5Q331 -716.5 298 -743.75Q265 -771 218 -771Z"/>
</svg>