<svg xmlns="http://www.w3.org/2000/svg" viewBox="0 -1000 1000 1000">
	<path fill="#000000" d="M639 -813V-681H0V-813ZM616 -194Q600 -136 555.5 -94.5Q511 -53 455 -33.5Q399 -14 335 -13.5Q271 -13 214.5 -32Q158 -51 114 -93Q70 -135 53 -194L50 -771H217V-195Q246 -162 335 -161.5Q424 -161 452 -195V-383H619Z"/>
	<path fill="#2200f5" d="M639 -803V-671H0V-803ZM616 -184Q600 -126 555.5 -84.5Q511 -43 455 -23.5Q399 -4 335 -3.5Q271 -3 214.5 -22Q158 -41 114 -83Q70 -125 53 -184L50 -761H217V-185Q246 -152 335 -151.5Q424 -151 452 -185V-373H619Z"/>
	<path fill="#00a0e1" d="M455 -370V-185Q455 -184 455 -183Q426 -149 337 -149Q297 -149 264 -158Q231 -167 216 -183Q215 -184 215 -185V-671Q215 -674 218 -674H637V-800H3V-674H51Q54 -674 54 -671L56 -184Q81 -99 159 -52Q237 -5 334 -5Q432 -5 511 -52Q590 -99 615 -184L617 -370ZM1 -668Q-1 -668 -1 -671V-803Q-1 -806 1 -806H640Q643 -806 643 -803V-671Q643 -668 640 -668H221V-186Q234 -171 266.5 -162.5Q299 -154 337 -154Q374 -154 405.5 -162.5Q437 -171 451 -186V-373Q451 -376 453 -376H620Q623 -376 622 -373L619 -184Q619 -184 619 -183Q595 -96 514.5 -48Q434 0 334 0Q236 0 156.5 -48Q77 -96 52 -183Q52 -184 52 -184L49 -668Z"/>
</svg>