<svg xmlns="http://www.w3.org/2000/svg" viewBox="0 -1000 1000 1000">
	<path fill="#000000" d="M946 -813V-681H0V-813ZM401 -515Q401 -514 399.5 -546.5Q398 -579 397 -612L396 -644Q397 -644 398 -644Q525 -644 614.5 -552Q704 -460 704 -330Q704 -199 614.5 -107Q525 -15 398 -15Q271 -15 181.5 -107Q92 -199 92 -330Q92 -330 153.5 -331.5Q215 -333 215 -334Q215 -331 215 -328Q215 -250 268.5 -195Q322 -140 398 -140Q474 -140 527.5 -195Q581 -250 581 -328Q581 -405 528.5 -459.5Q476 -514 401 -515ZM697 -297L879 -115L771 -8L589 -190ZM773 -10V-786H925V-10Z"/>
	<path fill="#2200f5" d="M946 -803V-671H0V-803ZM401 -505Q401 -504 399.5 -536.5Q398 -569 397 -602L396 -634Q397 -634 398 -634Q525 -634 614.5 -542Q704 -450 704 -320Q704 -189 614.5 -97Q525 -5 398 -5Q271 -5 181.5 -97Q92 -189 92 -320Q92 -320 153.5 -321.5Q215 -323 215 -324Q215 -321 215 -318Q215 -240 268.5 -185Q322 -130 398 -130Q474 -130 527.5 -185Q581 -240 581 -318Q581 -395 528.5 -449.5Q476 -504 401 -505ZM697 -287L879 -105L771 2L589 -180ZM773 0V-776H925V0Z"/>
	<path fill="#00a0e1" d="M213 -321Q205 -320 154.5 -319Q104 -318 96 -318Q96 -269 119 -228Q142 -187 179.5 -157.5Q217 -128 256 -104.5Q295 -81 336.5 -55Q378 -29 399 -7Q471 -7 534 -40Q597 -73 640 -130Q640 -131 642 -131Q643 -131 644 -130L772 -2Q773 -2 774 -2H923V-671Q923 -674 926 -674H945V-800H3V-674H774Q777 -674 777 -671V-211Q777 -208 774 -208Q773 -208 772 -209L701 -281Q700 -281 700 -283Q702 -301 702 -320Q702 -449 613.5 -540.5Q525 -632 400 -632L404 -508Q480 -506 532.5 -450.5Q585 -395 585 -318Q585 -239 530.5 -183.5Q476 -128 399 -128Q322 -128 267.5 -183.5Q213 -239 213 -318Q213 -320 213 -321ZM91 -320Q91 -323 94 -323Q94 -323 94 -323Q100 -323 154.5 -324Q209 -325 215 -326Q216 -326 216 -326L213 -324L218 -323Q218 -321 218 -318Q218 -241 271 -187Q324 -133 399 -133Q474 -133 527 -187Q580 -241 580 -318Q580 -394 528 -448Q476 -502 402 -503Q399 -503 399 -505L394 -634Q394 -637 399 -637Q527 -637 617 -544Q707 -451 707 -320Q707 -302 705 -283L771 -217V-668H1Q-1 -668 -1 -671V-803Q-1 -806 1 -806H947Q949 -806 949 -803V-671Q949 -668 947 -668H929V0Q929 2 926 2H775Q773 4 772 4Q771 4 770 4L642 -124Q599 -68 535.5 -35Q472 -2 399 -2Q271 -2 181 -95Q91 -188 91 -320Z"/>
</svg>