<svg xmlns="http://www.w3.org/2000/svg" viewBox="0 -1000 1000 1000">
	<path fill="#000000" d="M193 -629Q193 -629 193 -610Q193 -529 137 -472.5Q81 -416 1 -416Q-80 -416 -136.5 -472.5Q-193 -529 -193 -610V-629H-77Q-80 -620 -80 -610Q-80 -576 -56.5 -552.5Q-33 -529 1 -529Q35 -529 57.5 -552.5Q80 -576 80 -610Q80 -620 77 -629ZM-61 -668V-782H61V-668Z"/>
	<path fill="#2200f5" d="M193 -619Q193 -619 193 -600Q193 -519 137 -462.5Q81 -406 1 -406Q-80 -406 -136.5 -462.5Q-193 -519 -193 -600V-619H-77Q-80 -610 -80 -600Q-80 -566 -56.5 -542.5Q-33 -519 1 -519Q35 -519 57.5 -542.5Q80 -566 80 -600Q80 -610 77 -619ZM-61 -658V-772H61V-658Z"/>
	<path fill="#00a0e1" d="M-189 -616V-600Q-189 -520 -133.5 -464Q-78 -408 2 -408Q81 -408 136 -464Q191 -520 191 -600V-616H81Q83 -608 83 -600Q83 -565 60 -540.5Q37 -516 2 -516Q-33 -516 -57 -540.5Q-81 -565 -81 -600Q-81 -608 -79 -616ZM197 -619V-600Q197 -518 140 -461Q83 -404 2 -404Q-80 -404 -137.5 -461Q-195 -518 -195 -600V-619Q-195 -622 -192 -622H-76Q-73 -622 -73 -619Q-73 -619 -74 -618Q-77 -610 -77 -600Q-77 -567 -54 -544.5Q-31 -522 2 -522Q35 -522 57 -544.5Q79 -567 79 -600Q79 -610 76 -618Q75 -619 75 -619Q75 -622 78 -622H194Q197 -622 197 -619ZM-57 -770V-660H59V-770ZM-63 -658V-772Q-63 -774 -60 -774H62Q65 -774 65 -772V-658Q65 -656 62 -656H-60Q-63 -656 -63 -658Z"/>
</svg>