<svg xmlns="http://www.w3.org/2000/svg" viewBox="0 -1000 1000 1000">
	<path fill="#000000" d="M518 -460Q528 -456 543.5 -450Q559 -444 597.5 -434Q636 -424 662 -424Q692 -424 701 -463Q719 -540 685 -623.5Q651 -707 589 -769Q565 -793 512.5 -806.5Q460 -820 437 -844Q421 -859 410.5 -889Q400 -919 398 -942L396 -964L484 -1052Q485 -1043 487 -1027.5Q489 -1012 500.5 -978.5Q512 -945 528 -929Q550 -907 601.5 -895Q653 -883 676 -861L746 -790Q762 -774 781.5 -731.5Q801 -689 816 -632.5Q831 -576 837 -520.5Q843 -465 827.5 -418Q812 -371 773 -352Q709 -322 650 -322Q626 -322 592 -329.5Q558 -337 536 -344L515 -352ZM287 -692Q239 -689 225 -686Q226 -686 221 -707Q216 -728 211 -749Q206 -770 207 -770Q211 -770 231 -780Q251 -790 279.5 -802.5Q308 -815 331 -818Q437 -833 504.5 -762Q572 -691 570 -575Q568 -488 520 -423Q570 -355 570 -270Q570 -163 494.5 -88Q419 -13 312 -13Q311 -13 310 -13Q309 -13 309 -13Q309 -13 308 -13Q306 -13 304 -13Q296 -13 290 -14Q189 -20 119.5 -94Q50 -168 50 -270Q50 -352 96 -418L105 -421Q108 -422 108 -422Q209 -394 212 -393Q225 -387 220 -371Q204 -323 202 -295Q201 -283 201 -270Q201 -225 232 -195Q263 -165 310 -164Q357 -165 388 -195Q419 -225 419 -270Q419 -309 395 -338Q371 -367 334 -375V-374L310 -469Q322 -469 334 -472V-471Q371 -479 395 -508Q419 -537 419 -575Q419 -633 383 -664Q347 -695 287 -692Z"/>
	<path fill="#2200f5" d="M518 -450Q528 -446 543.5 -440Q559 -434 597.5 -424Q636 -414 662 -414Q692 -414 701 -453Q719 -530 685 -613.5Q651 -697 589 -759Q565 -783 512.5 -796.5Q460 -810 437 -834Q421 -849 410.5 -879Q400 -909 398 -932L396 -954L484 -1042Q485 -1033 487 -1017.5Q489 -1002 500.5 -968.5Q512 -935 528 -919Q550 -897 601.5 -885Q653 -873 676 -851L746 -780Q762 -764 781.5 -721.5Q801 -679 816 -622.5Q831 -566 837 -510.5Q843 -455 827.5 -408Q812 -361 773 -342Q709 -312 650 -312Q626 -312 592 -319.5Q558 -327 536 -334L515 -342ZM287 -682Q239 -679 225 -676Q226 -676 221 -697Q216 -718 211 -739Q206 -760 207 -760Q211 -760 231 -770Q251 -780 279.5 -792.5Q308 -805 331 -808Q437 -823 504.5 -752Q572 -681 570 -565Q568 -478 520 -413Q570 -345 570 -260Q570 -153 494.5 -78Q419 -3 312 -3Q311 -3 310 -3Q309 -3 309 -3Q309 -3 308 -3Q306 -3 304 -3Q296 -3 290 -4Q189 -10 119.5 -84Q50 -158 50 -260Q50 -342 96 -408L105 -411Q108 -412 108 -412Q209 -384 212 -383Q225 -377 220 -361Q204 -313 202 -285Q201 -273 201 -260Q201 -215 232 -185Q263 -155 310 -154Q357 -155 388 -185Q419 -215 419 -260Q419 -299 395 -328Q371 -357 334 -365V-364L310 -459Q322 -459 334 -462V-461Q371 -469 395 -498Q419 -527 419 -565Q419 -623 383 -654Q347 -685 287 -682Z"/>
	<path fill="#00a0e1" d="M209 -758Q210 -752 218.5 -719Q227 -686 228 -679Q252 -683 287 -684Q292 -685 297 -685Q354 -685 388 -653Q422 -621 422 -565Q422 -526 397 -496Q372 -466 334 -459Q333 -459 332 -459Q323 -457 313 -457L336 -367Q373 -359 397.5 -329.5Q422 -300 422 -260Q422 -214 390 -183Q358 -152 310 -152Q262 -152 230 -183Q198 -214 198 -260Q198 -310 215 -355Q219 -367 219 -371Q219 -377 208.5 -381.5Q198 -386 161 -395Q129 -404 108 -409Q101 -407 98 -406Q53 -341 52 -260Q52 -159 121 -86Q190 -13 290 -6Q298 -6 308 -6H312Q418 -6 493 -80Q568 -154 568 -260Q568 -294 559 -327Q559 -330 561 -330Q562 -330 562 -330Q616 -314 650 -314Q685 -314 710.5 -321Q736 -328 772 -344Q835 -375 835 -483Q835 -563 803.5 -657Q772 -751 744 -778L674 -849Q651 -871 600 -883Q549 -895 526 -917Q492 -951 482 -1037L398 -953Q405 -868 438 -835Q461 -812 514 -798.5Q567 -785 590 -761Q642 -710 675.5 -641Q709 -572 709 -504Q709 -478 703 -452Q694 -412 662 -412Q661 -411 660 -411Q613 -411 538 -440Q536 -440 536 -442Q536 -443 536 -443Q568 -501 568 -572Q568 -675 511 -741.5Q454 -808 364 -808Q348 -808 331 -806Q299 -801 238 -770Q214 -759 209 -758ZM223 -677Q223 -680 213.5 -717.5Q204 -755 204 -759Q204 -760 204 -760Q204 -763 207 -763V-762Q211 -762 235 -775Q297 -806 331 -810Q348 -813 364 -813Q457 -813 515 -744.5Q573 -676 573 -572Q573 -501 542 -443Q615 -416 660 -416Q661 -416 662 -416Q690 -416 699 -454Q704 -478 704 -504Q704 -571 671 -639Q638 -707 587 -758Q564 -781 511 -794.5Q458 -808 435 -832Q419 -848 408.5 -880Q398 -912 395.5 -930Q393 -948 393 -954Q393 -955 394 -956L482 -1044Q483 -1045 484 -1045Q486 -1045 486 -1042Q487 -1033 489.5 -1017.5Q492 -1002 503 -969.5Q514 -937 530 -921Q552 -899 603 -887Q654 -875 677 -852L748 -782Q776 -753 808 -659Q840 -565 840 -483Q840 -372 774 -340Q738 -323 711.5 -316.5Q685 -310 650 -310Q617 -310 565 -324Q572 -293 572 -260Q572 -152 496 -76.5Q420 -1 312 -1H308Q297 -1 290 -1Q188 -8 118 -82.5Q48 -157 48 -260Q48 -342 93 -408Q93 -410 100 -412Q107 -414 108 -414Q108 -414 109 -414Q130 -408 162 -400Q165 -399 170 -398Q204 -389 214 -384.5Q224 -380 224 -371Q224 -366 219 -353Q204 -309 204 -260Q204 -216 234 -186.5Q264 -157 310 -157Q356 -157 386 -186.5Q416 -216 416 -260Q416 -298 393.5 -326Q371 -354 336 -362Q335 -361 334 -361Q332 -361 332 -363L308 -458Q307 -459 307 -459Q307 -461 310 -462Q322 -462 333 -465Q334 -465 334 -465Q335 -465 336 -464Q371 -472 393.5 -500Q416 -528 416 -565Q416 -619 384 -649.5Q352 -680 297 -680Q292 -680 287 -680Q239 -677 226 -674L225 -678Z"/>
</svg>