<svg xmlns="http://www.w3.org/2000/svg" viewBox="0 -1000 1000 1000">
	<path fill="#000000" d="M106 -524L-2 -631L180 -813L288 -706ZM-180 -526L-288 -633L-106 -815L2 -708Z"/>
	<path fill="#2200f5" d="M106 -514L-2 -621L180 -803L288 -696ZM-180 -516L-288 -623L-106 -805L2 -698Z"/>
	<path fill="#00a0e1" d="M3 -621L107 -518L285 -696L181 -799ZM-3 -623L179 -805Q180 -806 181 -806Q182 -806 183 -805L291 -698Q291 -697 291 -696Q291 -695 291 -694L109 -512Q108 -512 107 -512Q106 -512 105 -512L-3 -619Q-3 -620 -3 -621Q-3 -622 -3 -623ZM-283 -623L-179 -520L-1 -698L-105 -801ZM-289 -625L-107 -807Q-106 -808 -105 -808Q-104 -808 -103 -807L5 -700Q5 -699 5 -698Q5 -697 5 -696L-177 -514Q-178 -514 -179 -514Q-180 -514 -181 -514L-289 -621Q-289 -622 -289 -623Q-289 -624 -289 -625Z"/>
</svg>