<svg xmlns="http://www.w3.org/2000/svg" viewBox="0 -1000 1000 1000">
	<path fill="#000000" d="M-71 58V-19Q-63 -17 -58 -17Q-35 -17 -19.5 -32.5Q-4 -48 -4 -70Q-4 -92 -20 -108Q-36 -124 -58 -124Q-63 -124 -71 -122V-199H-58Q-4 -199 33.5 -161.5Q71 -124 71 -70Q71 -17 33.5 20.5Q-4 58 -58 58Z"/>
	<path fill="#2200f5" d="M-71 68V-9Q-63 -7 -58 -7Q-35 -7 -19.5 -22.5Q-4 -38 -4 -60Q-4 -82 -20 -98Q-36 -114 -58 -114Q-63 -114 -71 -112V-189H-58Q-4 -189 33.5 -151.5Q71 -114 71 -60Q71 -7 33.5 30.5Q-4 68 -58 68Z"/>
	<path fill="#00a0e1" d="M-67 66H-57Q-4 66 32.5 29Q69 -8 69 -60Q69 -113 32.5 -149.5Q-4 -186 -57 -186H-67V-115Q-61 -116 -57 -116Q-33 -116 -17 -100Q-1 -84 -1 -60.5Q-1 -37 -17 -20.5Q-33 -4 -57 -4Q-61 -4 -67 -6ZM-73 68V-9Q-73 -12 -70 -12Q-70 -12 -69 -11Q-62 -10 -57 -10Q-35 -10 -20 -24.5Q-5 -39 -5 -60Q-5 -81 -20.5 -96.5Q-36 -112 -57 -112Q-62 -112 -69 -110Q-70 -110 -70 -110Q-73 -110 -73 -112V-189Q-73 -192 -70 -192H-57Q-2 -192 36.5 -153.5Q75 -115 75 -60Q75 -6 36.5 32Q-2 70 -57 70H-70Q-73 70 -73 68Z"/>
</svg>