<svg xmlns="http://www.w3.org/2000/svg" viewBox="0 -1000 1000 1000">
	<path fill="#000000" d="M-1 -442Q-1 -442 -3 -442Q-3 -442 -10 -442Q-61 -446 -95.5 -482.5Q-130 -519 -130 -570Q-130 -621 -95 -658Q-60 -695 -10 -699H-3Q-3 -699 -1 -699Q-1 -699 1 -699Q55 -699 92.5 -661.5Q130 -624 130 -570Q130 -517 92.5 -479.5Q55 -442 1 -442ZM0 -624Q-4 -624 -12 -622V-623Q-31 -619 -42.5 -604.5Q-54 -590 -54 -570Q-54 -551 -42.5 -536.5Q-31 -522 -12 -518V-519Q-4 -517 0 -517Q4 -517 12 -519V-518Q31 -522 42.5 -536.5Q54 -551 54 -570Q54 -590 42.5 -604.5Q31 -619 12 -623V-622Q4 -624 0 -624Z"/>
	<path fill="#2200f5" d="M-1 -432Q-1 -432 -3 -432Q-3 -432 -10 -432Q-61 -436 -95.5 -472.5Q-130 -509 -130 -560Q-130 -611 -95 -648Q-60 -685 -10 -689H-3Q-3 -689 -1 -689Q-1 -689 1 -689Q55 -689 92.5 -651.5Q130 -614 130 -560Q130 -507 92.5 -469.5Q55 -432 1 -432ZM0 -614Q-4 -614 -12 -612V-613Q-31 -609 -42.5 -594.5Q-54 -580 -54 -560Q-54 -541 -42.5 -526.5Q-31 -512 -12 -508V-509Q-4 -507 0 -507Q4 -507 12 -509V-508Q31 -512 42.5 -526.5Q54 -541 54 -560Q54 -580 42.5 -594.5Q31 -609 12 -613V-612Q4 -614 0 -614Z"/>
	<path fill="#00a0e1" d="M-9 -434H2Q55 -434 92 -471Q129 -508 129 -560Q129 -613 92 -649.5Q55 -686 2 -686H-9Q-58 -683 -92.5 -646.5Q-127 -610 -127 -560Q-127 -510 -92.5 -474Q-58 -438 -9 -434ZM2 -430H-9Q-61 -433 -96 -470.5Q-131 -508 -131 -560Q-131 -612 -96 -650Q-61 -688 -9 -691Q-9 -691 -9 -692H2Q57 -692 95 -653.5Q133 -615 133 -560Q133 -506 95 -468Q57 -430 2 -430ZM-10 -610Q-11 -610 -11 -610Q-12 -610 -13 -610Q-30 -606 -40 -592Q-50 -578 -50.5 -560Q-51 -542 -40.5 -528.5Q-30 -515 -13 -511Q-12 -511 -11 -512Q-11 -512 -10 -511Q-3 -510 1 -510Q5 -510 12 -511Q13 -512 13 -512Q14 -512 15 -511Q32 -515 42.5 -528.5Q53 -542 53 -560Q53 -578 42.5 -592Q32 -606 15 -610Q14 -610 13 -610Q13 -610 12 -610Q5 -612 1 -612Q-3 -612 -10 -610ZM11 -615Q12 -615 13 -616V-615Q33 -612 45 -596Q57 -580 57 -560Q57 -540 45 -524.5Q33 -509 13 -506Q12 -506 11 -506Q5 -504 1 -504Q-3 -504 -9 -506Q-10 -506 -11 -506Q-31 -509 -43 -524.5Q-55 -540 -55 -560Q-55 -580 -43 -596Q-31 -612 -11 -615Q-11 -615 -11 -616Q-10 -616 -9 -615Q-3 -616 1 -616Q5 -616 11 -615Z"/>
</svg>