<svg xmlns="http://www.w3.org/2000/svg" viewBox="0 -1000 1000 1000">
	<path fill="#000000" d="M339 -730Q339 -734 339.5 -741.5Q340 -749 339 -769.5Q338 -790 334.5 -808Q331 -826 322 -847.5Q313 -869 300 -883Q268 -914 237 -945Q213 -969 160.5 -982.5Q108 -996 85 -1020Q69 -1035 58.5 -1065Q48 -1095 46 -1118L44 -1140L132 -1228Q133 -1219 135 -1203.5Q137 -1188 148.5 -1154.5Q160 -1121 176 -1105Q198 -1083 249.5 -1071Q301 -1059 324 -1037L325 -1035L326 -1034L328 -1032L329 -1031L331 -1029L332 -1028L333 -1027L335 -1025L336 -1024L337 -1023L339 -1022L340 -1020L341 -1019L342 -1018L343 -1017L345 -1016L346 -1015L347 -1013L348 -1012L349 -1011L350 -1010L351 -1009L352 -1008L353 -1007L354 -1006L355 -1005L356 -1004L357 -1003L358 -1002L359 -1001L360 -1000L361 -999L362 -998L363 -997L364 -996L366 -994H367V-993L368 -992L369 -991L370 -990L371 -989L372 -988L373 -987L374 -986H375V-985L376 -984L377 -983L378 -982L379 -981H380V-980L381 -979L382 -978L383 -977L384 -976L385 -975L386 -974L387 -973L388 -972L389 -971H390L391 -970L392 -969L393 -968L394 -966Q408 -952 416.5 -931.5Q425 -911 427 -892Q429 -873 429 -856Q429 -839 428 -828.5Q427 -818 427 -818ZM236 -482L128 -588Q205 -665 311.5 -666Q418 -667 495 -590Q571 -513 570 -407Q569 -301 492 -224Q435 -166 366 -151Q297 -136 237.5 -157.5Q178 -179 131 -227L233 -330Q234 -329 234 -329Q266 -297 309 -297.5Q352 -298 386 -331Q419 -365 419.5 -408Q420 -451 388 -483Q356 -515 313 -515Q270 -515 236 -482ZM689 -813V-681H0V-813ZM434 -9L137 -229L338 -231L593 -9Z"/>
	<path fill="#2200f5" d="M339 -720Q339 -724 339.5 -731.5Q340 -739 339 -759.5Q338 -780 334.5 -798Q331 -816 322 -837.5Q313 -859 300 -873Q268 -904 237 -935Q213 -959 160.5 -972.5Q108 -986 85 -1010Q69 -1025 58.5 -1055Q48 -1085 46 -1108L44 -1130L132 -1218Q133 -1209 135 -1193.5Q137 -1178 148.5 -1144.5Q160 -1111 176 -1095Q198 -1073 249.5 -1061Q301 -1049 324 -1027L394 -956Q408 -942 416.5 -921.5Q425 -901 427 -882Q429 -863 429 -846Q429 -829 428 -818.5Q427 -808 427 -808ZM236 -472L128 -578Q205 -655 311.5 -656Q418 -657 495 -580Q571 -503 570 -397Q569 -291 492 -214Q435 -156 366 -141Q297 -126 237.5 -147.5Q178 -169 131 -217L233 -320Q234 -319 234 -319Q266 -287 309 -287.5Q352 -288 386 -321Q419 -355 419.5 -398Q420 -441 388 -473Q356 -505 313 -505Q270 -505 236 -472ZM689 -803V-671H0V-803ZM434 1L137 -219L338 -221L593 1Z"/>
	<path fill="#00a0e1" d="M315 -508Q358 -508 391 -475Q423 -443 423 -400Q423 -355 389 -319Q354 -285 309 -285Q266 -285 234 -316L135 -217Q176 -176 228 -156Q228 -155 228 -155L436 -2H587L412 -154Q411 -155 411 -156Q411 -158 412 -159Q455 -178 491 -215Q569 -293 569 -400Q569 -504 494 -578Q419 -653 315 -653Q210 -653 133 -578Q141 -571 177 -535Q204 -509 237 -476Q272 -508 315 -508ZM127 -578Q127 -579 127 -579Q206 -658 315 -658Q421 -658 498 -582Q574 -506 574 -400Q574 -291 495 -212Q459 -176 418 -156L596 -1Q597 0 597 1Q597 4 594 4H435Q434 4 434 3L226 -151Q172 -173 130 -215Q129 -216 129 -217Q129 -218 130 -219L233 -321Q233 -322 234 -322Q235 -322 237 -321Q268 -290 309 -290Q352 -290 385 -323Q418 -357 418 -400Q418 -441 388 -471Q356 -503 315 -503Q273 -503 239 -470Q238 -470 237 -470Q236 -470 235 -470Q151 -554 131 -572Q129 -574 128 -575Q127 -576 127 -578ZM687 -674V-800H423Q421 -800 421 -803Q421 -804 422 -805L426 -809Q426 -809 426 -810Q426 -811 426 -817Q428 -835 428 -848Q428 -920 393 -954L323 -1025Q300 -1047 249 -1059Q198 -1071 175 -1093Q141 -1127 131 -1213L47 -1129Q54 -1044 87 -1011Q110 -988 163 -974.5Q216 -961 239 -937Q271 -905 303 -875Q327 -850 337 -804V-803Q337 -800 334 -800H3V-674ZM693 -803V-671Q693 -668 690 -668H1Q-1 -668 -1 -671V-803Q-1 -806 1 -806H331Q321 -848 299 -871Q268 -902 236 -934Q213 -957 160 -970.5Q107 -984 84 -1008Q68 -1024 57.5 -1056Q47 -1088 44.5 -1106Q42 -1124 42 -1130Q42 -1131 43 -1132L131 -1220Q132 -1221 133 -1221Q135 -1221 135 -1218Q136 -1209 138.5 -1193.5Q141 -1178 152 -1145.5Q163 -1113 179 -1097Q201 -1075 252 -1063Q303 -1051 326 -1028L397 -958Q433 -922 433 -848Q433 -835 431 -817Q431 -811 431 -810V-809Q431 -809 431 -808Q431 -807 429 -806H690Q693 -806 693 -803Z"/>
</svg>