<svg xmlns="http://www.w3.org/2000/svg" viewBox="0 -1000 1000 1000">
	<path fill="#000000" d="M305 -762Q340 -771 376 -771Q463 -771 530 -719Q597 -667 621 -584L624 -7H457V-583Q425 -620 376 -620Q336 -620 305 -594ZM12 -328H180Q154 -297 154 -258Q154 -208 190 -176H554V-10L190 -12Q107 -36 54.5 -103.5Q2 -171 2 -258Q2 -295 12 -328Z"/>
	<path fill="#2200f5" d="M305 -752Q340 -761 376 -761Q463 -761 530 -709Q597 -657 621 -574L624 3H457V-573Q425 -610 376 -610Q336 -610 305 -584ZM12 -318H180Q154 -287 154 -248Q154 -198 190 -166H554V0L190 -2Q107 -26 54.5 -93.5Q2 -161 2 -248Q2 -285 12 -318Z"/>
	<path fill="#00a0e1" d="M460 0H621L619 -574Q595 -656 528.5 -707Q462 -758 376 -758Q341 -758 308 -750V-589Q338 -612 376 -612Q426 -612 459 -575Q460 -574 460 -573V-166Q460 -164 457 -164H190Q190 -164 189 -165Q151 -197 151 -248Q151 -286 174 -316H13Q5 -283 5 -248Q5 -161 56.5 -95Q108 -29 190 -5L457 -3Q460 -3 460 0ZM12 -321H180Q182 -321 182 -318Q182 -318 181 -317Q156 -287 156 -248Q156 -200 191 -169H454V-572Q423 -608 376 -608Q337 -608 307 -582Q306 -582 305 -582Q302 -582 302 -584V-752Q302 -754 304 -754Q339 -764 376 -764Q464 -764 532 -711Q600 -658 623 -575Q623 -574 623 -574L626 3Q626 6 624 6H457Q454 6 454 3V2L189 0Q105 -24 52.5 -92Q0 -160 0 -248Q0 -285 9 -319Q10 -321 12 -321Z"/>
</svg>