<svg xmlns="http://www.w3.org/2000/svg" viewBox="0 -1000 1000 1000">
	<path fill="#000000" d="M642 -813V-681H482V-813ZM530 -497L396 -632L420 -713L548 -604ZM442 -857H594V-8H442ZM423 -716V-600Q414 -602 404 -602Q370 -602 346.5 -579.5Q323 -557 323 -523.5Q323 -490 346.5 -466Q370 -442 404 -442Q414 -442 423 -446V-330H404Q323 -330 266.5 -386Q210 -442 210 -524Q210 -603 266.5 -659.5Q323 -716 404 -716ZM0 -716H19Q100 -716 156.5 -659.5Q213 -603 213 -524Q213 -442 156.5 -386Q100 -330 19 -330H0V-446Q9 -442 19 -442Q53 -442 76.5 -466Q100 -490 100 -523.5Q100 -557 76.5 -579.5Q53 -602 19 -602Q9 -602 0 -600Z"/>
	<path fill="#2200f5" d="M642 -803V-671H482V-803ZM530 -487L396 -622L420 -703L548 -594ZM442 -847H594V2H442ZM423 -706V-590Q414 -592 404 -592Q370 -592 346.5 -569.5Q323 -547 323 -513.5Q323 -480 346.5 -456Q370 -432 404 -432Q414 -432 423 -436V-320H404Q323 -320 266.5 -376Q210 -432 210 -514Q210 -593 266.5 -649.5Q323 -706 404 -706ZM0 -706H19Q100 -706 156.5 -649.5Q213 -593 213 -514Q213 -432 156.5 -376Q100 -320 19 -320H0V-436Q9 -432 19 -432Q53 -432 76.5 -456Q100 -480 100 -513.5Q100 -547 76.5 -569.5Q53 -592 19 -592Q9 -592 0 -590Z"/>
	<path fill="#00a0e1" d="M421 -703H405Q332 -703 278 -655.5Q224 -608 215 -537Q215 -535 212.5 -535Q210 -535 210 -537Q201 -608 147 -655.5Q93 -703 20 -703H3V-593Q12 -595 20 -595Q55 -595 79 -571.5Q103 -548 103 -513.5Q103 -479 79 -454.5Q55 -430 20 -430Q12 -430 3 -432V-322H20Q93 -322 147 -370Q201 -418 210 -489Q210 -491 212.5 -491Q215 -491 215 -489Q224 -418 278 -370Q332 -322 405 -322H421V-432Q413 -430 405 -430Q370 -430 345.5 -454.5Q321 -479 321 -513.5Q321 -548 345.5 -571.5Q370 -595 405 -595Q413 -595 421 -593V-594Q421 -597 424 -597Q425 -597 426 -596L445 -576Q446 -576 446 -575V0H593V-671Q593 -674 595 -674H641V-800H595Q593 -800 593 -803V-844H446V-684Q446 -682 443 -682Q443 -682 442 -682L422 -699Q421 -700 421 -701ZM1 -708H20Q91 -708 145 -664Q199 -620 212 -553Q226 -620 280 -664Q334 -708 405 -708H424Q427 -708 427 -706V-702L441 -690V-847Q441 -850 443 -850H595Q598 -850 598 -847V-806H643Q646 -806 646 -803V-671Q646 -668 643 -668H598V2Q598 4 595 4H443Q441 4 441 2V-574L426 -588Q426 -587 424 -587Q424 -587 423 -587Q415 -590 405 -590Q372 -590 349.5 -568Q327 -546 327 -514Q327 -481 349.5 -458Q372 -435 405 -435Q415 -435 423 -438Q424 -438 424 -438Q427 -438 427 -436V-320Q427 -317 424 -317H405Q334 -317 280 -361Q226 -405 213 -473Q199 -405 145 -361Q91 -317 20 -317H1Q-1 -317 -1 -320V-436Q-1 -438 1 -438Q1 -438 2 -438Q10 -435 20 -435Q53 -435 76 -458Q99 -481 99 -514Q99 -546 76 -568Q53 -590 20 -590Q10 -590 2 -587Q1 -587 1 -587Q-1 -587 -1 -590V-706Q-1 -708 1 -708Z"/>
</svg>