<svg xmlns="http://www.w3.org/2000/svg" viewBox="0 -1000 1000 1000">
	<path fill="#000000" d="M1344 -805V-673H1144V-805ZM1066 -297L1248 -115L1140 -8L958 -190ZM1142 -10V-786H1294V-10ZM436 -723Q436 -723 436 -704Q436 -623 380 -566.5Q324 -510 244 -510Q163 -510 106.5 -566.5Q50 -623 50 -704V-723H166Q163 -714 163 -704Q163 -670 186.5 -646.5Q210 -623 244 -623Q278 -623 300.5 -646.5Q323 -670 323 -704Q323 -714 320 -723ZM738 -724H925L754 -454L707 -519ZM754 -608V-456L612 -284L922 -170V-12L468 -190V-342ZM922 -787H1068V-11H922ZM736 -723V-704Q736 -623 680 -566.5Q624 -510 544 -510Q463 -510 406.5 -566.5Q350 -623 350 -704V-723H466Q463 -714 463 -704Q463 -670 486.5 -646.5Q510 -623 544 -623Q578 -623 600.5 -646.5Q623 -670 623 -704Q623 -714 620 -723Z"/>
	<path fill="#2200f5" d="M1344 -795V-663H1144V-795ZM1066 -287L1248 -105L1140 2L958 -180ZM1142 0V-776H1294V0ZM436 -713Q436 -713 436 -694Q436 -613 380 -556.5Q324 -500 244 -500Q163 -500 106.5 -556.5Q50 -613 50 -694V-713H166Q163 -704 163 -694Q163 -660 186.5 -636.5Q210 -613 244 -613Q278 -613 300.5 -636.5Q323 -660 323 -694Q323 -704 320 -713ZM738 -714H925L754 -444L707 -509ZM754 -598V-446L612 -274L922 -160V-2L468 -180V-332ZM922 -777H1068V-1H922ZM736 -713V-694Q736 -613 680 -556.5Q624 -500 544 -500Q463 -500 406.5 -556.5Q350 -613 350 -694V-713H466Q463 -704 463 -694Q463 -660 486.5 -636.5Q510 -613 544 -613Q578 -613 600.5 -636.5Q623 -660 623 -694Q623 -704 620 -713Z"/>
	<path fill="#00a0e1" d="M736 -698Q734 -698 734 -701V-710H623Q626 -702 626 -694Q626 -659 602.5 -634.5Q579 -610 544 -610Q509 -610 484.5 -634.5Q460 -659 460 -694Q460 -702 463 -710H323Q326 -702 326 -694Q326 -659 302.5 -634.5Q279 -610 244 -610Q209 -610 184.5 -634.5Q160 -659 160 -694Q160 -702 163 -710H52V-694Q52 -614 108 -558Q164 -502 244 -502Q288 -502 326.5 -521Q365 -540 391 -573Q392 -574 393 -574Q394 -574 395 -573Q422 -540 460.5 -521Q499 -502 544 -502Q605 -502 654 -537.5Q703 -573 723 -630Q723 -632 725 -632Q728 -632 728 -629L717 -561Q717 -560 717 -560L471 -330V-181L919 -6V-158L612 -271Q610 -272 610 -274Q610 -274 611 -275L751 -447Q752 -448 753 -448L920 -711Q920 -711 921 -712H740L738 -700Q738 -698 736 -698ZM1066 -774H924V-714Q924 -712 923 -712Q924 -711 924 -709V-4H1066V-70Q1066 -73 1068 -73Q1069 -73 1070 -72L1141 -2Q1141 -2 1143 -2H1292V-663Q1292 -666 1294 -666H1342V-792H1147V-776Q1147 -774 1145 -774V-211Q1145 -208 1142 -208Q1141 -208 1141 -209L1066 -284Q1066 -284 1066 -286ZM922 -780H1068Q1070 -780 1070 -777V-287L1140 -217V-776Q1140 -778 1142 -778V-795Q1142 -798 1144 -798H1344Q1347 -798 1347 -795V-663Q1347 -660 1344 -660H1297V0Q1297 2 1294 2H1144Q1142 4 1140.5 4Q1139 4 1139 4L1070 -64V-1Q1070 2 1068 2H922Q920 2 920 -1L468 -177Q466 -178 466 -180V-332Q466 -333 467 -333L713 -563L720 -609Q696 -559 648.5 -528.5Q601 -498 544 -498Q452 -498 393 -567Q335 -498 244 -498Q162 -498 105 -555Q48 -612 48 -694V-713Q48 -716 50 -716H166Q168 -716 168 -713Q168 -713 168 -712Q166 -704 166 -694Q166 -661 188.5 -638.5Q211 -616 244 -616Q277 -616 298.5 -638.5Q320 -661 320 -694Q320 -704 318 -712Q318 -713 318 -713Q318 -716 320 -716H466Q468 -716 468 -713Q468 -713 468 -712Q466 -704 466 -694Q466 -661 488.5 -638.5Q511 -616 544 -616Q577 -616 598.5 -638.5Q620 -661 620 -694Q620 -704 618 -712Q618 -713 618 -713Q618 -716 620 -716H736Q737 -716 738 -716H920V-777Q920 -780 922 -780ZM754 -442H753L617 -275L920 -163V-701L756 -443Q755 -442 754 -442Z"/>
</svg>