<svg xmlns="http://www.w3.org/2000/svg" viewBox="0 -1000 1000 1000">
	<path fill="#000000" d="M509 -627Q509 -627 509 -608Q509 -527 453 -470.5Q397 -414 317 -414Q236 -414 179.5 -470.5Q123 -527 123 -608V-627H239Q236 -618 236 -608Q236 -574 259.5 -550.5Q283 -527 317 -527Q351 -527 373.5 -550.5Q396 -574 396 -608Q396 -618 393 -627ZM726 -813V-681H0V-813ZM390 -523Q390 -522 391.5 -552.5Q393 -583 394 -614L396 -644Q397 -644 398 -644Q525 -644 614.5 -552Q704 -460 704 -330Q704 -199 614.5 -107Q525 -15 398 -15Q271 -15 181.5 -107Q92 -199 92 -330Q92 -330 148 -335.5Q204 -341 204 -342Q204 -339 204 -336Q204 -258 257.5 -203Q311 -148 387 -148Q463 -148 516.5 -203Q570 -258 570 -336Q570 -413 517.5 -467.5Q465 -522 390 -523Z"/>
	<path fill="#2200f5" d="M509 -617Q509 -617 509 -598Q509 -517 453 -460.5Q397 -404 317 -404Q236 -404 179.5 -460.5Q123 -517 123 -598V-617H239Q236 -608 236 -598Q236 -564 259.5 -540.5Q283 -517 317 -517Q351 -517 373.5 -540.5Q396 -564 396 -598Q396 -608 393 -617ZM726 -803V-671H0V-803ZM390 -513Q390 -512 391.5 -542.5Q393 -573 394 -604L396 -634Q397 -634 398 -634Q525 -634 614.5 -542Q704 -450 704 -320Q704 -189 614.5 -97Q525 -5 398 -5Q271 -5 181.5 -97Q92 -189 92 -320Q92 -320 148 -325.5Q204 -331 204 -332Q204 -329 204 -326Q204 -248 257.5 -193Q311 -138 387 -138Q463 -138 516.5 -193Q570 -248 570 -326Q570 -403 517.5 -457.5Q465 -512 390 -513Z"/>
	<path fill="#00a0e1" d="M397 -615Q398 -611 398 -610Q398 -610 396 -575V-574Q389 -548 367.5 -531Q346 -514 318 -514Q283 -514 259 -538.5Q235 -563 235 -598Q235 -606 237 -614H127V-598Q127 -518 182.5 -462Q238 -406 318 -406Q366 -406 408 -429Q450 -452 475 -491Q476 -492 478 -492Q478 -492 479 -492Q522 -467 548 -423Q574 -379 574 -326Q574 -247 519.5 -191.5Q465 -136 388 -136Q311 -136 256.5 -191.5Q202 -247 202 -326Q202 -327 202 -329Q189 -327 147.5 -323Q106 -319 96 -318Q97 -189 185.5 -98Q274 -7 399 -7Q525 -7 613.5 -98.5Q702 -190 702 -320Q702 -418 648.5 -497Q595 -576 509 -611Q507 -611 507 -613V-614H499Q499 -614 498 -615Q451 -632 399 -632V-617Q399 -615 397 -615ZM725 -674V-800H3V-674ZM729 -803V-671Q729 -668 727 -668H1Q-1 -668 -1 -671V-803Q-1 -806 1 -806H727Q729 -806 729 -803ZM393 -610Q393 -611 392 -613.5Q391 -616 391 -617Q391 -619 394 -619V-634Q395 -637 399 -637Q451 -637 500 -620H510Q513 -620 513 -617V-615Q599 -579 653 -499Q707 -419 707 -320Q707 -188 617 -95Q527 -2 399 -2Q271 -2 181 -95Q91 -188 91 -320Q91 -322 100 -323Q108 -324 151.5 -328Q195 -332 203 -334H204H205L202 -332L207 -331Q207 -329 207 -326Q207 -249 260 -195Q313 -141 388 -141Q463 -141 516 -195Q569 -249 569 -326Q569 -377 544.5 -419.5Q520 -462 478 -486Q452 -447 409.5 -424.5Q367 -402 318 -402Q236 -402 178.5 -459Q121 -516 121 -598V-617Q121 -620 124 -620H240Q243 -620 243 -617Q243 -617 242 -616Q239 -608 239 -598Q239 -565 262 -542.5Q285 -520 318 -520Q344 -520 364.5 -535.5Q385 -551 391 -576Z"/>
</svg>