<svg xmlns="http://www.w3.org/2000/svg" viewBox="0 -1000 1000 1000">
	<path fill="#000000" d="M309 -761H441V-376H309ZM311 -377Q310 -528 309 -528Q419 -528 496 -453Q573 -378 570 -270Q567 -161 492 -87Q417 -13 309 -13Q247 -13 198 -35Q149 -57 118.5 -94Q88 -131 72 -176.5Q56 -222 56 -271H201Q201 -271 201 -270Q201 -225 232 -195Q263 -165 310 -164Q357 -165 388 -195Q419 -225 419 -270Q419 -316 388.5 -346Q358 -376 311 -377Z"/>
	<path fill="#2200f5" d="M309 -751H441V-366H309ZM311 -367Q310 -518 309 -518Q419 -518 496 -443Q573 -368 570 -260Q567 -151 492 -77Q417 -3 309 -3Q247 -3 198 -25Q149 -47 118.5 -84Q88 -121 72 -166.5Q56 -212 56 -261H201Q201 -261 201 -260Q201 -215 232 -185Q263 -155 310 -154Q357 -155 388 -185Q419 -215 419 -260Q419 -306 388.5 -336Q358 -366 311 -367Z"/>
	<path fill="#00a0e1" d="M58 -258Q59 -210 75 -165Q91 -120 121 -84Q151 -48 200 -27Q249 -6 309 -6Q416 -6 490.5 -79Q565 -152 568 -260Q568 -263 568 -266Q568 -335 533 -392Q498 -449 440 -482Q438 -482 438 -484V-748H312V-518H311Q311 -518 312 -518V-368H324Q367 -363 394.5 -333Q422 -303 422 -260Q422 -214 390 -183Q358 -152 310 -152Q262 -152 230.5 -182.5Q199 -213 199 -258ZM53 -259Q53 -264 56 -264H201Q204 -264 204 -261Q204 -260 204 -260Q204 -216 234 -186.5Q264 -157 310 -157Q356 -157 386 -186.5Q416 -216 416 -260Q416 -301 390.5 -329.5Q365 -358 324 -364H309Q306 -364 306 -366L307 -517L309 -515Q309 -518 309 -520L306 -518V-751Q306 -754 309 -754H441Q444 -754 444 -751V-485Q503 -452 538 -394Q573 -336 573 -266Q573 -263 572 -260Q570 -150 494 -75.5Q418 -1 309 -1Q247 -1 197.5 -22.5Q148 -44 117 -81Q86 -118 69.5 -163.5Q53 -209 53 -259Z"/>
</svg>