<svg xmlns="http://www.w3.org/2000/svg" viewBox="0 -1000 1000 1000">
	<path fill="#000000" d="M50 185V17Q81 43 121 43Q170 43 202 6V-527H369L366 7Q342 90 275 142Q208 194 121 194Q84 194 50 185Z"/>
	<path fill="#2200f5" d="M50 195V27Q81 53 121 53Q170 53 202 16V-517H369L366 17Q342 100 275 152Q208 204 121 204Q84 204 50 195Z"/>
	<path fill="#00a0e1" d="M121 202Q207 202 273.5 150.5Q340 99 364 17L366 -514H204V16Q204 17 204 18Q171 55 121 56Q83 56 52 32V193Q86 202 121 202ZM48 195V27Q48 24 50 24Q51 24 52 25Q82 50 121 50Q168 50 200 15V-517Q200 -520 202 -520H369Q372 -520 372 -517L368 17Q368 17 368 18Q345 101 277 153.5Q209 206 121 206Q84 206 49 197Q48 197 48 195Z"/>
</svg>