<svg xmlns="http://www.w3.org/2000/svg" viewBox="0 -1000 1000 1000">
	<path fill="#000000" d="M544 -812L455 -724Q455 -725 445 -724Q435 -723 417.5 -723Q400 -723 381 -725Q362 -727 342 -735Q322 -743 308 -757L237 -828Q214 -851 202.5 -902Q191 -953 168 -976Q152 -992 121.5 -1003Q91 -1014 68 -1017L45 -1020L134 -1108Q143 -1107 158 -1105.5Q173 -1104 205.5 -1093.5Q238 -1083 254 -1067Q277 -1044 291 -991Q305 -938 328 -915Q360 -883 391 -852Q413 -830 451 -820.5Q489 -811 516 -811ZM639 -813V-681H0V-813ZM616 -194Q600 -136 555.5 -94.5Q511 -53 455 -33.5Q399 -14 335 -13.5Q271 -13 214.5 -32Q158 -51 114 -93Q70 -135 53 -194L50 -771H217V-195Q246 -162 335 -161.5Q424 -161 452 -195V-383H619Z"/>
	<path fill="#2200f5" d="M544 -802L455 -714Q455 -715 445 -714Q435 -713 417.5 -713Q400 -713 381 -715Q362 -717 342 -725Q322 -733 308 -747L237 -818Q214 -841 202.5 -892Q191 -943 168 -966Q152 -982 121.5 -993Q91 -1004 68 -1007L45 -1010L134 -1098Q143 -1097 158 -1095.5Q173 -1094 205.5 -1083.5Q238 -1073 254 -1057Q277 -1034 291 -981Q305 -928 328 -905Q360 -873 391 -842Q413 -820 451 -810.5Q489 -801 516 -801ZM639 -803V-671H0V-803ZM616 -184Q600 -126 555.5 -84.5Q511 -43 455 -23.5Q399 -4 335 -3.5Q271 -3 214.5 -22Q158 -41 114 -83Q70 -125 53 -184L50 -761H217V-185Q246 -152 335 -151.5Q424 -151 452 -185V-373H619Z"/>
	<path fill="#00a0e1" d="M455 -370V-185Q455 -184 455 -183Q426 -149 337 -149Q297 -149 264 -158Q231 -167 216 -183Q215 -184 215 -185V-671Q215 -674 218 -674H637V-800H495Q495 -800 495 -801Q423 -807 390 -840Q359 -871 327 -903Q304 -927 290 -979.5Q276 -1032 253 -1055Q220 -1088 136 -1095L52 -1012Q137 -1001 171 -968Q194 -945 205.5 -893.5Q217 -842 240 -820L255 -805Q255 -804 255 -803Q255 -800 253 -800H3V-674H51Q54 -674 54 -671L56 -184Q81 -99 159 -52Q237 -5 334 -5Q432 -5 511 -52Q590 -99 615 -184L617 -370ZM1 -668Q-1 -668 -1 -671V-803Q-1 -806 1 -806H247L236 -816Q213 -839 201.5 -890.5Q190 -942 168 -964Q152 -980 120.5 -990.5Q89 -1001 70 -1004Q51 -1007 46 -1007Q44 -1007 44 -1010Q44 -1011 44 -1011L133 -1100Q134 -1100 135 -1100Q140 -1100 158.5 -1098Q177 -1096 208.5 -1085.5Q240 -1075 257 -1059Q280 -1035 294 -982.5Q308 -930 331 -907Q363 -875 393 -843Q426 -812 495 -806H640Q643 -806 643 -803V-671Q643 -668 640 -668H221V-186Q234 -171 266.5 -162.5Q299 -154 337 -154Q374 -154 405.5 -162.5Q437 -171 451 -186V-373Q451 -376 453 -376H620Q623 -376 622 -373L619 -184Q619 -184 619 -183Q595 -96 514.5 -48Q434 0 334 0Q236 0 156.5 -48Q77 -96 52 -183Q52 -184 52 -184L49 -668Z"/>
</svg>