<svg xmlns="http://www.w3.org/2000/svg" viewBox="0 -1000 1000 1000">
	<path fill="#000000" d="M-106 -524L-288 -706L-180 -813L2 -631ZM180 -526L-2 -708L106 -815L288 -633Z"/>
	<path fill="#2200f5" d="M-106 -514L-288 -696L-180 -803L2 -621ZM180 -516L-2 -698L106 -805L288 -623Z"/>
	<path fill="#00a0e1" d="M-283 -696L-105 -518L-1 -621L-179 -799ZM-289 -698L-181 -805Q-180 -806 -179 -806Q-178 -806 -177 -805L5 -623Q5 -622 5 -621Q5 -620 5 -619L-103 -512Q-104 -512 -105 -512Q-106 -512 -107 -512L-289 -694Q-289 -695 -289 -696Q-289 -697 -289 -698ZM3 -698L181 -520L285 -623L107 -801ZM-3 -700L105 -807Q106 -808 107 -808Q108 -808 109 -807L291 -625Q291 -624 291 -623Q291 -622 291 -621L183 -514Q182 -514 181 -514Q180 -514 179 -514L-3 -696Q-3 -697 -3 -698Q-3 -699 -3 -700Z"/>
</svg>