<svg xmlns="http://www.w3.org/2000/svg" viewBox="0 -1000 1000 1000">
	<path fill="#000000" d="M58 186V44H210V186L150 318L92 314L101 186ZM50 -532H219V-522Q258 -534 299 -534Q379 -534 443.5 -483Q508 -432 537 -355H372V-354Q341 -383 299 -383Q251 -383 219 -348V-16H50Z"/>
	<path fill="#2200f5" d="M58 196V54H210V196L150 328L92 324L101 196ZM50 -522H219V-512Q258 -524 299 -524Q379 -524 443.5 -473Q508 -422 537 -345H372V-344Q341 -373 299 -373Q251 -373 219 -338V-6H50Z"/>
	<path fill="#00a0e1" d="M60 56V194H101Q103 194 103 196Q103 196 95 322L148 325L208 195V56ZM56 196V54Q56 52 58 52H210Q212 52 212 54V196Q212 197 212 197L152 329Q152 330 150 330L92 326Q90 326 90 324L98 198H58Q56 198 56 196ZM216 -520H52V-8H216V-338Q216 -339 217 -340Q250 -376 299 -376Q341 -376 372 -348H533Q504 -422 440.5 -472Q377 -522 299 -522Q258 -522 220 -510Q219 -510 219 -510Q216 -510 216 -512ZM50 -524H219Q222 -524 222 -522V-515Q259 -526 299 -526Q380 -526 445 -474.5Q510 -423 539 -346Q540 -345 540 -345Q540 -342 537 -342H374Q373 -342 372 -342Q371 -342 370 -342Q340 -370 299 -370Q252 -370 222 -337V-6Q222 -4 219 -4H50Q48 -4 48 -6V-522Q48 -524 50 -524Z"/>
</svg>