<svg xmlns="http://www.w3.org/2000/svg" viewBox="0 -1000 1000 1000">
	<path fill="#000000" d="M134 -477.5V-539.5Q140.5 -538 147 -538Q180 -538 203 -550.5Q226 -563 226 -581Q226 -598 212.5 -610Q199 -622 179 -624Q175.5 -624 172.5 -624Q169.5 -624 166.5 -624Q163 -624 159.5 -623V-624.5V-685V-686.5Q163 -685.5 166.5 -685.5Q169.5 -685.5 172.5 -685.5Q175.5 -685.5 179 -685.5Q199 -687 212.5 -699.25Q226 -711.5 226 -728Q226 -746.5 204 -759Q182 -771.5 150 -771.5Q143.5 -771.5 137 -770V-832Q143.5 -832.5 150 -832.5Q213 -832.5 257.25 -802Q301.5 -771.5 301.5 -728Q301.5 -685 264 -654.5Q301.5 -624 301.5 -581Q301.5 -538 256.25 -507.5Q211 -477 147 -477Q140.5 -477 134 -477.5Z"/>
	<path fill="#2200f5" d="M134 -472.5V-534.5Q140.5 -533 147 -533Q180 -533 203 -545.5Q226 -558 226 -576Q226 -593 212.5 -605Q199 -617 179 -619Q175.5 -619 172.5 -619Q169.5 -619 166.5 -619Q163 -619 159.5 -618V-619.5V-680V-681.5Q163 -680.5 166.5 -680.5Q169.5 -680.5 172.5 -680.5Q175.5 -680.5 179 -680.5Q199 -682 212.5 -694.25Q226 -706.5 226 -723Q226 -741.5 204 -754Q182 -766.5 150 -766.5Q143.5 -766.5 137 -765V-827Q143.5 -827.5 150 -827.5Q213 -827.5 257.25 -797Q301.5 -766.5 301.5 -723Q301.5 -680 264 -649.5Q301.5 -619 301.5 -576Q301.5 -533 256.25 -502.5Q211 -472 147 -472Q140.5 -472 134 -472.5Z"/>
	<path fill="#00a0e1" d="M166.5 -679Q165 -679 161 -680V-619.5Q165 -620.5 166.5 -620.5Q169.5 -620 172.5 -620Q175.5 -620 179 -620.5Q199.5 -618.5 213.25 -606Q227 -593.5 227 -576Q227 -557.5 203.75 -544.75Q180.5 -532 147 -532Q141 -532 135 -533V-473.5Q141 -473 147 -473Q211 -473 255.5 -503.25Q300 -533.5 300 -576Q300 -618.5 263.5 -648.5Q263 -649 263 -649.75Q263 -650.5 263.5 -650.5Q300 -680.5 300 -723Q300 -766 256.25 -796.25Q212.5 -826.5 150 -826.5Q144 -826.5 138 -826V-766.5Q144 -767.5 150 -767.5Q182.5 -767.5 204.75 -754.75Q227 -742 227 -723Q227 -706 213.25 -693.5Q199.5 -681 179 -679Q178.5 -679 175.75 -679.25Q173 -679.5 172.5 -679.5Q169.5 -679.5 166.5 -679ZM133 -472.5V-534.5Q133 -535.5 134 -535.5Q140.5 -534.5 147 -534.5Q180 -534.5 202.5 -546.75Q225 -559 225 -576Q225 -592.5 211.75 -604.25Q198.5 -616 179 -618Q175.5 -617.5 172.5 -617.5Q169.5 -617.5 166.5 -618Q163 -617.5 159.5 -617Q158 -617 158 -618V-681.5Q158 -682.5 159.5 -682.5Q163 -682 166.5 -681.5Q169.5 -682 172.5 -682Q175.5 -682 179 -681.5Q198.5 -683.5 211.75 -695.25Q225 -707 225 -723Q225 -740.5 203.25 -752.75Q181.5 -765 150 -765Q143.5 -765 137 -764Q136 -764 136 -765V-827Q136 -828 137 -828.5Q143.5 -829 150 -829Q213.5 -829 258.25 -798Q303 -767 303 -723Q303 -680.5 266 -649.5Q303 -619 303 -576Q303 -532 257.25 -501.25Q211.5 -470.5 147 -470.5Q140.5 -470.5 134 -471Q133 -471.5 133 -472.5Z"/>
</svg>