<svg xmlns="http://www.w3.org/2000/svg" viewBox="0 -1000 1000 1000">
	<path fill="#000000" d="M77 -190L108 -337L379 -497L118 -681H0V-813H841V-681H796V-8H644V-10ZM644 -167V-392L512 -447L302 -272ZM644 -681H357L644 -539Z"/>
	<path fill="#2200f5" d="M77 -180L108 -327L379 -487L118 -671H0V-803H841V-671H796V2H644V0ZM644 -157V-382L512 -437L302 -262ZM644 -671H357L644 -529Z"/>
	<path fill="#00a0e1" d="M795 0V-671Q795 -674 797 -674H839V-800H3V-674H119Q120 -674 121 -673L382 -490Q383 -489 383 -487.5Q383 -486 382 -485L111 -325L81 -182L646 -3Q647 -2 647 0ZM1 -668Q-1 -668 -1 -671V-803Q-1 -806 1 -806H842Q845 -806 845 -803V-671Q845 -668 842 -668H799V2Q799 4 797 4H645Q643 4 643 2L77 -178Q75 -178 75 -180V-181L107 -328Q107 -329 108 -329L376 -488L118 -668ZM308 -263L643 -160V-380L513 -434ZM301 -262Q301 -263 302 -264L511 -439Q512 -439 513 -439Q513 -439 514 -439L646 -384Q647 -383 647 -382V-157Q647 -154 645 -154Q645 -154 644 -154L302 -260Q301 -260 301 -262ZM643 -668H369L643 -533ZM647 -671V-529Q647 -526 645 -526Q644 -526 644 -527L357 -669Q356 -669 356 -671Q356 -674 358 -674H645Q647 -674 647 -671Z"/>
</svg>