<svg xmlns="http://www.w3.org/2000/svg" viewBox="0 -1000 1000 1000">
	<path fill="#000000" d="M592 -460Q602 -456 617.5 -450Q633 -444 671.5 -434Q710 -424 736 -424Q766 -424 775 -463Q793 -540 759 -623.5Q725 -707 663 -769Q639 -793 586.5 -806.5Q534 -820 511 -844Q495 -859 484.5 -889Q474 -919 472 -942L470 -964L558 -1052Q559 -1043 561 -1027.5Q563 -1012 574.5 -978.5Q586 -945 602 -929Q624 -907 675.5 -895Q727 -883 750 -861L820 -790Q836 -774 855.5 -731.5Q875 -689 890 -632.5Q905 -576 911 -520.5Q917 -465 901.5 -418Q886 -371 847 -352Q783 -322 724 -322Q700 -322 666 -329.5Q632 -337 610 -344L589 -352ZM12 -328H180Q154 -297 154 -258Q154 -208 190 -176H554V-10L190 -12Q107 -36 54.5 -103.5Q2 -171 2 -258Q2 -295 12 -328ZM305 -762Q340 -771 376 -771Q463 -771 530 -719Q597 -667 621 -584L624 -7H457V-583Q425 -620 376 -620Q336 -620 305 -594Z"/>
	<path fill="#2200f5" d="M592 -450Q602 -446 617.5 -440Q633 -434 671.5 -424Q710 -414 736 -414Q766 -414 775 -453Q793 -530 759 -613.5Q725 -697 663 -759Q639 -783 586.5 -796.5Q534 -810 511 -834Q495 -849 484.5 -879Q474 -909 472 -932L470 -954L558 -1042Q559 -1033 561 -1017.5Q563 -1002 574.5 -968.5Q586 -935 602 -919Q624 -897 675.5 -885Q727 -873 750 -851L820 -780Q836 -764 855.5 -721.5Q875 -679 890 -622.5Q905 -566 911 -510.5Q917 -455 901.5 -408Q886 -361 847 -342Q783 -312 724 -312Q700 -312 666 -319.5Q632 -327 610 -334L589 -342ZM12 -318H180Q154 -287 154 -248Q154 -198 190 -166H554V0L190 -2Q107 -26 54.5 -93.5Q2 -161 2 -248Q2 -285 12 -318ZM305 -752Q340 -761 376 -761Q463 -761 530 -709Q597 -657 621 -574L624 3H457V-573Q425 -610 376 -610Q336 -610 305 -584Z"/>
	<path fill="#00a0e1" d="M376 -758Q341 -758 308 -750V-589Q338 -612 376 -612Q426 -612 459 -575Q460 -574 460 -573V-166Q460 -164 457 -164H190Q190 -164 189 -165Q151 -197 151 -248Q151 -286 174 -316H13Q5 -283 5 -248Q5 -161 56.5 -95Q108 -29 190 -5L457 -3Q460 -3 460 0H621L620 -331Q620 -334 622 -334Q623 -334 623 -333Q686 -314 724 -314Q759 -314 784.5 -321Q810 -328 846 -344Q909 -375 909 -483Q909 -563 877.5 -657Q846 -751 818 -778L748 -849Q725 -871 674 -883Q623 -895 600 -917Q566 -951 556 -1037L472 -953Q479 -868 512 -835Q535 -812 588 -798.5Q641 -785 664 -761Q716 -710 749.5 -641Q783 -572 783 -504Q783 -478 777 -452Q768 -412 736 -412Q735 -411 734 -411Q690 -411 621 -436Q619 -437 619 -439V-574Q595 -656 528.5 -707Q462 -758 376 -758ZM376 -764Q464 -764 532 -711Q600 -658 623 -575Q623 -574 623 -574L624 -440Q692 -416 734 -416Q735 -416 736 -416Q764 -416 773 -454Q778 -478 778 -504Q778 -571 745 -639Q712 -707 661 -758Q638 -781 585 -794.5Q532 -808 509 -832Q493 -848 482.5 -880Q472 -912 469.5 -930Q467 -948 467 -954Q467 -955 468 -956L556 -1044Q557 -1045 558 -1045Q560 -1045 560 -1042Q561 -1033 563.5 -1017.5Q566 -1002 577 -969.5Q588 -937 604 -921Q626 -899 677 -887Q728 -875 751 -852L822 -782Q850 -753 882 -659Q914 -565 914 -483Q914 -372 848 -340Q812 -323 785.5 -316.5Q759 -310 724 -310Q686 -310 625 -328L626 3Q626 6 624 6H457Q454 6 454 3V2L189 0Q105 -24 52.5 -92Q0 -160 0 -248Q0 -285 9 -319Q10 -321 12 -321H180Q182 -321 182 -318Q182 -318 181 -317Q156 -287 156 -248Q156 -200 191 -169H454V-572Q423 -608 376 -608Q337 -608 307 -582Q306 -582 305 -582Q302 -582 302 -584V-752Q302 -754 304 -754Q339 -764 376 -764Z"/>
</svg>