<svg xmlns="http://www.w3.org/2000/svg" viewBox="0 -1000 1000 1000">
	<path fill="#000000" d="M71 58Q71 58 58 58Q4 58 -33.5 20.5Q-71 -17 -71 -70Q-71 -124 -33.5 -161.5Q4 -199 58 -199H71V-122Q63 -124 58 -124Q36 -124 20 -108Q4 -92 4 -70Q4 -48 19.5 -32.5Q35 -17 58 -17Q63 -17 71 -19Z"/>
	<path fill="#2200f5" d="M71 68Q71 68 58 68Q4 68 -33.5 30.5Q-71 -7 -71 -60Q-71 -114 -33.5 -151.5Q4 -189 58 -189H71V-112Q63 -114 58 -114Q36 -114 20 -98Q4 -82 4 -60Q4 -38 19.5 -22.5Q35 -7 58 -7Q63 -7 71 -9Z"/>
	<path fill="#00a0e1" d="M69 -186H59Q6 -186 -30.5 -149.5Q-67 -113 -67 -60Q-67 -8 -30.5 29Q6 66 59 66H69V-6Q63 -4 59 -4Q35 -4 19 -20.5Q3 -37 3 -60.5Q3 -84 19 -100Q35 -116 59 -116Q63 -116 69 -115ZM72 70H59Q4 70 -34.5 32Q-73 -6 -73 -60Q-73 -115 -34.5 -153.5Q4 -192 59 -192H72Q75 -192 75 -189V-112Q75 -110 72 -110Q72 -110 71 -110Q64 -112 59 -112Q38 -112 22.5 -96.5Q7 -81 7 -60Q7 -39 22 -24.5Q37 -10 59 -10Q64 -10 71 -11Q72 -12 72 -12Q75 -12 75 -9V68Q75 70 72 70Z"/>
</svg>