<svg xmlns="http://www.w3.org/2000/svg" viewBox="0 -1000 1000 1000">
	<path fill="#000000" d="M646 -304Q644 -317 644 -330Q644 -438 719.5 -513Q795 -588 902 -588Q1009 -588 1084.5 -513Q1160 -438 1160 -330Q1160 -317 1158 -304H1005Q1008 -317 1008 -330Q1008 -376 977 -407Q946 -438 902 -438Q857 -438 826.5 -406.5Q796 -375 796 -330Q796 -317 799 -304ZM1167 -813V-681H0V-813ZM644 -333H796V-8H644ZM77 -190L108 -337L379 -497L90 -701L121 -813L540 -579L509 -432L302 -272L681 -155L650 -8Z"/>
	<path fill="#2200f5" d="M646 -294Q644 -307 644 -320Q644 -428 719.5 -503Q795 -578 902 -578Q1009 -578 1084.5 -503Q1160 -428 1160 -320Q1160 -307 1158 -294H1005Q1008 -307 1008 -320Q1008 -366 977 -397Q946 -428 902 -428Q857 -428 826.5 -396.5Q796 -365 796 -320Q796 -307 799 -294ZM1167 -803V-671H0V-803ZM644 -323H796V2H644ZM77 -180L108 -327L379 -487L90 -691L121 -803L540 -569L509 -422L302 -262L681 -145L650 2Z"/>
	<path fill="#00a0e1" d="M797 -297Q795 -306 795 -310V-322Q794 -322 794 -323Q795 -368 826.5 -399Q858 -430 903 -430Q949 -430 980.5 -398.5Q1012 -367 1012 -320Q1012 -309 1010 -297H1157Q1158 -309 1158 -320Q1158 -427 1083.5 -501.5Q1009 -576 903 -576Q798 -576 723.5 -502Q649 -428 648 -323Q648 -322 647 -321V-157Q647 -154 645 -154Q645 -154 644 -154L302 -260Q301 -260 301 -262Q301 -263 302 -264L508 -423L538 -568L357 -669Q356 -670 356 -671Q356 -674 358 -674H1165V-800H3V-674H119Q120 -674 121 -673L382 -490Q383 -489 383 -487.5Q383 -486 382 -485L111 -325L81 -182L646 -3Q647 -2 647 0H795V-294Q795 -297 797 -297ZM1 -668Q-1 -668 -1 -671V-803Q-1 -806 1 -806H1168Q1171 -806 1171 -803V-671Q1171 -668 1168 -668H368L542 -571Q544 -570 544 -569V-568L512 -421Q512 -421 511 -420L309 -263L643 -160V-323Q643 -324 643 -325Q645 -431 720.5 -506Q796 -581 903 -581Q1011 -581 1087 -505Q1163 -429 1163 -320Q1163 -307 1162 -294Q1161 -292 1159 -292H1006Q1004 -292 1004 -294Q1004 -295 1004 -295Q1007 -308 1007 -320Q1007 -364 976.5 -394.5Q946 -425 903 -425Q860 -425 830.5 -396Q801 -367 799 -324Q799 -324 799 -323V-310Q800 -303 802 -295Q802 -295 802 -294Q802 -292 800 -292H799V2Q799 4 797 4H645Q643 4 643 2L77 -178Q75 -178 75 -180V-181L107 -328Q107 -329 108 -329L376 -488L118 -668Z"/>
</svg>