<svg xmlns="http://www.w3.org/2000/svg" viewBox="0 -1000 1000 1000">
	<path fill="#000000" d="M582 -636V-484L214 -360L524 -164V-12L70 -284V-436ZM1098 -813V-681H0V-813ZM524 -787H670V-11H524ZM525 -228Q524 -241 524 -254Q524 -362 599 -437Q674 -512 780 -512Q888 -512 963 -437Q1038 -362 1038 -254Q1038 -241 1037 -228H884Q888 -241 888 -254Q888 -300 857 -331Q826 -362 780 -362Q736 -362 705 -330.5Q674 -299 674 -254Q674 -241 678 -228Z"/>
	<path fill="#2200f5" d="M582 -626V-474L214 -350L524 -154V-2L70 -274V-426ZM1098 -803V-671H0V-803ZM524 -777H670V-1H524ZM525 -218Q524 -231 524 -244Q524 -352 599 -427Q674 -502 780 -502Q888 -502 963 -427Q1038 -352 1038 -244Q1038 -231 1037 -218H884Q888 -231 888 -244Q888 -290 857 -321Q826 -352 780 -352Q736 -352 705 -320.5Q674 -289 674 -244Q674 -231 678 -218Z"/>
	<path fill="#00a0e1" d="M1097 -674V-800H3V-674H525Q527 -674 527 -671V-603Q527 -601 526 -601L74 -424V-275L522 -7V-153L214 -347Q213 -348 213 -350Q213 -351 215 -352L524 -456Q525 -457 525 -457Q527 -457 527 -454V-261Q527 -253 527 -244Q527 -242 527 -236.5Q527 -231 527 -228V-4H669V-218Q669 -221 671 -221H675Q673 -233 673 -244Q673 -290 704.5 -322Q736 -354 781 -354Q828 -354 859.5 -322.5Q891 -291 891 -244Q891 -233 889 -221H1036Q1037 -233 1037 -244Q1037 -351 962.5 -425.5Q888 -500 781 -500Q724 -500 672 -475Q672 -475 671 -475Q669 -475 669 -478V-671Q669 -674 671 -674ZM1101 -803V-671Q1101 -668 1099 -668H673V-482Q725 -505 781 -505Q890 -505 966 -429Q1042 -353 1042 -244Q1042 -231 1041 -218Q1040 -216 1038 -216H885Q883 -216 883 -218Q883 -219 883 -219Q886 -232 886 -244Q886 -288 855.5 -318.5Q825 -349 781.5 -349Q738 -349 708 -318.5Q678 -288 678 -244Q678 -232 681 -219Q681 -219 681 -218Q681 -216 679 -216H673V-1Q673 2 671 2H525Q523 2 523 -1L70 -271Q69 -272 69 -274V-426Q69 -427 71 -428L523 -605V-668H1Q-1 -668 -1 -671V-803Q-1 -806 1 -806H1099Q1101 -806 1101 -803ZM523 -261V-451L221 -349L523 -159V-228Q522 -236 522 -244.5Q522 -253 523 -261Z"/>
</svg>