<svg xmlns="http://www.w3.org/2000/svg" viewBox="0 -1000 1000 1000">
	<path fill="#000000" d="M737 -489Q726 -497 715 -503Q704 -509 692.5 -513Q681 -517 667.5 -518Q654 -519 643 -520Q632 -521 616 -518.5Q600 -516 590.5 -514.5Q581 -513 563 -508.5Q545 -504 538.5 -502Q532 -500 513 -494.5Q494 -489 491 -488L385 -611Q410 -615 435 -613L393 -769Q356 -767 320 -757Q245 -737 184.5 -689Q124 -641 89 -576Q54 -511 42.5 -434Q31 -357 53 -278Q81 -175 154 -100.5Q227 -26 325.5 2Q424 30 524 3Q560 -7 593 -23L553 -171L557 -178Q554 -179 551 -180L550 -183Q548 -182 547 -181Q539 -184 533 -188Q494 -211 482.5 -253Q471 -295 493 -334Q516 -373 558 -384Q600 -395 639 -373Q651 -366 660 -357ZM356 -394L362 -408L363 -410Q328 -347 328 -280Q328 -213 361 -154Q304 -171 260.5 -214.5Q217 -258 201 -319Q186 -376 196.5 -428.5Q207 -481 239 -523Z"/>
	<path fill="#2200f5" d="M737 -479Q726 -487 715 -493Q704 -499 692.5 -503Q681 -507 667.5 -508Q654 -509 643 -510Q632 -511 616 -508.5Q600 -506 590.5 -504.5Q581 -503 563 -498.5Q545 -494 538.5 -492Q532 -490 513 -484.5Q494 -479 491 -478L385 -601Q410 -605 435 -603L393 -759Q356 -757 320 -747Q245 -727 184.5 -679Q124 -631 89 -566Q54 -501 42.5 -424Q31 -347 53 -268Q81 -165 154 -90.5Q227 -16 325.5 12Q424 40 524 13Q560 3 593 -13L553 -161L557 -168Q554 -169 551 -170L550 -173Q548 -172 547 -171Q539 -174 533 -178Q494 -201 482.5 -243Q471 -285 493 -324Q516 -363 558 -374Q600 -385 639 -363Q651 -356 660 -347ZM356 -384L362 -398L363 -400Q328 -337 328 -270Q328 -203 361 -144Q304 -161 260.5 -204.5Q217 -248 201 -309Q186 -366 196.5 -418.5Q207 -471 239 -513Z"/>
	<path fill="#00a0e1" d="M195 -372Q195 -341 203 -310Q219 -251 260 -208.5Q301 -166 356 -148Q325 -206 325 -271Q325 -331 352 -385L239 -510Q195 -449 195 -372ZM548 -169Q547 -169 547 -169Q546 -169 546 -169Q538 -172 531 -176Q505 -191 490.5 -216Q476 -241 476 -270Q476 -299 491 -326Q506 -351 531 -365.5Q556 -380 585 -380Q614 -380 640 -365Q651 -359 660 -351L733 -479Q724 -485 713 -491Q685 -507 644 -507Q632 -507 617.5 -505.5Q603 -504 592.5 -502.5Q582 -501 565 -496.5Q548 -492 541 -490Q534 -488 514.5 -482.5Q495 -477 492 -476Q491 -476 491 -476Q490 -476 489 -477L383 -599Q382 -600 382 -601Q382 -603 384 -603Q402 -606 419 -606Q425 -606 431 -606L391 -757Q355 -754 321 -745Q196 -711 119 -607Q42 -503 42 -373Q42 -320 56 -269Q91 -138 195 -57.5Q299 23 428 23Q476 23 523 10Q558 1 590 -14L551 -161Q550 -161 550 -161Q550 -162 553 -166Q549 -168 548 -169ZM492 -481Q494 -482 514.5 -488Q535 -494 540.5 -495.5Q546 -497 564 -501.5Q582 -506 592 -507.5Q602 -509 617 -510.5Q632 -512 644 -512Q687 -512 716 -496Q727 -489 738 -481Q739 -481 739 -479Q739 -479 739 -478L662 -346Q662 -344 660 -344Q659 -344 658 -345Q649 -354 638 -360Q613 -375 585 -375Q558 -375 534 -361.5Q510 -348 496 -323Q481 -298 481 -270Q481 -243 495 -219Q509 -195 534 -180Q540 -177 546 -174Q549 -176 550 -176Q552 -176 553 -172Q559 -170 559 -168Q559 -167 559 -167L556 -161L595 -14Q595 -13 595 -13Q595 -11 594 -11Q561 6 525 15Q477 28 428 28Q298 28 192 -53.5Q86 -135 51 -267Q37 -320 37 -373Q37 -505 115 -610.5Q193 -716 320 -750Q356 -759 393 -762Q395 -762 395 -760L437 -604Q437 -603 437 -603Q437 -600 434.5 -600Q432 -600 427 -600.5Q422 -601 419 -601Q404 -601 390 -599ZM330 -271Q330 -204 363 -145Q364 -145 364 -144Q364 -141 361 -141Q361 -141 360 -142Q302 -159 258.5 -203Q215 -247 198 -309Q190 -340 190 -372Q190 -452 237 -515Q238 -516 239 -516Q240 -516 241 -515L358 -386Q358 -385 358 -384Q358 -381 355 -381Q330 -328 330 -271Z"/>
</svg>