<svg xmlns="http://www.w3.org/2000/svg" viewBox="0 -1000 1000 1000">
	<path fill="#000000" d="M287 -692Q347 -695 383 -664Q419 -633 419 -575Q419 -537 395 -508Q371 -479 334 -471V-472Q322 -469 310 -469L334 -374V-375Q371 -367 395 -338Q419 -309 419 -270Q419 -225 388 -195Q357 -165 310 -164Q263 -165 232 -195Q201 -225 201 -270Q201 -319 217 -364Q225 -383 217.5 -389.5Q210 -396 162 -408Q130 -416 108 -422Q107 -422 105 -421L96 -418Q50 -352 50 -270Q50 -168 119.5 -94Q189 -20 290 -14Q296 -13 304 -13Q306 -13 308 -13Q309 -13 309 -13Q309 -13 310 -13Q311 -13 312 -13Q419 -13 494.5 -88Q570 -163 570 -270Q570 -355 520 -423Q568 -488 570 -575Q572 -691 504.5 -762Q437 -833 331 -818Q308 -815 279.5 -802.5Q251 -790 231 -780Q211 -770 207 -770Q206 -770 211 -749Q216 -728 221 -707Q226 -686 225 -686Q239 -689 287 -692Z"/>
	<path fill="#2200f5" d="M287 -682Q347 -685 383 -654Q419 -623 419 -565Q419 -527 395 -498Q371 -469 334 -461V-462Q322 -459 310 -459L334 -364V-365Q371 -357 395 -328Q419 -299 419 -260Q419 -215 388 -185Q357 -155 310 -154Q263 -155 232 -185Q201 -215 201 -260Q201 -309 217 -354Q225 -373 217.5 -379.5Q210 -386 162 -398Q130 -406 108 -412Q107 -412 105 -411L96 -408Q50 -342 50 -260Q50 -158 119.5 -84Q189 -10 290 -4Q296 -3 304 -3Q306 -3 308 -3Q309 -3 309 -3Q309 -3 310 -3Q311 -3 312 -3Q419 -3 494.5 -78Q570 -153 570 -260Q570 -345 520 -413Q568 -478 570 -565Q572 -681 504.5 -752Q437 -823 331 -808Q308 -805 279.5 -792.5Q251 -780 231 -770Q211 -760 207 -760Q206 -760 211 -739Q216 -718 221 -697Q226 -676 225 -676Q239 -679 287 -682Z"/>
	<path fill="#00a0e1" d="M209 -758Q210 -752 218.5 -719Q227 -686 228 -679Q252 -683 287 -684Q292 -685 297 -685Q354 -685 388 -653Q422 -621 422 -565Q422 -526 397 -496Q372 -466 334 -459Q333 -459 332 -459Q323 -457 313 -457L336 -367Q373 -359 397.5 -329.5Q422 -300 422 -260Q422 -214 390 -183Q358 -152 310 -152Q262 -152 230 -183Q198 -214 198 -260Q198 -310 215 -355Q219 -367 219 -371Q219 -377 208.5 -381.5Q198 -386 161 -395Q129 -404 108 -409L98 -406Q52 -340 52 -260Q52 -159 121 -86Q190 -13 290 -6Q298 -6 308 -6H312Q418 -6 493 -80Q568 -154 568 -260Q568 -344 518 -411Q518 -412 518 -413Q518 -414 518 -414Q568 -481 568 -572Q568 -675 511 -741.5Q454 -808 364 -808Q348 -808 331 -806Q299 -801 238 -770Q214 -759 209 -758ZM223 -677Q223 -680 213.5 -717.5Q204 -755 204 -759Q204 -760 204 -760Q204 -763 207 -763V-762Q211 -762 235 -775Q297 -806 331 -810Q348 -813 364 -813Q457 -813 515 -744.5Q573 -676 573 -572Q573 -481 523 -413Q572 -345 572 -260Q572 -152 496 -76.5Q420 -1 312 -1H308Q297 -1 290 -1Q188 -8 118 -82.5Q48 -157 48 -260Q48 -343 94 -410Q95 -410 96 -410L107 -414Q108 -414 108 -414Q108 -414 109 -414Q130 -408 162 -400Q165 -399 170 -398Q204 -389 214 -384.5Q224 -380 224 -371Q224 -366 219 -353Q204 -309 204 -260Q204 -216 234 -186.5Q264 -157 310 -157Q356 -157 386 -186.5Q416 -216 416 -260Q416 -298 393.5 -326Q371 -354 336 -362Q335 -361 334 -361Q332 -361 332 -363L308 -458Q307 -459 307 -459Q307 -461 310 -462Q322 -462 333 -465Q334 -465 334 -465Q335 -465 336 -464Q371 -472 393.5 -500Q416 -528 416 -565Q416 -619 384 -649.5Q352 -680 297 -680Q292 -680 287 -680Q239 -677 226 -674L225 -678Z"/>
</svg>