<svg xmlns="http://www.w3.org/2000/svg" viewBox="0 -1000 1000 1000">
	<path fill="#000000" d="M341 236Q341 236 328 236Q274 236 236.5 198.5Q199 161 199 108Q199 54 236.5 16.5Q274 -21 328 -21H341V56Q333 54 328 54Q306 54 290 70Q274 86 274 108Q274 130 289.5 145.5Q305 161 328 161Q333 161 341 159ZM616 -194Q600 -136 555.5 -94.5Q511 -53 455 -33.5Q399 -14 335 -13.5Q271 -13 214.5 -32Q158 -51 114 -93Q70 -135 53 -194L50 -771H217V-195Q246 -162 335 -161.5Q424 -161 452 -195V-771H619Z"/>
	<path fill="#2200f5" d="M341 246Q341 246 328 246Q274 246 236.5 208.5Q199 171 199 118Q199 64 236.5 26.5Q274 -11 328 -11H341V66Q333 64 328 64Q306 64 290 80Q274 96 274 118Q274 140 289.5 155.5Q305 171 328 171Q333 171 341 169ZM616 -184Q600 -126 555.5 -84.5Q511 -43 455 -23.5Q399 -4 335 -3.5Q271 -3 214.5 -22Q158 -41 114 -83Q70 -125 53 -184L50 -761H217V-185Q246 -152 335 -151.5Q424 -151 452 -185V-761H619Z"/>
	<path fill="#00a0e1" d="M338 -8H328Q275 -8 238.5 28.5Q202 65 202 118Q202 170 238.5 207Q275 244 328 244H338V172Q332 174 328 174Q304 174 288 157.5Q272 141 272 117.5Q272 94 288 78Q304 62 328 62Q332 62 338 63ZM341 248H328Q273 248 234.5 210Q196 172 196 118Q196 63 234.5 24.5Q273 -14 328 -14H341Q344 -14 344 -11V66Q344 68 341 68Q341 68 340 68Q333 66 328 66Q307 66 291.5 81.5Q276 97 276 118Q276 139 291 153.5Q306 168 328 168Q333 168 340 167Q341 166 341 166Q344 166 344 169V246Q344 248 341 248ZM454 -758V-185Q454 -184 454 -183Q425 -149 336 -149Q296 -149 263 -158Q230 -167 215 -183Q214 -184 214 -185V-758H53L55 -184Q80 -99 158 -52Q236 -5 333 -5Q431 -5 510 -52Q589 -99 614 -184L616 -758ZM50 -764H217Q220 -764 220 -761V-186Q233 -171 265.5 -162.5Q298 -154 336 -154Q373 -154 404.5 -162.5Q436 -171 450 -186V-761Q450 -764 452 -764H619Q622 -764 622 -761L618 -184Q618 -184 618 -183Q594 -96 513.5 -48Q433 0 333 0Q235 0 155.5 -48Q76 -96 51 -183Q51 -184 51 -184L48 -761Q48 -764 50 -764Z"/>
</svg>