<svg xmlns="http://www.w3.org/2000/svg" viewBox="0 -1000 1000 1000">
	<path fill="#000000" d="M459 -960V-884Q458 -882 450.5 -873Q443 -864 427 -853.5Q411 -843 395 -843H345Q329 -843 306.5 -857Q284 -871 268 -871Q257 -871 242 -864Q227 -857 218 -850L209 -843V-919Q241 -947 266 -947Q283 -947 306.5 -933.5Q330 -920 346 -920Q369 -920 391 -920Q406 -920 423 -930Q440 -940 449 -950ZM616 -194Q600 -136 555.5 -94.5Q511 -53 455 -33.5Q399 -14 335 -13.5Q271 -13 214.5 -32Q158 -51 114 -93Q70 -135 53 -194L50 -771H217V-195Q246 -162 335 -161.5Q424 -161 452 -195V-771H619Z"/>
	<path fill="#2200f5" d="M459 -950V-874Q458 -872 450.5 -863Q443 -854 427 -843.5Q411 -833 395 -833H345Q329 -833 306.5 -847Q284 -861 268 -861Q257 -861 242 -854Q227 -847 218 -840L209 -833V-909Q241 -937 266 -937Q283 -937 306.5 -923.5Q330 -910 346 -910Q369 -910 391 -910Q406 -910 423 -920Q440 -930 449 -940ZM616 -184Q600 -126 555.5 -84.5Q511 -43 455 -23.5Q399 -4 335 -3.5Q271 -3 214.5 -22Q158 -41 114 -83Q70 -125 53 -184L50 -761H217V-185Q246 -152 335 -151.5Q424 -151 452 -185V-761H619Z"/>
	<path fill="#00a0e1" d="M346 -907Q329 -907 305.5 -921Q282 -935 266 -935Q244 -935 212 -908V-838Q245 -864 268 -864Q285 -864 307 -850Q329 -836 345 -836H395Q414 -836 430.5 -849Q447 -862 456 -874V-943Q422 -907 391 -907Q391 -907 346 -907ZM266 -940Q283 -940 306.5 -926Q330 -912 346 -912Q369 -912 391 -912Q405 -912 422.5 -923Q440 -934 446.5 -940.5Q453 -947 457 -951Q458 -952 459 -952Q461 -952 461 -950V-874Q461 -871 453 -861.5Q445 -852 428.5 -841.5Q412 -831 395 -831H345Q328 -831 306 -845Q284 -859 268 -859Q258 -859 243.5 -852Q229 -845 220 -838L211 -831Q210 -831 209 -831Q207 -831 207 -833V-909Q207 -910 208 -911Q240 -940 266 -940ZM454 -758V-185Q454 -184 454 -183Q425 -149 336 -149Q296 -149 263 -158Q230 -167 215 -183Q214 -184 214 -185V-758H53L55 -184Q80 -99 158 -52Q236 -5 333 -5Q431 -5 510 -52Q589 -99 614 -184L616 -758ZM50 -764H217Q220 -764 220 -761V-186Q233 -171 265.5 -162.5Q298 -154 336 -154Q373 -154 404.5 -162.5Q436 -171 450 -186V-761Q450 -764 452 -764H619Q622 -764 622 -761L618 -184Q618 -184 618 -183Q594 -96 513.5 -48Q433 0 333 0Q235 0 155.5 -48Q76 -96 51 -183Q51 -184 51 -184L48 -761Q48 -764 50 -764Z"/>
</svg>