<svg xmlns="http://www.w3.org/2000/svg" viewBox="0 -1000 1000 1000">
	<path fill="#000000" d="M50 -779H202L326 -302L450 -779H602L402 -10H250Z"/>
	<path fill="#2200f5" d="M50 -769H202L326 -292L450 -769H602L402 0H250Z"/>
	<path fill="#00a0e1" d="M324 -292L200 -766H53L252 -2H400L599 -766H452L328 -292Q328 -290 326 -290Q324 -290 324 -292ZM50 -772H202Q204 -772 204 -770L326 -302L448 -770Q448 -772 450 -772H602Q604 -772 604 -769Q604 -769 604 -768L404 1Q404 2 402 2H250Q248 2 248 1L48 -768Q48 -769 48 -769Q48 -772 50 -772Z"/>
</svg>