<svg xmlns="http://www.w3.org/2000/svg" viewBox="0 -1000 1000 1000">
	<path fill="#000000" d="M550 -843V-985H702V-843ZM350 -843V-985H502V-843ZM50 -779H202L326 -302L450 -779H451H602H603L727 -302L851 -779H1003L803 -10H651L526 -489L402 -10H250Z"/>
	<path fill="#2200f5" d="M550 -833V-975H702V-833ZM350 -833V-975H502V-833ZM50 -769H202L326 -292L450 -769H451H602H603L727 -292L851 -769H1003L803 0H651L526 -479L402 0H250Z"/>
	<path fill="#00a0e1" d="M552 -973V-835H700V-973ZM548 -833V-975Q548 -977 550 -977H702Q704 -977 704 -975V-833Q704 -831 702 -831H550Q548 -831 548 -833ZM352 -973V-835H500V-973ZM348 -833V-975Q348 -977 350 -977H502Q504 -977 504 -975V-833Q504 -831 502 -831H350Q348 -831 348 -833ZM529 -479L653 -2H801L1000 -766H853L729 -291Q729 -290 727 -290Q725 -290 725 -291L601 -766H452L328 -292Q328 -290 326 -290Q324 -290 324 -292L200 -766H53L252 -2H400L524 -479Q525 -481 526.5 -481Q528 -481 529 -479ZM50 -772H202Q204 -772 204 -770L326 -302L448 -770Q448 -772 450 -772H603Q605 -772 605 -770L727 -302L849 -770Q849 -772 851 -772H1003Q1006 -772 1006 -769Q1006 -769 1005 -768L805 1Q805 2 803 2H651Q649 2 649 1L526 -469L404 1Q404 2 402 2H250Q248 2 248 1L48 -768Q48 -769 48 -769Q48 -772 50 -772Z"/>
</svg>