<svg xmlns="http://www.w3.org/2000/svg" viewBox="0 -1000 1000 1000">
	<path fill="#000000" d="M193 -461L-6 -775H146L270 -604L394 -775H546L346 -460H345V-11H193Z"/>
	<path fill="#2200f5" d="M193 -451L-6 -765H146L270 -594L394 -765H546L346 -450H345V-1H193Z"/>
	<path fill="#00a0e1" d="M197 -450V-4H343V-450Q343 -452 346 -452L542 -762H396L273 -593Q272 -592 271 -592Q270 -592 269 -593L146 -762H0L196 -452Q197 -452 197 -451Q197 -450 197 -450ZM349 -1Q349 2 346 2H194Q191 2 191 -1V-451L-7 -764Q-7 -764 -7 -765Q-7 -768 -5 -768H147Q148 -768 149 -766L271 -598L393 -766Q394 -768 395 -768H547Q549 -768 549 -765Q549 -764 549 -764L349 -449Q349 -448 349 -448Z"/>
</svg>