<svg xmlns="http://www.w3.org/2000/svg" viewBox="0 -1000 1000 1000">
	<path fill="#000000" d="M580 -406V-344H36V-406ZM580 -268V-206H36V-268ZM229 -461L30 -775H182L306 -604L430 -775H582L382 -460H381V-11H229Z"/>
	<path fill="#2200f5" d="M580 -396V-334H36V-396ZM580 -258V-196H36V-258ZM229 -451L30 -765H182L306 -594L430 -765H582L382 -450H381V-1H229Z"/>
	<path fill="#00a0e1" d="M232 -450V-396Q232 -394 229 -394H38V-336H229Q232 -336 232 -334V-258Q232 -256 229 -256H38V-198H229Q232 -198 232 -196V-4H378V-196Q378 -198 381 -198H578V-256H381Q378 -256 378 -258V-334Q378 -336 381 -336H578V-394H381Q378 -394 378 -396V-450Q378 -452 381 -452L577 -762H431L308 -593Q307 -592 306 -592Q305 -592 304 -593L181 -762H35L231 -452Q232 -452 232 -451Q232 -450 232 -450ZM226 -398V-451L28 -764Q28 -764 28 -765Q28 -768 30 -768H182Q183 -768 184 -766L306 -598L428 -766Q429 -768 430 -768H582Q584 -768 584 -765Q584 -764 584 -764L384 -449Q384 -448 384 -448V-398H580Q582 -398 582 -396V-334Q582 -332 580 -332H384V-260H580Q582 -260 582 -258V-196Q582 -194 580 -194H384V-1Q384 2 381 2H229Q226 2 226 -1V-194H36Q34 -194 34 -196V-258Q34 -260 36 -260H226V-332H36Q34 -332 34 -334V-396Q34 -398 36 -398Z"/>
</svg>