<svg xmlns="http://www.w3.org/2000/svg" viewBox="0 -1000 1000 1000">
	<path fill="#000000" d="M391 -843L283 -950L465 -1132L573 -1025ZM50 -20V-172L480 -620H50V-772H733V-620L301 -172H733V-20Z"/>
	<path fill="#2200f5" d="M391 -833L283 -940L465 -1122L573 -1015ZM50 -10V-162L480 -610H50V-762H733V-610L301 -162H733V-10Z"/>
	<path fill="#00a0e1" d="M287 -940L391 -837L569 -1015L465 -1118ZM281 -942L463 -1124Q464 -1125 465 -1125Q466 -1125 467 -1124L575 -1017Q576 -1016 576 -1015Q576 -1014 575 -1013L393 -831Q392 -831 391 -831Q390 -831 389 -831L281 -938Q280 -939 280 -940Q280 -941 281 -942ZM730 -12V-160H301Q298 -160 298 -162Q298 -163 299 -164L730 -611V-760H52V-612H480Q482 -612 482 -610Q482 -609 482 -608L52 -161V-12ZM48 -10V-162Q48 -163 48 -164L474 -608H50Q48 -608 48 -610V-762Q48 -764 50 -764H733Q736 -764 736 -762V-610Q736 -609 735 -608L307 -164H733Q736 -164 736 -162V-10Q736 -8 733 -8H50Q48 -8 48 -10Z"/>
</svg>