<svg xmlns="http://www.w3.org/2000/svg" viewBox="0 -1000 1000 1000">
	<path fill="#000000" d="M316 -843V-985H468V-843ZM50 -20V-172L480 -620H50V-772H733V-620L301 -172H733V-20Z"/>
	<path fill="#2200f5" d="M316 -833V-975H468V-833ZM50 -10V-162L480 -610H50V-762H733V-610L301 -162H733V-10Z"/>
	<path fill="#00a0e1" d="M318 -973V-835H466V-973ZM314 -833V-975Q314 -977 316 -977H468Q470 -977 470 -975V-833Q470 -831 468 -831H316Q314 -831 314 -833ZM730 -12V-160H301Q298 -160 298 -162Q298 -163 299 -164L730 -611V-760H52V-612H480Q482 -612 482 -610Q482 -609 482 -608L52 -161V-12ZM48 -10V-162Q48 -163 48 -164L474 -608H50Q48 -608 48 -610V-762Q48 -764 50 -764H733Q736 -764 736 -762V-610Q736 -609 735 -608L307 -164H733Q736 -164 736 -162V-10Q736 -8 733 -8H50Q48 -8 48 -10Z"/>
</svg>