<svg xmlns="http://www.w3.org/2000/svg" viewBox="0 -1000 1000 1000">
	<path fill="#000000" d="M738 -390Q738 -283 697 -192Q656 -101 586 -48.5Q516 4 432.5 4Q349 4 278.5 -48.5Q208 -101 167 -192Q126 -283 126 -390Q126 -497 167 -587.5Q208 -678 278.5 -730.5Q349 -783 432.5 -783Q516 -783 586 -730.5Q656 -678 697 -587.5Q738 -497 738 -390ZM616 -388Q616 -485 562.5 -553.5Q509 -622 432.5 -622Q356 -622 302 -553.5Q248 -485 248 -388Q248 -290 302 -221.5Q356 -153 432.5 -153Q509 -153 562.5 -221.5Q616 -290 616 -388Z"/>
	<path fill="#2200f5" d="M738 -380Q738 -273 697 -182Q656 -91 586 -38.5Q516 14 432.5 14Q349 14 278.5 -38.5Q208 -91 167 -182Q126 -273 126 -380Q126 -487 167 -577.5Q208 -668 278.5 -720.5Q349 -773 432.5 -773Q516 -773 586 -720.5Q656 -668 697 -577.5Q738 -487 738 -380ZM616 -378Q616 -475 562.5 -543.5Q509 -612 432.5 -612Q356 -612 302 -543.5Q248 -475 248 -378Q248 -280 302 -211.5Q356 -143 432.5 -143Q509 -143 562.5 -211.5Q616 -280 616 -378Z"/>
	<path fill="#00a0e1" d="M735 -380Q735 -486 694.5 -576Q654 -666 584.5 -718Q515 -770 432.5 -770Q350 -770 280 -718Q210 -666 169.5 -576Q129 -486 129 -380Q129 -273 169.5 -183Q210 -93 280 -40.5Q350 12 432.5 12Q515 12 584.5 -40.5Q654 -93 694.5 -183Q735 -273 735 -380ZM740 -380Q740 -272 699 -181Q658 -90 587.5 -37Q517 16 432.5 16Q348 16 277 -37Q206 -90 165 -181Q124 -272 124 -380Q124 -487 165 -578Q206 -669 277 -722.5Q348 -776 432 -776Q516 -776 587 -722.5Q658 -669 699 -578Q740 -487 740 -380ZM613 -378Q613 -474 560.5 -542Q508 -610 432.5 -610Q357 -610 304 -542Q251 -474 251 -378Q251 -281 304 -213.5Q357 -146 432.5 -146Q508 -146 560.5 -213.5Q613 -281 613 -378ZM618 -378Q618 -279 564 -209.5Q510 -140 432.5 -140Q355 -140 300.5 -210Q246 -280 246 -378Q246 -476 300.5 -545Q355 -614 432.5 -614Q510 -614 564 -545Q618 -476 618 -378Z"/>
</svg>