<svg xmlns="http://www.w3.org/2000/svg" viewBox="0 -1000 1000 1000">
	<path fill="#000000" d="M436 -712Q436 -712 436 -698Q436 -645 399 -607.5Q362 -570 308 -570Q254 -570 217 -607Q180 -644 180 -698V-712H256Q254 -704 254 -698Q254 -676 270 -660Q286 -644 308.5 -644Q331 -644 346.5 -660Q362 -676 362 -698Q362 -704 360 -712ZM332 -11V-19Q324 -18 308 -18Q201 -18 125.5 -93.5Q50 -169 50 -276Q50 -382 125 -453.5Q200 -525 308 -525Q324 -525 332 -524H484V-11ZM332 -379Q320 -382 308 -382Q263 -382 232 -351Q201 -320 201 -276Q201 -231 232 -200Q263 -169 308 -169Q320 -169 332 -172Z"/>
	<path fill="#2200f5" d="M436 -702Q436 -702 436 -688Q436 -635 399 -597.5Q362 -560 308 -560Q254 -560 217 -597Q180 -634 180 -688V-702H256Q254 -694 254 -688Q254 -666 270 -650Q286 -634 308.5 -634Q331 -634 346.5 -650Q362 -666 362 -688Q362 -694 360 -702ZM332 -1V-9Q324 -8 308 -8Q201 -8 125.5 -83.5Q50 -159 50 -266Q50 -372 125 -443.5Q200 -515 308 -515Q324 -515 332 -514H484V-1ZM332 -369Q320 -372 308 -372Q263 -372 232 -341Q201 -310 201 -266Q201 -221 232 -190Q263 -159 308 -159Q320 -159 332 -162Z"/>
	<path fill="#00a0e1" d="M182 -699V-688Q182 -636 219 -599Q256 -562 308.5 -562Q361 -562 397.5 -599Q434 -636 434 -688V-699H363Q364 -693 364 -688Q364 -665 348 -648.5Q332 -632 308.5 -632Q285 -632 268.5 -648.5Q252 -665 252 -688Q252 -693 253 -699ZM439 -702V-688Q439 -634 401 -595.5Q363 -557 308 -557Q253 -557 215 -595Q177 -633 177 -688V-702Q177 -704 180 -704H256Q259 -704 259 -702Q259 -701 259 -701Q257 -693 257 -688Q257 -667 272 -652Q287 -637 308.5 -637Q330 -637 344.5 -652Q359 -667 359 -688Q359 -693 357 -701Q357 -701 357 -702Q357 -704 360 -704H436Q439 -704 439 -702ZM482 -512H332Q324 -512 308 -512Q201 -512 126.5 -441.5Q52 -371 52 -266Q52 -160 127 -85Q202 -10 308 -10Q324 -10 332 -11Q332 -11 332 -12Q334 -12 334 -9V-4H482ZM308 -370Q264 -370 234 -339.5Q204 -309 204 -266Q204 -222 234 -192Q264 -162 308 -162Q319 -162 330 -164V-367Q319 -370 308 -370ZM334 -369V-162Q334 -160 333 -160Q320 -156 308 -156Q262 -156 230 -188Q198 -220 198 -266Q198 -311 230 -342.5Q262 -374 308 -374Q320 -374 333 -371Q334 -371 334 -369ZM332 -516H484Q486 -516 486 -514V-1Q486 2 484 2H332Q330 2 330 -1V-6Q322 -5 309 -5Q308 -5 308 -6Q200 -6 124 -82Q48 -158 48 -266Q48 -373 123.5 -445.5Q199 -518 308 -518Q312 -518 320 -517Q328 -516 332 -516Z"/>
</svg>