<svg xmlns="http://www.w3.org/2000/svg" viewBox="0 -1000 1000 1000">
	<path fill="#000000" d="M307 -588Q307 -588 305 -588Q305 -588 298 -588Q247 -592 212.5 -628.5Q178 -665 178 -716Q178 -767 213 -804Q248 -841 298 -845H305Q305 -845 307 -845Q307 -845 309 -845Q363 -845 400.5 -807.5Q438 -770 438 -716Q438 -663 400.5 -625.5Q363 -588 309 -588ZM308 -770Q304 -770 296 -768V-769Q277 -765 265.5 -750.5Q254 -736 254 -716Q254 -697 265.5 -682.5Q277 -668 296 -664V-665Q304 -663 308 -663Q312 -663 320 -665V-664Q339 -668 350.5 -682.5Q362 -697 362 -716Q362 -736 350.5 -750.5Q339 -765 320 -769V-768Q312 -770 308 -770ZM332 -11V-19Q324 -18 308 -18Q201 -18 125.5 -93.5Q50 -169 50 -276Q50 -382 125 -453.5Q200 -525 308 -525Q324 -525 332 -524H484V-11ZM332 -379Q320 -382 308 -382Q263 -382 232 -351Q201 -320 201 -276Q201 -231 232 -200Q263 -169 308 -169Q320 -169 332 -172Z"/>
	<path fill="#2200f5" d="M307 -578Q307 -578 305 -578Q305 -578 298 -578Q247 -582 212.5 -618.5Q178 -655 178 -706Q178 -757 213 -794Q248 -831 298 -835H305Q305 -835 307 -835Q307 -835 309 -835Q363 -835 400.5 -797.5Q438 -760 438 -706Q438 -653 400.5 -615.5Q363 -578 309 -578ZM308 -760Q304 -760 296 -758V-759Q277 -755 265.5 -740.5Q254 -726 254 -706Q254 -687 265.5 -672.5Q277 -658 296 -654V-655Q304 -653 308 -653Q312 -653 320 -655V-654Q339 -658 350.5 -672.5Q362 -687 362 -706Q362 -726 350.5 -740.5Q339 -755 320 -759V-758Q312 -760 308 -760ZM332 -1V-9Q324 -8 308 -8Q201 -8 125.5 -83.5Q50 -159 50 -266Q50 -372 125 -443.5Q200 -515 308 -515Q324 -515 332 -514H484V-1ZM332 -369Q320 -372 308 -372Q263 -372 232 -341Q201 -310 201 -266Q201 -221 232 -190Q263 -159 308 -159Q320 -159 332 -162Z"/>
	<path fill="#00a0e1" d="M298 -580H309Q362 -580 399 -617Q436 -654 436 -706Q436 -759 399 -795.5Q362 -832 309 -832H298Q249 -829 214.5 -792.5Q180 -756 180 -706Q180 -656 214.5 -620Q249 -584 298 -580ZM309 -576H298Q246 -579 211 -616.5Q176 -654 176 -706Q176 -758 211 -796Q246 -834 298 -837Q298 -837 298 -838H309Q364 -838 402 -799.5Q440 -761 440 -706Q440 -652 402 -614Q364 -576 309 -576ZM297 -756Q296 -756 296 -756Q295 -756 294 -756Q277 -752 267 -738Q257 -724 256.5 -706Q256 -688 266.5 -674.5Q277 -661 294 -657Q295 -657 296 -658Q296 -658 297 -657Q304 -656 308 -656Q312 -656 319 -657Q320 -658 320 -658Q321 -658 322 -657Q339 -661 349.5 -674.5Q360 -688 360 -706Q360 -724 349.5 -738Q339 -752 322 -756Q321 -756 320 -756Q320 -756 319 -756Q312 -758 308 -758Q304 -758 297 -756ZM318 -761Q319 -761 320 -762V-761Q340 -758 352 -742Q364 -726 364 -706Q364 -686 352 -670.5Q340 -655 320 -652Q319 -652 318 -652Q312 -650 308 -650Q304 -650 298 -652Q297 -652 296 -652Q276 -655 264 -670.5Q252 -686 252 -706Q252 -726 264 -742Q276 -758 296 -761Q296 -761 296 -762Q297 -762 298 -761Q304 -762 308 -762Q312 -762 318 -761ZM482 -512H332Q324 -512 308 -512Q201 -512 126.5 -441.5Q52 -371 52 -266Q52 -160 127 -85Q202 -10 308 -10Q324 -10 332 -11Q332 -11 332 -12Q334 -12 334 -9V-4H482ZM308 -370Q264 -370 234 -339.5Q204 -309 204 -266Q204 -222 234 -192Q264 -162 308 -162Q319 -162 330 -164V-367Q319 -370 308 -370ZM334 -369V-162Q334 -160 333 -160Q320 -156 308 -156Q262 -156 230 -188Q198 -220 198 -266Q198 -311 230 -342.5Q262 -374 308 -374Q320 -374 333 -371Q334 -371 334 -369ZM332 -516H484Q486 -516 486 -514V-1Q486 2 484 2H332Q330 2 330 -1V-6Q322 -5 309 -5Q308 -5 308 -6Q200 -6 124 -82Q48 -158 48 -266Q48 -373 123.5 -445.5Q199 -518 308 -518Q312 -518 320 -517Q328 -516 332 -516Z"/>
</svg>