<svg xmlns="http://www.w3.org/2000/svg" viewBox="0 -1000 1000 1000">
	<path fill="#000000" d="M208 -756H284L312 -648L332 -756H408L356 -588H355H280H279ZM334 -14Q321 -13 308 -13Q201 -13 125.5 -88Q50 -163 50 -270Q50 -377 125.5 -452.5Q201 -528 308 -528Q321 -528 334 -527V-374Q321 -377 308 -377Q263 -377 232 -346Q201 -315 201 -270Q201 -226 232 -195Q263 -164 308 -164Q321 -164 334 -167Z"/>
	<path fill="#2200f5" d="M208 -746H284L312 -638L332 -746H408L356 -578H355H280H279ZM334 -4Q321 -3 308 -3Q201 -3 125.5 -78Q50 -153 50 -260Q50 -367 125.5 -442.5Q201 -518 308 -518Q321 -518 334 -517V-364Q321 -367 308 -367Q263 -367 232 -336Q201 -305 201 -260Q201 -216 232 -185Q263 -154 308 -154Q321 -154 334 -157Z"/>
	<path fill="#00a0e1" d="M310 -637L282 -744H212L281 -580H354L405 -744H334L314 -638Q314 -636 312 -636Q310 -636 310 -637ZM208 -748H284Q286 -748 286 -747L312 -650L330 -746Q330 -748 332 -748H408Q410 -748 410 -746Q410 -746 410 -745L358 -577Q358 -576 356 -576H279Q277 -576 277 -577L206 -745Q206 -745 206 -746Q206 -748 208 -748ZM52 -260Q52 -154 127 -80Q202 -6 308 -6Q320 -6 332 -7V-154Q320 -152 308 -152Q262 -152 230 -183.5Q198 -215 198 -260Q198 -306 230 -338Q262 -370 308 -370Q320 -370 332 -367V-514Q320 -516 308 -516Q202 -516 127 -441Q52 -366 52 -260ZM308 0Q200 0 124 -76Q48 -152 48 -260Q48 -368 124 -444Q200 -520 308 -520Q321 -520 334 -519Q336 -519 336 -517V-364Q336 -361 334 -361Q334 -361 333 -361Q321 -364 308 -364Q264 -364 234 -334Q204 -304 204 -260Q204 -217 234 -186.5Q264 -156 308 -156Q321 -156 333 -160Q334 -160 334 -160Q336 -160 336 -157V-4Q336 -2 334 -2Q321 0 308 0Z"/>
</svg>