<svg xmlns="http://www.w3.org/2000/svg" viewBox="0 -1000 1000 1000">
	<path fill="#000000" d="M301 235V158Q309 160 314 160Q337 160 352.5 144.5Q368 129 368 107Q368 85 352 69Q336 53 314 53Q309 53 301 55V-22H314Q368 -22 405.5 15.5Q443 53 443 107Q443 160 405.5 197.5Q368 235 314 235ZM334 -14Q321 -13 308 -13Q201 -13 125.5 -88Q50 -163 50 -270Q50 -377 125.5 -452.5Q201 -528 308 -528Q321 -528 334 -527V-374Q321 -377 308 -377Q263 -377 232 -346Q201 -315 201 -270Q201 -226 232 -195Q263 -164 308 -164Q321 -164 334 -167Z"/>
	<path fill="#2200f5" d="M301 245V168Q309 170 314 170Q337 170 352.5 154.5Q368 139 368 117Q368 95 352 79Q336 63 314 63Q309 63 301 65V-12H314Q368 -12 405.5 25.5Q443 63 443 117Q443 170 405.5 207.5Q368 245 314 245ZM334 -4Q321 -3 308 -3Q201 -3 125.5 -78Q50 -153 50 -260Q50 -367 125.5 -442.5Q201 -518 308 -518Q321 -518 334 -517V-364Q321 -367 308 -367Q263 -367 232 -336Q201 -305 201 -260Q201 -216 232 -185Q263 -154 308 -154Q321 -154 334 -157Z"/>
	<path fill="#00a0e1" d="M304 243H314Q367 243 403.5 206Q440 169 440 117Q440 64 403.5 27.5Q367 -9 314 -9H304V62Q310 61 314 61Q338 61 354 77Q370 93 370 116.5Q370 140 354 156.5Q338 173 314 173Q310 173 304 171ZM298 245V168Q298 165 301 165Q301 165 302 166Q309 167 314 167Q336 167 351 152.5Q366 138 366 117Q366 96 350.5 80.5Q335 65 314 65Q309 65 302 67Q301 67 301 67Q298 67 298 65V-12Q298 -15 301 -15H314Q369 -15 407.5 23.5Q446 62 446 117Q446 171 407.5 209Q369 247 314 247H301Q298 247 298 245ZM52 -260Q52 -154 127 -80Q202 -6 308 -6Q320 -6 332 -7V-154Q320 -152 308 -152Q262 -152 230 -183.5Q198 -215 198 -260Q198 -306 230 -338Q262 -370 308 -370Q320 -370 332 -367V-514Q320 -516 308 -516Q202 -516 127 -441Q52 -366 52 -260ZM308 0Q200 0 124 -76Q48 -152 48 -260Q48 -368 124 -444Q200 -520 308 -520Q321 -520 334 -519Q336 -519 336 -517V-364Q336 -361 334 -361Q334 -361 333 -361Q321 -364 308 -364Q264 -364 234 -334Q204 -304 204 -260Q204 -217 234 -186.5Q264 -156 308 -156Q321 -156 333 -160Q334 -160 334 -160Q336 -160 336 -157V-4Q336 -2 334 -2Q321 0 308 0Z"/>
</svg>