<svg xmlns="http://www.w3.org/2000/svg" viewBox="0 -1000 1000 1000">
	<path fill="#000000" d="M178 -588V-730H330V-588ZM334 -14Q321 -13 308 -13Q201 -13 125.5 -88Q50 -163 50 -270Q50 -377 125.5 -452.5Q201 -528 308 -528Q321 -528 334 -527V-374Q321 -377 308 -377Q263 -377 232 -346Q201 -315 201 -270Q201 -226 232 -195Q263 -164 308 -164Q321 -164 334 -167Z"/>
	<path fill="#2200f5" d="M178 -578V-720H330V-578ZM334 -4Q321 -3 308 -3Q201 -3 125.5 -78Q50 -153 50 -260Q50 -367 125.5 -442.5Q201 -518 308 -518Q321 -518 334 -517V-364Q321 -367 308 -367Q263 -367 232 -336Q201 -305 201 -260Q201 -216 232 -185Q263 -154 308 -154Q321 -154 334 -157Z"/>
	<path fill="#00a0e1" d="M180 -718V-580H328V-718ZM176 -578V-720Q176 -722 178 -722H330Q332 -722 332 -720V-578Q332 -576 330 -576H178Q176 -576 176 -578ZM52 -260Q52 -154 127 -80Q202 -6 308 -6Q320 -6 332 -7V-154Q320 -152 308 -152Q262 -152 230 -183.5Q198 -215 198 -260Q198 -306 230 -338Q262 -370 308 -370Q320 -370 332 -367V-514Q320 -516 308 -516Q202 -516 127 -441Q52 -366 52 -260ZM308 0Q200 0 124 -76Q48 -152 48 -260Q48 -368 124 -444Q200 -520 308 -520Q321 -520 334 -519Q336 -519 336 -517V-364Q336 -361 334 -361Q334 -361 333 -361Q321 -364 308 -364Q264 -364 234 -334Q204 -304 204 -260Q204 -217 234 -186.5Q264 -156 308 -156Q321 -156 333 -160Q334 -160 334 -160Q336 -160 336 -157V-4Q336 -2 334 -2Q321 0 308 0Z"/>
</svg>