<svg xmlns="http://www.w3.org/2000/svg" viewBox="0 -1000 1000 1000">
	<path fill="#000000" d="M436 -712Q436 -712 436 -698Q436 -645 399 -607.5Q362 -570 308 -570Q254 -570 217 -607Q180 -644 180 -698V-712H256Q254 -704 254 -698Q254 -676 270 -660Q286 -644 308.5 -644Q331 -644 346.5 -660Q362 -676 362 -698Q362 -704 360 -712ZM566 -270Q566 -260 566.5 -242.5Q567 -225 567 -218L216 -215Q230 -192 254.5 -178Q279 -164 308 -164Q342 -164 445.5 -166.5Q549 -169 557 -172V-16Q538 -13 308 -13Q201 -13 125.5 -88Q50 -163 50 -270Q50 -377 125.5 -452.5Q201 -528 308 -528Q415 -528 490.5 -452.5Q566 -377 566 -270ZM211 -307L407 -304Q403 -308 387 -327Q371 -346 362 -355.5Q353 -365 337.5 -375Q322 -385 308 -385Q294 -385 279 -375.5Q264 -366 254.5 -356Q245 -346 230 -329Q215 -312 211 -307Z"/>
	<path fill="#2200f5" d="M436 -702Q436 -702 436 -688Q436 -635 399 -597.5Q362 -560 308 -560Q254 -560 217 -597Q180 -634 180 -688V-702H256Q254 -694 254 -688Q254 -666 270 -650Q286 -634 308.5 -634Q331 -634 346.5 -650Q362 -666 362 -688Q362 -694 360 -702ZM566 -260Q566 -250 566.5 -232.5Q567 -215 567 -208L216 -205Q230 -182 254.5 -168Q279 -154 308 -154Q342 -154 445.5 -156.5Q549 -159 557 -162V-6Q538 -3 308 -3Q201 -3 125.5 -78Q50 -153 50 -260Q50 -367 125.5 -442.5Q201 -518 308 -518Q415 -518 490.5 -442.5Q566 -367 566 -260ZM211 -297L407 -294Q403 -298 387 -317Q371 -336 362 -345.5Q353 -355 337.5 -365Q322 -375 308 -375Q294 -375 279 -365.5Q264 -356 254.5 -346Q245 -336 230 -319Q215 -302 211 -297Z"/>
	<path fill="#00a0e1" d="M182 -699V-688Q182 -636 219 -599Q256 -562 308.5 -562Q361 -562 397.5 -599Q434 -636 434 -688V-699H363Q364 -693 364 -688Q364 -665 348 -648.5Q332 -632 308.5 -632Q285 -632 268.5 -648.5Q252 -665 252 -688Q252 -693 253 -699ZM439 -702V-688Q439 -634 401 -595.5Q363 -557 308 -557Q253 -557 215 -595Q177 -633 177 -688V-702Q177 -704 180 -704H256Q259 -704 259 -702Q259 -701 259 -701Q257 -693 257 -688Q257 -667 272 -652Q287 -637 308.5 -637Q330 -637 344.5 -652Q359 -667 359 -688Q359 -693 357 -701Q357 -701 357 -702Q357 -704 360 -704H436Q439 -704 439 -702ZM564 -210Q564 -218 564 -234.5Q564 -251 564 -260Q564 -366 489 -441Q414 -516 308 -516Q202 -516 127 -441Q52 -366 52 -260Q52 -154 127 -80Q202 -6 308 -6Q514 -6 554 -8V-159Q535 -156 438.5 -154Q342 -152 308 -152Q278 -152 253 -166Q228 -180 214 -204Q213 -205 213 -205Q213 -208 216 -208ZM568 -260Q568 -251 569 -233.5Q570 -216 570 -208Q570 -206 567 -206L220 -203Q251 -156 308 -156Q339 -156 444 -159Q549 -162 556 -164Q557 -164 557 -164Q560 -164 560 -162V-6Q560 -4 557 -4Q538 0 308 0Q200 0 124 -76Q48 -152 48 -260Q48 -368 124 -444Q200 -520 308 -520Q416 -520 492 -444Q568 -368 568 -260ZM401 -297Q399 -299 386 -314.5Q373 -330 367 -336.5Q361 -343 349.5 -353.5Q338 -364 328 -368.5Q318 -373 308 -373Q298 -373 288 -368.5Q278 -364 267.5 -354Q257 -344 250 -337Q243 -330 231.5 -316.5Q220 -303 216 -299ZM308 -378Q322 -378 338 -368Q354 -358 363.5 -348.5Q373 -339 389 -319.5Q405 -300 409 -296Q409 -295 409 -294Q409 -292 407 -292L211 -294Q208 -294 208 -297Q208 -298 209 -298Q214 -304 229 -321.5Q244 -339 253.5 -349Q263 -359 278.5 -368.5Q294 -378 308 -378Z"/>
</svg>