<svg xmlns="http://www.w3.org/2000/svg" viewBox="0 -1000 1000 1000">
	<path fill="#000000" d="M308 -588L126 -770L234 -877L416 -695ZM566 -270Q566 -260 566.5 -242.5Q567 -225 567 -218L216 -215Q230 -192 254.5 -178Q279 -164 308 -164Q342 -164 445.5 -166.5Q549 -169 557 -172V-16Q538 -13 308 -13Q201 -13 125.5 -88Q50 -163 50 -270Q50 -377 125.5 -452.5Q201 -528 308 -528Q415 -528 490.5 -452.5Q566 -377 566 -270ZM211 -307L407 -304Q403 -308 387 -327Q371 -346 362 -355.5Q353 -365 337.5 -375Q322 -385 308 -385Q294 -385 279 -375.5Q264 -366 254.5 -356Q245 -346 230 -329Q215 -312 211 -307Z"/>
	<path fill="#2200f5" d="M308 -578L126 -760L234 -867L416 -685ZM566 -260Q566 -250 566.5 -232.5Q567 -215 567 -208L216 -205Q230 -182 254.5 -168Q279 -154 308 -154Q342 -154 445.5 -156.5Q549 -159 557 -162V-6Q538 -3 308 -3Q201 -3 125.5 -78Q50 -153 50 -260Q50 -367 125.5 -442.5Q201 -518 308 -518Q415 -518 490.5 -442.5Q566 -367 566 -260ZM211 -297L407 -294Q403 -298 387 -317Q371 -336 362 -345.5Q353 -355 337.5 -365Q322 -375 308 -375Q294 -375 279 -365.5Q264 -356 254.5 -346Q245 -336 230 -319Q215 -302 211 -297Z"/>
	<path fill="#00a0e1" d="M130 -760L308 -582L412 -685L234 -863ZM124 -762L232 -869Q233 -870 234 -870Q235 -870 236 -869L418 -687Q419 -686 419 -685Q419 -684 418 -683L310 -576Q309 -576 308 -576Q307 -576 306 -576L124 -758Q123 -759 123 -760Q123 -761 124 -762ZM564 -210Q564 -218 564 -234.5Q564 -251 564 -260Q564 -366 489 -441Q414 -516 308 -516Q202 -516 127 -441Q52 -366 52 -260Q52 -154 127 -80Q202 -6 308 -6Q514 -6 554 -8V-159Q535 -156 438.5 -154Q342 -152 308 -152Q278 -152 253 -166Q228 -180 214 -204Q213 -205 213 -205Q213 -208 216 -208ZM568 -260Q568 -251 569 -233.5Q570 -216 570 -208Q570 -206 567 -206L220 -203Q251 -156 308 -156Q339 -156 444 -159Q549 -162 556 -164Q557 -164 557 -164Q560 -164 560 -162V-6Q560 -4 557 -4Q538 0 308 0Q200 0 124 -76Q48 -152 48 -260Q48 -368 124 -444Q200 -520 308 -520Q416 -520 492 -444Q568 -368 568 -260ZM401 -297Q399 -299 386 -314.5Q373 -330 367 -336.5Q361 -343 349.5 -353.5Q338 -364 328 -368.5Q318 -373 308 -373Q298 -373 288 -368.5Q278 -364 267.5 -354Q257 -344 250 -337Q243 -330 231.5 -316.5Q220 -303 216 -299ZM308 -378Q322 -378 338 -368Q354 -358 363.5 -348.5Q373 -339 389 -319.5Q405 -300 409 -296Q409 -295 409 -294Q409 -292 407 -292L211 -294Q208 -294 208 -297Q208 -298 209 -298Q214 -304 229 -321.5Q244 -339 253.5 -349Q263 -359 278.5 -368.5Q294 -378 308 -378Z"/>
</svg>