<svg xmlns="http://www.w3.org/2000/svg" viewBox="0 -1000 1000 1000">
	<path fill="#000000" d="M310 -377Q297 -377 286 -374V-375Q249 -367 225 -338Q201 -309 201 -270Q201 -232 225 -203Q249 -174 286 -166V-167Q297 -164 310 -164Q322 -164 334 -167V-166Q371 -174 395 -203Q419 -232 419 -270Q419 -309 395 -338Q371 -367 334 -375V-374Q322 -377 310 -377ZM135 -790H287Q295 -783 302 -777L340 -815L427 -739L387 -699Q434 -651 468 -604.5Q502 -558 529 -493Q556 -428 561.5 -359.5Q567 -291 549 -201.5Q531 -112 484 -14H332Q320 -13 308 -13Q201 -13 125.5 -88Q50 -163 50 -270Q50 -377 125.5 -452.5Q201 -528 308 -528Q320 -528 332 -527L282 -594L245 -557L158 -633L212 -687Z"/>
	<path fill="#2200f5" d="M310 -367Q297 -367 286 -364V-365Q249 -357 225 -328Q201 -299 201 -260Q201 -222 225 -193Q249 -164 286 -156V-157Q297 -154 310 -154Q322 -154 334 -157V-156Q371 -164 395 -193Q419 -222 419 -260Q419 -299 395 -328Q371 -357 334 -365V-364Q322 -367 310 -367ZM135 -780H287Q295 -773 302 -767L340 -805L427 -729L387 -689Q434 -641 468 -594.5Q502 -548 529 -483Q556 -418 561.5 -349.5Q567 -281 549 -191.5Q531 -102 484 -4H332Q320 -3 308 -3Q201 -3 125.5 -78Q50 -153 50 -260Q50 -367 125.5 -442.5Q201 -518 308 -518Q320 -518 332 -517L282 -584L245 -547L158 -623L212 -677Z"/>
	<path fill="#00a0e1" d="M286 -362Q285 -362 285 -362Q249 -354 226.5 -326Q204 -298 204 -260Q204 -223 226.5 -195Q249 -167 285 -159Q285 -160 286 -160Q286 -160 287 -159Q297 -157 310 -157Q322 -157 333 -160Q334 -160 334 -160Q335 -160 336 -159Q371 -167 393.5 -195Q416 -223 416 -260Q416 -298 393.5 -326Q371 -354 336 -362Q335 -361 334 -361Q334 -361 333 -361Q322 -364 310 -364Q297 -364 287 -362Q286 -362 286 -362ZM215 -677Q215 -676 214 -675L162 -623L245 -550L280 -586Q281 -586 282 -586Q283 -586 284 -585L334 -518Q334 -518 334 -517Q334 -514 332 -514Q320 -516 308 -516Q202 -516 127 -441Q52 -366 52 -260Q52 -154 127 -80Q202 -6 308 -6Q320 -6 332 -7Q332 -7 333 -6H482Q560 -170 560 -309Q560 -423 513 -514Q466 -605 385 -687Q384 -688 384 -689Q384 -690 385 -690L423 -729L340 -802L304 -765Q303 -765 302 -765Q301 -765 300 -765L286 -778H140L214 -679Q215 -678 215 -677ZM135 -782H287Q288 -782 289 -782L302 -770L338 -807Q339 -808 340 -808Q341 -808 342 -807L429 -731Q430 -730 430 -729Q430 -728 429 -727L390 -689Q471 -607 518 -515.5Q565 -424 565 -309Q565 -168 486 -3Q486 -2 484 -2H332Q320 -1 308 0Q200 0 124 -76Q48 -152 48 -260Q48 -368 124 -444Q200 -520 308 -520Q317 -520 327 -520L282 -580L247 -545Q246 -544 245 -544Q244 -544 243 -545L156 -621Q156 -622 156 -623Q156 -624 156 -625L209 -677L133 -779Q132 -779 132 -780Q132 -782 135 -782ZM334 -367Q372 -360 397 -330Q422 -300 422 -260Q422 -221 397 -191Q372 -161 334 -154Q333 -154 332 -154Q321 -152 310 -152Q298 -152 287 -154Q287 -154 286 -154Q248 -161 223 -191Q198 -221 198 -260Q198 -300 223 -330Q248 -360 286 -367Q287 -367 287 -367Q298 -369 310 -369Q321 -369 332 -367Q333 -367 334 -367Z"/>
</svg>