<svg xmlns="http://www.w3.org/2000/svg" viewBox="0 -1000 1000 1000">
	<path fill="#000000" d="M111 -778H280V-522Q319 -534 360 -534Q447 -534 514 -482Q581 -430 605 -347L608 -16H441V-346Q409 -383 360 -383Q312 -383 280 -348V-16H111ZM338 -741V-589H50V-741Z"/>
	<path fill="#2200f5" d="M111 -768H280V-512Q319 -524 360 -524Q447 -524 514 -472Q581 -420 605 -337L608 -6H441V-336Q409 -373 360 -373Q312 -373 280 -338V-6H111ZM338 -731V-579H50V-731Z"/>
	<path fill="#00a0e1" d="M336 -582V-728H280Q278 -728 278 -731V-766H114V-731Q114 -728 111 -728H52V-582H111Q114 -582 114 -579V-8H278V-338Q278 -339 278 -340Q311 -376 360 -376Q410 -376 443 -338Q444 -337 444 -336V-8H605L603 -337Q579 -419 512.5 -470.5Q446 -522 360 -522Q319 -522 281 -510Q280 -510 280 -510Q278 -510 278 -512V-579Q278 -582 280 -582ZM340 -731V-579Q340 -576 338 -576H282V-515Q320 -526 360 -526Q448 -526 516 -473.5Q584 -421 607 -338Q607 -337 607 -337L610 -6Q610 -4 608 -4H441Q438 -4 438 -6V-335Q407 -370 360 -370Q313 -370 282 -337V-6Q282 -4 280 -4H111Q108 -4 108 -6V-576H50Q48 -576 48 -579V-731Q48 -734 50 -734H108V-768Q108 -770 111 -770H280Q282 -770 282 -768V-734H338Q340 -734 340 -731Z"/>
</svg>