<svg xmlns="http://www.w3.org/2000/svg" viewBox="0 -1000 1000 1000">
	<path fill="#000000" d="M36 -832L107 -1000H108H183H184L236 -832H160L140 -940L112 -832ZM50 -778H219V-522Q258 -534 299 -534Q386 -534 453 -482Q520 -430 544 -347L547 -16H380V-346Q348 -383 299 -383Q251 -383 219 -348V-16H50Z"/>
	<path fill="#2200f5" d="M36 -822L107 -990H108H183H184L236 -822H160L140 -930L112 -822ZM50 -768H219V-512Q258 -524 299 -524Q386 -524 453 -472Q520 -420 544 -337L547 -6H380V-336Q348 -373 299 -373Q251 -373 219 -338V-6H50Z"/>
	<path fill="#00a0e1" d="M142 -930L163 -825H233L182 -987H109L39 -825H110L137 -930Q138 -932 140 -932Q142 -932 142 -930ZM107 -992H184Q185 -992 186 -990L239 -823Q239 -823 239 -822Q239 -820 236 -820H160Q158 -820 158 -822L139 -918L114 -822Q113 -820 112 -820H36Q33 -820 33 -822Q33 -823 33 -823L105 -990Q105 -992 107 -992ZM216 -766H52V-8H216V-338Q216 -339 217 -340Q250 -376 299 -376Q349 -376 382 -338Q382 -337 382 -336V-8H544L542 -337Q518 -419 451.5 -470.5Q385 -522 299 -522Q258 -522 220 -510Q219 -510 219 -510Q216 -510 216 -512ZM50 -770H219Q222 -770 222 -768V-515Q259 -526 299 -526Q387 -526 455 -473.5Q523 -421 546 -338Q546 -337 546 -337L549 -6Q549 -4 547 -4H380Q378 -4 378 -6V-335Q346 -370 299 -370Q252 -370 222 -337V-6Q222 -4 219 -4H50Q48 -4 48 -6V-768Q48 -770 50 -770Z"/>
</svg>