<svg xmlns="http://www.w3.org/2000/svg" viewBox="0 -1000 1000 1000">
	<path fill="#000000" d="M126 -588L18 -695L200 -877L308 -770ZM50 -522H202V-8H50Z"/>
	<path fill="#2200f5" d="M126 -578L18 -685L200 -867L308 -760ZM50 -512H202V2H50Z"/>
	<path fill="#00a0e1" d="M22 -685L126 -582L304 -760L200 -863ZM16 -687L198 -869Q199 -870 200 -870Q201 -870 202 -869L310 -762Q311 -761 311 -760Q311 -759 310 -758L128 -576Q127 -576 126 -576Q125 -576 124 -576L16 -683Q15 -684 15 -685Q15 -686 16 -687ZM200 -510H52V0H200ZM50 -514H202Q204 -514 204 -512V2Q204 4 202 4H50Q48 4 48 2V-512Q48 -514 50 -514Z"/>
</svg>