<svg xmlns="http://www.w3.org/2000/svg" viewBox="0 -1000 1000 1000">
	<path fill="#000000" d="M254 -712Q254 -712 254 -698Q254 -645 217 -607.5Q180 -570 126 -570Q72 -570 35 -607Q-2 -644 -2 -698V-712H74Q72 -704 72 -698Q72 -676 88 -660Q104 -644 126.5 -644Q149 -644 164.5 -660Q180 -676 180 -698Q180 -704 178 -712ZM50 -522H202V-8H50Z"/>
	<path fill="#2200f5" d="M254 -702Q254 -702 254 -688Q254 -635 217 -597.5Q180 -560 126 -560Q72 -560 35 -597Q-2 -634 -2 -688V-702H74Q72 -694 72 -688Q72 -666 88 -650Q104 -634 126.5 -634Q149 -634 164.5 -650Q180 -666 180 -688Q180 -694 178 -702ZM50 -512H202V2H50Z"/>
	<path fill="#00a0e1" d="M0 -699V-688Q0 -636 37 -599Q74 -562 126.5 -562Q179 -562 215.5 -599Q252 -636 252 -688V-699H181Q182 -693 182 -688Q182 -665 166 -648.5Q150 -632 126.5 -632Q103 -632 86.5 -648.5Q70 -665 70 -688Q70 -693 71 -699ZM257 -702V-688Q257 -634 219 -595.5Q181 -557 126 -557Q71 -557 33 -595Q-5 -633 -5 -688V-702Q-5 -704 -2 -704H74Q77 -704 77 -702Q77 -701 77 -701Q75 -693 75 -688Q75 -667 90 -652Q105 -637 126.5 -637Q148 -637 162.5 -652Q177 -667 177 -688Q177 -693 175 -701Q175 -701 175 -702Q175 -704 178 -704H254Q257 -704 257 -702ZM200 -510H52V0H200ZM50 -514H202Q204 -514 204 -512V2Q204 4 202 4H50Q48 4 48 2V-512Q48 -514 50 -514Z"/>
</svg>