<svg xmlns="http://www.w3.org/2000/svg" viewBox="0 -1000 1000 1000">
	<path fill="#000000" d="M61 -762H202V-327L447 -524L640 -522L379 -294L649 -7L463 -8L259 -236L202 -164V-8H61Z"/>
	<path fill="#2200f5" d="M61 -752H202V-317L447 -514L640 -512L379 -284L649 3L463 2L259 -226L202 -154V2H61Z"/>
	<path fill="#00a0e1" d="M200 -750H64V0H200V-154Q200 -155 200 -156L257 -228Q258 -228 259 -228Q260 -228 261 -228L464 0H643L377 -282Q376 -283 376 -284Q376 -285 377 -286L633 -510L448 -511L204 -315Q203 -314 202 -314Q200 -314 200 -317ZM61 -754H202Q204 -754 204 -752V-322L445 -516Q446 -517 447 -516L640 -514Q642 -514 642 -512Q642 -511 642 -510L383 -284L651 1Q652 2 652 3Q652 6 649 6L463 4Q462 4 461 4L259 -222L204 -153V2Q204 4 202 4H61Q58 4 58 2V-752Q58 -754 61 -754Z"/>
</svg>