<svg xmlns="http://www.w3.org/2000/svg" viewBox="0 -1000 1000 1000">
	<path fill="#000000" d="M369 -16Q335 -7 298 -7Q211 -7 144 -59Q77 -111 53 -194L50 -771H217V-195Q249 -158 298 -158Q338 -158 369 -184Z"/>
	<path fill="#2200f5" d="M369 -6Q335 3 298 3Q211 3 144 -49Q77 -101 53 -184L50 -761H217V-185Q249 -148 298 -148Q338 -148 369 -174Z"/>
	<path fill="#00a0e1" d="M298 0Q334 0 366 -8V-169Q336 -146 298 -146Q248 -146 215 -183Q214 -184 214 -185V-758H53L55 -184Q79 -102 145.5 -51Q212 0 298 0ZM298 6Q210 6 142.5 -47Q75 -100 51 -183Q51 -184 51 -184L48 -761Q48 -764 50 -764H217Q220 -764 220 -761V-186Q251 -150 298 -150Q337 -150 367 -176Q368 -176 369 -176Q372 -176 372 -174V-6Q372 -4 370 -4Q335 5 298 6Z"/>
</svg>