<svg xmlns="http://www.w3.org/2000/svg" viewBox="0 -1000 1000 1000">
	<path fill="#000000" d="M50 -532H219V-522Q258 -534 299 -534Q389 -534 458 -478L546 -522Q585 -534 626 -534Q713 -534 780 -482Q847 -430 871 -347L874 -16H707V-346Q675 -383 626 -383Q578 -383 546 -348V-126L547 -16H546H380H377L380 -333V-346Q348 -383 299 -383Q251 -383 219 -348V-16H50Z"/>
	<path fill="#2200f5" d="M50 -522H219V-512Q258 -524 299 -524Q389 -524 458 -468L546 -512Q585 -524 626 -524Q713 -524 780 -472Q847 -420 871 -337L874 -6H707V-336Q675 -373 626 -373Q578 -373 546 -338V-116L547 -6H546H380H377L380 -323V-336Q348 -373 299 -373Q251 -373 219 -338V-6H50Z"/>
	<path fill="#00a0e1" d="M216 -520H52V-8H216V-338Q216 -339 217 -340Q250 -376 299 -376Q349 -376 382 -338Q382 -337 382 -336V-323L380 -8H544V-116V-338Q544 -339 544 -340Q577 -376 626 -376Q676 -376 709 -338Q710 -337 710 -336V-8H871L869 -337Q845 -419 778.5 -470.5Q712 -522 626 -522Q585 -522 547 -510L460 -466Q459 -465 458 -465Q458 -465 457 -466Q389 -522 299 -522Q258 -522 220 -510Q219 -510 219 -510Q216 -510 216 -512ZM50 -524H219Q222 -524 222 -522V-515Q259 -526 299 -526Q389 -526 459 -471L545 -514Q585 -526 626 -526Q714 -526 782 -473.5Q850 -421 873 -338Q873 -337 873 -337L876 -6Q876 -4 874 -4H707Q704 -4 704 -6V-335Q673 -370 626 -370Q579 -370 548 -337Q548 -227 548 -116L549 -6Q549 -4 547 -4H377Q374 -4 374 -6L378 -323V-335Q346 -370 299 -370Q252 -370 222 -337V-6Q222 -4 219 -4H50Q48 -4 48 -6V-522Q48 -524 50 -524Z"/>
</svg>