<svg xmlns="http://www.w3.org/2000/svg" viewBox="0 -1000 1000 1000">
	<path fill="#000000" d="M198 -762H274L302 -654L322 -762H398L346 -594H345H270H269ZM50 -532H219V-522Q258 -534 299 -534Q386 -534 453 -482Q520 -430 544 -347L547 -16H380V-346Q348 -383 299 -383Q251 -383 219 -348V-16H50Z"/>
	<path fill="#2200f5" d="M198 -752H274L302 -644L322 -752H398L346 -584H345H270H269ZM50 -522H219V-512Q258 -524 299 -524Q386 -524 453 -472Q520 -420 544 -337L547 -6H380V-336Q348 -373 299 -373Q251 -373 219 -338V-6H50Z"/>
	<path fill="#00a0e1" d="M300 -643L272 -750H202L271 -586H344L395 -750H324L304 -644Q304 -642 302 -642Q300 -642 300 -643ZM198 -754H274Q276 -754 276 -753L302 -656L320 -752Q320 -754 322 -754H398Q400 -754 400 -752Q400 -752 400 -751L348 -583Q348 -582 346 -582H269Q267 -582 267 -583L196 -751Q196 -751 196 -752Q196 -754 198 -754ZM216 -520H52V-8H216V-338Q216 -339 217 -340Q250 -376 299 -376Q349 -376 382 -338Q382 -337 382 -336V-8H544L542 -337Q518 -419 451.5 -470.5Q385 -522 299 -522Q258 -522 220 -510Q219 -510 219 -510Q216 -510 216 -512ZM50 -524H219Q222 -524 222 -522V-515Q259 -526 299 -526Q387 -526 455 -473.5Q523 -421 546 -338Q546 -337 546 -337L550 -6Q550 -4 547 -4H380Q378 -4 378 -6V-335Q346 -370 299 -370Q252 -370 222 -337V-6Q222 -4 219 -4H50Q48 -4 48 -6V-522Q48 -524 50 -524Z"/>
</svg>