<svg xmlns="http://www.w3.org/2000/svg" viewBox="0 -1000 1000 1000">
	<path fill="#000000" d="M437 -712Q437 -712 437 -698Q437 -645 400 -607.5Q363 -570 309 -570Q255 -570 218 -607Q181 -644 181 -698V-712H257Q255 -704 255 -698Q255 -676 271 -660Q287 -644 309.5 -644Q332 -644 347.5 -660Q363 -676 363 -698Q363 -704 361 -712ZM309 -13Q308 -13 308 -13Q306 -13 304 -13Q296 -13 290 -14Q189 -20 119.5 -94Q50 -168 50 -270Q50 -372 119.5 -446.5Q189 -521 290 -527Q296 -528 304 -528Q306 -528 308 -528Q308 -528 309 -528Q310 -528 312 -528Q419 -528 494.5 -452.5Q570 -377 570 -270Q570 -163 494.5 -88Q419 -13 312 -13Q310 -13 309 -13ZM310 -377Q297 -377 286 -374V-375Q249 -367 225 -338Q201 -309 201 -270Q201 -232 225 -203Q249 -174 286 -166V-167Q297 -164 310 -164Q322 -164 334 -167V-166Q371 -174 395 -203Q419 -232 419 -270Q419 -309 395 -338Q371 -367 334 -375V-374Q322 -377 310 -377Z"/>
	<path fill="#2200f5" d="M437 -702Q437 -702 437 -688Q437 -635 400 -597.5Q363 -560 309 -560Q255 -560 218 -597Q181 -634 181 -688V-702H257Q255 -694 255 -688Q255 -666 271 -650Q287 -634 309.5 -634Q332 -634 347.5 -650Q363 -666 363 -688Q363 -694 361 -702ZM309 -3Q308 -3 308 -3Q306 -3 304 -3Q296 -3 290 -4Q189 -10 119.5 -84Q50 -158 50 -260Q50 -362 119.5 -436.5Q189 -511 290 -517Q296 -518 304 -518Q306 -518 308 -518Q308 -518 309 -518Q310 -518 312 -518Q419 -518 494.5 -442.5Q570 -367 570 -260Q570 -153 494.5 -78Q419 -3 312 -3Q310 -3 309 -3ZM310 -367Q297 -367 286 -364V-365Q249 -357 225 -328Q201 -299 201 -260Q201 -222 225 -193Q249 -164 286 -156V-157Q297 -154 310 -154Q322 -154 334 -157V-156Q371 -164 395 -193Q419 -222 419 -260Q419 -299 395 -328Q371 -357 334 -365V-364Q322 -367 310 -367Z"/>
	<path fill="#00a0e1" d="M183 -699V-688Q183 -636 220 -599Q257 -562 309.5 -562Q362 -562 398.5 -599Q435 -636 435 -688V-699H364Q365 -693 365 -688Q365 -665 349 -648.5Q333 -632 309.5 -632Q286 -632 269.5 -648.5Q253 -665 253 -688Q253 -693 254 -699ZM440 -702V-688Q440 -634 402 -595.5Q364 -557 309 -557Q254 -557 216 -595Q178 -633 178 -688V-702Q178 -704 181 -704H257Q260 -704 260 -702Q260 -701 260 -701Q258 -693 258 -688Q258 -667 273 -652Q288 -637 309.5 -637Q331 -637 345.5 -652Q360 -667 360 -688Q360 -693 358 -701Q358 -701 358 -702Q358 -704 361 -704H437Q440 -704 440 -702ZM568 -260Q568 -366 493 -441Q418 -516 312 -516H308Q298 -516 290 -515Q190 -508 121 -434.5Q52 -361 52 -260Q52 -159 121 -86Q190 -13 290 -6Q298 -6 308 -6H312Q418 -6 493 -80Q568 -154 568 -260ZM48 -260Q48 -363 118 -438Q188 -513 290 -520Q297 -520 308 -520H312Q420 -520 496 -444Q572 -368 572 -260Q572 -152 496 -76.5Q420 -1 312 -1H308Q297 -1 290 -1Q188 -8 118 -82.5Q48 -157 48 -260ZM286 -362Q285 -362 285 -362Q249 -354 226.5 -326Q204 -298 204 -260Q204 -223 226.5 -195Q249 -167 285 -159Q285 -160 286 -160Q286 -160 287 -159Q297 -157 310 -157Q322 -157 333 -160Q334 -160 334 -160Q335 -160 336 -159Q371 -167 393.5 -195Q416 -223 416 -260Q416 -298 393.5 -326Q371 -354 336 -362Q335 -361 334 -361Q334 -361 333 -361Q322 -364 310 -364Q297 -364 287 -362Q286 -362 286 -362ZM334 -367Q372 -360 397 -330Q422 -300 422 -260Q422 -221 397 -191Q372 -161 334 -154Q333 -154 332 -154Q321 -152 310 -152Q298 -152 287 -154Q287 -154 286 -154Q248 -161 223 -191Q198 -221 198 -260Q198 -300 223 -330Q248 -360 286 -367Q287 -367 287 -367Q298 -369 310 -369Q321 -369 332 -367Q333 -367 334 -367Z"/>
</svg>