<svg xmlns="http://www.w3.org/2000/svg" viewBox="0 -1000 1000 1000">
	<path fill="#000000" d="M200 -594L271 -762H272H347H348L400 -594H324L304 -702L276 -594ZM548 -12H379V-22Q340 -10 299 -10Q212 -10 145 -62Q78 -114 54 -197L51 -528H218V-198Q250 -161 299 -161Q347 -161 379 -196V-528H548Z"/>
	<path fill="#2200f5" d="M200 -584L271 -752H272H347H348L400 -584H324L304 -692L276 -584ZM548 -2H379V-12Q340 0 299 0Q212 0 145 -52Q78 -104 54 -187L51 -518H218V-188Q250 -151 299 -151Q347 -151 379 -186V-518H548Z"/>
	<path fill="#00a0e1" d="M306 -692L327 -587H397L346 -749H273L203 -587H274L301 -692Q302 -694 304 -694Q306 -694 306 -692ZM271 -754H348Q349 -754 350 -752L403 -585Q403 -585 403 -584Q403 -582 400 -582H324Q322 -582 322 -584L303 -680L278 -584Q277 -582 276 -582H200Q197 -582 197 -584Q197 -585 197 -585L269 -752Q269 -754 271 -754ZM382 -4H546V-516H382V-186Q382 -185 381 -184Q348 -148 299 -148Q249 -148 216 -186Q216 -187 216 -188V-516H54L56 -187Q80 -105 146.5 -53.5Q213 -2 299 -2Q340 -2 378 -14Q379 -14 379 -14Q382 -14 382 -12ZM548 0H379Q376 0 376 -2V-9Q339 2 299 2Q211 2 143 -50.5Q75 -103 52 -186Q52 -187 52 -187L48 -518Q48 -520 51 -520H218Q220 -520 220 -518V-189Q252 -154 299 -154Q346 -154 376 -187V-518Q376 -520 379 -520H548Q550 -520 550 -518V-2Q550 0 548 0Z"/>
</svg>