<svg xmlns="http://www.w3.org/2000/svg" viewBox="0 -1000 1000 1000">
	<path fill="#000000" d="M299 -594L117 -776L225 -883L407 -701ZM548 -12H379V-22Q340 -10 299 -10Q212 -10 145 -62Q78 -114 54 -197L51 -528H218V-198Q250 -161 299 -161Q347 -161 379 -196V-528H548Z"/>
	<path fill="#2200f5" d="M299 -584L117 -766L225 -873L407 -691ZM548 -2H379V-12Q340 0 299 0Q212 0 145 -52Q78 -104 54 -187L51 -518H218V-188Q250 -151 299 -151Q347 -151 379 -186V-518H548Z"/>
	<path fill="#00a0e1" d="M121 -766L299 -588L403 -691L225 -869ZM115 -768L223 -875Q224 -876 225 -876Q226 -876 227 -875L409 -693Q410 -692 410 -691Q410 -690 409 -689L301 -582Q300 -582 299 -582Q298 -582 297 -582L115 -764Q114 -765 114 -766Q114 -767 115 -768ZM382 -4H546V-516H382V-186Q382 -185 381 -184Q348 -148 299 -148Q249 -148 216 -186Q216 -187 216 -188V-516H54L56 -187Q80 -105 146.5 -53.5Q213 -2 299 -2Q340 -2 378 -14Q379 -14 379 -14Q382 -14 382 -12ZM548 0H379Q376 0 376 -2V-9Q339 2 299 2Q211 2 143 -50.5Q75 -103 52 -186Q52 -187 52 -187L48 -518Q48 -520 51 -520H218Q220 -520 220 -518V-189Q252 -154 299 -154Q346 -154 376 -187V-518Q376 -520 379 -520H548Q550 -520 550 -518V-2Q550 0 548 0Z"/>
</svg>