<svg xmlns="http://www.w3.org/2000/svg" viewBox="0 -1000 1000 1000">
	<path fill="#000000" d="M550 248Q550 248 537 248Q483 248 445.5 210.5Q408 173 408 120Q408 66 445.5 28.5Q483 -9 537 -9H550V68Q542 66 537 66Q515 66 499 82Q483 98 483 120Q483 142 498.5 157.5Q514 173 537 173Q542 173 550 171ZM548 -3H379V-13Q340 -1 299 -1Q212 -1 145 -53Q78 -105 54 -188L51 -519H218V-189Q250 -152 299 -152Q347 -152 379 -187V-519H548Z"/>
	<path fill="#2200f5" d="M550 258Q550 258 537 258Q483 258 445.5 220.5Q408 183 408 130Q408 76 445.5 38.5Q483 1 537 1H550V78Q542 76 537 76Q515 76 499 92Q483 108 483 130Q483 152 498.5 167.5Q514 183 537 183Q542 183 550 181ZM548 7H379V-3Q340 9 299 9Q212 9 145 -43Q78 -95 54 -178L51 -509H218V-179Q250 -142 299 -142Q347 -142 379 -177V-509H548Z"/>
	<path fill="#00a0e1" d="M547 4H537Q484 4 447.5 40.5Q411 77 411 130Q411 182 447.5 219Q484 256 537 256H547V184Q541 186 537 186Q513 186 497 169.5Q481 153 481 129.5Q481 106 497 90Q513 74 537 74Q541 74 547 75ZM550 260H537Q482 260 443.5 222Q405 184 405 130Q405 75 443.5 36.5Q482 -2 537 -2H550Q553 -2 553 1V78Q553 80 550 80Q550 80 549 80Q542 78 537 78Q516 78 500.5 93.5Q485 109 485 130Q485 151 500 165.5Q515 180 537 180Q542 180 549 179Q550 178 550 178Q553 178 553 181V258Q553 260 550 260ZM382 5H546V-507H382V-177Q382 -176 381 -175Q348 -139 299 -139Q249 -139 216 -177Q216 -178 216 -179V-507H54L56 -178Q80 -96 146.5 -44.5Q213 7 299 7Q340 7 378 -5Q379 -5 379 -5Q382 -5 382 -3ZM548 9H379Q376 9 376 7V0Q339 11 299 11Q211 11 143 -41.5Q75 -94 52 -177Q52 -178 52 -178L48 -509Q48 -511 51 -511H218Q220 -511 220 -509V-180Q252 -145 299 -145Q346 -145 376 -178V-509Q376 -511 379 -511H548Q550 -511 550 -509V7Q550 9 548 9Z"/>
</svg>