<svg xmlns="http://www.w3.org/2000/svg" viewBox="0 -1000 1000 1000">
	<path fill="#000000" d="M425 -711V-635Q424 -633 416.5 -624Q409 -615 393 -604.5Q377 -594 361 -594H311Q295 -594 272.5 -608Q250 -622 234 -622Q223 -622 208 -615Q193 -608 184 -601L175 -594V-670Q207 -698 232 -698Q249 -698 272.5 -684.5Q296 -671 312 -671Q335 -671 357 -671Q372 -671 389 -681Q406 -691 415 -701ZM548 -12H379V-22Q340 -10 299 -10Q212 -10 145 -62Q78 -114 54 -197L51 -528H218V-198Q250 -161 299 -161Q347 -161 379 -196V-528H548Z"/>
	<path fill="#2200f5" d="M425 -701V-625Q424 -623 416.5 -614Q409 -605 393 -594.5Q377 -584 361 -584H311Q295 -584 272.5 -598Q250 -612 234 -612Q223 -612 208 -605Q193 -598 184 -591L175 -584V-660Q207 -688 232 -688Q249 -688 272.5 -674.5Q296 -661 312 -661Q335 -661 357 -661Q372 -661 389 -671Q406 -681 415 -691ZM548 -2H379V-12Q340 0 299 0Q212 0 145 -52Q78 -104 54 -187L51 -518H218V-188Q250 -151 299 -151Q347 -151 379 -186V-518H548Z"/>
	<path fill="#00a0e1" d="M312 -658Q295 -658 271.5 -672Q248 -686 232 -686Q210 -686 178 -659V-589Q211 -615 234 -615Q251 -615 273 -601Q295 -587 311 -587H361Q380 -587 396.5 -600Q413 -613 422 -625V-694Q388 -658 357 -658Q357 -658 312 -658ZM232 -691Q249 -691 272.5 -677Q296 -663 312 -663Q335 -663 357 -663Q371 -663 388.5 -674Q406 -685 412.5 -691.5Q419 -698 423 -702Q424 -703 425 -703Q427 -703 427 -701V-625Q427 -622 419 -612.5Q411 -603 394.5 -592.5Q378 -582 361 -582H311Q294 -582 272 -596Q250 -610 234 -610Q224 -610 209.5 -603Q195 -596 186 -589L177 -582Q176 -582 175 -582Q173 -582 173 -584V-660Q173 -661 174 -662Q206 -691 232 -691ZM382 -4H546V-516H382V-186Q382 -185 381 -184Q348 -148 299 -148Q249 -148 216 -186Q216 -187 216 -188V-516H54L56 -187Q80 -105 146.5 -53.5Q213 -2 299 -2Q340 -2 378 -14Q379 -14 379 -14Q382 -14 382 -12ZM548 0H379Q376 0 376 -2V-9Q339 2 299 2Q211 2 143 -50.5Q75 -103 52 -186Q52 -187 52 -187L48 -518Q48 -520 51 -520H218Q220 -520 220 -518V-189Q252 -154 299 -154Q346 -154 376 -187V-518Q376 -520 379 -520H548Q550 -520 550 -518V-2Q550 0 548 0Z"/>
</svg>