<svg xmlns="http://www.w3.org/2000/svg" viewBox="0 -1000 1000 1000">
	<path fill="#000000" d="M50 -521H202L326 -154L450 -521H602L402 -10H250Z"/>
	<path fill="#2200f5" d="M50 -511H202L326 -144L450 -511H602L402 0H250Z"/>
	<path fill="#00a0e1" d="M324 -143L200 -508H54L252 -2H400L598 -508H452L328 -143Q328 -142 326 -142Q324 -142 324 -143ZM50 -514H202Q204 -514 204 -512L326 -152L448 -512Q448 -514 450 -514H602Q604 -514 604 -511Q604 -511 604 -510L404 1Q404 2 402 2H250Q248 2 248 1L48 -510Q48 -511 48 -511Q48 -514 50 -514Z"/>
</svg>