<svg xmlns="http://www.w3.org/2000/svg" viewBox="0 -1000 1000 1000">
	<path fill="#000000" d="M522 -588L414 -695L596 -877L704 -770ZM446 -521H598L718 -154L842 -521H994L794 -10H646L522 -327L398 -10H250L50 -521H198L322 -154Z"/>
	<path fill="#2200f5" d="M522 -578L414 -685L596 -867L704 -760ZM446 -511H598L718 -144L842 -511H994L794 0H646L522 -317L398 0H250L50 -511H198L322 -144Z"/>
	<path fill="#00a0e1" d="M418 -685L522 -582L700 -760L596 -863ZM412 -687L594 -869Q595 -870 596 -870Q597 -870 598 -869L706 -762Q707 -761 707 -760Q707 -759 706 -758L524 -576Q523 -576 522 -576Q521 -576 520 -576L412 -683Q411 -684 411 -685Q411 -686 412 -687ZM320 -143L196 -508H54L252 -2H396L520 -318Q520 -319 522 -319Q524 -319 524 -318L648 -2H792L990 -508H844L720 -143Q720 -142 718 -142Q716 -142 716 -143L596 -508H448L324 -143Q324 -142 322 -142Q320 -142 320 -143ZM446 -514H598Q600 -514 600 -512L718 -152L840 -512Q840 -514 842 -514H994Q996 -514 996 -511Q996 -511 996 -510L796 1Q796 2 794 2H646Q644 2 644 1L522 -310L400 1Q400 3 398 2H250Q248 2 248 1L48 -510Q48 -511 48 -511Q48 -514 50 -514H198Q200 -514 200 -512L322 -152L444 -512Q444 -514 446 -514Z"/>
</svg>