<svg xmlns="http://www.w3.org/2000/svg" viewBox="0 -1000 1000 1000">
	<path fill="#000000" d="M422 -588L493 -756H494H569H570L622 -588H546L526 -696L498 -588ZM446 -521H598L718 -154L842 -521H994L794 -10H646L522 -327L398 -10H250L50 -521H198L322 -154Z"/>
	<path fill="#2200f5" d="M422 -578L493 -746H494H569H570L622 -578H546L526 -686L498 -578ZM446 -511H598L718 -144L842 -511H994L794 0H646L522 -317L398 0H250L50 -511H198L322 -144Z"/>
	<path fill="#00a0e1" d="M528 -686L549 -581H619L568 -743H495L425 -581H496L523 -686Q524 -688 526 -688Q528 -688 528 -686ZM493 -748H570Q571 -748 572 -746L625 -579Q625 -579 625 -578Q625 -576 622 -576H546Q544 -576 544 -578L525 -674L500 -578Q499 -576 498 -576H422Q419 -576 419 -578Q419 -579 419 -579L491 -746Q491 -748 493 -748ZM320 -143L196 -508H54L252 -2H396L520 -318Q520 -319 522 -319Q524 -319 524 -318L648 -2H792L990 -508H844L720 -143Q720 -142 718 -142Q716 -142 716 -143L596 -508H448L324 -143Q324 -142 322 -142Q320 -142 320 -143ZM446 -514H598Q600 -514 600 -512L718 -152L840 -512Q840 -514 842 -514H994Q996 -514 996 -511Q996 -511 996 -510L796 1Q796 2 794 2H646Q644 2 644 1L522 -310L400 1Q400 3 398 2H250Q248 2 248 1L48 -510Q48 -511 48 -511Q48 -514 50 -514H198Q200 -514 200 -512L322 -152L444 -512Q444 -514 446 -514Z"/>
</svg>