<svg xmlns="http://www.w3.org/2000/svg" viewBox="0 -1000 1000 1000">
	<path fill="#000000" d="M50 -523L236 -521L365 -370L498 -522L673 -521L453 -268L674 -10L499 -8L362 -165L229 -12L51 -9L274 -266Z"/>
	<path fill="#2200f5" d="M50 -513L236 -511L365 -360L498 -512L673 -511L453 -258L674 0L499 2L362 -155L229 -2L51 1L274 -256Z"/>
	<path fill="#00a0e1" d="M276 -254L57 -2L228 -4L360 -156Q361 -157 362 -157Q363 -157 364 -156L500 -1L669 -2L451 -257Q450 -257 450 -258Q450 -259 451 -260L668 -509H499L367 -358Q367 -357 365.5 -357Q364 -357 364 -358L235 -509L56 -510L276 -257Q277 -256 277 -255.5Q277 -255 276 -254ZM676 -511Q676 -510 675 -509L456 -258L676 -2Q676 -1 676 0Q676 2 674 2Q499 4 499 4Q498 4 497 4L362 -151L231 0Q230 0 229 0Q51 3 51 4Q48 4 48 1Q48 0 49 -1L271 -255L48 -511Q48 -512 48 -513Q48 -516 50 -515L236 -513Q237 -513 238 -513L366 -364L496 -514Q497 -514 498 -514L673 -513Q676 -513 676 -511Z"/>
</svg>