<svg xmlns="http://www.w3.org/2000/svg" viewBox="0 -1000 1000 1000">
	<path fill="#000000" d="M176 -756H252L280 -648L300 -756H376L324 -588H323H248H247ZM50 -20V-172L293 -376H50V-528H503V-376L301 -172H503V-20Z"/>
	<path fill="#2200f5" d="M176 -746H252L280 -638L300 -746H376L324 -578H323H248H247ZM50 -10V-162L293 -366H50V-518H503V-366L301 -162H503V-10Z"/>
	<path fill="#00a0e1" d="M278 -637L250 -744H180L249 -580H322L373 -744H302L282 -638Q282 -636 280 -636Q278 -636 278 -637ZM176 -748H252Q254 -748 254 -747L280 -650L298 -746Q298 -748 300 -748H376Q378 -748 378 -746Q378 -746 378 -745L326 -577Q326 -576 324 -576H247Q245 -576 245 -577L174 -745Q174 -745 174 -746Q174 -748 176 -748ZM52 -12H500V-160H301Q298 -160 298 -162Q298 -163 299 -164L500 -367V-516H52V-368H293Q296 -368 296 -366Q296 -365 295 -364L52 -161ZM48 -10V-162Q48 -163 48 -164L286 -364H50Q48 -364 48 -366V-518Q48 -520 50 -520H503Q506 -520 506 -518V-366Q506 -365 505 -364L307 -164H503Q506 -164 506 -162V-10Q506 -8 503 -8H50Q48 -8 48 -10Z"/>
</svg>