<svg xmlns="http://www.w3.org/2000/svg" viewBox="0 -1000 1000 1000">
	<path fill="#000000" d="M200 -588V-730H352V-588ZM50 -20V-172L293 -376H50V-528H503V-376L301 -172H503V-20Z"/>
	<path fill="#2200f5" d="M200 -578V-720H352V-578ZM50 -10V-162L293 -366H50V-518H503V-366L301 -162H503V-10Z"/>
	<path fill="#00a0e1" d="M202 -718V-580H350V-718ZM198 -578V-720Q198 -722 200 -722H352Q354 -722 354 -720V-578Q354 -576 352 -576H200Q198 -576 198 -578ZM52 -12H500V-160H301Q298 -160 298 -162Q298 -163 299 -164L500 -367V-516H52V-368H293Q296 -368 296 -366Q296 -365 295 -364L52 -161ZM48 -10V-162Q48 -163 48 -164L286 -364H50Q48 -364 48 -366V-518Q48 -520 50 -520H503Q506 -520 506 -518V-366Q506 -365 505 -364L307 -164H503Q506 -164 506 -162V-10Q506 -8 503 -8H50Q48 -8 48 -10Z"/>
</svg>